<svg id="main_graphic" data-name="main graphic" xmlns="http://www.w3.org/2000/svg" viewBox="0 0 410 190"><title>INFOGRAPHIC-04</title><rect x="7.29" y="147.78" width="397.79" height="29.13" rx="12.17" ry="12.17" fill="#f1f2f2"/><path d="M359,125.75c0.19,2.09.32,4.18,0.48,6.26l0.41,6.26-0.89-.89c3.36-.23,6.73-0.39,10.09-0.57s6.73-.35,10.09-0.48l10.09-.42,10.09-.31-2.67,2.67-0.32-11.15L396.14,116,396,104.82l-0.1-11.15q0-11.15,0-22.31L396,60.21l0.15-11.15v0.35l0-.36a2.23,2.23,0,0,0-.09-0.48c-0.06-.32-0.15-0.66-0.22-1-0.18-.67-0.37-1.34-0.61-2a28.51,28.51,0,0,0-1.69-4,31.85,31.85,0,0,0-2.25-3.72,34.32,34.32,0,0,0-2.7-3.46,40.6,40.6,0,0,0-3.13-3.14,44.26,44.26,0,0,0-3.5-2.79c-0.59-.46-1.24-0.85-1.87-1.27l-1-.62-1-.57c-1.28-.8-2.65-1.48-4-2.19A34.51,34.51,0,0,0,369.87,22c-0.72-.28-1.43-0.57-2.16-0.83l-2.2-.73c-1.46-.52-3-0.9-4.46-1.35s-3-.76-4.55-1.1-3.07-.62-4.62-0.89-3.1-.54-4.67-0.73l-4.71-.58-4.74-.46,4.76-.29C344.11,15,345.7,15,347.3,15s3.19,0.09,4.8.13,3.19,0.25,4.8.37,3.19,0.4,4.79.63a46.11,46.11,0,0,1,4.77.92l2.37,0.58c0.79,0.21,1.56.46,2.35,0.69,1.57,0.43,3.1,1,4.65,1.58a47.34,47.34,0,0,1,4.53,2c0.75,0.35,1.48.74,2.2,1.16s1.46,0.8,2.15,1.28a49.43,49.43,0,0,1,4.11,2.89,46.06,46.06,0,0,1,3.79,3.36A40.08,40.08,0,0,1,396,34.4a37.19,37.19,0,0,1,2.86,4.28,34.74,34.74,0,0,1,2.25,4.69,25.51,25.51,0,0,1,.85,2.51c0.12,0.43.24,0.86,0.34,1.32l0.15,0.69a7.25,7.25,0,0,1,.13.81,2.07,2.07,0,0,1,0,.23v0.12l0.15,11.15,0.09,11.15q0.06,11.15,0,22.31l-0.1,11.15L402.56,116l-0.22,11.15L402,138.28v0.16a2.59,2.59,0,0,1-2.66,2.51h0l-10.09-.31-10.09-.42c-3.36-.13-6.73-0.29-10.09-0.48s-6.73-.34-10.09-0.57h-0.12a0.83,0.83,0,0,1-.77-0.89h0L358.5,132C358.65,129.93,358.79,127.84,359,125.75Z" fill="#f1f2f2"/><g style="isolation:isolate"><text transform="translate(132.32 22.74)" font-size="21.25" fill="#231f20" font-family="Arial" font-weight="700" style="isolation:isolate">G</text><text transform="translate(146.05 22.74)" font-size="21.25" fill="#231f20" font-family="Arial" font-weight="700" style="isolation:isolate">R</text><text transform="translate(157.54 22.74)" font-size="21.25" fill="#231f20" font-family="Arial" font-weight="700" style="isolation:isolate">OOMING SUPPLIES</text></g><g style="isolation:isolate"><text transform="translate(113.34 168.94)" font-size="22.95" fill="#231f20" font-family="Arial" font-weight="700" style="isolation:isolate">5% </text><text transform="translate(148.15 168.94)" font-size="15.3" fill="#231f20" font-family="Arial" font-weight="700" style="isolation:isolate">of annual budget</text></g><g style="isolation:isolate"><text transform="translate(80.6 38.61)" font-size="11" fill="#231f20" font-family="Arial" style="isolation:isolate">Brush, nail clipper</text><text transform="translate(161.92 38.61)" font-size="11" fill="#231f20" font-family="Arial" style="isolation:isolate">s</text><text transform="translate(166.15 38.61)" font-size="11" fill="#231f20" font-family="Arial" style="isolation:isolate">, shampo</text><text transform="translate(208 38.61)" font-size="11" fill="#231f20" font-family="Arial" style="isolation:isolate">o</text><text transform="translate(213.77 38.61)" font-size="11" fill="#231f20" font-family="Arial" style="isolation:isolate">, flea </text><text transform="translate(237.28 38.61)" font-size="11" fill="#231f20" font-family="Arial" style="isolation:isolate">c</text><text transform="translate(242.14 38.61)" font-size="11" fill="#231f20" font-family="Arial" style="isolation:isolate">olla</text><text transform="translate(258.67 38.61)" font-size="11" fill="#231f20" font-family="Arial" style="isolation:isolate">r</text><text transform="translate(261.68 38.61)" font-size="11" fill="#231f20" font-family="Arial" style="isolation:isolate">, flea p</text><text transform="translate(291.45 38.61)" font-size="11" fill="#231f20" font-family="Arial" style="isolation:isolate">o</text><text transform="translate(297.41 38.61)" font-size="11" fill="#231f20" font-family="Arial" style="isolation:isolate">w</text><text transform="translate(305.4 38.61)" font-size="11" fill="#231f20" font-family="Arial" style="isolation:isolate">de</text><text transform="translate(317.11 38.61)" font-size="11" fill="#231f20" font-family="Arial" style="isolation:isolate">r</text><text transform="translate(320.13 38.61)" font-size="11" fill="#231f20" font-family="Arial" style="isolation:isolate">.</text></g><circle cx="366.88" cy="110.75" r="3.81" fill="#fff"/><circle cx="366.88" cy="105.42" r="3.81" fill="#fff"/><circle cx="364.13" cy="102.02" r="3.81" fill="#fff"/><circle cx="369.78" cy="100.41" r="3.81" fill="#fff"/><circle cx="361.52" cy="109.06" r="3.81" fill="#fff"/><circle cx="363.07" cy="113.2" r="3.81" fill="#fff"/><circle cx="358.13" cy="113.93" r="2.6" fill="#fff"/><circle cx="370.7" cy="107.5" r="2.6" fill="#fff"/><circle cx="370.7" cy="104.8" r="2.6" fill="#fff"/><circle cx="369.49" cy="110.1" r="2.6" fill="#fff"/><circle cx="370.7" cy="97.49" r="2.6" fill="#fff"/><circle cx="371.9" cy="95.38" r="2.6" fill="#fff"/><circle cx="366.95" cy="97.49" r="0.98" fill="#fff"/><circle cx="367.93" cy="95.86" r="0.98" fill="#fff"/><circle cx="365.49" cy="96.84" r="0.98" fill="#fff"/><circle cx="365.49" cy="98.21" r="0.98" fill="#fff"/><circle cx="349.9" cy="115.05" r="0.98" fill="#fff"/><circle cx="360.74" cy="104.32" r="0.98" fill="#fff"/><circle cx="361.72" cy="103.97" r="0.98" fill="#fff"/><circle cx="357.7" cy="103.34" r="0.98" fill="#fff"/><circle cx="357.7" cy="108.31" r="0.98" fill="#fff"/><circle cx="355.84" cy="105.83" r="0.98" fill="#fff"/><circle cx="354.2" cy="108.1" r="0.98" fill="#fff"/><circle cx="352.84" cy="104.32" r="0.98" fill="#fff"/><circle cx="353.22" cy="110.41" r="0.98" fill="#fff"/><circle cx="350.88" cy="112.87" r="0.98" fill="#fff"/><circle cx="350.47" cy="113.85" r="0.98" fill="#fff"/><circle cx="345.99" cy="115.46" r="0.98" fill="#fff"/><circle cx="351.86" cy="110.75" r="0.98" fill="#fff"/><circle cx="357.82" cy="105.83" r="0.98" fill="#fff"/><circle cx="356.2" cy="107.12" r="0.98" fill="#fff"/><circle cx="347.95" cy="115.16" r="0.98" fill="#fff"/><circle cx="360.73" cy="107.99" r="0.98" fill="#fff"/><circle cx="351.86" cy="114.95" r="0.98" fill="#fff"/><circle cx="353.22" cy="113.93" r="0.98" fill="#fff"/><circle cx="360.16" cy="106.11" r="0.98" fill="#fff"/><circle cx="355.53" cy="109.29" r="0.98" fill="#fff"/><circle cx="352.84" cy="112.73" r="0.98" fill="#fff"/><circle cx="353.57" cy="115.74" r="0.98" fill="#fff"/><circle cx="354.86" cy="110.63" r="0.98" fill="#fff"/><circle cx="368.09" cy="100.41" r="2.6" fill="#fff"/><circle cx="357.82" cy="110.41" r="2.6" fill="#fff"/><circle cx="355.49" cy="113.36" r="1.69" fill="#fff"/><path d="M212.74,85.9c0-16.73,8.51-30.29,19-30.29H361.43c6.74,0,12.25,4.86,12.25,10.8v40c0,5.94-5.51,10.8-12.25,10.8H232.21a12.5,12.5,0,0,1-11-6.1C216.1,105.65,212.74,96.4,212.74,85.9Z" fill="#fff" opacity="0.45" style="isolation:isolate"/><path d="M212.49,85.85c0,16.73,7.5,30.29,16.76,30.29S246,102.58,246,85.85s-7.5-30.29-16.76-30.29S212.49,69.13,212.49,85.85Zm9.62-8.29A4.43,4.43,0,1,1,217.68,82h0a4.43,4.43,0,0,1,4.43-4.42h0Zm11.65-8.21a4.43,4.43,0,1,1-4.43-4.43h0a4.43,4.43,0,0,1,4.42,4.43h0ZM240.66,82a4.43,4.43,0,1,1-4.43-4.43h0A4.43,4.43,0,0,1,240.66,82ZM236.3,99.24a4.43,4.43,0,1,1,4.43-4.43h0a4.43,4.43,0,0,1-4.43,4.43h0Zm-11.42,5.43a4.43,4.43,0,1,1,4.43,4.43h0A4.43,4.43,0,0,1,224.88,104.67Zm-7.14-9.86a4.43,4.43,0,1,1,4.43,4.43h0a4.43,4.43,0,0,1-4.42-4.43h0Z" fill="#f1f2f2"/><path d="M14.79,66.64H141.57a7.77,7.77,0,0,1,7.77,7.77h0a7.77,7.77,0,0,1-7.77,7.77H14.79A7.77,7.77,0,0,1,7,74.41H7A7.77,7.77,0,0,1,14.79,66.64Z" fill="#f1f2f2"/><rect x="6.82" y="115.61" width="142.51" height="17.05" rx="7.77" ry="7.77" fill="#f1f2f2"/><ellipse cx="36.98" cy="67.4" rx="21.99" ry="21.94" fill="#f1f2f2" stroke="#231f20" stroke-miterlimit="10" stroke-width="0.85"/><path d="M21.83,51.5s-2.66,26.94,8.48,36.9" fill="none" stroke="#231f20" stroke-miterlimit="10" stroke-width="0.85"/><path d="M18.16,55.89s-4,16.15,6.17,29.48" fill="none" stroke="#231f20" stroke-miterlimit="10" stroke-width="0.85"/><path d="M31.87,46.06a39,39,0,0,0-2.49,10.35c-1.08,9.27.4,22.53,14,32" fill="none" stroke="#231f20" stroke-miterlimit="10" stroke-width="0.85"/><path d="M54.47,54.1a28.79,28.79,0,0,1-25.36,6.11" fill="none" stroke="#231f20" stroke-miterlimit="10" stroke-width="0.85"/><path d="M52,51.33S39.63,60.57,29.58,55" fill="none" stroke="#231f20" stroke-miterlimit="10" stroke-width="0.85"/><path d="M30.16,51.33s10.29,4.11,17.75-3" fill="none" stroke="#231f20" stroke-miterlimit="10" stroke-width="0.85"/><path d="M31.32,47.6A9.5,9.5,0,0,0,41.74,46" fill="none" stroke="#231f20" stroke-miterlimit="10" stroke-width="0.85"/><path d="M37,61a6.81,6.81,0,0,1-7.4,5.15" fill="none" stroke="#231f20" stroke-miterlimit="10" stroke-width="0.85"/><path d="M40.76,60.55s-0.12,9.77-10.46,9.9" fill="none" stroke="#231f20" stroke-miterlimit="10" stroke-width="0.85"/><path d="M44.68,59.58s1.5,14.53-13,14.7" fill="none" stroke="#231f20" stroke-miterlimit="10" stroke-width="0.85"/><path d="M48.84,57.87s6.54,17.57-14,22.15" fill="none" stroke="#231f20" stroke-miterlimit="10" stroke-width="0.85"/><path d="M52.69,55.89S63.16,76.68,39.32,85.13" fill="none" stroke="#231f20" stroke-miterlimit="10" stroke-width="0.85"/><path d="M26.71,48s-5.85,23.29,8.83,41.31" fill="none" stroke="#231f20" stroke-miterlimit="10" stroke-width="0.85"/><ellipse cx="36.41" cy="119.05" rx="21.99" ry="21.94" fill="#f1f2f2" stroke="#231f20" stroke-miterlimit="10" stroke-width="0.85"/><path d="M21.26,103.15s-2.66,26.94,8.48,36.9" fill="none" stroke="#231f20" stroke-miterlimit="10" stroke-width="0.85"/><path d="M17.6,107.53s-4,16.15,6.17,29.48" fill="none" stroke="#231f20" stroke-miterlimit="10" stroke-width="0.85"/><path d="M31.31,97.7A39,39,0,0,0,28.82,108c-1.08,9.27.4,22.53,14,32" fill="none" stroke="#231f20" stroke-miterlimit="10" stroke-width="0.85"/><path d="M53.9,105.75a28.79,28.79,0,0,1-25.36,6.11" fill="none" stroke="#231f20" stroke-miterlimit="10" stroke-width="0.85"/><path d="M51.38,103S39.06,112.24,29,106.66" fill="none" stroke="#231f20" stroke-miterlimit="10" stroke-width="0.85"/><path d="M29.59,103s10.29,4.11,17.75-3" fill="none" stroke="#231f20" stroke-miterlimit="10" stroke-width="0.85"/><path d="M30.76,99.25a9.5,9.5,0,0,0,10.42-1.62" fill="none" stroke="#231f20" stroke-miterlimit="10" stroke-width="0.85"/><path d="M36.41,112.63a6.81,6.81,0,0,1-7.4,5.15" fill="none" stroke="#231f20" stroke-miterlimit="10" stroke-width="0.85"/><path d="M40.2,112.2s-0.12,9.77-10.46,9.9" fill="none" stroke="#231f20" stroke-miterlimit="10" stroke-width="0.85"/><path d="M44.11,111.23s1.5,14.53-13,14.7" fill="none" stroke="#231f20" stroke-miterlimit="10" stroke-width="0.85"/><path d="M48.27,109.52s6.54,17.57-14,22.15" fill="none" stroke="#231f20" stroke-miterlimit="10" stroke-width="0.85"/><path d="M52.13,107.53s10.47,20.79-13.37,29.24" fill="none" stroke="#231f20" stroke-miterlimit="10" stroke-width="0.85"/><path d="M26.14,99.64S20.3,122.93,35,141" fill="none" stroke="#231f20" stroke-miterlimit="10" stroke-width="0.85"/><text transform="translate(63.86 61.51)" font-size="19" fill="#f1f2f2" font-family="Arial" font-weight="700" style="isolation:isolate">$25</text><g style="isolation:isolate"><text transform="translate(63.36 77.61)" font-size="12.75" fill="#231f20" font-family="Arial" font-weight="700" style="isolation:isolate">annual </text><text transform="translate(102.54 77.61)" font-size="12.75" fill="#231f20" font-family="Arial" font-weight="700" style="isolation:isolate">c</text><text transform="translate(108.18 77.61)" font-size="12.75" fill="#231f20" font-family="Arial" font-weight="700" style="isolation:isolate">ost</text></g><text transform="translate(63.29 109.86)" font-size="19" fill="#f1f2f2" font-family="Arial" font-weight="700" style="isolation:isolate">$350</text><g style="isolation:isolate"><text transform="translate(63.36 128.24)" font-size="12.75" fill="#231f20" font-family="Arial" font-weight="700" style="isolation:isolate">li</text><text transform="translate(69.35 128.24)" font-size="12.75" fill="#231f20" font-family="Arial" font-weight="700" style="isolation:isolate">f</text><text transform="translate(72.91 128.24)" font-size="12.75" fill="#231f20" font-family="Arial" font-weight="700" style="isolation:isolate">etime </text><text transform="translate(106.23 128.24)" font-size="12.75" fill="#231f20" font-family="Arial" font-weight="700" style="isolation:isolate">c</text><text transform="translate(111.86 128.24)" font-size="12.75" fill="#231f20" font-family="Arial" font-weight="700" style="isolation:isolate">ost</text></g></svg>