<?xml version="1.0" encoding="utf-8"?>
<!-- Generator: Adobe Illustrator 19.2.1, SVG Export Plug-In . SVG Version: 6.00 Build 0)  -->
<svg version="1.1" id="main_graphic" xmlns="http://www.w3.org/2000/svg" xmlns:xlink="http://www.w3.org/1999/xlink" x="0px"
	 y="0px" width="410px" height="190px" viewBox="0 0 410 190" style="enable-background:new 0 0 410 190;" xml:space="preserve">
<style type="text/css">
	.st0{fill:#F1F2F2;}
	.st1{enable-background:new    ;}
	.st2{fill:#231F20;}
	.st3{fill:#FFFFFF;}
	.st4{opacity:0.45;fill:#FFFFFF;enable-background:new    ;}
	.st5{fill:#F1F2F2;stroke:#231F20;stroke-width:0.85;stroke-miterlimit:10;}
	.st6{fill:none;stroke:#231F20;stroke-width:0.85;stroke-miterlimit:10;}
</style>
<title>INFOGRAPHIC</title>
<path class="st0" d="M19.5,147.8h373.5c6.7,0,12.2,5.4,12.2,12.2v4.8c0,6.7-5.4,12.2-12.2,12.2H19.5c-6.7,0-12.2-5.4-12.2-12.2V160
	C7.3,153.2,12.7,147.8,19.5,147.8z"/>
<path class="st0" d="M359,125.8c0.2,2.1,0.3,4.2,0.5,6.3l0.4,6.3l-0.9-0.9c3.4-0.2,6.7-0.4,10.1-0.6s6.7-0.3,10.1-0.5l10.1-0.4
	l10.1-0.3l-2.7,2.7l-0.3-11.2l-0.2-11.1l-0.1-11.2l-0.1-11.2c0-7.4,0-14.9,0-22.3l0.1-11.1l0.2-11.1v0.4l0-0.4c0-0.1,0-0.3-0.1-0.5
	c-0.1-0.3-0.2-0.7-0.2-1c-0.2-0.7-0.4-1.3-0.6-2c-0.5-1.4-1-2.7-1.7-4c-0.7-1.3-1.4-2.5-2.2-3.7c-0.8-1.2-1.7-2.4-2.7-3.5
	c-1-1.1-2-2.2-3.1-3.1c-1.1-1-2.3-1.9-3.5-2.8c-0.6-0.5-1.2-0.9-1.9-1.3l-1-0.6l-1-0.6c-1.3-0.8-2.7-1.5-4-2.2s-2.8-1.3-4.2-1.8
	c-0.7-0.3-1.4-0.6-2.2-0.8l-2.2-0.7c-1.5-0.5-3-0.9-4.5-1.4s-3-0.8-4.5-1.1s-3.1-0.6-4.6-0.9s-3.1-0.5-4.7-0.7l-4.7-0.6l-4.7-0.5
	l4.8-0.3c1.6-0.1,3.2-0.1,4.8-0.1s3.2,0.1,4.8,0.1s3.2,0.2,4.8,0.4s3.2,0.4,4.8,0.6s3.2,0.5,4.8,0.9l2.4,0.6
	c0.8,0.2,1.6,0.5,2.3,0.7c1.6,0.4,3.1,1,4.7,1.6s3,1.2,4.5,2c0.8,0.4,1.5,0.7,2.2,1.2s1.5,0.8,2.2,1.3c1.4,0.9,2.8,1.9,4.1,2.9
	c1.3,1,2.6,2.2,3.8,3.4c1.2,1.2,2.3,2.5,3.4,3.8c1.1,1.4,2,2.8,2.9,4.3c0.9,1.5,1.6,3.1,2.2,4.7c0.3,0.8,0.6,1.6,0.8,2.5
	c0.1,0.4,0.2,0.9,0.3,1.3c0,0.2,0.1,0.5,0.2,0.7s0.1,0.4,0.1,0.8c0,0.1,0,0.2,0,0.2v0.1l0.2,11.1l0.1,11.1c0,7.4,0,14.9,0,22.3
	l-0.1,11.2l-0.2,11.2l-0.2,11.2l-0.3,11.1v0.2c0,1.4-1.2,2.5-2.7,2.5l0,0l-10.1-0.3l-10.1-0.4c-3.4-0.1-6.7-0.3-10.1-0.5
	s-6.7-0.3-10.1-0.6h-0.1c-0.5,0-0.8-0.4-0.8-0.9c0,0,0,0,0,0l0.4-6.3C358.7,129.9,358.8,127.8,359,125.8z"/>
<g class="st1">
	<path class="st2" d="M140.9,17.1v-2.6h6.6v6.1c-0.6,0.6-1.6,1.2-2.8,1.6c-1.2,0.5-2.5,0.7-3.7,0.7c-1.6,0-3-0.3-4.2-1
		c-1.2-0.7-2.1-1.6-2.7-2.9c-0.6-1.2-0.9-2.6-0.9-4.1c0-1.6,0.3-3,1-4.2c0.7-1.2,1.6-2.2,2.9-2.8c1-0.5,2.2-0.8,3.6-0.8
		c1.9,0,3.4,0.4,4.4,1.2c1.1,0.8,1.7,1.9,2,3.3l-3.1,0.6c-0.2-0.7-0.6-1.3-1.2-1.8c-0.6-0.4-1.3-0.6-2.2-0.6c-1.3,0-2.4,0.4-3.2,1.3
		s-1.2,2.1-1.2,3.8c0,1.8,0.4,3.2,1.2,4.1c0.8,0.9,1.9,1.4,3.2,1.4c0.6,0,1.3-0.1,1.9-0.4c0.6-0.3,1.2-0.6,1.7-0.9v-1.9H140.9z"/>
</g>
<g class="st1">
	<path class="st2" d="M147.6,22.7V7.5h6.5c1.6,0,2.8,0.1,3.5,0.4c0.7,0.3,1.3,0.8,1.8,1.5c0.4,0.7,0.7,1.5,0.7,2.4
		c0,1.1-0.3,2.1-1,2.8s-1.7,1.2-3,1.4c0.7,0.4,1.2,0.8,1.6,1.3c0.4,0.5,1,1.3,1.7,2.5l1.9,3h-3.7l-2.2-3.3c-0.8-1.2-1.3-1.9-1.6-2.2
		s-0.6-0.5-0.9-0.6c-0.3-0.1-0.8-0.2-1.5-0.2h-0.6v6.3H147.6z M150.7,14h2.3c1.5,0,2.4-0.1,2.8-0.2c0.4-0.1,0.7-0.3,0.9-0.6
		c0.2-0.3,0.3-0.7,0.3-1.1c0-0.5-0.1-0.9-0.4-1.2c-0.3-0.3-0.7-0.5-1.2-0.6c-0.2,0-1-0.1-2.2-0.1h-2.4V14z"/>
</g>
<g class="st1">
	<path class="st2" d="M158.5,15.2c0-1.5,0.2-2.9,0.7-3.9c0.3-0.8,0.8-1.5,1.4-2.1c0.6-0.6,1.3-1.1,2-1.4c0.9-0.4,2-0.6,3.3-0.6
		c2.2,0,4,0.7,5.4,2.1c1.3,1.4,2,3.3,2,5.8c0,2.5-0.7,4.4-2,5.8c-1.3,1.4-3.1,2.1-5.4,2.1c-2.3,0-4.1-0.7-5.4-2.1
		S158.5,17.6,158.5,15.2z M161.6,15.1c0,1.7,0.4,3,1.2,3.9s1.8,1.3,3,1.3c1.2,0,2.2-0.4,3-1.3s1.2-2.2,1.2-4c0-1.7-0.4-3-1.1-3.9
		s-1.8-1.3-3-1.3c-1.3,0-2.3,0.4-3.1,1.3C162,12.1,161.6,13.4,161.6,15.1z"/>
	<path class="st2" d="M175,15.2c0-1.5,0.2-2.9,0.7-3.9c0.3-0.8,0.8-1.5,1.4-2.1c0.6-0.6,1.3-1.1,2-1.4c0.9-0.4,2-0.6,3.3-0.6
		c2.2,0,4,0.7,5.4,2.1c1.3,1.4,2,3.3,2,5.8c0,2.5-0.7,4.4-2,5.8c-1.3,1.4-3.1,2.1-5.4,2.1c-2.3,0-4.1-0.7-5.4-2.1S175,17.6,175,15.2
		z M178.2,15.1c0,1.7,0.4,3,1.2,3.9s1.8,1.3,3,1.3c1.2,0,2.2-0.4,3-1.3s1.2-2.2,1.2-4c0-1.7-0.4-3-1.1-3.9s-1.8-1.3-3-1.3
		c-1.3,0-2.3,0.4-3.1,1.3C178.5,12.1,178.2,13.4,178.2,15.1z"/>
	<path class="st2" d="M192.1,22.7V7.5h4.6l2.8,10.4l2.7-10.4h4.6v15.2h-2.9v-12l-3,12h-3l-3-12v12H192.1z"/>
	<path class="st2" d="M209.8,22.7V7.5h3.1v15.2H209.8z"/>
	<path class="st2" d="M215.8,22.7V7.5h3l6.2,10.2V7.5h2.9v15.2h-3.1l-6.1-9.9v9.9H215.8z"/>
	<path class="st2" d="M238.2,17.1v-2.6h6.6v6.1c-0.6,0.6-1.6,1.2-2.8,1.6s-2.5,0.7-3.7,0.7c-1.6,0-3-0.3-4.2-1
		c-1.2-0.7-2.1-1.6-2.7-2.9c-0.6-1.2-0.9-2.6-0.9-4.1c0-1.6,0.3-3,1-4.2c0.7-1.2,1.6-2.2,2.9-2.8c1-0.5,2.2-0.8,3.6-0.8
		c1.9,0,3.4,0.4,4.4,1.2s1.7,1.9,2,3.3l-3,0.6c-0.2-0.7-0.6-1.3-1.2-1.8c-0.6-0.4-1.3-0.6-2.2-0.6c-1.3,0-2.4,0.4-3.2,1.3
		s-1.2,2.1-1.2,3.8c0,1.8,0.4,3.2,1.2,4.1c0.8,0.9,1.9,1.4,3.2,1.4c0.6,0,1.3-0.1,1.9-0.4c0.6-0.3,1.2-0.6,1.7-0.9v-1.9H238.2z"/>
	<path class="st2" d="M252.8,17.8l3-0.3c0.2,1,0.5,1.7,1.1,2.2c0.5,0.5,1.3,0.7,2.2,0.7c1,0,1.7-0.2,2.2-0.6
		c0.5-0.4,0.8-0.9,0.8-1.5c0-0.4-0.1-0.7-0.3-0.9c-0.2-0.3-0.6-0.5-1.1-0.7c-0.4-0.1-1.2-0.3-2.5-0.7c-1.6-0.4-2.8-0.9-3.5-1.5
		c-0.9-0.8-1.4-1.9-1.4-3.1c0-0.8,0.2-1.5,0.7-2.2c0.4-0.7,1.1-1.2,1.9-1.5c0.8-0.4,1.8-0.5,3-0.5c1.9,0,3.3,0.4,4.3,1.3
		s1.5,2,1.5,3.4l-3.1,0.1c-0.1-0.8-0.4-1.3-0.8-1.7c-0.4-0.3-1.1-0.5-1.9-0.5c-0.9,0-1.6,0.2-2.1,0.5c-0.3,0.2-0.5,0.6-0.5,0.9
		c0,0.4,0.2,0.7,0.5,0.9c0.4,0.3,1.3,0.7,2.8,1s2.6,0.7,3.3,1.1s1.3,0.9,1.7,1.5c0.4,0.7,0.6,1.5,0.6,2.4c0,0.9-0.2,1.7-0.7,2.4
		s-1.2,1.3-2.1,1.7c-0.9,0.4-2,0.6-3.3,0.6c-1.9,0-3.4-0.4-4.4-1.3C253.6,20.8,253,19.5,252.8,17.8z"/>
	<path class="st2" d="M267.7,7.5h3.1v8.2c0,1.3,0,2.2,0.1,2.5c0.1,0.6,0.4,1.1,0.9,1.5c0.5,0.4,1.2,0.6,2,0.6c0.9,0,1.5-0.2,2-0.5
		c0.4-0.4,0.7-0.8,0.8-1.3c0.1-0.5,0.1-1.4,0.1-2.6V7.5h3.1v8c0,1.8-0.1,3.1-0.2,3.9s-0.5,1.4-0.9,1.9c-0.4,0.5-1,0.9-1.8,1.2
		s-1.7,0.5-2.9,0.5c-1.5,0-2.6-0.2-3.3-0.5c-0.8-0.3-1.3-0.8-1.8-1.3s-0.7-1.1-0.9-1.7c-0.2-0.9-0.3-2.2-0.3-3.9V7.5z"/>
	<path class="st2" d="M283,22.7V7.5h4.9c1.9,0,3.1,0.1,3.7,0.2c0.9,0.2,1.6,0.7,2.2,1.5c0.6,0.8,0.9,1.8,0.9,3
		c0,0.9-0.2,1.7-0.5,2.4c-0.3,0.6-0.8,1.1-1.3,1.5s-1.1,0.6-1.6,0.7c-0.7,0.1-1.8,0.2-3.2,0.2h-2v5.7H283z M286.1,10.1v4.3h1.7
		c1.2,0,2-0.1,2.4-0.2c0.4-0.2,0.7-0.4,1-0.7c0.2-0.3,0.3-0.7,0.3-1.2c0-0.6-0.2-1-0.5-1.4c-0.3-0.4-0.7-0.6-1.2-0.7
		c-0.4-0.1-1.1-0.1-2.2-0.1H286.1z"/>
	<path class="st2" d="M297.2,22.7V7.5h4.9c1.9,0,3.1,0.1,3.7,0.2c0.9,0.2,1.6,0.7,2.2,1.5c0.6,0.8,0.9,1.8,0.9,3
		c0,0.9-0.2,1.7-0.5,2.4c-0.3,0.6-0.8,1.1-1.3,1.5s-1.1,0.6-1.6,0.7c-0.7,0.1-1.8,0.2-3.2,0.2h-2v5.7H297.2z M300.3,10.1v4.3h1.7
		c1.2,0,2-0.1,2.4-0.2c0.4-0.2,0.7-0.4,1-0.7c0.2-0.3,0.3-0.7,0.3-1.2c0-0.6-0.2-1-0.5-1.4c-0.3-0.4-0.7-0.6-1.2-0.7
		c-0.4-0.1-1.1-0.1-2.2-0.1H300.3z"/>
	<path class="st2" d="M311.5,22.7V7.7h3.1v12.5h7.6v2.6H311.5z"/>
	<path class="st2" d="M324.3,22.7V7.5h3.1v15.2H324.3z"/>
	<path class="st2" d="M330.3,22.7V7.5h11.3v2.6h-8.2v3.4h7.6V16h-7.6v4.1h8.5v2.6H330.3z"/>
	<path class="st2" d="M343.7,17.8l3-0.3c0.2,1,0.5,1.7,1.1,2.2c0.6,0.5,1.3,0.7,2.2,0.7c1,0,1.7-0.2,2.2-0.6
		c0.5-0.4,0.8-0.9,0.8-1.5c0-0.4-0.1-0.7-0.3-0.9c-0.2-0.3-0.6-0.5-1.1-0.7c-0.4-0.1-1.2-0.3-2.5-0.7c-1.6-0.4-2.8-0.9-3.5-1.5
		c-0.9-0.8-1.4-1.9-1.4-3.1c0-0.8,0.2-1.5,0.7-2.2c0.4-0.7,1.1-1.2,1.9-1.5c0.8-0.4,1.8-0.5,3-0.5c1.9,0,3.3,0.4,4.3,1.3
		s1.5,2,1.5,3.4l-3.1,0.1c-0.1-0.8-0.4-1.3-0.8-1.7c-0.4-0.3-1.1-0.5-1.9-0.5c-0.9,0-1.6,0.2-2.1,0.5c-0.3,0.2-0.5,0.6-0.5,0.9
		c0,0.4,0.2,0.7,0.5,0.9c0.4,0.3,1.3,0.7,2.8,1s2.6,0.7,3.3,1.1s1.3,0.9,1.7,1.5c0.4,0.7,0.6,1.5,0.6,2.4c0,0.9-0.2,1.7-0.7,2.4
		c-0.5,0.8-1.2,1.3-2.1,1.7s-2,0.6-3.3,0.6c-1.9,0-3.4-0.4-4.4-1.3C344.5,20.8,343.9,19.5,343.7,17.8z"/>
</g>
<g class="st1">
	<path class="st2" d="M114.4,164.7l3.1-0.3c0.1,0.7,0.4,1.3,0.8,1.7c0.4,0.4,0.9,0.6,1.5,0.6c0.7,0,1.2-0.3,1.7-0.8
		c0.5-0.5,0.7-1.3,0.7-2.4c0-1-0.2-1.8-0.7-2.3s-1-0.8-1.8-0.8c-0.9,0-1.7,0.4-2.4,1.2l-2.6-0.4l1.6-8.6h8.3v2.9h-5.9l-0.5,2.8
		c0.7-0.4,1.4-0.5,2.2-0.5c1.4,0,2.6,0.5,3.6,1.5c1,1,1.5,2.3,1.5,4c0,1.4-0.4,2.6-1.2,3.6c-1.1,1.4-2.6,2.2-4.4,2.2
		c-1.5,0-2.8-0.4-3.7-1.2C115.1,167.2,114.5,166.1,114.4,164.7z"/>
	<path class="st2" d="M127.1,156.6c0-1.5,0.3-2.6,1-3.3c0.6-0.7,1.5-1.1,2.6-1.1c1.1,0,2,0.4,2.7,1.1c0.6,0.7,1,1.8,1,3.3
		c0,1.5-0.3,2.6-1,3.3c-0.6,0.7-1.5,1.1-2.6,1.1c-1.1,0-2-0.4-2.7-1.1C127.4,159.1,127.1,158,127.1,156.6z M129.6,156.5
		c0,1.1,0.1,1.8,0.4,2.2c0.2,0.3,0.4,0.4,0.8,0.4c0.3,0,0.6-0.1,0.8-0.4c0.2-0.4,0.4-1.1,0.4-2.2s-0.1-1.8-0.4-2.1
		c-0.2-0.3-0.4-0.4-0.8-0.4c-0.3,0-0.6,0.1-0.8,0.4C129.7,154.8,129.6,155.5,129.6,156.5z M133.1,169.6h-2.3l8.8-17.3h2.3
		L133.1,169.6z M138.2,165.3c0-1.5,0.3-2.6,1-3.3s1.5-1.1,2.7-1.1c1.1,0,2,0.4,2.7,1.1c0.6,0.7,1,1.8,1,3.3c0,1.5-0.3,2.6-1,3.3
		c-0.6,0.7-1.5,1.1-2.6,1.1c-1.1,0-2-0.4-2.7-1.1S138.2,166.7,138.2,165.3z M140.6,165.2c0,1.1,0.1,1.8,0.4,2.1
		c0.2,0.3,0.4,0.4,0.8,0.4c0.3,0,0.6-0.1,0.8-0.4c0.2-0.4,0.4-1.1,0.4-2.2s-0.1-1.8-0.4-2.2c-0.2-0.3-0.4-0.4-0.8-0.4
		c-0.3,0-0.6,0.1-0.8,0.4C140.8,163.5,140.6,164.2,140.6,165.2z"/>
</g>
<g class="st1">
	<path class="st2" d="M148.8,164.9c0-0.7,0.2-1.4,0.5-2s0.8-1.2,1.5-1.5c0.6-0.3,1.3-0.5,2.1-0.5c1.2,0,2.2,0.4,3,1.2
		c0.8,0.8,1.2,1.8,1.2,3c0,1.2-0.4,2.2-1.2,3s-1.7,1.2-2.9,1.2c-0.7,0-1.4-0.2-2.1-0.5c-0.7-0.3-1.2-0.8-1.5-1.4
		C148.9,166.5,148.8,165.8,148.8,164.9z M150.9,165c0,0.8,0.2,1.4,0.6,1.8c0.4,0.4,0.8,0.6,1.4,0.6s1-0.2,1.4-0.6
		c0.4-0.4,0.6-1,0.6-1.8c0-0.8-0.2-1.4-0.6-1.8c-0.4-0.4-0.8-0.6-1.4-0.6s-1,0.2-1.4,0.6C151.1,163.6,150.9,164.2,150.9,165z"/>
	<path class="st2" d="M157.7,161h1.2v-0.6c0-0.7,0.1-1.2,0.2-1.5c0.1-0.3,0.4-0.6,0.8-0.8c0.4-0.2,0.9-0.3,1.4-0.3
		c0.6,0,1.2,0.1,1.8,0.3l-0.3,1.5c-0.3-0.1-0.7-0.1-1-0.1c-0.3,0-0.5,0.1-0.7,0.2c-0.1,0.1-0.2,0.4-0.2,0.8v0.6h1.6v1.7h-1.6v6.3
		h-2.1v-6.3h-1.2V161z"/>
	<path class="st2" d="M169.5,163.4l-1.9-0.3c0.2-0.8,0.6-1.3,1.1-1.7c0.5-0.4,1.3-0.6,2.3-0.6c0.9,0,1.6,0.1,2.1,0.3
		c0.5,0.2,0.8,0.5,1,0.8c0.2,0.3,0.3,1,0.3,1.9l0,2.5c0,0.7,0,1.2,0.1,1.5c0.1,0.3,0.2,0.7,0.4,1.1h-2.1c-0.1-0.1-0.1-0.3-0.2-0.6
		c0-0.1-0.1-0.2-0.1-0.2c-0.4,0.3-0.7,0.6-1.2,0.8c-0.4,0.2-0.8,0.3-1.3,0.3c-0.8,0-1.5-0.2-1.9-0.7s-0.7-1-0.7-1.7
		c0-0.4,0.1-0.8,0.3-1.2c0.2-0.4,0.5-0.6,0.9-0.8c0.4-0.2,0.9-0.3,1.7-0.5c1-0.2,1.7-0.4,2-0.5v-0.2c0-0.4-0.1-0.7-0.3-0.9
		s-0.6-0.3-1.1-0.3c-0.4,0-0.7,0.1-0.9,0.2C169.8,162.8,169.6,163.1,169.5,163.4z M172.3,165.1c-0.3,0.1-0.7,0.2-1.3,0.3
		c-0.6,0.1-1,0.2-1.1,0.4c-0.3,0.2-0.4,0.4-0.4,0.7c0,0.3,0.1,0.5,0.3,0.8s0.5,0.3,0.8,0.3c0.4,0,0.7-0.1,1.1-0.4
		c0.3-0.2,0.4-0.4,0.5-0.7c0.1-0.2,0.1-0.5,0.1-1V165.1z"/>
	<path class="st2" d="M183.7,168.9h-2.1v-4c0-0.9,0-1.4-0.1-1.7c-0.1-0.3-0.2-0.4-0.4-0.6s-0.4-0.2-0.7-0.2c-0.4,0-0.7,0.1-1,0.3
		s-0.5,0.5-0.6,0.8c-0.1,0.3-0.2,0.9-0.2,1.8v3.6h-2.1V161h2v1.2c0.7-0.9,1.6-1.3,2.6-1.3c0.5,0,0.9,0.1,1.3,0.2
		c0.4,0.2,0.7,0.4,0.9,0.6c0.2,0.3,0.3,0.6,0.4,0.9c0.1,0.3,0.1,0.8,0.1,1.4V168.9z"/>
	<path class="st2" d="M193,168.9h-2.1v-4c0-0.9,0-1.4-0.1-1.7c-0.1-0.3-0.2-0.4-0.4-0.6s-0.4-0.2-0.7-0.2c-0.4,0-0.7,0.1-1,0.3
		s-0.5,0.5-0.6,0.8c-0.1,0.3-0.2,0.9-0.2,1.8v3.6h-2.1V161h2v1.2c0.7-0.9,1.6-1.3,2.6-1.3c0.5,0,0.9,0.1,1.3,0.2
		c0.4,0.2,0.7,0.4,0.9,0.6c0.2,0.3,0.3,0.6,0.4,0.9c0.1,0.3,0.1,0.8,0.1,1.4V168.9z"/>
	<path class="st2" d="M200.4,168.9v-1.2c-0.3,0.4-0.7,0.8-1.1,1c-0.5,0.2-1,0.4-1.5,0.4c-0.5,0-1-0.1-1.4-0.4
		c-0.4-0.2-0.7-0.6-0.9-1c-0.2-0.4-0.3-1-0.3-1.8v-5h2.1v3.6c0,1.1,0,1.8,0.1,2.1c0.1,0.3,0.2,0.5,0.4,0.6c0.2,0.1,0.5,0.2,0.8,0.2
		c0.4,0,0.7-0.1,1-0.3c0.3-0.2,0.5-0.4,0.6-0.7c0.1-0.3,0.2-1,0.2-2.1V161h2.1v7.9H200.4z"/>
	<path class="st2" d="M206.1,163.4l-1.9-0.3c0.2-0.8,0.6-1.3,1.1-1.7c0.5-0.4,1.3-0.6,2.3-0.6c0.9,0,1.6,0.1,2.1,0.3
		c0.5,0.2,0.8,0.5,1,0.8c0.2,0.3,0.3,1,0.3,1.9l0,2.5c0,0.7,0,1.2,0.1,1.5c0.1,0.3,0.2,0.7,0.4,1.1h-2.1c-0.1-0.1-0.1-0.3-0.2-0.6
		c0-0.1-0.1-0.2-0.1-0.2c-0.4,0.3-0.7,0.6-1.2,0.8c-0.4,0.2-0.8,0.3-1.3,0.3c-0.8,0-1.5-0.2-1.9-0.7s-0.7-1-0.7-1.7
		c0-0.4,0.1-0.8,0.3-1.2c0.2-0.4,0.5-0.6,0.9-0.8c0.4-0.2,0.9-0.3,1.7-0.5c1-0.2,1.7-0.4,2-0.5v-0.2c0-0.4-0.1-0.7-0.3-0.9
		s-0.6-0.3-1.1-0.3c-0.4,0-0.7,0.1-0.9,0.2C206.4,162.8,206.2,163.1,206.1,163.4z M208.9,165.1c-0.3,0.1-0.7,0.2-1.3,0.3
		c-0.6,0.1-1,0.2-1.1,0.4c-0.3,0.2-0.4,0.4-0.4,0.7c0,0.3,0.1,0.5,0.3,0.8s0.5,0.3,0.8,0.3c0.4,0,0.7-0.1,1.1-0.4
		c0.3-0.2,0.4-0.4,0.5-0.7c0.1-0.2,0.1-0.5,0.1-1V165.1z"/>
	<path class="st2" d="M213,168.9v-11h2.1v11H213z"/>
	<path class="st2" d="M221.4,168.9v-11h2.1v3.9c0.6-0.7,1.4-1.1,2.3-1.1c1,0,1.8,0.3,2.4,1s0.9,1.7,0.9,3c0,1.4-0.3,2.4-1,3.1
		c-0.6,0.7-1.4,1.1-2.3,1.1c-0.5,0-0.9-0.1-1.3-0.3c-0.4-0.2-0.8-0.6-1.1-1v1.2H221.4z M223.5,164.8c0,0.8,0.1,1.4,0.4,1.8
		c0.4,0.6,0.8,0.8,1.4,0.8c0.5,0,0.9-0.2,1.2-0.6c0.3-0.4,0.5-1,0.5-1.9c0-0.9-0.2-1.6-0.5-2c-0.3-0.4-0.7-0.6-1.3-0.6
		c-0.5,0-0.9,0.2-1.3,0.6C223.7,163.4,223.5,164,223.5,164.8z"/>
	<path class="st2" d="M236.1,168.9v-1.2c-0.3,0.4-0.7,0.8-1.1,1s-1,0.4-1.5,0.4c-0.5,0-1-0.1-1.4-0.4s-0.7-0.6-0.9-1
		c-0.2-0.4-0.3-1-0.3-1.8v-5h2.1v3.6c0,1.1,0,1.8,0.1,2.1c0.1,0.3,0.2,0.5,0.4,0.6c0.2,0.1,0.5,0.2,0.8,0.2c0.4,0,0.7-0.1,1-0.3
		c0.3-0.2,0.5-0.4,0.6-0.7c0.1-0.3,0.2-1,0.2-2.1V161h2.1v7.9H236.1z"/>
	<path class="st2" d="M247.5,168.9h-2v-1.2c-0.3,0.5-0.7,0.8-1.1,1s-0.9,0.3-1.3,0.3c-0.9,0-1.7-0.4-2.3-1.1c-0.6-0.7-1-1.8-1-3.1
		c0-1.3,0.3-2.4,0.9-3.1c0.6-0.7,1.4-1,2.4-1c0.9,0,1.7,0.4,2.3,1.1V158h2.1V168.9z M241.9,164.8c0,0.8,0.1,1.5,0.4,1.8
		c0.3,0.5,0.8,0.8,1.4,0.8c0.5,0,0.9-0.2,1.2-0.6c0.3-0.4,0.5-1,0.5-1.8c0-0.9-0.2-1.6-0.5-2c-0.3-0.4-0.8-0.6-1.3-0.6
		c-0.5,0-0.9,0.2-1.3,0.6S241.9,164,241.9,164.8z"/>
	<path class="st2" d="M249.3,169.5l2.4,0.3c0,0.3,0.1,0.5,0.3,0.6c0.2,0.1,0.5,0.2,0.9,0.2c0.5,0,1-0.1,1.2-0.2
		c0.2-0.1,0.3-0.3,0.4-0.5c0.1-0.2,0.1-0.5,0.1-1v-1.2c-0.6,0.9-1.4,1.3-2.4,1.3c-1.1,0-1.9-0.5-2.5-1.4c-0.5-0.7-0.7-1.6-0.7-2.7
		c0-1.3,0.3-2.3,1-3c0.6-0.7,1.4-1.1,2.4-1.1c1,0,1.8,0.4,2.4,1.3V161h2v7.1c0,0.9-0.1,1.6-0.2,2.1s-0.4,0.8-0.6,1.1
		c-0.3,0.3-0.7,0.5-1.1,0.6s-1.1,0.2-1.8,0.2c-1.3,0-2.3-0.2-2.9-0.7c-0.6-0.5-0.8-1-0.8-1.8C249.3,169.6,249.3,169.6,249.3,169.5z
		 M251.2,164.8c0,0.8,0.2,1.5,0.5,1.8s0.7,0.6,1.2,0.6c0.5,0,0.9-0.2,1.3-0.6c0.4-0.4,0.5-1,0.5-1.8c0-0.8-0.2-1.4-0.5-1.8
		c-0.3-0.4-0.8-0.6-1.3-0.6c-0.5,0-0.9,0.2-1.2,0.6C251.4,163.4,251.2,164,251.2,164.8z"/>
	<path class="st2" d="M263.5,166.4l2.1,0.4c-0.3,0.8-0.7,1.4-1.3,1.8c-0.6,0.4-1.3,0.6-2.2,0.6c-1.4,0-2.4-0.5-3.1-1.4
		c-0.5-0.7-0.8-1.6-0.8-2.7c0-1.3,0.3-2.3,1-3.1c0.7-0.7,1.6-1.1,2.6-1.1c1.2,0,2.1,0.4,2.8,1.2c0.7,0.8,1,2,1,3.6h-5.3
		c0,0.6,0.2,1.1,0.5,1.5c0.3,0.3,0.7,0.5,1.2,0.5c0.3,0,0.6-0.1,0.8-0.3C263.2,167.1,263.4,166.8,263.5,166.4z M263.6,164.3
		c0-0.6-0.2-1.1-0.5-1.4s-0.7-0.5-1.1-0.5c-0.5,0-0.8,0.2-1.1,0.5c-0.3,0.3-0.4,0.8-0.4,1.4H263.6z"/>
	<path class="st2" d="M271,161v1.7h-1.4v3.2c0,0.6,0,1,0,1.1c0,0.1,0.1,0.2,0.2,0.3c0.1,0.1,0.2,0.1,0.4,0.1c0.2,0,0.5-0.1,0.8-0.2
		l0.2,1.6c-0.5,0.2-1,0.3-1.7,0.3c-0.4,0-0.7-0.1-1-0.2c-0.3-0.1-0.5-0.3-0.7-0.5c-0.1-0.2-0.2-0.5-0.3-0.8c0-0.2-0.1-0.7-0.1-1.5
		v-3.5h-1V161h1v-1.6l2.1-1.2v2.8H271z"/>
</g>
<g class="st1">
	<path class="st2" d="M81.4,38.6v-7.9h3c0.6,0,1.1,0.1,1.4,0.2c0.4,0.2,0.6,0.4,0.9,0.7c0.2,0.3,0.3,0.7,0.3,1c0,0.3-0.1,0.7-0.3,1
		s-0.5,0.5-0.8,0.7c0.5,0.1,0.8,0.4,1.1,0.7c0.3,0.3,0.4,0.7,0.4,1.2c0,0.4-0.1,0.7-0.2,1c-0.2,0.3-0.3,0.6-0.6,0.7
		s-0.5,0.3-0.9,0.4c-0.3,0.1-0.8,0.1-1.3,0.1H81.4z M82.4,34h1.7c0.5,0,0.8,0,1-0.1c0.3-0.1,0.5-0.2,0.6-0.4
		c0.1-0.2,0.2-0.4,0.2-0.7c0-0.3-0.1-0.5-0.2-0.7c-0.1-0.2-0.3-0.3-0.5-0.4s-0.6-0.1-1.2-0.1h-1.6V34z M82.4,37.7h2
		c0.3,0,0.6,0,0.7,0c0.2,0,0.4-0.1,0.6-0.2s0.3-0.2,0.4-0.4s0.2-0.4,0.2-0.7c0-0.3-0.1-0.5-0.2-0.8s-0.4-0.4-0.6-0.5
		C85.2,35,84.8,35,84.3,35h-1.8V37.7z"/>
	<path class="st2" d="M88.7,38.6v-5.7h0.9v0.9c0.2-0.4,0.4-0.7,0.6-0.8c0.2-0.1,0.4-0.2,0.6-0.2c0.3,0,0.7,0.1,1,0.3L91.4,34
		c-0.2-0.1-0.5-0.2-0.7-0.2c-0.2,0-0.4,0.1-0.6,0.2s-0.3,0.3-0.4,0.5c-0.1,0.3-0.2,0.7-0.2,1.1v3H88.7z"/>
	<path class="st2" d="M96.1,38.6v-0.8c-0.4,0.6-1,1-1.8,1c-0.3,0-0.7-0.1-0.9-0.2c-0.3-0.1-0.5-0.3-0.7-0.5
		c-0.1-0.2-0.2-0.4-0.3-0.7c0-0.2-0.1-0.5-0.1-0.9v-3.5h1v3.2c0,0.5,0,0.8,0.1,1c0.1,0.3,0.2,0.5,0.4,0.6c0.2,0.1,0.4,0.2,0.7,0.2
		s0.6-0.1,0.8-0.2s0.4-0.4,0.5-0.6c0.1-0.3,0.2-0.6,0.2-1.1v-3.1h1v5.7H96.1z"/>
	<path class="st2" d="M98.1,36.9l1-0.2c0.1,0.4,0.2,0.7,0.4,0.9c0.2,0.2,0.6,0.3,1,0.3c0.4,0,0.8-0.1,1-0.3s0.3-0.4,0.3-0.6
		c0-0.2-0.1-0.4-0.3-0.5c-0.1-0.1-0.5-0.2-1-0.3c-0.7-0.2-1.2-0.3-1.5-0.5c-0.3-0.1-0.5-0.3-0.6-0.5c-0.1-0.2-0.2-0.5-0.2-0.8
		c0-0.3,0.1-0.5,0.2-0.7c0.1-0.2,0.3-0.4,0.5-0.5c0.2-0.1,0.4-0.2,0.6-0.3c0.3-0.1,0.5-0.1,0.8-0.1c0.4,0,0.8,0.1,1.2,0.2
		c0.3,0.1,0.6,0.3,0.7,0.5c0.2,0.2,0.3,0.5,0.3,0.9l-0.9,0.1c0-0.3-0.2-0.5-0.4-0.7c-0.2-0.2-0.5-0.2-0.9-0.2c-0.4,0-0.8,0.1-1,0.2
		c-0.2,0.1-0.3,0.3-0.3,0.5c0,0.1,0,0.2,0.1,0.3c0.1,0.1,0.2,0.2,0.4,0.3c0.1,0,0.4,0.1,0.9,0.2c0.7,0.2,1.2,0.3,1.4,0.4
		c0.3,0.1,0.5,0.3,0.6,0.5s0.2,0.5,0.2,0.8c0,0.3-0.1,0.6-0.3,0.9c-0.2,0.3-0.5,0.5-0.8,0.7c-0.4,0.2-0.8,0.2-1.2,0.2
		c-0.7,0-1.3-0.2-1.7-0.5C98.4,38,98.2,37.5,98.1,36.9z"/>
	<path class="st2" d="M103.9,38.6v-7.9h1v2.8c0.5-0.5,1-0.8,1.7-0.8c0.4,0,0.8,0.1,1.1,0.2c0.3,0.2,0.5,0.4,0.7,0.7
		c0.1,0.3,0.2,0.7,0.2,1.3v3.6h-1V35c0-0.5-0.1-0.8-0.3-1.1c-0.2-0.2-0.5-0.3-0.9-0.3c-0.3,0-0.6,0.1-0.8,0.2
		c-0.3,0.1-0.4,0.3-0.5,0.6c-0.1,0.3-0.2,0.6-0.2,1.1v3.1H103.9z"/>
	<path class="st2" d="M110.3,38.6v-1.1h1.1v1.1c0,0.4-0.1,0.7-0.2,1s-0.4,0.4-0.7,0.6l-0.3-0.4c0.2-0.1,0.4-0.2,0.5-0.4
		s0.2-0.4,0.2-0.7H110.3z"/>
	<path class="st2" d="M116.2,38.6v-5.7h0.9v0.8c0.4-0.6,1-0.9,1.8-0.9c0.3,0,0.7,0.1,0.9,0.2c0.3,0.1,0.5,0.3,0.6,0.5
		c0.1,0.2,0.2,0.4,0.3,0.7c0,0.2,0.1,0.5,0.1,0.9v3.5h-1v-3.5c0-0.4,0-0.7-0.1-0.9s-0.2-0.4-0.4-0.5c-0.2-0.1-0.4-0.2-0.7-0.2
		c-0.4,0-0.8,0.1-1.1,0.4c-0.3,0.3-0.4,0.8-0.4,1.5v3.1H116.2z"/>
	<path class="st2" d="M126,37.9c-0.4,0.3-0.7,0.5-1,0.6c-0.3,0.1-0.7,0.2-1.1,0.2c-0.6,0-1.1-0.2-1.4-0.5c-0.3-0.3-0.5-0.7-0.5-1.2
		c0-0.3,0.1-0.5,0.2-0.8c0.1-0.2,0.3-0.4,0.5-0.6c0.2-0.1,0.4-0.2,0.7-0.3c0.2,0,0.5-0.1,0.9-0.1c0.8-0.1,1.4-0.2,1.7-0.3
		c0-0.1,0-0.2,0-0.3c0-0.4-0.1-0.7-0.3-0.8c-0.2-0.2-0.6-0.3-1.1-0.3c-0.5,0-0.8,0.1-1,0.2c-0.2,0.2-0.4,0.4-0.5,0.8l-0.9-0.1
		c0.1-0.4,0.2-0.7,0.4-1s0.5-0.4,0.9-0.6c0.4-0.1,0.8-0.2,1.3-0.2c0.5,0,0.9,0.1,1.2,0.2s0.5,0.3,0.7,0.4s0.2,0.4,0.3,0.7
		c0,0.2,0,0.5,0,0.9v1.3c0,0.9,0,1.5,0.1,1.7c0,0.2,0.1,0.5,0.2,0.7h-1C126.1,38.4,126,38.2,126,37.9z M125.9,35.7
		c-0.4,0.1-0.9,0.3-1.6,0.4c-0.4,0.1-0.7,0.1-0.8,0.2c-0.2,0.1-0.3,0.2-0.4,0.3s-0.1,0.3-0.1,0.5c0,0.3,0.1,0.5,0.3,0.6
		c0.2,0.2,0.5,0.3,0.9,0.3c0.4,0,0.7-0.1,1-0.2s0.5-0.4,0.6-0.7c0.1-0.2,0.2-0.5,0.2-1V35.7z"/>
	<path class="st2" d="M128.4,31.8v-1.1h1v1.1H128.4z M128.4,38.6v-5.7h1v5.7H128.4z"/>
	<path class="st2" d="M130.8,38.6v-7.9h1v7.9H130.8z"/>
	<path class="st2" d="M140.1,36.5l1,0.1c-0.1,0.7-0.4,1.2-0.8,1.5c-0.4,0.4-1,0.6-1.6,0.6c-0.8,0-1.4-0.3-1.9-0.8
		c-0.5-0.5-0.7-1.2-0.7-2.2c0-0.6,0.1-1.2,0.3-1.6s0.5-0.8,0.9-1c0.4-0.2,0.9-0.3,1.4-0.3c0.6,0,1.1,0.2,1.5,0.5s0.6,0.8,0.8,1.3
		l-0.9,0.1c-0.1-0.4-0.2-0.7-0.5-0.9c-0.2-0.2-0.5-0.3-0.8-0.3c-0.5,0-0.9,0.2-1.2,0.5c-0.3,0.3-0.5,0.9-0.5,1.7
		c0,0.8,0.1,1.3,0.4,1.7c0.3,0.3,0.7,0.5,1.1,0.5c0.4,0,0.7-0.1,1-0.3C139.8,37.4,140,37,140.1,36.5z"/>
	<path class="st2" d="M141.8,38.6v-7.9h1v7.9H141.8z"/>
	<path class="st2" d="M144.3,31.8v-1.1h1v1.1H144.3z M144.3,38.6v-5.7h1v5.7H144.3z"/>
	<path class="st2" d="M146.7,40.8v-7.9h0.9v0.7c0.2-0.3,0.4-0.5,0.7-0.7c0.3-0.1,0.6-0.2,1-0.2c0.5,0,0.9,0.1,1.3,0.4
		s0.7,0.6,0.8,1.1c0.2,0.5,0.3,1,0.3,1.5c0,0.6-0.1,1.1-0.3,1.6c-0.2,0.5-0.5,0.8-0.9,1.1c-0.4,0.2-0.8,0.4-1.3,0.4
		c-0.3,0-0.6-0.1-0.9-0.2c-0.3-0.1-0.5-0.3-0.6-0.5v2.8H146.7z M147.6,35.8c0,0.7,0.1,1.3,0.4,1.6s0.7,0.5,1.1,0.5
		c0.4,0,0.8-0.2,1.1-0.5c0.3-0.4,0.5-0.9,0.5-1.7c0-0.7-0.1-1.3-0.4-1.6c-0.3-0.4-0.7-0.5-1.1-0.5c-0.4,0-0.8,0.2-1.1,0.6
		C147.8,34.5,147.6,35.1,147.6,35.8z"/>
	<path class="st2" d="M152.9,40.8v-7.9h0.9v0.7c0.2-0.3,0.4-0.5,0.7-0.7c0.3-0.1,0.6-0.2,1-0.2c0.5,0,0.9,0.1,1.3,0.4
		s0.7,0.6,0.8,1.1c0.2,0.5,0.3,1,0.3,1.5c0,0.6-0.1,1.1-0.3,1.6c-0.2,0.5-0.5,0.8-0.9,1.1c-0.4,0.2-0.8,0.4-1.3,0.4
		c-0.3,0-0.6-0.1-0.9-0.2c-0.3-0.1-0.5-0.3-0.6-0.5v2.8H152.9z M153.7,35.8c0,0.7,0.1,1.3,0.4,1.6s0.7,0.5,1.1,0.5
		c0.4,0,0.8-0.2,1.1-0.5c0.3-0.4,0.5-0.9,0.5-1.7c0-0.7-0.1-1.3-0.4-1.6c-0.3-0.4-0.7-0.5-1.1-0.5c-0.4,0-0.8,0.2-1.1,0.6
		C153.9,34.5,153.7,35.1,153.7,35.8z"/>
	<path class="st2" d="M162.9,36.8l1,0.1c-0.2,0.6-0.4,1-0.9,1.4s-1,0.5-1.6,0.5c-0.8,0-1.5-0.3-2-0.8c-0.5-0.5-0.7-1.2-0.7-2.2
		c0-1,0.2-1.7,0.7-2.2s1.1-0.8,1.9-0.8c0.8,0,1.4,0.3,1.9,0.8c0.5,0.5,0.7,1.2,0.7,2.2c0,0.1,0,0.1,0,0.3h-4.3
		c0,0.6,0.2,1.1,0.5,1.4c0.3,0.3,0.7,0.5,1.2,0.5c0.4,0,0.7-0.1,0.9-0.3S162.7,37.2,162.9,36.8z M159.7,35.2h3.2
		c0-0.5-0.2-0.8-0.4-1.1c-0.3-0.4-0.7-0.6-1.2-0.6c-0.4,0-0.8,0.1-1.1,0.4C159.9,34.3,159.7,34.7,159.7,35.2z"/>
	<path class="st2" d="M165.1,38.6v-5.7h0.9v0.9c0.2-0.4,0.4-0.7,0.6-0.8c0.2-0.1,0.4-0.2,0.6-0.2c0.3,0,0.7,0.1,1,0.3l-0.3,0.9
		c-0.2-0.1-0.5-0.2-0.7-0.2c-0.2,0-0.4,0.1-0.6,0.2s-0.3,0.3-0.4,0.5c-0.1,0.3-0.2,0.7-0.2,1.1v3H165.1z"/>
</g>
<g class="st1">
	<path class="st2" d="M162.3,36.9l1-0.2c0.1,0.4,0.2,0.7,0.4,0.9c0.2,0.2,0.6,0.3,1,0.3c0.4,0,0.8-0.1,1-0.3s0.3-0.4,0.3-0.6
		c0-0.2-0.1-0.4-0.3-0.5c-0.1-0.1-0.5-0.2-1-0.3c-0.7-0.2-1.2-0.3-1.5-0.5c-0.3-0.1-0.5-0.3-0.6-0.5c-0.1-0.2-0.2-0.5-0.2-0.8
		c0-0.3,0.1-0.5,0.2-0.7c0.1-0.2,0.3-0.4,0.5-0.5c0.2-0.1,0.4-0.2,0.6-0.3c0.3-0.1,0.5-0.1,0.8-0.1c0.4,0,0.8,0.1,1.2,0.2
		c0.3,0.1,0.6,0.3,0.7,0.5c0.2,0.2,0.3,0.5,0.3,0.9l-0.9,0.1c0-0.3-0.2-0.5-0.4-0.7c-0.2-0.2-0.5-0.2-0.9-0.2c-0.4,0-0.8,0.1-1,0.2
		c-0.2,0.1-0.3,0.3-0.3,0.5c0,0.1,0,0.2,0.1,0.3c0.1,0.1,0.2,0.2,0.4,0.3c0.1,0,0.4,0.1,0.9,0.2c0.7,0.2,1.2,0.3,1.4,0.4
		c0.3,0.1,0.5,0.3,0.6,0.5s0.2,0.5,0.2,0.8c0,0.3-0.1,0.6-0.3,0.9c-0.2,0.3-0.5,0.5-0.8,0.7c-0.4,0.2-0.8,0.2-1.2,0.2
		c-0.7,0-1.3-0.2-1.7-0.5C162.6,38,162.4,37.5,162.3,36.9z"/>
</g>
<g class="st1">
	<path class="st2" d="M167.1,38.6v-1.1h1.1v1.1c0,0.4-0.1,0.7-0.2,1s-0.4,0.4-0.7,0.6l-0.3-0.4c0.2-0.1,0.4-0.2,0.5-0.4
		s0.2-0.4,0.2-0.7H167.1z"/>
	<path class="st2" d="M172.6,36.9l1-0.2c0.1,0.4,0.2,0.7,0.4,0.9c0.2,0.2,0.6,0.3,1,0.3c0.4,0,0.8-0.1,1-0.3s0.3-0.4,0.3-0.6
		c0-0.2-0.1-0.4-0.3-0.5c-0.1-0.1-0.5-0.2-1-0.3c-0.7-0.2-1.2-0.3-1.5-0.5c-0.3-0.1-0.5-0.3-0.6-0.5c-0.1-0.2-0.2-0.5-0.2-0.8
		c0-0.3,0.1-0.5,0.2-0.7c0.1-0.2,0.3-0.4,0.5-0.5c0.2-0.1,0.4-0.2,0.6-0.3c0.3-0.1,0.5-0.1,0.8-0.1c0.4,0,0.8,0.1,1.2,0.2
		c0.3,0.1,0.6,0.3,0.7,0.5c0.2,0.2,0.3,0.5,0.3,0.9l-0.9,0.1c0-0.3-0.2-0.5-0.4-0.7c-0.2-0.2-0.5-0.2-0.9-0.2c-0.4,0-0.8,0.1-1,0.2
		c-0.2,0.1-0.3,0.3-0.3,0.5c0,0.1,0,0.2,0.1,0.3c0.1,0.1,0.2,0.2,0.4,0.3c0.1,0,0.4,0.1,0.9,0.2c0.7,0.2,1.2,0.3,1.4,0.4
		c0.3,0.1,0.5,0.3,0.6,0.5s0.2,0.5,0.2,0.8c0,0.3-0.1,0.6-0.3,0.9c-0.2,0.3-0.5,0.5-0.8,0.7c-0.4,0.2-0.8,0.2-1.2,0.2
		c-0.7,0-1.3-0.2-1.7-0.5C173,38,172.7,37.5,172.6,36.9z"/>
	<path class="st2" d="M178.5,38.6v-7.9h1v2.8c0.5-0.5,1-0.8,1.7-0.8c0.4,0,0.8,0.1,1.1,0.2c0.3,0.2,0.5,0.4,0.7,0.7
		c0.1,0.3,0.2,0.7,0.2,1.3v3.6h-1V35c0-0.5-0.1-0.8-0.3-1.1c-0.2-0.2-0.5-0.3-0.9-0.3c-0.3,0-0.6,0.1-0.8,0.2
		c-0.3,0.1-0.4,0.3-0.5,0.6c-0.1,0.3-0.2,0.6-0.2,1.1v3.1H178.5z"/>
	<path class="st2" d="M188.3,37.9c-0.4,0.3-0.7,0.5-1,0.6c-0.3,0.1-0.7,0.2-1.1,0.2c-0.6,0-1.1-0.2-1.4-0.5
		c-0.3-0.3-0.5-0.7-0.5-1.2c0-0.3,0.1-0.5,0.2-0.8c0.1-0.2,0.3-0.4,0.5-0.6c0.2-0.1,0.4-0.2,0.7-0.3c0.2,0,0.5-0.1,0.9-0.1
		c0.8-0.1,1.4-0.2,1.7-0.3c0-0.1,0-0.2,0-0.3c0-0.4-0.1-0.7-0.3-0.8c-0.2-0.2-0.6-0.3-1.1-0.3c-0.5,0-0.8,0.1-1,0.2
		c-0.2,0.2-0.4,0.4-0.5,0.8l-0.9-0.1c0.1-0.4,0.2-0.7,0.4-1s0.5-0.4,0.9-0.6c0.4-0.1,0.8-0.2,1.3-0.2c0.5,0,0.9,0.1,1.2,0.2
		s0.5,0.3,0.7,0.4s0.2,0.4,0.3,0.7c0,0.2,0,0.5,0,0.9v1.3c0,0.9,0,1.5,0.1,1.7c0,0.2,0.1,0.5,0.2,0.7h-1
		C188.4,38.4,188.4,38.2,188.3,37.9z M188.2,35.7c-0.4,0.1-0.9,0.3-1.6,0.4c-0.4,0.1-0.7,0.1-0.8,0.2c-0.2,0.1-0.3,0.2-0.4,0.3
		s-0.1,0.3-0.1,0.5c0,0.3,0.1,0.5,0.3,0.6c0.2,0.2,0.5,0.3,0.9,0.3c0.4,0,0.7-0.1,1-0.2s0.5-0.4,0.6-0.7c0.1-0.2,0.2-0.5,0.2-1V35.7
		z"/>
	<path class="st2" d="M190.7,38.6v-5.7h0.9v0.8c0.2-0.3,0.4-0.5,0.7-0.7s0.6-0.3,1-0.3c0.4,0,0.8,0.1,1,0.3c0.3,0.2,0.5,0.4,0.6,0.7
		c0.5-0.7,1-1,1.8-1c0.6,0,1,0.2,1.3,0.5s0.5,0.8,0.5,1.4v3.9h-1V35c0-0.4,0-0.7-0.1-0.8c-0.1-0.2-0.2-0.3-0.3-0.4
		c-0.2-0.1-0.4-0.2-0.6-0.2c-0.4,0-0.7,0.1-1,0.4s-0.4,0.7-0.4,1.3v3.3h-1v-3.7c0-0.4-0.1-0.8-0.2-1s-0.4-0.3-0.8-0.3
		c-0.3,0-0.5,0.1-0.8,0.2c-0.2,0.1-0.4,0.4-0.5,0.6c-0.1,0.3-0.2,0.7-0.2,1.2v3H190.7z"/>
	<path class="st2" d="M199.9,40.8v-7.9h0.9v0.7c0.2-0.3,0.4-0.5,0.7-0.7c0.3-0.1,0.6-0.2,1-0.2c0.5,0,0.9,0.1,1.3,0.4
		s0.7,0.6,0.8,1.1c0.2,0.5,0.3,1,0.3,1.5c0,0.6-0.1,1.1-0.3,1.6c-0.2,0.5-0.5,0.8-0.9,1.1c-0.4,0.2-0.8,0.4-1.3,0.4
		c-0.3,0-0.6-0.1-0.9-0.2c-0.3-0.1-0.5-0.3-0.6-0.5v2.8H199.9z M200.8,35.8c0,0.7,0.1,1.3,0.4,1.6s0.7,0.5,1.1,0.5
		c0.4,0,0.8-0.2,1.1-0.5c0.3-0.4,0.5-0.9,0.5-1.7c0-0.7-0.1-1.3-0.4-1.6c-0.3-0.4-0.7-0.5-1.1-0.5c-0.4,0-0.8,0.2-1.1,0.6
		C200.9,34.5,200.8,35.1,200.8,35.8z"/>
	<path class="st2" d="M205.6,35.8c0-1.1,0.3-1.8,0.9-2.3c0.5-0.4,1.1-0.6,1.8-0.6c0.8,0,1.4,0.3,1.9,0.8s0.7,1.2,0.7,2.1
		c0,0.7-0.1,1.3-0.3,1.7c-0.2,0.4-0.5,0.7-1,1c-0.4,0.2-0.9,0.3-1.4,0.3c-0.8,0-1.4-0.3-1.9-0.8C205.9,37.5,205.6,36.7,205.6,35.8z
		 M206.6,35.8c0,0.7,0.2,1.3,0.5,1.6s0.7,0.5,1.2,0.5c0.5,0,0.9-0.2,1.2-0.5s0.5-0.9,0.5-1.7c0-0.7-0.2-1.2-0.5-1.6
		c-0.3-0.4-0.7-0.5-1.2-0.5c-0.5,0-0.9,0.2-1.2,0.5S206.6,35,206.6,35.8z"/>
</g>
<g class="st1">
	<path class="st2" d="M208.4,35.8c0-1.1,0.3-1.8,0.9-2.3c0.5-0.4,1.1-0.6,1.8-0.6c0.8,0,1.4,0.3,1.9,0.8s0.7,1.2,0.7,2.1
		c0,0.7-0.1,1.3-0.3,1.7c-0.2,0.4-0.5,0.7-1,1c-0.4,0.2-0.9,0.3-1.4,0.3c-0.8,0-1.4-0.3-1.9-0.8C208.6,37.5,208.4,36.7,208.4,35.8z
		 M209.4,35.8c0,0.7,0.2,1.3,0.5,1.6s0.7,0.5,1.2,0.5c0.5,0,0.9-0.2,1.2-0.5s0.5-0.9,0.5-1.7c0-0.7-0.2-1.2-0.5-1.6
		c-0.3-0.4-0.7-0.5-1.2-0.5c-0.5,0-0.9,0.2-1.2,0.5S209.4,35,209.4,35.8z"/>
</g>
<g class="st1">
	<path class="st2" d="M214.7,38.6v-1.1h1.1v1.1c0,0.4-0.1,0.7-0.2,1s-0.4,0.4-0.7,0.6l-0.3-0.4c0.2-0.1,0.4-0.2,0.5-0.4
		s0.2-0.4,0.2-0.7H214.7z"/>
	<path class="st2" d="M220.8,38.6v-5H220v-0.8h0.9v-0.6c0-0.4,0-0.7,0.1-0.9c0.1-0.3,0.3-0.5,0.5-0.6c0.2-0.2,0.6-0.2,1-0.2
		c0.3,0,0.6,0,0.9,0.1l-0.1,0.8c-0.2,0-0.4-0.1-0.6-0.1c-0.3,0-0.5,0.1-0.6,0.2c-0.1,0.1-0.2,0.4-0.2,0.7v0.5h1.1v0.8h-1.1v5H220.8z
		"/>
	<path class="st2" d="M223.6,38.6v-7.9h1v7.9H223.6z"/>
	<path class="st2" d="M230,36.8l1,0.1c-0.2,0.6-0.4,1-0.9,1.4s-1,0.5-1.6,0.5c-0.8,0-1.5-0.3-2-0.8c-0.5-0.5-0.7-1.2-0.7-2.2
		c0-1,0.2-1.7,0.7-2.2s1.1-0.8,1.9-0.8c0.8,0,1.4,0.3,1.9,0.8c0.5,0.5,0.7,1.2,0.7,2.2c0,0.1,0,0.1,0,0.3h-4.3
		c0,0.6,0.2,1.1,0.5,1.4c0.3,0.3,0.7,0.5,1.2,0.5c0.4,0,0.7-0.1,0.9-0.3S229.9,37.2,230,36.8z M226.8,35.2h3.2
		c0-0.5-0.2-0.8-0.4-1.1c-0.3-0.4-0.7-0.6-1.2-0.6c-0.4,0-0.8,0.1-1.1,0.4C227,34.3,226.9,34.7,226.8,35.2z"/>
	<path class="st2" d="M235.9,37.9c-0.4,0.3-0.7,0.5-1,0.6c-0.3,0.1-0.7,0.2-1.1,0.2c-0.6,0-1.1-0.2-1.4-0.5
		c-0.3-0.3-0.5-0.7-0.5-1.2c0-0.3,0.1-0.5,0.2-0.8c0.1-0.2,0.3-0.4,0.5-0.6c0.2-0.1,0.4-0.2,0.7-0.3c0.2,0,0.5-0.1,0.9-0.1
		c0.8-0.1,1.4-0.2,1.7-0.3c0-0.1,0-0.2,0-0.3c0-0.4-0.1-0.7-0.3-0.8c-0.2-0.2-0.6-0.3-1.1-0.3c-0.5,0-0.8,0.1-1,0.2
		s-0.4,0.4-0.5,0.8l-0.9-0.1c0.1-0.4,0.2-0.7,0.4-1s0.5-0.4,0.9-0.6c0.4-0.1,0.8-0.2,1.3-0.2c0.5,0,0.9,0.1,1.2,0.2
		c0.3,0.1,0.5,0.3,0.7,0.4s0.2,0.4,0.3,0.7c0,0.2,0,0.5,0,0.9v1.3c0,0.9,0,1.5,0.1,1.7s0.1,0.5,0.2,0.7h-1
		C236,38.4,236,38.2,235.9,37.9z M235.9,35.7c-0.4,0.1-0.9,0.3-1.6,0.4c-0.4,0.1-0.7,0.1-0.8,0.2c-0.2,0.1-0.3,0.2-0.4,0.3
		c-0.1,0.1-0.1,0.3-0.1,0.5c0,0.3,0.1,0.5,0.3,0.6c0.2,0.2,0.5,0.3,0.9,0.3c0.4,0,0.7-0.1,1-0.2c0.3-0.2,0.5-0.4,0.6-0.7
		c0.1-0.2,0.2-0.5,0.2-1V35.7z"/>
</g>
<g class="st1">
	<path class="st2" d="M241.7,36.5l1,0.1c-0.1,0.7-0.4,1.2-0.8,1.5c-0.4,0.4-1,0.6-1.6,0.6c-0.8,0-1.4-0.3-1.9-0.8
		c-0.5-0.5-0.7-1.2-0.7-2.2c0-0.6,0.1-1.2,0.3-1.6s0.5-0.8,0.9-1c0.4-0.2,0.9-0.3,1.4-0.3c0.6,0,1.1,0.2,1.5,0.5
		c0.4,0.3,0.6,0.8,0.8,1.3l-0.9,0.1c-0.1-0.4-0.2-0.7-0.5-0.9c-0.2-0.2-0.5-0.3-0.8-0.3c-0.5,0-0.9,0.2-1.2,0.5
		c-0.3,0.3-0.5,0.9-0.5,1.7c0,0.8,0.1,1.3,0.4,1.7c0.3,0.3,0.7,0.5,1.1,0.5c0.4,0,0.7-0.1,1-0.3C241.5,37.4,241.7,37,241.7,36.5z"/>
</g>
<g class="st1">
	<path class="st2" d="M242.5,35.8c0-1.1,0.3-1.8,0.9-2.3c0.5-0.4,1.1-0.6,1.8-0.6c0.8,0,1.4,0.3,1.9,0.8c0.5,0.5,0.7,1.2,0.7,2.1
		c0,0.7-0.1,1.3-0.3,1.7c-0.2,0.4-0.5,0.7-1,1c-0.4,0.2-0.9,0.3-1.4,0.3c-0.8,0-1.4-0.3-1.9-0.8C242.8,37.5,242.5,36.7,242.5,35.8z
		 M243.5,35.8c0,0.7,0.2,1.3,0.5,1.6c0.3,0.4,0.7,0.5,1.2,0.5c0.5,0,0.9-0.2,1.2-0.5c0.3-0.4,0.5-0.9,0.5-1.7c0-0.7-0.2-1.2-0.5-1.6
		s-0.7-0.5-1.2-0.5c-0.5,0-0.9,0.2-1.2,0.5C243.7,34.5,243.5,35,243.5,35.8z"/>
	<path class="st2" d="M249,38.6v-7.9h1v7.9H249z"/>
	<path class="st2" d="M251.4,38.6v-7.9h1v7.9H251.4z"/>
	<path class="st2" d="M257.6,37.9c-0.4,0.3-0.7,0.5-1,0.6c-0.3,0.1-0.7,0.2-1.1,0.2c-0.6,0-1.1-0.2-1.4-0.5
		c-0.3-0.3-0.5-0.7-0.5-1.2c0-0.3,0.1-0.5,0.2-0.8c0.1-0.2,0.3-0.4,0.5-0.6c0.2-0.1,0.4-0.2,0.7-0.3c0.2,0,0.5-0.1,0.9-0.1
		c0.8-0.1,1.4-0.2,1.7-0.3c0-0.1,0-0.2,0-0.3c0-0.4-0.1-0.7-0.3-0.8c-0.2-0.2-0.6-0.3-1.1-0.3c-0.5,0-0.8,0.1-1,0.2
		c-0.2,0.2-0.4,0.4-0.5,0.8l-0.9-0.1c0.1-0.4,0.2-0.7,0.4-1c0.2-0.2,0.5-0.4,0.9-0.6c0.4-0.1,0.8-0.2,1.3-0.2c0.5,0,0.9,0.1,1.2,0.2
		c0.3,0.1,0.5,0.3,0.7,0.4c0.1,0.2,0.2,0.4,0.3,0.7c0,0.2,0,0.5,0,0.9v1.3c0,0.9,0,1.5,0.1,1.7c0,0.2,0.1,0.5,0.2,0.7h-1
		C257.7,38.4,257.6,38.2,257.6,37.9z M257.5,35.7c-0.4,0.1-0.9,0.3-1.6,0.4c-0.4,0.1-0.7,0.1-0.8,0.2c-0.2,0.1-0.3,0.2-0.4,0.3
		c-0.1,0.1-0.1,0.3-0.1,0.5c0,0.3,0.1,0.5,0.3,0.6c0.2,0.2,0.5,0.3,0.9,0.3c0.4,0,0.7-0.1,1-0.2s0.5-0.4,0.6-0.7
		c0.1-0.2,0.2-0.5,0.2-1V35.7z"/>
</g>
<g class="st1">
	<path class="st2" d="M259.4,38.6v-5.7h0.9v0.9c0.2-0.4,0.4-0.7,0.6-0.8c0.2-0.1,0.4-0.2,0.6-0.2c0.3,0,0.7,0.1,1,0.3l-0.3,0.9
		c-0.2-0.1-0.5-0.2-0.7-0.2c-0.2,0-0.4,0.1-0.6,0.2c-0.2,0.1-0.3,0.3-0.4,0.5c-0.1,0.3-0.2,0.7-0.2,1.1v3H259.4z"/>
</g>
<g class="st1">
	<path class="st2" d="M262.7,38.6v-1.1h1.1v1.1c0,0.4-0.1,0.7-0.2,1c-0.1,0.2-0.4,0.4-0.7,0.6l-0.3-0.4c0.2-0.1,0.4-0.2,0.5-0.4
		s0.2-0.4,0.2-0.7H262.7z"/>
	<path class="st2" d="M268.7,38.6v-5h-0.9v-0.8h0.9v-0.6c0-0.4,0-0.7,0.1-0.9c0.1-0.3,0.3-0.5,0.5-0.6c0.2-0.2,0.6-0.2,1-0.2
		c0.3,0,0.6,0,0.9,0.1l-0.1,0.8c-0.2,0-0.4-0.1-0.6-0.1c-0.3,0-0.5,0.1-0.6,0.2c-0.1,0.1-0.2,0.4-0.2,0.7v0.5h1.1v0.8h-1.1v5H268.7z
		"/>
	<path class="st2" d="M271.6,38.6v-7.9h1v7.9H271.6z"/>
	<path class="st2" d="M277.9,36.8l1,0.1c-0.2,0.6-0.4,1-0.9,1.4c-0.4,0.3-1,0.5-1.6,0.5c-0.8,0-1.5-0.3-2-0.8
		c-0.5-0.5-0.7-1.2-0.7-2.2c0-1,0.2-1.7,0.7-2.2s1.1-0.8,1.9-0.8c0.8,0,1.4,0.3,1.9,0.8c0.5,0.5,0.7,1.2,0.7,2.2c0,0.1,0,0.1,0,0.3
		h-4.3c0,0.6,0.2,1.1,0.5,1.4c0.3,0.3,0.7,0.5,1.2,0.5c0.4,0,0.7-0.1,0.9-0.3C277.6,37.5,277.8,37.2,277.9,36.8z M274.7,35.2h3.2
		c0-0.5-0.2-0.8-0.4-1.1c-0.3-0.4-0.7-0.6-1.2-0.6c-0.4,0-0.8,0.1-1.1,0.4C274.9,34.3,274.8,34.7,274.7,35.2z"/>
	<path class="st2" d="M283.9,37.9c-0.4,0.3-0.7,0.5-1,0.6c-0.3,0.1-0.7,0.2-1.1,0.2c-0.6,0-1.1-0.2-1.4-0.5
		c-0.3-0.3-0.5-0.7-0.5-1.2c0-0.3,0.1-0.5,0.2-0.8c0.1-0.2,0.3-0.4,0.5-0.6c0.2-0.1,0.4-0.2,0.7-0.3c0.2,0,0.5-0.1,0.9-0.1
		c0.8-0.1,1.4-0.2,1.7-0.3c0-0.1,0-0.2,0-0.3c0-0.4-0.1-0.7-0.3-0.8c-0.2-0.2-0.6-0.3-1.1-0.3c-0.5,0-0.8,0.1-1,0.2
		c-0.2,0.2-0.4,0.4-0.5,0.8l-0.9-0.1c0.1-0.4,0.2-0.7,0.4-1c0.2-0.2,0.5-0.4,0.9-0.6c0.4-0.1,0.8-0.2,1.3-0.2c0.5,0,0.9,0.1,1.2,0.2
		c0.3,0.1,0.5,0.3,0.7,0.4c0.1,0.2,0.2,0.4,0.3,0.7c0,0.2,0,0.5,0,0.9v1.3c0,0.9,0,1.5,0.1,1.7c0,0.2,0.1,0.5,0.2,0.7h-1
		C284,38.4,283.9,38.2,283.9,37.9z M283.8,35.7c-0.4,0.1-0.9,0.3-1.6,0.4c-0.4,0.1-0.7,0.1-0.8,0.2c-0.2,0.1-0.3,0.2-0.4,0.3
		c-0.1,0.1-0.1,0.3-0.1,0.5c0,0.3,0.1,0.5,0.3,0.6c0.2,0.2,0.5,0.3,0.9,0.3c0.4,0,0.7-0.1,1-0.2s0.5-0.4,0.6-0.7
		c0.1-0.2,0.2-0.5,0.2-1V35.7z"/>
	<path class="st2" d="M289.3,40.8v-7.9h0.9v0.7c0.2-0.3,0.4-0.5,0.7-0.7c0.3-0.1,0.6-0.2,1-0.2c0.5,0,0.9,0.1,1.3,0.4
		c0.4,0.3,0.7,0.6,0.8,1.1c0.2,0.5,0.3,1,0.3,1.5c0,0.6-0.1,1.1-0.3,1.6c-0.2,0.5-0.5,0.8-0.9,1.1c-0.4,0.2-0.8,0.4-1.3,0.4
		c-0.3,0-0.6-0.1-0.9-0.2c-0.3-0.1-0.5-0.3-0.6-0.5v2.8H289.3z M290.2,35.8c0,0.7,0.1,1.3,0.4,1.6c0.3,0.4,0.7,0.5,1.1,0.5
		c0.4,0,0.8-0.2,1.1-0.5c0.3-0.4,0.5-0.9,0.5-1.7c0-0.7-0.1-1.3-0.4-1.6s-0.7-0.5-1.1-0.5c-0.4,0-0.8,0.2-1.1,0.6
		C290.3,34.5,290.2,35.1,290.2,35.8z"/>
</g>
<g class="st1">
	<path class="st2" d="M291.8,35.8c0-1.1,0.3-1.8,0.9-2.3c0.5-0.4,1.1-0.6,1.8-0.6c0.8,0,1.4,0.3,1.9,0.8c0.5,0.5,0.7,1.2,0.7,2.1
		c0,0.7-0.1,1.3-0.3,1.7c-0.2,0.4-0.5,0.7-1,1c-0.4,0.2-0.9,0.3-1.4,0.3c-0.8,0-1.4-0.3-1.9-0.8C292.1,37.5,291.8,36.7,291.8,35.8z
		 M292.8,35.8c0,0.7,0.2,1.3,0.5,1.6c0.3,0.4,0.7,0.5,1.2,0.5c0.5,0,0.9-0.2,1.2-0.5c0.3-0.4,0.5-0.9,0.5-1.7c0-0.7-0.2-1.2-0.5-1.6
		c-0.3-0.4-0.7-0.5-1.2-0.5c-0.5,0-0.9,0.2-1.2,0.5C293,34.5,292.8,35,292.8,35.8z"/>
</g>
<g class="st1">
	<path class="st2" d="M299.2,38.6l-1.7-5.7h1l0.9,3.3l0.3,1.2c0-0.1,0.1-0.5,0.3-1.2l0.9-3.3h1l0.9,3.3l0.3,1.1l0.3-1.1l1-3.3h0.9
		l-1.8,5.7h-1l-0.9-3.4l-0.2-1l-1.2,4.4H299.2z"/>
</g>
<g class="st1">
	<path class="st2" d="M309.8,38.6v-0.7c-0.4,0.6-0.9,0.8-1.6,0.8c-0.5,0-0.9-0.1-1.3-0.4c-0.4-0.3-0.7-0.6-0.9-1
		c-0.2-0.4-0.3-1-0.3-1.5c0-0.6,0.1-1.1,0.3-1.5c0.2-0.5,0.5-0.8,0.9-1.1c0.4-0.2,0.8-0.4,1.3-0.4c0.3,0,0.7,0.1,0.9,0.2
		c0.3,0.1,0.5,0.3,0.7,0.6v-2.8h1v7.9H309.8z M306.8,35.8c0,0.7,0.2,1.3,0.5,1.6c0.3,0.4,0.7,0.5,1.1,0.5c0.4,0,0.8-0.2,1.1-0.5
		c0.3-0.3,0.4-0.9,0.4-1.6c0-0.8-0.2-1.4-0.5-1.7s-0.7-0.5-1.1-0.5c-0.4,0-0.8,0.2-1.1,0.5C306.9,34.5,306.8,35,306.8,35.8z"/>
	<path class="st2" d="M316.1,36.8l1,0.1c-0.2,0.6-0.4,1-0.9,1.4c-0.4,0.3-1,0.5-1.6,0.5c-0.8,0-1.5-0.3-2-0.8
		c-0.5-0.5-0.7-1.2-0.7-2.2c0-1,0.2-1.7,0.7-2.2s1.1-0.8,1.9-0.8c0.8,0,1.4,0.3,1.9,0.8c0.5,0.5,0.7,1.2,0.7,2.2c0,0.1,0,0.1,0,0.3
		h-4.3c0,0.6,0.2,1.1,0.5,1.4c0.3,0.3,0.7,0.5,1.2,0.5c0.4,0,0.7-0.1,0.9-0.3C315.8,37.5,316,37.2,316.1,36.8z M313,35.2h3.2
		c0-0.5-0.2-0.8-0.4-1.1c-0.3-0.4-0.7-0.6-1.2-0.6c-0.4,0-0.8,0.1-1.1,0.4C313.2,34.3,313,34.7,313,35.2z"/>
</g>
<g class="st1">
	<path class="st2" d="M317.8,38.6v-5.7h0.9v0.9c0.2-0.4,0.4-0.7,0.6-0.8c0.2-0.1,0.4-0.2,0.6-0.2c0.3,0,0.7,0.1,1,0.3l-0.3,0.9
		c-0.2-0.1-0.5-0.2-0.7-0.2c-0.2,0-0.4,0.1-0.6,0.2c-0.2,0.1-0.3,0.3-0.4,0.5c-0.1,0.3-0.2,0.7-0.2,1.1v3H317.8z"/>
</g>
<g class="st1">
	<path class="st2" d="M321.1,38.6v-1.1h1.1v1.1H321.1z"/>
</g>
<circle class="st3" cx="366.9" cy="110.8" r="3.8"/>
<circle class="st3" cx="366.9" cy="105.4" r="3.8"/>
<circle class="st3" cx="364.1" cy="102" r="3.8"/>
<circle class="st3" cx="369.8" cy="100.4" r="3.8"/>
<circle class="st3" cx="361.5" cy="109.1" r="3.8"/>
<circle class="st3" cx="363.1" cy="113.2" r="3.8"/>
<circle class="st3" cx="358.1" cy="113.9" r="2.6"/>
<circle class="st3" cx="370.7" cy="107.5" r="2.6"/>
<circle class="st3" cx="370.7" cy="104.8" r="2.6"/>
<circle class="st3" cx="369.5" cy="110.1" r="2.6"/>
<circle class="st3" cx="370.7" cy="97.5" r="2.6"/>
<circle class="st3" cx="371.9" cy="95.4" r="2.6"/>
<circle class="st3" cx="367" cy="97.5" r="1"/>
<circle class="st3" cx="367.9" cy="95.9" r="1"/>
<circle class="st3" cx="365.5" cy="96.8" r="1"/>
<circle class="st3" cx="365.5" cy="98.2" r="1"/>
<circle class="st3" cx="349.9" cy="115" r="1"/>
<circle class="st3" cx="360.7" cy="104.3" r="1"/>
<circle class="st3" cx="361.7" cy="104" r="1"/>
<circle class="st3" cx="357.7" cy="103.3" r="1"/>
<circle class="st3" cx="357.7" cy="108.3" r="1"/>
<circle class="st3" cx="355.8" cy="105.8" r="1"/>
<circle class="st3" cx="354.2" cy="108.1" r="1"/>
<circle class="st3" cx="352.8" cy="104.3" r="1"/>
<circle class="st3" cx="353.2" cy="110.4" r="1"/>
<circle class="st3" cx="350.9" cy="112.9" r="1"/>
<circle class="st3" cx="350.5" cy="113.8" r="1"/>
<circle class="st3" cx="346" cy="115.5" r="1"/>
<circle class="st3" cx="351.9" cy="110.8" r="1"/>
<circle class="st3" cx="357.8" cy="105.8" r="1"/>
<circle class="st3" cx="356.2" cy="107.1" r="1"/>
<circle class="st3" cx="348" cy="115.2" r="1"/>
<circle class="st3" cx="360.7" cy="108" r="1"/>
<circle class="st3" cx="351.9" cy="115" r="1"/>
<circle class="st3" cx="353.2" cy="113.9" r="1"/>
<circle class="st3" cx="360.2" cy="106.1" r="1"/>
<circle class="st3" cx="355.5" cy="109.3" r="1"/>
<circle class="st3" cx="352.8" cy="112.7" r="1"/>
<circle class="st3" cx="353.6" cy="115.7" r="1"/>
<circle class="st3" cx="354.9" cy="110.6" r="1"/>
<circle class="st3" cx="368.1" cy="100.4" r="2.6"/>
<circle class="st3" cx="357.8" cy="110.4" r="2.6"/>
<circle class="st3" cx="355.5" cy="113.4" r="1.7"/>
<path class="st4" d="M212.7,85.9c0-16.7,8.5-30.3,19-30.3h129.7c6.7,0,12.2,4.9,12.2,10.8v40c0,5.9-5.5,10.8-12.2,10.8H232.2
	c-4.5,0.1-8.7-2.2-11-6.1C216.1,105.7,212.7,96.4,212.7,85.9z"/>
<path class="st0" d="M212.5,85.8c0,16.7,7.5,30.3,16.8,30.3S246,102.6,246,85.8s-7.5-30.3-16.8-30.3S212.5,69.1,212.5,85.8z
	 M222.1,77.6c2.4,0,4.4,2,4.4,4.4c0,2.4-2,4.4-4.4,4.4c-2.4,0-4.4-2-4.4-4.4l0,0C217.7,79.5,219.7,77.6,222.1,77.6L222.1,77.6z
	 M233.8,69.4c0,2.4-2,4.4-4.4,4.4s-4.4-2-4.4-4.4c0-2.4,2-4.4,4.4-4.4l0,0C231.8,64.9,233.8,66.9,233.8,69.4L233.8,69.4z M240.7,82
	c0,2.4-2,4.4-4.4,4.4s-4.4-2-4.4-4.4c0-2.4,2-4.4,4.4-4.4l0,0C238.7,77.6,240.7,79.6,240.7,82z M236.3,99.2c-2.4,0-4.4-2-4.4-4.4
	c0-2.4,2-4.4,4.4-4.4c2.4,0,4.4,2,4.4,4.4l0,0C240.7,97.3,238.7,99.2,236.3,99.2C236.3,99.2,236.3,99.2,236.3,99.2L236.3,99.2z
	 M224.9,104.7c0-2.4,2-4.4,4.4-4.4s4.4,2,4.4,4.4c0,2.4-2,4.4-4.4,4.4l0,0C226.9,109.1,224.9,107.1,224.9,104.7z M217.7,94.8
	c0-2.4,2-4.4,4.4-4.4s4.4,2,4.4,4.4c0,2.4-2,4.4-4.4,4.4l0,0C219.7,99.2,217.8,97.3,217.7,94.8L217.7,94.8z"/>
<path class="st0" d="M14.8,66.6h126.8c4.3,0,7.8,3.5,7.8,7.8v0c0,4.3-3.5,7.8-7.8,7.8H14.8c-4.3,0-7.8-3.5-7.8-7.8v0
	C7,70.1,10.5,66.6,14.8,66.6z"/>
<path class="st0" d="M14.6,115.6h127c4.3,0,7.8,3.5,7.8,7.8v1.5c0,4.3-3.5,7.8-7.8,7.8h-127c-4.3,0-7.8-3.5-7.8-7.8v-1.5
	C6.8,119.1,10.3,115.6,14.6,115.6z"/>
<ellipse class="st5" cx="37" cy="67.4" rx="22" ry="21.9"/>
<path class="st6" d="M21.8,51.5c0,0-2.7,26.9,8.5,36.9"/>
<path class="st6" d="M18.2,55.9c0,0-4,16.2,6.2,29.5"/>
<path class="st6" d="M31.9,46.1c-1.3,3.3-2.1,6.8-2.5,10.4c-1.1,9.3,0.4,22.5,14,32"/>
<path class="st6" d="M54.5,54.1c-7,6-16.4,8.2-25.4,6.1"/>
<path class="st6" d="M52,51.3c0,0-12.3,9.2-22.4,3.7"/>
<path class="st6" d="M30.2,51.3c0,0,10.3,4.1,17.8-3"/>
<path class="st6" d="M31.3,47.6c3.5,1.6,7.6,1,10.4-1.6"/>
<path class="st6" d="M37,61c-0.8,3.3-4,5.5-7.4,5.1"/>
<path class="st6" d="M40.8,60.5c0,0-0.1,9.8-10.5,9.9"/>
<path class="st6" d="M44.7,59.6c0,0,1.5,14.5-13,14.7"/>
<path class="st6" d="M48.8,57.9c0,0,6.5,17.6-14,22.2"/>
<path class="st6" d="M52.7,55.9c0,0,10.5,20.8-13.4,29.2"/>
<path class="st6" d="M26.7,48c0,0-5.9,23.3,8.8,41.3"/>
<ellipse class="st5" cx="36.4" cy="119" rx="22" ry="21.9"/>
<path class="st6" d="M21.3,103.2c0,0-2.7,26.9,8.5,36.9"/>
<path class="st6" d="M17.6,107.5c0,0-4,16.2,6.2,29.5"/>
<path class="st6" d="M31.3,97.7c-1.3,3.3-2.1,6.8-2.5,10.3c-1.1,9.3,0.4,22.5,14,32"/>
<path class="st6" d="M53.9,105.8c-7,6-16.4,8.2-25.4,6.1"/>
<path class="st6" d="M51.4,103c0,0-12.3,9.2-22.4,3.7"/>
<path class="st6" d="M29.6,103c0,0,10.3,4.1,17.8-3"/>
<path class="st6" d="M30.8,99.2c3.5,1.6,7.6,1,10.4-1.6"/>
<path class="st6" d="M36.4,112.6c-0.8,3.3-4,5.5-7.4,5.2"/>
<path class="st6" d="M40.2,112.2c0,0-0.1,9.8-10.5,9.9"/>
<path class="st6" d="M44.1,111.2c0,0,1.5,14.5-13,14.7"/>
<path class="st6" d="M48.3,109.5c0,0,6.5,17.6-14,22.2"/>
<path class="st6" d="M52.1,107.5c0,0,10.5,20.8-13.4,29.2"/>
<path class="st6" d="M26.1,99.6c0,0-5.8,23.3,8.9,41.4"/>
<g class="st1">
	<path class="st0" d="M68.4,59.5v-3.9c-1.2-0.3-2.1-0.9-2.7-1.6c-0.6-0.7-0.8-1.6-0.8-2.6c0-1,0.3-1.9,1-2.6
		c0.6-0.7,1.5-1.1,2.6-1.2v-0.9h1.3v0.9c1,0.1,1.8,0.5,2.3,1c0.6,0.6,1,1.3,1.1,2.2l-2.3,0.3c-0.1-0.7-0.5-1.2-1.1-1.5v3.6
		c1.5,0.4,2.5,0.9,3,1.6c0.5,0.6,0.8,1.5,0.8,2.5c0,1.1-0.3,2.1-1,2.8c-0.7,0.8-1.6,1.2-2.8,1.4v1.7h-1.3v-1.7
		c-1.1-0.1-1.9-0.5-2.6-1.2s-1.1-1.6-1.3-2.8l2.4-0.3c0.1,0.5,0.3,0.9,0.6,1.3C67.8,59.1,68.1,59.3,68.4,59.5z M68.4,49.8
		c-0.4,0.1-0.7,0.3-0.9,0.6c-0.2,0.3-0.3,0.6-0.3,1c0,0.3,0.1,0.6,0.3,0.9c0.2,0.3,0.5,0.5,0.9,0.7V49.8z M69.7,59.6
		c0.5-0.1,0.8-0.3,1.1-0.6c0.3-0.3,0.4-0.7,0.4-1.2c0-0.4-0.1-0.8-0.4-1.1c-0.2-0.3-0.6-0.5-1.2-0.7V59.6z"/>
	<path class="st0" d="M84,59.1v2.4h-9.1c0.1-0.9,0.4-1.8,0.9-2.6c0.5-0.8,1.5-1.9,2.9-3.3c1.2-1.1,1.9-1.8,2.2-2.2
		c0.4-0.5,0.5-1.1,0.5-1.6c0-0.6-0.2-1-0.5-1.3c-0.3-0.3-0.7-0.5-1.3-0.5c-0.5,0-1,0.2-1.3,0.5c-0.3,0.3-0.5,0.9-0.6,1.6l-2.6-0.3
		c0.2-1.4,0.6-2.5,1.5-3.1c0.8-0.6,1.8-0.9,3.1-0.9c1.3,0,2.4,0.4,3.2,1.1c0.8,0.7,1.2,1.6,1.2,2.7c0,0.6-0.1,1.2-0.3,1.7
		c-0.2,0.6-0.6,1.1-1,1.7c-0.3,0.4-0.9,1-1.7,1.7c-0.8,0.8-1.3,1.3-1.6,1.5c-0.2,0.2-0.4,0.5-0.5,0.7H84z"/>
	<path class="st0" d="M85.8,58l2.6-0.3c0.1,0.6,0.3,1.1,0.7,1.4c0.4,0.3,0.8,0.5,1.3,0.5c0.5,0,1-0.2,1.4-0.7c0.4-0.4,0.6-1.1,0.6-2
		c0-0.8-0.2-1.5-0.6-1.9c-0.4-0.4-0.9-0.6-1.5-0.6c-0.7,0-1.4,0.3-2,1l-2.1-0.3l1.3-7.1h6.9v2.4h-4.9l-0.4,2.3
		c0.6-0.3,1.2-0.4,1.8-0.4c1.2,0,2.1,0.4,2.9,1.3c0.8,0.8,1.2,1.9,1.2,3.3c0,1.1-0.3,2.1-1,3c-0.9,1.2-2.1,1.8-3.7,1.8
		c-1.3,0-2.3-0.3-3.1-1C86.5,60.1,86,59.2,85.8,58z"/>
</g>
<g class="st1">
	<path class="st2" d="M65.6,73L64,72.7c0.2-0.6,0.5-1.1,0.9-1.4c0.4-0.3,1.1-0.5,1.9-0.5c0.8,0,1.4,0.1,1.7,0.3
		c0.4,0.2,0.7,0.4,0.8,0.7c0.2,0.3,0.2,0.8,0.2,1.6l0,2c0,0.6,0,1,0.1,1.3c0.1,0.3,0.2,0.6,0.3,0.9h-1.7c0-0.1-0.1-0.3-0.2-0.5
		c0-0.1,0-0.2-0.1-0.2c-0.3,0.3-0.6,0.5-1,0.7s-0.7,0.2-1.1,0.2c-0.7,0-1.2-0.2-1.6-0.6c-0.4-0.4-0.6-0.8-0.6-1.4
		c0-0.4,0.1-0.7,0.3-1c0.2-0.3,0.4-0.5,0.8-0.7c0.3-0.2,0.8-0.3,1.4-0.4c0.8-0.2,1.4-0.3,1.7-0.4v-0.2c0-0.3-0.1-0.6-0.2-0.7
		c-0.2-0.1-0.5-0.2-0.9-0.2c-0.3,0-0.6,0.1-0.7,0.2C65.8,72.5,65.7,72.7,65.6,73z M67.9,74.4c-0.2,0.1-0.6,0.2-1.1,0.3
		c-0.5,0.1-0.8,0.2-1,0.3c-0.2,0.2-0.3,0.4-0.3,0.6c0,0.2,0.1,0.5,0.3,0.6c0.2,0.2,0.4,0.3,0.7,0.3c0.3,0,0.6-0.1,0.9-0.3
		c0.2-0.2,0.4-0.4,0.4-0.6c0-0.1,0.1-0.4,0.1-0.9V74.4z"/>
	<path class="st2" d="M77.4,77.6h-1.7v-3.4c0-0.7,0-1.2-0.1-1.4c-0.1-0.2-0.2-0.4-0.4-0.5c-0.2-0.1-0.4-0.2-0.6-0.2
		c-0.3,0-0.6,0.1-0.8,0.2s-0.4,0.4-0.5,0.7c-0.1,0.3-0.1,0.8-0.1,1.5v3h-1.7V71H73v1c0.6-0.7,1.3-1.1,2.2-1.1c0.4,0,0.7,0.1,1.1,0.2
		c0.3,0.1,0.6,0.3,0.7,0.5s0.3,0.5,0.3,0.7c0.1,0.3,0.1,0.7,0.1,1.2V77.6z"/>
	<path class="st2" d="M85.2,77.6h-1.7v-3.4c0-0.7,0-1.2-0.1-1.4c-0.1-0.2-0.2-0.4-0.4-0.5c-0.2-0.1-0.4-0.2-0.6-0.2
		c-0.3,0-0.6,0.1-0.8,0.2s-0.4,0.4-0.5,0.7c-0.1,0.3-0.1,0.8-0.1,1.5v3h-1.7V71h1.6v1c0.6-0.7,1.3-1.1,2.2-1.1
		c0.4,0,0.7,0.1,1.1,0.2c0.3,0.1,0.6,0.3,0.7,0.5s0.3,0.5,0.3,0.7c0.1,0.3,0.1,0.7,0.1,1.2V77.6z"/>
	<path class="st2" d="M91.3,77.6v-1c-0.2,0.4-0.6,0.6-0.9,0.8c-0.4,0.2-0.8,0.3-1.2,0.3c-0.4,0-0.8-0.1-1.2-0.3
		c-0.4-0.2-0.6-0.5-0.8-0.8s-0.2-0.8-0.2-1.5V71h1.7v3c0,0.9,0,1.5,0.1,1.7c0.1,0.2,0.2,0.4,0.4,0.5c0.2,0.1,0.4,0.2,0.6,0.2
		c0.3,0,0.6-0.1,0.8-0.2c0.2-0.2,0.4-0.4,0.5-0.6c0.1-0.2,0.1-0.8,0.1-1.8V71h1.7v6.6H91.3z"/>
	<path class="st2" d="M96,73l-1.6-0.3c0.2-0.6,0.5-1.1,0.9-1.4c0.4-0.3,1.1-0.5,1.9-0.5c0.8,0,1.4,0.1,1.7,0.3
		c0.4,0.2,0.7,0.4,0.8,0.7c0.2,0.3,0.2,0.8,0.2,1.6l0,2c0,0.6,0,1,0.1,1.3c0.1,0.3,0.2,0.6,0.3,0.9h-1.7c0-0.1-0.1-0.3-0.2-0.5
		c0-0.1,0-0.2-0.1-0.2c-0.3,0.3-0.6,0.5-1,0.7s-0.7,0.2-1.1,0.2c-0.7,0-1.2-0.2-1.6-0.6c-0.4-0.4-0.6-0.8-0.6-1.4
		c0-0.4,0.1-0.7,0.3-1c0.2-0.3,0.4-0.5,0.8-0.7c0.3-0.2,0.8-0.3,1.4-0.4c0.8-0.2,1.4-0.3,1.7-0.4v-0.2c0-0.3-0.1-0.6-0.2-0.7
		c-0.2-0.1-0.5-0.2-0.9-0.2c-0.3,0-0.6,0.1-0.7,0.2C96.3,72.5,96.1,72.7,96,73z M98.4,74.4c-0.2,0.1-0.6,0.2-1.1,0.3
		c-0.5,0.1-0.8,0.2-1,0.3c-0.2,0.2-0.3,0.4-0.3,0.6c0,0.2,0.1,0.5,0.3,0.6c0.2,0.2,0.4,0.3,0.7,0.3c0.3,0,0.6-0.1,0.9-0.3
		c0.2-0.2,0.4-0.4,0.4-0.6c0-0.1,0.1-0.4,0.1-0.9V74.4z"/>
	<path class="st2" d="M101.8,77.6v-9.1h1.7v9.1H101.8z"/>
</g>
<g class="st1">
	<path class="st2" d="M109.2,73l-1.7,0.3c-0.1-0.3-0.2-0.6-0.4-0.8c-0.2-0.2-0.5-0.3-0.8-0.3c-0.4,0-0.8,0.2-1,0.5s-0.4,0.8-0.4,1.5
		c0,0.8,0.1,1.3,0.4,1.7c0.3,0.3,0.6,0.5,1.1,0.5c0.3,0,0.6-0.1,0.8-0.3c0.2-0.2,0.4-0.5,0.4-1l1.7,0.3c-0.2,0.8-0.5,1.4-1,1.8
		c-0.5,0.4-1.2,0.6-2,0.6c-1,0-1.7-0.3-2.3-0.9c-0.6-0.6-0.9-1.5-0.9-2.5c0-1.1,0.3-1.9,0.9-2.5c0.6-0.6,1.4-0.9,2.3-0.9
		c0.8,0,1.4,0.2,1.9,0.5C108.7,71.7,109,72.2,109.2,73z"/>
</g>
<g class="st1">
	<path class="st2" d="M108.7,74.2c0-0.6,0.1-1.1,0.4-1.7c0.3-0.5,0.7-1,1.2-1.2c0.5-0.3,1.1-0.4,1.8-0.4c1,0,1.8,0.3,2.5,1
		c0.6,0.7,1,1.5,1,2.5c0,1-0.3,1.8-1,2.5c-0.6,0.7-1.5,1-2.4,1c-0.6,0-1.2-0.1-1.7-0.4c-0.5-0.3-1-0.7-1.3-1.2
		C108.8,75.6,108.7,75,108.7,74.2z M110.5,74.3c0,0.7,0.2,1.2,0.5,1.5c0.3,0.3,0.7,0.5,1.2,0.5s0.8-0.2,1.1-0.5s0.5-0.9,0.5-1.5
		c0-0.6-0.2-1.1-0.5-1.5s-0.7-0.5-1.1-0.5s-0.8,0.2-1.2,0.5C110.6,73.1,110.5,73.6,110.5,74.3z"/>
	<path class="st2" d="M116.3,75.7l1.8-0.3c0.1,0.3,0.2,0.6,0.5,0.8c0.2,0.2,0.5,0.3,1,0.3c0.5,0,0.8-0.1,1-0.2
		c0.2-0.1,0.2-0.3,0.2-0.5c0-0.1,0-0.2-0.1-0.3c-0.1-0.1-0.3-0.2-0.6-0.2c-1.4-0.3-2.3-0.6-2.7-0.9c-0.5-0.4-0.8-0.9-0.8-1.5
		c0-0.6,0.2-1.1,0.7-1.4c0.5-0.4,1.2-0.6,2.1-0.6c0.9,0,1.6,0.1,2,0.4c0.4,0.3,0.7,0.7,0.9,1.3l-1.6,0.3c-0.1-0.3-0.2-0.5-0.4-0.6
		c-0.2-0.1-0.5-0.2-0.8-0.2c-0.5,0-0.8,0.1-1,0.2c-0.1,0.1-0.2,0.2-0.2,0.4c0,0.1,0.1,0.2,0.2,0.3c0.2,0.1,0.7,0.3,1.6,0.5
		c0.9,0.2,1.6,0.5,2,0.8c0.4,0.3,0.5,0.7,0.5,1.3c0,0.6-0.3,1.1-0.8,1.6c-0.5,0.4-1.3,0.7-2.2,0.7c-0.9,0-1.6-0.2-2.1-0.5
		S116.4,76.4,116.3,75.7z"/>
	<path class="st2" d="M127,71v1.4h-1.2v2.7c0,0.5,0,0.9,0,0.9c0,0.1,0.1,0.2,0.2,0.2c0.1,0.1,0.2,0.1,0.3,0.1c0.2,0,0.4-0.1,0.7-0.2
		l0.1,1.4c-0.4,0.2-0.9,0.3-1.4,0.3c-0.3,0-0.6-0.1-0.9-0.2c-0.3-0.1-0.4-0.2-0.6-0.4c-0.1-0.2-0.2-0.4-0.2-0.7
		c0-0.2-0.1-0.6-0.1-1.2v-2.9h-0.8V71h0.8v-1.3l1.8-1V71H127z"/>
</g>
<g class="st1">
	<path class="st0" d="M67.8,107.8V104c-1.2-0.3-2.1-0.9-2.7-1.6c-0.6-0.7-0.8-1.6-0.8-2.6c0-1,0.3-1.9,1-2.6
		c0.6-0.7,1.5-1.1,2.6-1.2v-0.9h1.3v0.9c1,0.1,1.8,0.5,2.3,1c0.6,0.6,1,1.3,1.1,2.2l-2.3,0.3c-0.1-0.7-0.5-1.2-1.1-1.5v3.6
		c1.5,0.4,2.5,0.9,3,1.6c0.5,0.6,0.8,1.5,0.8,2.5c0,1.1-0.3,2.1-1,2.8c-0.7,0.8-1.6,1.2-2.8,1.4v1.7h-1.3v-1.7
		c-1.1-0.1-1.9-0.5-2.6-1.2s-1.1-1.6-1.3-2.8l2.4-0.3c0.1,0.5,0.3,0.9,0.6,1.3C67.2,107.4,67.5,107.7,67.8,107.8z M67.8,98.1
		c-0.4,0.1-0.7,0.3-0.9,0.6c-0.2,0.3-0.3,0.6-0.3,1c0,0.3,0.1,0.6,0.3,0.9c0.2,0.3,0.5,0.5,0.9,0.7V98.1z M69.2,108
		c0.5-0.1,0.8-0.3,1.1-0.6c0.3-0.3,0.4-0.7,0.4-1.2c0-0.4-0.1-0.8-0.4-1.1c-0.2-0.3-0.6-0.5-1.2-0.7V108z"/>
	<path class="st0" d="M74.6,106.3l2.5-0.3c0.1,0.6,0.3,1.1,0.6,1.5c0.4,0.3,0.8,0.5,1.3,0.5c0.5,0,1-0.2,1.4-0.6
		c0.4-0.4,0.6-1,0.6-1.7c0-0.7-0.2-1.2-0.5-1.6s-0.8-0.6-1.3-0.6c-0.3,0-0.7,0.1-1.2,0.2l0.3-2.1c0.7,0,1.2-0.1,1.6-0.5
		c0.4-0.3,0.6-0.8,0.6-1.3c0-0.5-0.1-0.8-0.4-1.1c-0.3-0.3-0.6-0.4-1.1-0.4c-0.4,0-0.8,0.2-1.1,0.5c-0.3,0.3-0.5,0.8-0.6,1.4
		l-2.4-0.4c0.2-0.8,0.4-1.5,0.8-2c0.3-0.5,0.8-0.9,1.4-1.2c0.6-0.3,1.3-0.4,2-0.4c1.3,0,2.3,0.4,3.1,1.2c0.6,0.7,1,1.4,1,2.3
		c0,1.2-0.7,2.1-2,2.9c0.8,0.2,1.4,0.5,1.9,1.1c0.5,0.6,0.7,1.3,0.7,2.1c0,1.2-0.4,2.2-1.3,3.1c-0.9,0.8-2,1.3-3.3,1.3
		c-1.2,0-2.3-0.4-3.1-1.1C75.2,108.3,74.7,107.4,74.6,106.3z"/>
	<path class="st0" d="M85.3,106.4l2.6-0.3c0.1,0.6,0.3,1.1,0.7,1.4c0.4,0.3,0.8,0.5,1.3,0.5c0.5,0,1-0.2,1.4-0.7
		c0.4-0.4,0.6-1.1,0.6-2c0-0.8-0.2-1.5-0.6-1.9c-0.4-0.4-0.9-0.6-1.5-0.6c-0.7,0-1.4,0.3-2,1l-2.1-0.3l1.3-7.1h6.9v2.4h-4.9
		l-0.4,2.3c0.6-0.3,1.2-0.4,1.8-0.4c1.2,0,2.1,0.4,2.9,1.3c0.8,0.8,1.2,1.9,1.2,3.3c0,1.1-0.3,2.1-1,3c-0.9,1.2-2.1,1.8-3.7,1.8
		c-1.3,0-2.3-0.3-3.1-1C85.9,108.4,85.4,107.5,85.3,106.4z"/>
	<path class="st0" d="M100.2,96.2c1.3,0,2.3,0.5,3.1,1.4c0.9,1.1,1.3,3,1.3,5.5c0,2.6-0.4,4.4-1.3,5.5c-0.7,0.9-1.8,1.4-3.1,1.4
		c-1.3,0-2.4-0.5-3.2-1.5c-0.8-1-1.2-2.8-1.2-5.4c0-2.6,0.4-4.4,1.3-5.5C97.9,96.7,98.9,96.2,100.2,96.2z M100.2,98.4
		c-0.3,0-0.6,0.1-0.8,0.3c-0.2,0.2-0.4,0.6-0.6,1.1c-0.2,0.7-0.3,1.8-0.3,3.4s0.1,2.7,0.2,3.3c0.2,0.6,0.4,1,0.6,1.2
		c0.2,0.2,0.5,0.3,0.8,0.3s0.6-0.1,0.8-0.3c0.2-0.2,0.4-0.6,0.6-1.1c0.2-0.7,0.3-1.8,0.3-3.4s-0.1-2.7-0.2-3.3
		c-0.2-0.6-0.4-1-0.6-1.2C100.8,98.5,100.5,98.4,100.2,98.4z"/>
</g>
<g class="st1">
	<path class="st2" d="M64.3,128.2v-9.1H66v9.1H64.3z"/>
	<path class="st2" d="M67.8,120.7v-1.6h1.7v1.6H67.8z M67.8,128.2v-6.6h1.7v6.6H67.8z"/>
</g>
<g class="st1">
	<path class="st2" d="M69.5,121.6h1v-0.5c0-0.6,0.1-1,0.2-1.2c0.1-0.3,0.3-0.5,0.7-0.7c0.3-0.2,0.7-0.3,1.2-0.3c0.5,0,1,0.1,1.5,0.2
		l-0.2,1.2c-0.3-0.1-0.5-0.1-0.8-0.1c-0.3,0-0.4,0.1-0.5,0.2c-0.1,0.1-0.2,0.3-0.2,0.7v0.5h1.3v1.4h-1.3v5.2h-1.7V123h-1V121.6z"/>
</g>
<g class="st1">
	<path class="st2" d="M77.7,126.1l1.7,0.3c-0.2,0.6-0.6,1.1-1.1,1.5c-0.5,0.3-1.1,0.5-1.8,0.5c-1.1,0-2-0.4-2.6-1.1
		c-0.4-0.6-0.7-1.4-0.7-2.3c0-1.1,0.3-2,0.9-2.6s1.3-0.9,2.2-0.9c1,0,1.8,0.3,2.3,1c0.6,0.7,0.8,1.6,0.8,3h-4.4
		c0,0.5,0.2,0.9,0.4,1.2c0.3,0.3,0.6,0.4,1,0.4c0.3,0,0.5-0.1,0.7-0.2C77.4,126.7,77.6,126.5,77.7,126.1z M77.8,124.4
		c0-0.5-0.1-0.9-0.4-1.2s-0.6-0.4-0.9-0.4c-0.4,0-0.7,0.1-0.9,0.4c-0.2,0.3-0.4,0.7-0.4,1.1H77.8z"/>
	<path class="st2" d="M83.9,121.6v1.4h-1.2v2.7c0,0.5,0,0.9,0,0.9c0,0.1,0.1,0.2,0.2,0.2c0.1,0.1,0.2,0.1,0.3,0.1
		c0.2,0,0.4-0.1,0.7-0.2l0.1,1.4c-0.4,0.2-0.9,0.3-1.4,0.3c-0.3,0-0.6-0.1-0.9-0.2c-0.3-0.1-0.4-0.2-0.6-0.4
		c-0.1-0.2-0.2-0.4-0.2-0.7c0-0.2-0.1-0.6-0.1-1.2V123h-0.8v-1.4H81v-1.3l1.8-1v2.3H83.9z"/>
	<path class="st2" d="M85.2,120.7v-1.6h1.7v1.6H85.2z M85.2,128.2v-6.6h1.7v6.6H85.2z"/>
	<path class="st2" d="M88.6,121.6h1.6v0.9c0.6-0.7,1.3-1.1,2.1-1.1c0.4,0,0.8,0.1,1.1,0.3c0.3,0.2,0.6,0.4,0.8,0.8
		c0.3-0.4,0.6-0.6,0.9-0.8c0.3-0.2,0.7-0.3,1.1-0.3c0.5,0,0.9,0.1,1.2,0.3c0.3,0.2,0.6,0.5,0.8,0.9c0.1,0.3,0.2,0.7,0.2,1.4v4.2
		h-1.7v-3.8c0-0.7-0.1-1.1-0.2-1.3c-0.2-0.2-0.4-0.4-0.7-0.4c-0.2,0-0.5,0.1-0.7,0.2s-0.4,0.4-0.5,0.7c-0.1,0.3-0.1,0.7-0.1,1.4v3.2
		h-1.7v-3.6c0-0.6,0-1.1-0.1-1.2c-0.1-0.2-0.2-0.3-0.3-0.4c-0.1-0.1-0.3-0.1-0.5-0.1c-0.3,0-0.5,0.1-0.7,0.2
		c-0.2,0.1-0.4,0.4-0.5,0.6c-0.1,0.3-0.1,0.7-0.1,1.4v3.2h-1.7V121.6z"/>
	<path class="st2" d="M103.9,126.1l1.7,0.3c-0.2,0.6-0.6,1.1-1.1,1.5c-0.5,0.3-1.1,0.5-1.8,0.5c-1.1,0-2-0.4-2.6-1.1
		c-0.4-0.6-0.7-1.4-0.7-2.3c0-1.1,0.3-2,0.9-2.6s1.3-0.9,2.2-0.9c1,0,1.8,0.3,2.3,1c0.6,0.7,0.8,1.6,0.8,3h-4.4
		c0,0.5,0.2,0.9,0.4,1.2c0.3,0.3,0.6,0.4,1,0.4c0.3,0,0.5-0.1,0.7-0.2C103.6,126.7,103.8,126.5,103.9,126.1z M104,124.4
		c0-0.5-0.1-0.9-0.4-1.2s-0.6-0.4-0.9-0.4c-0.4,0-0.7,0.1-0.9,0.4c-0.2,0.3-0.4,0.7-0.4,1.1H104z"/>
</g>
<g class="st1">
	<path class="st2" d="M112.9,123.6l-1.7,0.3c-0.1-0.3-0.2-0.6-0.4-0.8c-0.2-0.2-0.5-0.3-0.8-0.3c-0.4,0-0.8,0.2-1,0.5
		s-0.4,0.8-0.4,1.5c0,0.8,0.1,1.3,0.4,1.7c0.3,0.3,0.6,0.5,1.1,0.5c0.3,0,0.6-0.1,0.8-0.3c0.2-0.2,0.4-0.5,0.4-1l1.7,0.3
		c-0.2,0.8-0.5,1.4-1,1.8c-0.5,0.4-1.2,0.6-2,0.6c-1,0-1.7-0.3-2.3-0.9c-0.6-0.6-0.9-1.5-0.9-2.5c0-1.1,0.3-1.9,0.9-2.5
		c0.6-0.6,1.4-0.9,2.3-0.9c0.8,0,1.4,0.2,1.9,0.5C112.4,122.3,112.7,122.9,112.9,123.6z"/>
</g>
<g class="st1">
	<path class="st2" d="M112.4,124.8c0-0.6,0.1-1.1,0.4-1.7c0.3-0.5,0.7-1,1.2-1.2c0.5-0.3,1.1-0.4,1.8-0.4c1,0,1.8,0.3,2.5,1
		c0.6,0.7,1,1.5,1,2.5c0,1-0.3,1.8-1,2.5c-0.6,0.7-1.5,1-2.4,1c-0.6,0-1.2-0.1-1.7-0.4c-0.5-0.3-1-0.7-1.3-1.2
		C112.5,126.2,112.4,125.6,112.4,124.8z M114.2,124.9c0,0.7,0.2,1.2,0.5,1.5c0.3,0.3,0.7,0.5,1.2,0.5s0.8-0.2,1.1-0.5
		s0.5-0.9,0.5-1.5c0-0.6-0.2-1.1-0.5-1.5s-0.7-0.5-1.1-0.5s-0.8,0.2-1.2,0.5C114.3,123.8,114.2,124.3,114.2,124.9z"/>
	<path class="st2" d="M119.9,126.4l1.8-0.3c0.1,0.3,0.2,0.6,0.5,0.8c0.2,0.2,0.5,0.3,1,0.3c0.5,0,0.8-0.1,1-0.2
		c0.2-0.1,0.2-0.3,0.2-0.5c0-0.1,0-0.2-0.1-0.3c-0.1-0.1-0.3-0.2-0.6-0.2c-1.4-0.3-2.3-0.6-2.7-0.9c-0.5-0.4-0.8-0.9-0.8-1.5
		c0-0.6,0.2-1.1,0.7-1.4c0.5-0.4,1.2-0.6,2.1-0.6c0.9,0,1.6,0.1,2,0.4c0.4,0.3,0.7,0.7,0.9,1.3l-1.6,0.3c-0.1-0.3-0.2-0.5-0.4-0.6
		c-0.2-0.1-0.5-0.2-0.8-0.2c-0.5,0-0.8,0.1-1,0.2c-0.1,0.1-0.2,0.2-0.2,0.4c0,0.1,0.1,0.2,0.2,0.3c0.2,0.1,0.7,0.3,1.6,0.5
		c0.9,0.2,1.6,0.5,2,0.8c0.4,0.3,0.5,0.7,0.5,1.3c0,0.6-0.3,1.1-0.8,1.6c-0.5,0.4-1.3,0.7-2.2,0.7c-0.9,0-1.6-0.2-2.1-0.5
		S120.1,127,119.9,126.4z"/>
	<path class="st2" d="M130.7,121.6v1.4h-1.2v2.7c0,0.5,0,0.9,0,0.9c0,0.1,0.1,0.2,0.2,0.2c0.1,0.1,0.2,0.1,0.3,0.1
		c0.2,0,0.4-0.1,0.7-0.2l0.1,1.4c-0.4,0.2-0.9,0.3-1.4,0.3c-0.3,0-0.6-0.1-0.9-0.2c-0.3-0.1-0.4-0.2-0.6-0.4
		c-0.1-0.2-0.2-0.4-0.2-0.7c0-0.2-0.1-0.6-0.1-1.2V123h-0.8v-1.4h0.8v-1.3l1.8-1v2.3H130.7z"/>
</g>
</svg>
