<svg id="main_graphic" data-name="main graphic" xmlns="http://www.w3.org/2000/svg" viewBox="0 0 430 190"><title>INFOGRAPHIC-05</title><rect x="136.34" y="36.88" width="290.26" height="98.29" rx="12" ry="12" fill="#fbb040"/><g style="isolation:isolate"><text transform="translate(167.04 163.66)" font-size="11" fill="#231f20" font-family="Arial" style="isolation:isolate">*</text><text transform="translate(171.6 163.66)" font-size="11" fill="#231f20" font-family="Arial" style="isolation:isolate">M</text><text transform="translate(180.51 163.66)" font-size="11" fill="#231f20" font-family="Arial" style="isolation:isolate">edical </text><text transform="translate(209.96 163.66)" font-size="11" fill="#231f20" font-family="Arial" style="isolation:isolate">c</text><text transform="translate(214.82 163.66)" font-size="11" fill="#231f20" font-family="Arial" style="isolation:isolate">osts </text><text transform="translate(235.54 163.66)" font-size="11" fill="#231f20" font-family="Arial" style="isolation:isolate">w</text><text transform="translate(243.53 163.66)" font-size="11" fill="#231f20" font-family="Arial" style="isolation:isolate">ould be substa</text><text transform="translate(310.84 163.66)" font-size="11" fill="#231f20" font-family="Arial" style="isolation:isolate">n</text><text transform="translate(316.9 163.66)" font-size="11" fill="#231f20" font-family="Arial" style="isolation:isolate">tially higher in case</text><text transform="translate(404.6 163.66)" font-size="11" fill="#231f20" font-family="Arial" style="isolation:isolate">s</text><text transform="translate(408.83 163.66)" font-size="11" fill="#231f20" font-family="Arial" style="isolation:isolate">.</text></g><g style="isolation:isolate"><text transform="translate(212.84 96.96)" font-size="23" fill="#231f20" font-family="Arial" font-weight="700" style="isolation:isolate">$475</text><text transform="translate(260.04 96.96)" font-size="16" fill="#231f20" font-family="Arial" font-weight="700" style="isolation:isolate;white-space:pre"> annual </text><text transform="translate(312.59 96.96)" font-size="16" fill="#231f20" font-family="Arial" font-weight="700" style="isolation:isolate">c</text><text transform="translate(319.67 96.96)" font-size="16" fill="#231f20" font-family="Arial" font-weight="700" style="isolation:isolate">ost</text><text transform="translate(212.84 125.36)" font-size="23" fill="#231f20" font-family="Arial" font-weight="700" style="isolation:isolate">$6,650 </text><text transform="translate(281.47 125.36)" font-size="16" fill="#231f20" font-family="Arial" font-weight="700" style="isolation:isolate">li</text><text transform="translate(288.99 125.36)" font-size="16" fill="#231f20" font-family="Arial" font-weight="700" style="isolation:isolate">f</text><text transform="translate(293.46 125.36)" font-size="16" fill="#231f20" font-family="Arial" font-weight="700" style="isolation:isolate">etime </text><text transform="translate(335.26 125.36)" font-size="16" fill="#231f20" font-family="Arial" font-weight="700" style="isolation:isolate">c</text><text transform="translate(342.33 125.36)" font-size="16" fill="#231f20" font-family="Arial" font-weight="700" style="isolation:isolate">ost</text></g><g style="isolation:isolate"><text transform="translate(212.84 63.8)" font-size="26" fill="#231f20" font-family="Arial" style="isolation:isolate">T</text><text transform="translate(225.06 63.8)" font-size="26" fill="#231f20" font-family="Arial" style="isolation:isolate">O</text><text transform="translate(242.32 63.8)" font-size="26" fill="#231f20" font-family="Arial" letter-spacing="-1" style="isolation:isolate">T</text><text transform="translate(253.3 63.8)" font-size="26" fill="#231f20" font-family="Arial" style="isolation:isolate">A<tspan x="17.34" y="0">L</tspan></text></g><path d="M147.35,173.33a5.92,5.92,0,0,0-.16-8c-4.16-4.56-10.29-3.57-15.71-2.47-5.56-2.25-6.15-9.75-5.84-15.74,0.21-3.94.43-8,1.85-11.65s4.27-7,8.1-8a45.76,45.76,0,0,0,7.87,29.09c2.29,3.32,5.4,6.57,9.78,6.22a5,5,0,0,0,4.74-4.53c0.17-2.67-.13-4.3-3.91-6.14-8.5-4.14-10.9-22.78-2.36-29.36,1.72-1.32,3.4-1.17,5.52-.75,7.22,1.44,12.69,3,18.64,4.73,4.59,1.33,9.77,3.18,11.48,7.63,1,2.69.56,5.93,3.56,7.83a7,7,0,0,0,9.62-2.36l0.18-.32c3-5.13,0-11.43-4.52-14.88-4.11-3.16-9.23-4.6-14.06-6.49S172.4,113.57,170,109c-5.48-10.31,4.41-22.76,2.34-34.26-1.29-7.17-7.19-14.11-4.54-20.9,2.52-6.46,7.86-10.78,10.83-17,0.86-1.82.86-1.82,0.44-4.51-0.53-3.45-5.59-3.67-8.9-4.57-1.36-.37-2.65-2-4-2.24a74,74,0,0,0-11.32-.61l-2-9.6a0.33,0.33,0,0,0-.54-0.18C149,18,149.34,26.47,146.6,26.34c-3.86-.12-6.22-4.86-8.61-6.57s-2.46-2.35-3.91-.17a6.17,6.17,0,0,0-1,3.92l2.17,26.54c0.39,4.79.74,9.86-1.38,14.18-3.57,7.27-12.48,9.69-20,12.78-25.72,10.61-43,38.88-40.68,66.61,0.55,6.56,1.77,14.2-5.72,17.75a15.51,15.51,0,0,1-7.06,1.41c-11-.28-22.91-0.07-32.79-5.32-8.79-4.67-15.39-15-12.4-24.54,0.73-2.32,2-4.46,2.53-6.83,0.68-2.92,0-6.54-3.3-7.52a5.6,5.6,0,0,0-4.79.84c-2.91,2.11-3.77,5.66-4.23,9-1.66,12.29,1.18,25.76,10,34.46,7.81,7.7,19.22,10.73,30.19,11s21.83-1.87,32.74-3.06a187.3,187.3,0,0,1,61.43,3.6C142.37,175,145.21,175.62,147.35,173.33Z" fill="#231f20"/></svg>