<?xml version="1.0" encoding="utf-8"?>
<!-- Generator: Adobe Illustrator 19.2.1, SVG Export Plug-In . SVG Version: 6.00 Build 0)  -->
<svg version="1.1" id="main_graphic" xmlns="http://www.w3.org/2000/svg" xmlns:xlink="http://www.w3.org/1999/xlink" x="0px"
	 y="0px" width="410px" height="190px" viewBox="0 0 410 190" style="enable-background:new 0 0 410 190;" xml:space="preserve">
<style type="text/css">
	.st0{fill:#00A651;}
	.st1{fill:#006838;}
	.st2{fill:#00A651;stroke:#006838;stroke-width:1.87;stroke-miterlimit:10;}
	.st3{fill:#DDB6CB;stroke:#006838;stroke-width:1.87;stroke-miterlimit:10;}
	.st4{fill:#F2F1CC;stroke:#F2F1CC;stroke-width:1.73;stroke-miterlimit:10;}
	.st5{fill:#F2F1CC;stroke:#F2F1CC;stroke-width:1.86;stroke-miterlimit:10;}
	.st6{fill:#F2F1CC;stroke:#F2F1CC;stroke-width:1.62;stroke-miterlimit:10;}
	.st7{fill:#E26998;}
	.st8{fill:#F2F1CC;}
	.st9{enable-background:new    ;}
	.st10{fill:#231F20;}
	.st11{fill:#00A651;stroke:#231F20;stroke-width:0.85;stroke-miterlimit:10;}
	.st12{fill:none;stroke:#231F20;stroke-width:0.85;stroke-miterlimit:10;}
	.st13{fill:#FFFFFF;}
	.st14{fill:#F1F2F2;}
</style>
<title>INFOGRAPHIC-06</title>
<path class="st0" d="M114.3,122.1l0.4,6.3c0.1,2.1,0.2,4.2,0.3,6.3c0,0.4-0.3,0.7-0.6,0.7c0,0,0,0,0,0h-0.1
	c-4.2,0.2-8.5,0.4-12.7,0.6s-8.5,0.4-12.7,0.5l-12.7,0.4c-4.2,0.2-8.5,0.2-12.7,0.3l-12.7,0.3c-4.2,0.1-8.5,0.2-12.7,0.2l-12.7,0.2
	C21.3,138,17,138,12.8,138c-1.9,0-3.4-1.5-3.4-3.4c0,0,0,0,0,0l0,0l-0.1-22.4c0-3.7,0-7.5,0-11.2l0.1-11.2l0.1-11.2
	c0-3.7,0.1-7.5,0.1-11.2l0.2-11.2c0.1-3.7,0.1-7.5,0.2-11.2V45c0,0,0-0.1,0-0.1c0-0.4,0.1-0.5,0.1-0.8s0.1-0.5,0.1-0.7
	c0.1-0.5,0.2-0.9,0.3-1.3c0.3-0.8,0.5-1.7,0.9-2.5c0.6-1.6,1.4-3.2,2.2-4.6c0.8-1.5,1.8-2.9,2.8-4.2c1-1.3,2.1-2.6,3.3-3.8
	c1.2-1.2,2.4-2.3,3.8-3.4c1.3-1,2.7-2,4.1-2.9c0.7-0.5,1.4-0.9,2.1-1.3l1.1-0.6l1.1-0.5c1.5-0.8,3-1.4,4.5-2s3-1.2,4.6-1.6
	c0.8-0.2,1.6-0.5,2.3-0.7l2.4-0.6c1.6-0.4,3.2-0.6,4.7-1s3.2-0.5,4.8-0.7s3.2-0.3,4.8-0.4s3.2-0.2,4.8-0.2c1.6,0,3.2,0,4.8,0
	l4.8,0.2l-4.8,0.4c-1.6,0.1-3.1,0.4-4.7,0.5c-1.6,0.2-3.1,0.5-4.7,0.7s-3.1,0.6-4.6,0.9s-3.1,0.7-4.6,1.1s-3,0.8-4.5,1.3l-2.2,0.7
	c-0.7,0.3-1.4,0.6-2.2,0.8s-1.4,0.6-2.1,0.9l-2.1,0.9c-1.4,0.7-2.8,1.4-4.1,2.2l-1,0.6l-1,0.6c-0.6,0.4-1.3,0.8-1.9,1.3
	c-1.2,0.9-2.4,1.8-3.5,2.8c-1.1,1-2.2,2.1-3.2,3.2c-1,1.1-1.9,2.3-2.8,3.5c-0.8,1.2-1.6,2.5-2.3,3.8c-0.7,1.3-1.2,2.6-1.7,4
	c-0.2,0.7-0.4,1.4-0.6,2c-0.1,0.3-0.2,0.7-0.2,1s-0.1,0.7-0.1,0.9v-0.3c0.1,3.7,0.1,7.5,0.2,11.2L16,67.5c0,3.7,0.1,7.5,0.1,11.2
	l0.1,11.2l0.1,11.2c0,3.7,0,7.5,0,11.2l-0.1,22.4l-3.4-3.4c4.2,0,8.5,0,12.7,0.1l12.7,0.2c4.2,0.1,8.5,0.1,12.7,0.2l12.7,0.3
	c4.2,0.1,8.5,0.2,12.7,0.3l12.7,0.4c4.2,0.1,8.5,0.3,12.7,0.5s8.5,0.4,12.7,0.6l-0.7,0.7c0.1-2.1,0.2-4.2,0.3-6.3L114.3,122.1z"/>
<path class="st1" d="M38.9,100.7c-0.8,3.3,3.2,6.1,6.6,5.8s6.2-2.6,9-4.5c4.4-3,9.3-5.3,13.6-8.5s8.1-7.5,9.2-12.7
	s-1.3-11.4-6.3-13.3c-6.3-2.4-14.6,2.5-19.6-3.5c-1.1-1.3-1.9-3-2.9-4.4c-2.2-2.9-5.8-3.2-6.8,0.8c-0.4,2.2-0.1,4.5,1,6.5
	c1.6,3.1,4,5.7,5.5,8.9c0.1,0.1,0.1,0.2,0.1,0.3c0,0.1-0.1,0.2-0.2,0.3c-3,2-8.8-1.3-10.9,2.1c-1.1,1.7,0.1,4.1,1.8,5.3
	s3.8,1.5,5.7,2.3s3.8,2.3,3.9,4.3c0.1,2.4-2.2,4.2-4.4,5.4S39.5,98.4,38.9,100.7z"/>
<path class="st0" d="M19.5,146.8h373.5c6.7,0,12.2,5.4,12.2,12.2v4.8c0,6.7-5.4,12.2-12.2,12.2H19.5c-6.7,0-12.2-5.4-12.2-12.2V159
	C7.3,152.3,12.7,146.8,19.5,146.8z"/>
<path class="st2" d="M106.9,50c0,0-50.6-4.4-49,28.4s11.9,32.3,49.6,32C109.4,87.7,106.9,50,106.9,50z"/>
<path class="st3" d="M111.2,54.1c0.1,0.2,0.2,0.4,0.3,0.6c1.4,3.1,12.3,26,0.6,51.1C99.5,132.4,95.4,28.4,111.2,54.1z"/>
<path class="st4" d="M159,77.7c0,14.6-9.7,26.5-12.9,26.5s6-11.3,6-25.9s-9.3-25.9-6.1-25.9S159,63.1,159,77.7z"/>
<path class="st5" d="M179.3,79.3c0,16.8-9.7,30.5-12.9,30.5s6-13.1,6-29.9s-9.3-29.9-6.1-29.9S179.3,62.4,179.3,79.3z"/>
<path class="st6" d="M137,77.6c0,12.8-9.7,23.1-12.9,23.1s6-9.9,6-22.7s-9.3-22.7-6.1-22.7S137,64.8,137,77.6z"/>
<ellipse class="st7" cx="109.5" cy="80" rx="4" ry="8.1"/>
<path class="st8" d="M111.7,75.9h88.3c2,0,3.6,1.6,3.6,3.6v0.7c0,2-1.6,3.6-3.6,3.6h-88.3c-2,0-3.6-1.6-3.6-3.6v-0.7
	C108.2,77.5,109.8,75.9,111.7,75.9z"/>
<g class="st9">
	<path class="st10" d="M73.6,8.3h7.7v1.9h-5.5v2.5h4.8v1.9h-4.8v4.5h-2.2V8.3z"/>
	<path class="st10" d="M91.1,18.1c-0.8,0.8-2,1.3-3.5,1.3S84.8,19,84,18.1c-1.1-1-1.6-2.5-1.6-4.5c0-2,0.5-3.5,1.6-4.5
		C84.8,8.4,86,8,87.5,8s2.7,0.4,3.5,1.3c1.1,1,1.6,2.5,1.6,4.5C92.7,15.6,92.2,17.1,91.1,18.1z M89.7,16.5c0.5-0.7,0.8-1.6,0.8-2.8
		c0-1.2-0.3-2.1-0.8-2.8c-0.5-0.7-1.2-1-2.1-1s-1.6,0.3-2.1,1c-0.5,0.7-0.8,1.6-0.8,2.8c0,1.2,0.3,2.2,0.8,2.8c0.5,0.7,1.2,1,2.1,1
		S89.1,17.2,89.7,16.5z"/>
	<path class="st10" d="M102.7,18.1c-0.8,0.8-2,1.3-3.5,1.3s-2.7-0.4-3.5-1.3c-1.1-1-1.6-2.5-1.6-4.5c0-2,0.5-3.5,1.6-4.5
		c0.8-0.8,2-1.3,3.5-1.3s2.7,0.4,3.5,1.3c1.1,1,1.6,2.5,1.6,4.5C104.4,15.6,103.8,17.1,102.7,18.1z M101.3,16.5
		c0.5-0.7,0.8-1.6,0.8-2.8c0-1.2-0.3-2.1-0.8-2.8c-0.5-0.7-1.2-1-2.1-1c-0.9,0-1.6,0.3-2.1,1c-0.5,0.7-0.8,1.6-0.8,2.8
		c0,1.2,0.3,2.2,0.8,2.8c0.5,0.7,1.2,1,2.1,1C100.1,17.5,100.8,17.2,101.3,16.5z"/>
	<path class="st10" d="M112.4,8.5c0.8,0.2,1.4,0.7,1.8,1.4c0.4,0.5,0.6,1.1,0.8,1.7c0.1,0.6,0.2,1.2,0.2,1.8c0,1.4-0.3,2.7-0.9,3.6
		c-0.8,1.3-2,2-3.6,2h-4.7V8.3h4.7C111.4,8.3,112,8.4,112.4,8.5z M108.3,10.2v7h2.1c1.1,0,1.8-0.5,2.2-1.6c0.2-0.6,0.3-1.3,0.3-2.1
		c0-1.1-0.2-1.9-0.5-2.5c-0.3-0.6-1-0.9-2.1-0.9H108.3z"/>
</g>
<g class="st9">
	<path class="st10" d="M126.4,20.8c0.4-0.1,0.7-0.3,0.9-0.6c0.2-0.3,0.3-0.7,0.3-1.2h-1.3v-2.2h2.3v1.9c0,0.3,0,0.7-0.1,1
		s-0.3,0.7-0.5,0.9c-0.3,0.3-0.6,0.5-0.9,0.6c-0.3,0.1-0.6,0.2-0.7,0.2V20.8z"/>
</g>
<g class="st9">
</g>
<g class="st9">
	<path class="st10" d="M142.5,8.3v1.9h-3.2v8.9H137v-8.9h-3.2V8.3H142.5z"/>
	<path class="st10" d="M150.8,8.6c0.4,0.2,0.7,0.4,1,0.8c0.2,0.3,0.4,0.6,0.5,0.9c0.1,0.3,0.2,0.7,0.2,1.1c0,0.5-0.1,1-0.4,1.5
		c-0.3,0.5-0.7,0.8-1.3,1.1c0.5,0.2,0.9,0.5,1.1,0.9c0.2,0.4,0.3,0.9,0.3,1.7v0.7c0,0.5,0,0.8,0.1,1c0.1,0.3,0.2,0.5,0.4,0.6v0.3
		h-2.5c-0.1-0.2-0.1-0.4-0.1-0.6c-0.1-0.3-0.1-0.6-0.1-0.9l0-1c0-0.7-0.1-1.1-0.4-1.4s-0.7-0.3-1.3-0.3h-2.2v4.2h-2.2V8.3h5.2
		C149.8,8.3,150.4,8.4,150.8,8.6z M146.1,10.2v2.9h2.4c0.5,0,0.8-0.1,1.1-0.2c0.4-0.2,0.6-0.6,0.6-1.2c0-0.7-0.2-1.1-0.6-1.3
		c-0.2-0.1-0.6-0.2-1-0.2H146.1z"/>
	<path class="st10" d="M162.7,10.2H157v2.3h5.2v1.9H157v2.8h6v1.9h-8.2V8.3h7.9V10.2z"/>
</g>
<g class="st9">
	<path class="st10" d="M170.2,8.3h2.6l3.8,10.8h-2.4l-0.7-2.2h-4l-0.7,2.2h-2.4L170.2,8.3z M170.1,15h2.8l-1.4-4.2L170.1,15z"/>
</g>
<g class="st9">
	<path class="st10" d="M186.4,8.3v1.9h-3.2v8.9h-2.3v-8.9h-3.2V8.3H186.4z"/>
</g>
<g class="st9">
	<path class="st10" d="M190.6,15.8c0.1,0.5,0.2,0.9,0.4,1.1c0.4,0.4,1,0.7,1.9,0.7c0.5,0,1-0.1,1.3-0.2c0.6-0.2,1-0.6,1-1.3
		c0-0.4-0.2-0.6-0.5-0.8c-0.3-0.2-0.8-0.4-1.5-0.5l-1.2-0.3c-1.1-0.3-1.9-0.5-2.4-0.8c-0.7-0.5-1.1-1.3-1.1-2.3c0-1,0.4-1.8,1.1-2.4
		s1.8-1,3.1-1c1.2,0,2.1,0.3,2.9,0.9c0.8,0.6,1.2,1.5,1.3,2.6h-2.2c0-0.6-0.3-1.1-0.9-1.4c-0.4-0.2-0.8-0.3-1.3-0.3
		c-0.6,0-1.1,0.1-1.4,0.4s-0.5,0.6-0.5,1c0,0.4,0.2,0.7,0.5,0.9c0.2,0.1,0.7,0.3,1.4,0.4l1.9,0.4c0.8,0.2,1.5,0.5,1.9,0.8
		c0.6,0.5,1,1.2,1,2.2c0,1-0.4,1.8-1.1,2.5c-0.8,0.7-1.8,1-3.2,1c-1.4,0-2.5-0.3-3.4-1c-0.8-0.6-1.2-1.5-1.2-2.6H190.6z"/>
</g>
<path class="st2" d="M60,70.9c0.7,4.3,10.4,6.2,21.6,4.3L79,59.7C67.8,61.6,59.3,66.6,60,70.9z"/>
<path class="st2" d="M64.9,63.4c0.6,4.3,10.1,6.6,21.4,5.2l-2-15.6C73,54.5,64.3,59.1,64.9,63.4z"/>
<path class="st2" d="M59.5,80c-0.3,4.3,8.7,8.4,20.1,9.1l1-15.7C69.2,72.7,59.8,75.6,59.5,80z"/>
<path class="st2" d="M63.2,73.6c-0.3,4.3,8.7,8.4,20.1,9.1L84.2,67C72.9,66.3,63.4,69.2,63.2,73.6z"/>
<path class="st2" d="M61.8,86.9c-0.3,4.3,8.7,8.4,20.1,9.1l0.9-15.7C71.5,79.6,62.1,82.5,61.8,86.9z"/>
<path class="st2" d="M73.5,62c-0.6,4.3,7.9,9.2,19.2,10.9L95,57.3C83.8,55.6,74.1,57.7,73.5,62z"/>
<path class="st2" d="M62.9,98.2c-0.6,4.3,8,9.1,19.2,10.8l2.3-15.5C73.2,91.7,63.6,93.9,62.9,98.2z"/>
<path class="st0" d="M272.8,63.2h126.8c4.3,0,7.8,3.5,7.8,7.8v0c0,4.3-3.5,7.8-7.8,7.8H272.8c-4.3,0-7.8-3.5-7.8-7.8v0
	C265.1,66.7,268.5,63.2,272.8,63.2z"/>
<path class="st2" d="M81.7,55.8c-0.6,4.3,7.9,9.2,19.2,10.9l2.4-15.5C92,49.4,82.4,51.5,81.7,55.8z"/>
<path class="st2" d="M73.6,85.6c0.6,4.3,10.3,6.4,21.5,4.7l-2.3-15.5C81.5,76.5,72.9,81.3,73.6,85.6z"/>
<path class="st2" d="M79.6,73.6c-0.3,4.3,8.7,8.4,20.1,9.1l0.9-15.7C89.3,66.3,79.9,69.2,79.6,73.6z"/>
<path class="st2" d="M68.8,100.4c0.8,4.3,10.4,6.1,21.7,4.2l-2.8-15.5C76.5,91,68,96.1,68.8,100.4z"/>
<path class="st0" d="M272.6,112.2h127c4.3,0,7.8,3.5,7.8,7.8v1.5c0,4.3-3.5,7.8-7.8,7.8h-127c-4.3,0-7.8-3.5-7.8-7.8v-1.5
	C264.9,115.6,268.3,112.2,272.6,112.2z"/>
<path class="st2" d="M80.2,93.1c0.6,4.3,10.3,6.4,21.5,4.7l-2.3-15.5C88.2,84,79.6,88.8,80.2,93.1z"/>
<path class="st2" d="M82.9,105.2c0.8,4.3,10.4,6.1,21.7,4.2l-2.8-15.5C90.6,95.9,82.2,101,82.9,105.2z"/>
<ellipse class="st11" cx="295" cy="64" rx="22" ry="21.9"/>
<path class="st12" d="M279.9,48c0,0-2.7,26.9,8.5,36.9"/>
<path class="st12" d="M276.2,52.4c0,0-4,16.2,6.2,29.5"/>
<path class="st12" d="M289.9,42.6c-1.3,3.3-2.1,6.8-2.5,10.4c-1.1,9.3,0.4,22.5,14,32"/>
<path class="st12" d="M312.5,50.7c-7,6-16.4,8.2-25.4,6.1"/>
<path class="st12" d="M310,47.9c0,0-12.3,9.2-22.4,3.7"/>
<path class="st12" d="M288.2,47.9c0,0,10.3,4.1,17.8-3"/>
<path class="st12" d="M289.4,44.2c3.5,1.6,7.6,1,10.4-1.6"/>
<path class="st12" d="M295,57.5c-0.8,3.3-4,5.5-7.4,5.2"/>
<path class="st12" d="M298.8,57.1c0,0-0.1,9.8-10.5,9.9"/>
<path class="st12" d="M302.7,56.1c0,0,1.5,14.5-13,14.7"/>
<path class="st12" d="M306.9,54.4c0,0,6.5,17.6-14,22.2"/>
<path class="st12" d="M310.7,52.4c0,0,10.5,20.8-13.4,29.2"/>
<path class="st12" d="M284.7,44.5c0,0-5.9,23.3,8.8,41.3"/>
<ellipse class="st11" cx="294.4" cy="115.6" rx="22" ry="21.9"/>
<path class="st12" d="M279.3,99.7c0,0-2.7,26.9,8.5,36.9"/>
<path class="st12" d="M275.6,104.1c0,0-4,16.2,6.2,29.5"/>
<path class="st12" d="M289.3,94.3c-1.3,3.3-2.1,6.8-2.5,10.3c-1.1,9.3,0.4,22.5,14,32"/>
<path class="st12" d="M311.9,102.3c-7,6-16.4,8.2-25.4,6.1"/>
<path class="st12" d="M309.4,99.5c0,0-12.3,9.2-22.4,3.7"/>
<path class="st12" d="M287.6,99.5c0,0,10.3,4.1,17.8-3"/>
<path class="st12" d="M288.8,95.8c3.5,1.6,7.6,1,10.4-1.6"/>
<path class="st12" d="M294.4,109.2c-0.8,3.3-4,5.5-7.4,5.2"/>
<path class="st12" d="M298.2,108.7c0,0-0.1,9.8-10.5,9.9"/>
<path class="st12" d="M302.1,107.8c0,0,1.5,14.5-13,14.7"/>
<path class="st12" d="M306.3,106.1c0,0,6.5,17.6-14,22.2"/>
<path class="st12" d="M310.2,104.1c0,0,10.5,20.8-13.4,29.2"/>
<path class="st12" d="M284.2,96.2c0,0-5.9,23.3,8.8,41.3"/>
<g class="st9">
	<path class="st13" d="M115.2,166.9c-0.9-1-1.3-2.3-1.3-3.8h2.1c0.1,1,0.3,1.8,0.6,2.3c0.5,0.8,1.5,1.3,2.8,1.3
		c1.1,0,1.9-0.3,2.6-0.9c0.6-0.6,1-1.3,1-2.2c0-1.1-0.3-1.9-1-2.3c-0.7-0.4-1.6-0.7-2.8-0.7c-0.1,0-0.3,0-0.4,0s-0.3,0-0.4,0v-1.8
		c0.2,0,0.4,0,0.5,0c0.1,0,0.3,0,0.5,0c0.8,0,1.4-0.1,1.9-0.4c0.9-0.4,1.3-1.2,1.3-2.2c0-0.8-0.3-1.4-0.9-1.8
		c-0.6-0.4-1.2-0.6-2-0.6c-1.3,0-2.3,0.4-2.8,1.3c-0.3,0.5-0.4,1.2-0.5,2.1h-2c0-1.2,0.2-2.2,0.7-3c0.8-1.5,2.3-2.2,4.3-2.2
		c1.6,0,2.9,0.4,3.8,1.1s1.3,1.8,1.3,3.2c0,1-0.3,1.8-0.8,2.4c-0.3,0.4-0.8,0.7-1.3,0.9c0.8,0.2,1.5,0.7,2,1.3s0.7,1.5,0.7,2.4
		c0,1.5-0.5,2.8-1.5,3.7c-1,1-2.4,1.4-4.3,1.4C117.4,168.4,116,167.9,115.2,166.9z"/>
	<path class="st13" d="M128.3,158.6c-0.6-0.6-0.9-1.4-0.9-2.3c0-1.2,0.4-2.2,1.3-3.1c0.9-0.9,2.1-1.3,3.7-1.3c1.5,0,2.7,0.4,3.6,1.2
		s1.3,1.8,1.3,2.8c0,1-0.3,1.8-0.8,2.4c-0.3,0.4-0.7,0.7-1.3,1c0.7,0.3,1.2,0.7,1.6,1.1c0.7,0.7,1.1,1.7,1.1,2.9
		c0,1.4-0.5,2.6-1.4,3.6c-0.9,1-2.3,1.5-4,1.5c-1.6,0-2.9-0.4-4-1.3c-1.1-0.8-1.6-2.1-1.6-3.7c0-0.9,0.2-1.8,0.7-2.5
		c0.5-0.7,1.2-1.2,2.1-1.6C129,159.2,128.6,158.9,128.3,158.6z M134.8,165.9c0.6-0.5,0.9-1.3,0.9-2.3c0-1-0.3-1.8-1-2.4
		c-0.6-0.5-1.4-0.8-2.4-0.8c-1,0-1.8,0.3-2.4,0.8c-0.6,0.5-0.9,1.3-0.9,2.3c0,0.8,0.3,1.6,0.8,2.2c0.6,0.6,1.4,0.9,2.6,0.9
		C133.4,166.6,134.2,166.4,134.8,165.9z M134.4,157.9c0.5-0.5,0.7-1.1,0.7-1.8c0-0.6-0.2-1.1-0.7-1.7c-0.5-0.5-1.2-0.8-2.2-0.8
		c-1,0-1.7,0.3-2.1,0.8c-0.4,0.5-0.6,1.1-0.6,1.8c0,0.8,0.3,1.3,0.8,1.8c0.6,0.4,1.2,0.6,2,0.6C133.2,158.7,133.9,158.4,134.4,157.9
		z"/>
	<path class="st13" d="M146.3,153.6c0.8,0.8,1.1,1.7,1.1,2.8s-0.4,2-1.1,2.8c-0.8,0.8-1.7,1.1-2.8,1.1c-1.1,0-2-0.4-2.8-1.1
		c-0.8-0.8-1.1-1.7-1.1-2.8s0.4-2,1.1-2.8c0.8-0.8,1.7-1.1,2.8-1.1C144.6,152.4,145.5,152.8,146.3,153.6z M145.1,158
		c0.5-0.5,0.7-1,0.7-1.6s-0.2-1.2-0.7-1.6c-0.5-0.5-1-0.7-1.6-0.7c-0.6,0-1.2,0.2-1.6,0.7s-0.7,1-0.7,1.6c0,0.6,0.2,1.2,0.7,1.6
		s1,0.7,1.6,0.7C144.1,158.6,144.7,158.4,145.1,158z M152.9,152h1.3l-9,16.4h-1.2L152.9,152z M157.3,161.3c0.8,0.8,1.1,1.7,1.1,2.8
		s-0.4,2-1.1,2.8c-0.8,0.8-1.7,1.1-2.8,1.1c-1.1,0-2-0.4-2.8-1.1c-0.8-0.8-1.1-1.7-1.1-2.8s0.4-2,1.1-2.8c0.8-0.8,1.7-1.1,2.8-1.1
		C155.6,160.2,156.5,160.6,157.3,161.3z M156.1,165.7c0.5-0.5,0.7-1,0.7-1.6s-0.2-1.2-0.7-1.6c-0.5-0.5-1-0.7-1.6-0.7
		c-0.6,0-1.2,0.2-1.6,0.7s-0.7,1-0.7,1.6s0.2,1.2,0.7,1.6s1,0.7,1.6,0.7C155.1,166.4,155.7,166.2,156.1,165.7z"/>
</g>
<g class="st9">
	<path class="st10" d="M166.7,160.8c0.7,0.7,1.1,1.7,1.1,3c0,1.3-0.3,2.4-0.9,3.2s-1.6,1.3-2.9,1.3c-1.1,0-2-0.4-2.6-1.1
		c-0.6-0.7-1-1.7-1-3c0-1.3,0.3-2.4,1-3.2c0.7-0.8,1.6-1.2,2.7-1.2C165.1,159.8,166,160.1,166.7,160.8z M165.9,166.1
		c0.3-0.7,0.5-1.4,0.5-2.2c0-0.7-0.1-1.4-0.4-1.8c-0.4-0.7-1-1.1-1.9-1.1c-0.8,0-1.4,0.3-1.8,0.9c-0.4,0.6-0.6,1.4-0.6,2.3
		c0,0.9,0.2,1.6,0.6,2.1c0.4,0.6,1,0.9,1.8,0.9C164.9,167.1,165.5,166.8,165.9,166.1z"/>
	<path class="st10" d="M170,157.5c0.3-0.5,0.9-0.7,1.8-0.7c0.1,0,0.2,0,0.3,0c0.1,0,0.2,0,0.3,0v1.2c-0.1,0-0.2,0-0.3,0
		c-0.1,0-0.1,0-0.2,0c-0.4,0-0.7,0.1-0.7,0.3c-0.1,0.2-0.1,0.8-0.1,1.6h1.3v1.1h-1.3v6.9h-1.3v-6.9h-1.1V160h1.1v-1.3
		C169.8,158.2,169.9,157.8,170,157.5z"/>
	<path class="st10" d="M182.2,163.2c0.3,0,0.5-0.2,0.6-0.4c0.1-0.1,0.1-0.3,0.1-0.5c0-0.5-0.2-0.8-0.5-1c-0.3-0.2-0.8-0.3-1.4-0.3
		c-0.7,0-1.2,0.2-1.5,0.6c-0.2,0.2-0.3,0.5-0.3,0.9H178c0-1,0.3-1.7,1-2.1c0.6-0.4,1.3-0.6,2.1-0.6c0.9,0,1.7,0.2,2.3,0.5
		c0.6,0.4,0.9,0.9,0.9,1.7v4.6c0,0.1,0,0.3,0.1,0.3c0.1,0.1,0.2,0.1,0.4,0.1c0.1,0,0.1,0,0.2,0c0.1,0,0.2,0,0.2,0v1
		c-0.2,0.1-0.4,0.1-0.5,0.1s-0.3,0-0.4,0c-0.5,0-0.8-0.2-1-0.5c-0.1-0.2-0.2-0.4-0.2-0.7c-0.3,0.4-0.7,0.7-1.2,0.9
		c-0.5,0.3-1.1,0.4-1.7,0.4c-0.7,0-1.3-0.2-1.8-0.7s-0.7-1-0.7-1.7c0-0.7,0.2-1.3,0.7-1.7c0.5-0.4,1.1-0.7,1.8-0.8L182.2,163.2z
		 M179.4,166.8c0.3,0.2,0.6,0.3,1,0.3c0.5,0,0.9-0.1,1.4-0.3c0.7-0.4,1.1-1,1.1-1.8v-1.1c-0.2,0.1-0.4,0.2-0.6,0.3
		c-0.3,0.1-0.5,0.1-0.8,0.1l-0.8,0.1c-0.5,0.1-0.9,0.2-1.1,0.3c-0.4,0.2-0.6,0.6-0.6,1.1C179,166.3,179.1,166.6,179.4,166.8z"/>
	<path class="st10" d="M186.4,160h1.3v1.1c0.4-0.5,0.8-0.8,1.2-1c0.4-0.2,0.9-0.3,1.4-0.3c1.1,0,1.9,0.4,2.3,1.2
		c0.2,0.4,0.3,1.1,0.3,1.9v5.1h-1.4v-5c0-0.5-0.1-0.9-0.2-1.2c-0.2-0.5-0.7-0.7-1.3-0.7c-0.3,0-0.6,0-0.8,0.1
		c-0.4,0.1-0.7,0.3-1,0.7c-0.2,0.3-0.4,0.5-0.4,0.8s-0.1,0.7-0.1,1.2v4.2h-1.3V160z"/>
	<path class="st10" d="M194.9,160h1.3v1.1c0.4-0.5,0.8-0.8,1.2-1c0.4-0.2,0.9-0.3,1.4-0.3c1.1,0,1.9,0.4,2.3,1.2
		c0.2,0.4,0.3,1.1,0.3,1.9v5.1h-1.4v-5c0-0.5-0.1-0.9-0.2-1.2c-0.2-0.5-0.7-0.7-1.3-0.7c-0.3,0-0.6,0-0.8,0.1
		c-0.4,0.1-0.7,0.3-1,0.7c-0.2,0.3-0.4,0.5-0.4,0.8s-0.1,0.7-0.1,1.2v4.2h-1.3V160z"/>
	<path class="st10" d="M204.8,160v5.3c0,0.4,0.1,0.7,0.2,1c0.2,0.5,0.7,0.7,1.3,0.7c0.9,0,1.5-0.4,1.9-1.3c0.2-0.4,0.3-1.1,0.3-1.8
		V160h1.3v8h-1.3l0-1.2c-0.2,0.3-0.4,0.6-0.6,0.8c-0.5,0.4-1.1,0.6-1.8,0.6c-1.1,0-1.9-0.4-2.3-1.1c-0.2-0.4-0.3-1-0.3-1.6V160
		H204.8z"/>
	<path class="st10" d="M216.2,163.2c0.3,0,0.5-0.2,0.6-0.4c0.1-0.1,0.1-0.3,0.1-0.5c0-0.5-0.2-0.8-0.5-1c-0.3-0.2-0.8-0.3-1.4-0.3
		c-0.7,0-1.2,0.2-1.5,0.6c-0.2,0.2-0.3,0.5-0.3,0.9H212c0-1,0.3-1.7,1-2.1c0.6-0.4,1.3-0.6,2.1-0.6c0.9,0,1.7,0.2,2.3,0.5
		c0.6,0.4,0.9,0.9,0.9,1.7v4.6c0,0.1,0,0.3,0.1,0.3c0.1,0.1,0.2,0.1,0.4,0.1c0.1,0,0.1,0,0.2,0c0.1,0,0.2,0,0.2,0v1
		c-0.2,0.1-0.4,0.1-0.5,0.1c-0.1,0-0.3,0-0.4,0c-0.5,0-0.8-0.2-1-0.5c-0.1-0.2-0.2-0.4-0.2-0.7c-0.3,0.4-0.7,0.7-1.2,0.9
		c-0.5,0.3-1.1,0.4-1.7,0.4c-0.7,0-1.3-0.2-1.8-0.7c-0.5-0.5-0.7-1-0.7-1.7c0-0.7,0.2-1.3,0.7-1.7c0.5-0.4,1.1-0.7,1.8-0.8
		L216.2,163.2z M213.4,166.8c0.3,0.2,0.6,0.3,1,0.3c0.5,0,0.9-0.1,1.4-0.3c0.7-0.4,1.1-1,1.1-1.8v-1.1c-0.2,0.1-0.4,0.2-0.6,0.3
		c-0.3,0.1-0.5,0.1-0.8,0.1l-0.8,0.1c-0.5,0.1-0.9,0.2-1.1,0.3c-0.4,0.2-0.6,0.6-0.6,1.1C213,166.3,213.1,166.6,213.4,166.8z"/>
	<path class="st10" d="M220.5,157h1.3v11h-1.3V157z"/>
	<path class="st10" d="M228,157h1.3v4c0.3-0.4,0.6-0.7,1.1-0.9c0.4-0.2,0.9-0.3,1.3-0.3c1,0,1.8,0.3,2.4,1c0.6,0.7,0.9,1.7,0.9,3
		c0,1.3-0.3,2.3-0.9,3.2c-0.6,0.8-1.5,1.3-2.6,1.3c-0.6,0-1.1-0.1-1.5-0.4c-0.2-0.2-0.5-0.5-0.8-0.8v1H228V157z M233.1,166.2
		c0.4-0.6,0.5-1.3,0.5-2.3c0-0.8-0.2-1.5-0.5-2.1c-0.4-0.6-0.9-0.8-1.6-0.8c-0.6,0-1.2,0.2-1.6,0.7c-0.5,0.5-0.7,1.2-0.7,2.2
		c0,0.8,0.1,1.4,0.3,1.8c0.4,0.9,1,1.3,2,1.3C232.2,167.1,232.8,166.8,233.1,166.2z"/>
	<path class="st10" d="M238,160v5.3c0,0.4,0.1,0.7,0.2,1c0.2,0.5,0.7,0.7,1.3,0.7c0.9,0,1.5-0.4,1.9-1.3c0.2-0.4,0.3-1.1,0.3-1.8
		V160h1.3v8h-1.3l0-1.2c-0.2,0.3-0.4,0.6-0.6,0.8c-0.5,0.4-1.1,0.6-1.8,0.6c-1.1,0-1.9-0.4-2.3-1.1c-0.2-0.4-0.3-1-0.3-1.6V160H238z
		"/>
	<path class="st10" d="M249.5,160.2c0.2,0.1,0.5,0.4,0.8,0.8v-4h1.3v11h-1.2v-1.1c-0.3,0.5-0.7,0.8-1.1,1.1s-0.9,0.3-1.5,0.3
		c-0.9,0-1.7-0.4-2.3-1.1c-0.6-0.7-1-1.7-1-3c0-1.2,0.3-2.2,0.9-3c0.6-0.9,1.4-1.3,2.5-1.3C248.6,159.9,249.1,160,249.5,160.2z
		 M246.5,166.2c0.4,0.6,0.9,0.9,1.7,0.9c0.6,0,1.1-0.3,1.5-0.8c0.4-0.5,0.6-1.3,0.6-2.3c0-1-0.2-1.8-0.6-2.2
		c-0.4-0.5-0.9-0.7-1.5-0.7c-0.7,0-1.2,0.3-1.6,0.8c-0.4,0.5-0.6,1.3-0.6,2.3C246,164.9,246.2,165.7,246.5,166.2z"/>
	<path class="st10" d="M258.1,160.3c0.3,0.2,0.5,0.4,0.8,0.8v-1h1.2v7.3c0,1-0.1,1.8-0.4,2.4c-0.6,1.1-1.6,1.6-3.1,1.6
		c-0.9,0-1.6-0.2-2.2-0.6c-0.6-0.4-0.9-1-1-1.8h1.4c0.1,0.4,0.2,0.6,0.4,0.8c0.3,0.3,0.8,0.4,1.4,0.4c1,0,1.7-0.4,2-1.1
		c0.2-0.4,0.3-1.2,0.3-2.3c-0.3,0.4-0.6,0.7-1,0.9c-0.4,0.2-0.9,0.3-1.5,0.3c-0.9,0-1.6-0.3-2.3-0.9s-1-1.6-1-3.1
		c0-1.3,0.3-2.4,1-3.1s1.4-1.1,2.4-1.1C257.1,159.9,257.6,160,258.1,160.3z M258.3,161.8c-0.4-0.5-0.9-0.7-1.6-0.7
		c-0.9,0-1.6,0.4-1.9,1.3c-0.2,0.5-0.3,1.1-0.3,1.9c0,0.9,0.2,1.6,0.5,2.1c0.4,0.5,0.9,0.7,1.5,0.7c1,0,1.6-0.4,2-1.3
		c0.2-0.5,0.3-1.1,0.3-1.7C258.9,163,258.7,162.2,258.3,161.8z"/>
	<path class="st10" d="M267.1,160.2c0.5,0.3,0.9,0.6,1.2,1c0.3,0.4,0.4,0.9,0.5,1.4c0.1,0.4,0.1,1,0.1,1.8h-5.8c0,0.8,0.2,1.5,0.6,2
		c0.4,0.5,0.9,0.7,1.7,0.7c0.7,0,1.3-0.2,1.7-0.7c0.2-0.3,0.4-0.6,0.5-0.9h1.3c0,0.3-0.2,0.6-0.3,1c-0.2,0.4-0.4,0.7-0.7,0.9
		c-0.4,0.4-0.9,0.7-1.5,0.8c-0.3,0.1-0.7,0.1-1.1,0.1c-1,0-1.8-0.4-2.5-1.1c-0.7-0.7-1-1.7-1-3c0-1.3,0.3-2.3,1-3.1
		c0.7-0.8,1.6-1.2,2.7-1.2C266,159.8,266.6,159.9,267.1,160.2z M267.6,163.4c-0.1-0.6-0.2-1-0.4-1.4c-0.4-0.6-1-1-1.8-1
		c-0.6,0-1.1,0.2-1.5,0.7c-0.4,0.4-0.6,1-0.7,1.7H267.6z"/>
	<path class="st10" d="M270.9,157.8h1.4v2.2h1.3v1.1h-1.3v5.2c0,0.3,0.1,0.5,0.3,0.6c0.1,0.1,0.3,0.1,0.5,0.1c0.1,0,0.1,0,0.2,0
		c0.1,0,0.2,0,0.3,0v1.1c-0.2,0-0.3,0.1-0.5,0.1c-0.2,0-0.3,0-0.5,0c-0.6,0-1.1-0.2-1.3-0.5c-0.2-0.3-0.3-0.7-0.3-1.3v-5.3h-1.1V160
		h1.1V157.8z"/>
</g>
<path class="st8" d="M208.3,89.4c0-1.1,5.5-2.1,13.2-2.5c1.8-0.1,3.2-1.4,3.6-3.1c0.2-0.9,0.3-1.9,0.4-2.9c0-0.3,0-0.6,0-0.9
	C222.6,52.7,198,48.6,186,48.3c-2.1,0-3.8,1.6-3.9,3.7c0,0.6,0.1,1.2,0.4,1.8c4.4,8.8,10.6,27.7-0.4,52.2c-0.9,1.9,0,4.2,1.9,5
	c0.5,0.2,1.1,0.3,1.7,0.3c9.4-0.2,25.2-1.5,33.9-13.8c1.2-1.7,0.8-4.1-0.9-5.3c-0.5-0.4-1.2-0.6-1.8-0.7
	C211.7,91,208.3,90.2,208.3,89.4z M203.6,72.2c0.3-2.8,2.8-4.8,5.6-4.5c2.8,0.3,4.8,2.8,4.5,5.6c-0.3,2.6-2.5,4.6-5.1,4.5
	C205.7,77.6,203.5,75.1,203.6,72.2L203.6,72.2z"/>
<g class="st9">
	<path class="st14" d="M323.8,45.7c0.7-0.8,1.7-1.1,2.9-1.2v-1.2h0.9v1.2c1.2,0.1,2.2,0.4,2.8,1.1c0.7,0.6,1,1.5,1,2.5h-1.6
		c0-0.5-0.2-0.9-0.4-1.2c-0.4-0.6-1-1-1.9-1v4.5c1.4,0.4,2.4,0.8,2.9,1.1c0.8,0.6,1.3,1.4,1.3,2.6c0,1.6-0.5,2.8-1.6,3.5
		c-0.6,0.4-1.5,0.6-2.6,0.8v1.8h-0.9v-1.8c-1.8-0.1-3-0.8-3.7-1.9c-0.4-0.6-0.5-1.5-0.5-2.5h1.6c0,0.8,0.2,1.5,0.4,1.9
		c0.4,0.7,1.1,1.1,2.1,1.2V52c-1.3-0.3-2.3-0.7-3-1.3c-0.6-0.6-1-1.4-1-2.5C322.8,47.3,323.1,46.5,323.8,45.7z M325,49.6
		c0.4,0.3,1,0.6,1.7,0.7v-4.4c-0.8,0-1.4,0.3-1.7,0.7c-0.3,0.5-0.5,0.9-0.5,1.5C324.4,48.7,324.6,49.2,325,49.6z M329.8,55.9
		c0.2-0.4,0.3-0.8,0.3-1.3c0-0.8-0.3-1.4-0.9-1.8c-0.3-0.2-0.9-0.5-1.7-0.7v4.9C328.6,57,329.4,56.7,329.8,55.9z"/>
	<path class="st14" d="M334.3,48.6v-1.3c1.2-0.1,2-0.3,2.5-0.6c0.5-0.3,0.8-0.9,1.1-2h1.3v13.2h-1.8v-9.4H334.3z"/>
	<path class="st14" d="M344.8,50.3c-0.5-0.5-0.7-1.1-0.7-1.9c0-1,0.4-1.8,1.1-2.6c0.7-0.7,1.7-1.1,3-1.1c1.3,0,2.3,0.3,3,1
		s1.1,1.5,1.1,2.4c0,0.8-0.2,1.5-0.6,2c-0.2,0.3-0.6,0.6-1.1,0.9c0.6,0.3,1,0.5,1.3,0.9c0.6,0.6,0.9,1.4,0.9,2.4
		c0,1.2-0.4,2.2-1.2,3c-0.8,0.8-1.9,1.2-3.3,1.2c-1.3,0-2.4-0.4-3.3-1.1c-0.9-0.7-1.3-1.7-1.3-3.1c0-0.8,0.2-1.5,0.6-2s1-1,1.7-1.3
		C345.5,50.8,345.1,50.5,344.8,50.3z M350.2,56.3c0.5-0.4,0.8-1,0.8-1.9c0-0.9-0.3-1.5-0.8-2c-0.5-0.4-1.2-0.7-2-0.7
		c-0.8,0-1.4,0.2-2,0.7c-0.5,0.5-0.8,1.1-0.8,1.9c0,0.7,0.2,1.3,0.7,1.8c0.5,0.5,1.2,0.8,2.1,0.8C349.1,56.9,349.7,56.7,350.2,56.3z
		 M349.9,49.7c0.4-0.4,0.6-0.9,0.6-1.5c0-0.5-0.2-1-0.6-1.4c-0.4-0.4-1-0.6-1.8-0.6c-0.8,0-1.4,0.2-1.7,0.6
		c-0.4,0.4-0.5,0.9-0.5,1.5c0,0.6,0.2,1.1,0.7,1.5s1,0.5,1.6,0.5C348.9,50.3,349.5,50.1,349.9,49.7z"/>
	<path class="st14" d="M355.9,54.7c0.1,1,0.6,1.6,1.3,2c0.4,0.2,0.9,0.3,1.4,0.3c1,0,1.7-0.3,2.2-0.9s0.7-1.3,0.7-2.1
		c0-0.9-0.3-1.6-0.8-2.2c-0.6-0.5-1.2-0.8-2-0.8c-0.6,0-1.1,0.1-1.5,0.3s-0.8,0.5-1.1,0.9l-1.4-0.1l1-7.2h6.9v1.6H357l-0.6,3.7
		c0.3-0.2,0.6-0.4,0.9-0.5c0.5-0.2,1.1-0.3,1.7-0.3c1.2,0,2.3,0.4,3.1,1.2c0.8,0.8,1.3,1.8,1.3,3c0,1.3-0.4,2.4-1.2,3.3
		c-0.8,1-2,1.4-3.7,1.4c-1.1,0-2-0.3-2.9-0.9c-0.8-0.6-1.3-1.5-1.4-2.8H355.9z"/>
</g>
<g class="st9">
	<path class="st10" d="M325.8,70.1c0.3,0,0.4-0.1,0.5-0.3c0-0.1,0.1-0.2,0.1-0.4c0-0.4-0.1-0.7-0.4-0.8s-0.7-0.3-1.2-0.3
		c-0.6,0-1,0.2-1.2,0.5c-0.1,0.2-0.2,0.4-0.3,0.8h-1c0-0.8,0.3-1.4,0.8-1.7s1.1-0.5,1.8-0.5c0.8,0,1.4,0.1,1.9,0.4
		c0.5,0.3,0.7,0.8,0.7,1.4V73c0,0.1,0,0.2,0.1,0.3c0,0.1,0.1,0.1,0.3,0.1c0,0,0.1,0,0.2,0c0.1,0,0.1,0,0.2,0v0.8
		c-0.2,0-0.3,0.1-0.4,0.1c-0.1,0-0.2,0-0.4,0c-0.4,0-0.7-0.1-0.8-0.4c-0.1-0.1-0.2-0.4-0.2-0.6c-0.2,0.3-0.6,0.6-1,0.8
		s-0.9,0.3-1.4,0.3c-0.6,0-1.1-0.2-1.5-0.6c-0.4-0.4-0.6-0.8-0.6-1.4c0-0.6,0.2-1.1,0.6-1.4s0.9-0.5,1.5-0.6L325.8,70.1z
		 M323.4,73.2c0.2,0.2,0.5,0.3,0.8,0.3c0.4,0,0.8-0.1,1.1-0.3c0.6-0.3,0.9-0.8,0.9-1.5v-0.9c-0.1,0.1-0.3,0.2-0.5,0.2
		s-0.4,0.1-0.6,0.1l-0.7,0.1c-0.4,0.1-0.7,0.1-0.9,0.3c-0.3,0.2-0.5,0.5-0.5,0.9C323.1,72.7,323.2,73,323.4,73.2z"/>
	<path class="st10" d="M329.3,67.5h1.1v0.9c0.3-0.4,0.6-0.7,1-0.8s0.7-0.3,1.2-0.3c0.9,0,1.6,0.3,1.9,1c0.2,0.4,0.3,0.9,0.3,1.5v4.3
		h-1.1V70c0-0.4-0.1-0.7-0.2-1c-0.2-0.4-0.6-0.6-1.1-0.6c-0.3,0-0.5,0-0.7,0.1c-0.3,0.1-0.6,0.3-0.8,0.5c-0.2,0.2-0.3,0.4-0.4,0.7
		c-0.1,0.2-0.1,0.6-0.1,1v3.5h-1.1V67.5z"/>
	<path class="st10" d="M336.4,67.5h1.1v0.9c0.3-0.4,0.6-0.7,1-0.8s0.7-0.3,1.2-0.3c0.9,0,1.6,0.3,1.9,1c0.2,0.4,0.3,0.9,0.3,1.5v4.3
		h-1.1V70c0-0.4-0.1-0.7-0.2-1c-0.2-0.4-0.6-0.6-1.1-0.6c-0.3,0-0.5,0-0.7,0.1c-0.3,0.1-0.6,0.3-0.8,0.5c-0.2,0.2-0.3,0.4-0.4,0.7
		c-0.1,0.2-0.1,0.6-0.1,1v3.5h-1.1V67.5z"/>
	<path class="st10" d="M344.6,67.5v4.4c0,0.3,0.1,0.6,0.2,0.8c0.2,0.4,0.6,0.6,1.1,0.6c0.8,0,1.3-0.3,1.6-1c0.1-0.4,0.2-0.9,0.2-1.5
		v-3.3h1.1v6.7h-1.1l0-1c-0.1,0.3-0.3,0.5-0.5,0.6c-0.4,0.3-0.9,0.5-1.5,0.5c-0.9,0-1.6-0.3-1.9-1c-0.2-0.3-0.3-0.8-0.3-1.4v-4.5
		H344.6z"/>
	<path class="st10" d="M354.2,70.1c0.3,0,0.4-0.1,0.5-0.3c0-0.1,0.1-0.2,0.1-0.4c0-0.4-0.1-0.7-0.4-0.8c-0.3-0.2-0.7-0.3-1.2-0.3
		c-0.6,0-1,0.2-1.2,0.5c-0.1,0.2-0.2,0.4-0.3,0.8h-1c0-0.8,0.3-1.4,0.8-1.7c0.5-0.3,1.1-0.5,1.8-0.5c0.8,0,1.4,0.1,1.9,0.4
		c0.5,0.3,0.7,0.8,0.7,1.4V73c0,0.1,0,0.2,0.1,0.3s0.1,0.1,0.3,0.1c0,0,0.1,0,0.2,0c0.1,0,0.1,0,0.2,0v0.8c-0.2,0-0.3,0.1-0.4,0.1
		c-0.1,0-0.2,0-0.4,0c-0.4,0-0.7-0.1-0.8-0.4c-0.1-0.1-0.2-0.4-0.2-0.6c-0.2,0.3-0.6,0.6-1,0.8c-0.4,0.2-0.9,0.3-1.4,0.3
		c-0.6,0-1.1-0.2-1.5-0.6s-0.6-0.8-0.6-1.4c0-0.6,0.2-1.1,0.6-1.4c0.4-0.3,0.9-0.5,1.5-0.6L354.2,70.1z M351.8,73.2
		c0.2,0.2,0.5,0.3,0.8,0.3c0.4,0,0.8-0.1,1.1-0.3c0.6-0.3,0.9-0.8,0.9-1.5v-0.9c-0.1,0.1-0.3,0.2-0.5,0.2c-0.2,0.1-0.4,0.1-0.6,0.1
		l-0.7,0.1c-0.4,0.1-0.7,0.1-0.9,0.3c-0.3,0.2-0.5,0.5-0.5,0.9C351.4,72.7,351.6,73,351.8,73.2z"/>
	<path class="st10" d="M357.7,65h1.1v9.1h-1.1V65z"/>
</g>
<g class="st9">
	<path class="st10" d="M365.8,67.9c0.5,0.4,0.8,1,0.8,1.9h-1.1c-0.1-0.4-0.2-0.8-0.5-1c-0.2-0.3-0.6-0.4-1.1-0.4
		c-0.7,0-1.2,0.3-1.5,1c-0.2,0.5-0.3,1-0.3,1.7c0,0.7,0.1,1.2,0.4,1.7s0.7,0.7,1.3,0.7c0.5,0,0.8-0.1,1.1-0.4
		c0.3-0.3,0.5-0.7,0.6-1.2h1.1c-0.1,0.9-0.4,1.5-0.9,1.9c-0.5,0.4-1.1,0.6-1.9,0.6c-0.9,0-1.6-0.3-2.1-1c-0.5-0.6-0.8-1.4-0.8-2.4
		c0-1.2,0.3-2.1,0.9-2.7c0.6-0.7,1.3-1,2.2-1C364.7,67.3,365.3,67.5,365.8,67.9z"/>
</g>
<g class="st9">
	<path class="st10" d="M371.9,68.2c0.6,0.6,0.9,1.4,0.9,2.5c0,1.1-0.3,2-0.8,2.7c-0.5,0.7-1.3,1.1-2.4,1.1c-0.9,0-1.6-0.3-2.2-0.9
		c-0.5-0.6-0.8-1.5-0.8-2.5c0-1.1,0.3-2,0.8-2.7s1.3-1,2.3-1C370.6,67.3,371.3,67.6,371.9,68.2z M371.2,72.6
		c0.3-0.6,0.4-1.2,0.4-1.9c0-0.6-0.1-1.1-0.3-1.5c-0.3-0.6-0.8-0.9-1.6-0.9c-0.7,0-1.2,0.3-1.5,0.8s-0.5,1.2-0.5,1.9
		c0,0.7,0.2,1.3,0.5,1.8s0.8,0.7,1.5,0.7C370.4,73.4,370.9,73.2,371.2,72.6z"/>
	<path class="st10" d="M374.8,72.1c0,0.4,0.1,0.7,0.3,0.9c0.3,0.4,0.8,0.5,1.5,0.5c0.4,0,0.8-0.1,1.1-0.3s0.5-0.5,0.5-0.8
		c0-0.3-0.1-0.5-0.4-0.7c-0.2-0.1-0.5-0.2-1-0.3l-0.9-0.2c-0.6-0.1-1-0.3-1.3-0.5c-0.5-0.3-0.7-0.7-0.7-1.3c0-0.6,0.2-1.1,0.7-1.5
		c0.5-0.4,1.1-0.6,1.9-0.6c1,0,1.8,0.3,2.2,0.9c0.3,0.4,0.4,0.8,0.4,1.2H378c0-0.3-0.1-0.5-0.3-0.7c-0.3-0.3-0.7-0.4-1.4-0.4
		c-0.4,0-0.8,0.1-1,0.2s-0.3,0.4-0.3,0.6c0,0.3,0.1,0.5,0.4,0.7c0.2,0.1,0.4,0.2,0.7,0.3l0.8,0.2c0.8,0.2,1.4,0.4,1.6,0.6
		c0.4,0.3,0.7,0.7,0.7,1.4c0,0.6-0.2,1.1-0.7,1.5s-1.2,0.6-2.1,0.6c-1,0-1.7-0.2-2.1-0.7s-0.6-1-0.7-1.7H374.8z"/>
	<path class="st10" d="M380.7,65.6h1.1v1.9h1.1v0.9h-1.1v4.4c0,0.2,0.1,0.4,0.2,0.5c0.1,0,0.2,0.1,0.4,0.1c0.1,0,0.1,0,0.2,0
		c0.1,0,0.1,0,0.2,0v0.9c-0.1,0-0.3,0.1-0.4,0.1c-0.1,0-0.3,0-0.5,0c-0.5,0-0.9-0.1-1.1-0.4c-0.2-0.3-0.3-0.6-0.3-1v-4.4h-0.9v-0.9
		h0.9V65.6z"/>
</g>
<g class="st9">
	<path class="st14" d="M323.2,94.1c0.7-0.8,1.7-1.1,2.9-1.2v-1.2h0.9v1.2c1.2,0.1,2.2,0.4,2.8,1.1c0.7,0.6,1,1.5,1,2.5h-1.6
		c0-0.5-0.2-0.9-0.4-1.2c-0.4-0.6-1-1-1.9-1v4.5c1.4,0.4,2.4,0.8,2.9,1.1c0.8,0.6,1.3,1.4,1.3,2.6c0,1.6-0.5,2.8-1.6,3.5
		c-0.6,0.4-1.5,0.6-2.6,0.8v1.8h-0.9v-1.8c-1.8-0.1-3-0.8-3.7-1.9c-0.4-0.6-0.5-1.5-0.5-2.5h1.6c0,0.8,0.2,1.5,0.4,1.9
		c0.4,0.7,1.1,1.1,2.1,1.2v-5.1c-1.3-0.3-2.3-0.7-3-1.3c-0.6-0.6-1-1.4-1-2.5C322.2,95.7,322.5,94.8,323.2,94.1z M324.5,97.9
		c0.4,0.3,1,0.6,1.7,0.7v-4.4c-0.8,0-1.4,0.3-1.7,0.7c-0.3,0.5-0.5,0.9-0.5,1.5C323.8,97.1,324.1,97.6,324.5,97.9z M329.2,104.3
		c0.2-0.4,0.3-0.8,0.3-1.3c0-0.8-0.3-1.4-0.9-1.8c-0.3-0.2-0.9-0.5-1.7-0.7v4.9C328.1,105.4,328.8,105,329.2,104.3z"/>
	<path class="st14" d="M333.2,103.4c0.4-0.8,1.2-1.6,2.4-2.3l1.8-1c0.8-0.5,1.4-0.9,1.7-1.2c0.5-0.5,0.8-1.1,0.8-1.8
		c0-0.8-0.2-1.4-0.7-1.8s-1.1-0.7-1.9-0.7c-1.1,0-1.9,0.4-2.4,1.3c-0.2,0.5-0.4,1.1-0.4,1.9h-1.7c0-1.2,0.2-2.1,0.6-2.8
		c0.7-1.3,2-1.9,3.8-1.9c1.5,0,2.6,0.4,3.3,1.2c0.7,0.8,1.1,1.7,1.1,2.7c0,1.1-0.4,2-1.1,2.7c-0.4,0.4-1.2,1-2.3,1.6l-1.3,0.7
		c-0.6,0.3-1.1,0.7-1.4,1c-0.6,0.5-1,1.1-1.2,1.8h7.3v1.6h-9.1C332.5,105.3,332.8,104.3,333.2,103.4z"/>
	<path class="st14" d="M344,108.4c0.4-0.1,0.7-0.4,0.9-0.9c0.1-0.3,0.1-0.5,0.1-0.8c0,0,0-0.1,0-0.1c0,0,0-0.1,0-0.1h-1v-2h2v1.9
		c0,0.7-0.1,1.4-0.4,1.9s-0.8,0.9-1.5,1V108.4z"/>
	<path class="st14" d="M350.1,103c0.1,1,0.6,1.6,1.3,2c0.4,0.2,0.9,0.3,1.4,0.3c1,0,1.7-0.3,2.2-0.9s0.7-1.3,0.7-2.1
		c0-0.9-0.3-1.6-0.8-2.2c-0.6-0.5-1.2-0.8-2-0.8c-0.6,0-1.1,0.1-1.5,0.3s-0.8,0.5-1.1,0.9l-1.4-0.1l1-7.2h6.9V95h-5.6l-0.6,3.7
		c0.3-0.2,0.6-0.4,0.9-0.5c0.5-0.2,1.1-0.3,1.7-0.3c1.2,0,2.3,0.4,3.1,1.2c0.8,0.8,1.3,1.8,1.3,3c0,1.3-0.4,2.4-1.2,3.3
		c-0.8,1-2,1.4-3.7,1.4c-1.1,0-2-0.3-2.9-0.9c-0.8-0.6-1.3-1.5-1.4-2.8H350.1z"/>
	<path class="st14" d="M360.8,103.2c0,0.9,0.4,1.6,1.1,1.9c0.3,0.2,0.7,0.3,1.2,0.3c0.8,0,1.5-0.3,2-1c0.6-0.7,1-2,1.2-4
		c-0.4,0.6-0.8,1-1.4,1.2c-0.5,0.2-1.1,0.4-1.8,0.4c-1.3,0-2.3-0.4-3-1.2c-0.7-0.8-1.1-1.8-1.1-3.1c0-1.2,0.4-2.3,1.1-3.2
		c0.7-0.9,1.8-1.4,3.3-1.4c1.9,0,3.3,0.9,4,2.6c0.4,1,0.6,2.2,0.6,3.6c0,1.6-0.2,3.1-0.7,4.3c-0.8,2.1-2.2,3.1-4.1,3.1
		c-1.3,0-2.3-0.3-3-1c-0.7-0.7-1-1.5-1-2.6H360.8z M365.2,99.8c0.5-0.4,0.8-1.2,0.8-2.3c0-1-0.2-1.7-0.7-2.2
		c-0.5-0.5-1.1-0.7-1.9-0.7c-0.8,0-1.5,0.3-1.9,0.8c-0.5,0.5-0.7,1.3-0.7,2.2c0,0.9,0.2,1.6,0.6,2.1s1.1,0.8,2,0.8
		C364,100.5,364.6,100.2,365.2,99.8z"/>
	<path class="st14" d="M377.7,95.2c0.6,1.1,0.9,2.6,0.9,4.5c0,1.8-0.3,3.3-0.8,4.5c-0.8,1.7-2.1,2.5-3.8,2.5c-1.6,0-2.8-0.7-3.6-2.1
		c-0.6-1.2-1-2.7-1-4.7c0-1.5,0.2-2.8,0.6-3.9c0.7-2,2.1-3,4-3C375.7,93.1,377,93.8,377.7,95.2z M376.1,104.1
		c0.5-0.8,0.8-2.2,0.8-4.3c0-1.5-0.2-2.8-0.6-3.7c-0.4-1-1.1-1.5-2.2-1.5c-1,0-1.7,0.5-2.2,1.4c-0.5,0.9-0.7,2.3-0.7,4.1
		c0,1.4,0.1,2.4,0.4,3.3c0.4,1.3,1.2,1.9,2.3,1.9C374.9,105.2,375.5,104.9,376.1,104.1z"/>
</g>
<g class="st9">
	<path class="st10" d="M322.2,115.6h1.1v9.1h-1.1V115.6z"/>
	<path class="st10" d="M325.1,115.6h1.1v1.3h-1.1V115.6z M325.1,118.1h1.1v6.6h-1.1V118.1z"/>
</g>
<g class="st9">
	<path class="st10" d="M328.7,116.1c0.3-0.4,0.8-0.6,1.5-0.6c0.1,0,0.1,0,0.2,0c0.1,0,0.2,0,0.3,0v1c-0.1,0-0.2,0-0.3,0
		c-0.1,0-0.1,0-0.1,0c-0.3,0-0.5,0.1-0.6,0.3s-0.1,0.6-0.1,1.3h1.1v0.9h-1.1v5.8h-1.1V119h-0.9v-0.9h0.9v-1
		C328.5,116.6,328.6,116.3,328.7,116.1z"/>
</g>
<g class="st9">
	<path class="st10" d="M335.9,118.3c0.4,0.2,0.8,0.5,1,0.9c0.2,0.3,0.4,0.7,0.4,1.2c0.1,0.3,0.1,0.8,0.1,1.5h-4.8
		c0,0.7,0.2,1.2,0.5,1.6c0.3,0.4,0.8,0.6,1.4,0.6c0.6,0,1-0.2,1.4-0.6c0.2-0.2,0.3-0.5,0.4-0.8h1.1c0,0.2-0.1,0.5-0.3,0.8
		c-0.2,0.3-0.3,0.5-0.5,0.7c-0.3,0.3-0.8,0.6-1.3,0.7c-0.3,0.1-0.6,0.1-0.9,0.1c-0.8,0-1.5-0.3-2.1-0.9c-0.6-0.6-0.9-1.5-0.9-2.5
		c0-1.1,0.3-1.9,0.9-2.6s1.3-1,2.3-1C335,118,335.4,118.1,335.9,118.3z M336.3,120.9c0-0.5-0.2-0.9-0.3-1.2
		c-0.3-0.5-0.8-0.8-1.5-0.8c-0.5,0-0.9,0.2-1.3,0.6s-0.5,0.8-0.5,1.4H336.3z"/>
	<path class="st10" d="M339.1,116.3h1.1v1.9h1.1v0.9h-1.1v4.4c0,0.2,0.1,0.4,0.2,0.5c0.1,0,0.2,0.1,0.4,0.1c0.1,0,0.1,0,0.2,0
		c0.1,0,0.1,0,0.2,0v0.9c-0.1,0-0.3,0.1-0.4,0.1c-0.1,0-0.3,0-0.5,0c-0.5,0-0.9-0.1-1.1-0.4s-0.3-0.6-0.3-1V119h-0.9v-0.9h0.9V116.3
		z"/>
	<path class="st10" d="M342.4,115.6h1.1v1.3h-1.1V115.6z M342.4,118.1h1.1v6.6h-1.1V118.1z"/>
	<path class="st10" d="M345.2,118.1h1.1v0.9c0.3-0.3,0.5-0.6,0.7-0.7c0.4-0.3,0.8-0.4,1.3-0.4c0.5,0,1,0.1,1.3,0.4
		c0.2,0.1,0.3,0.4,0.5,0.7c0.2-0.4,0.5-0.6,0.9-0.8s0.7-0.3,1.1-0.3c0.9,0,1.5,0.3,1.8,1c0.2,0.3,0.3,0.8,0.3,1.4v4.4H353v-4.6
		c0-0.4-0.1-0.7-0.3-0.9s-0.5-0.2-0.8-0.2c-0.4,0-0.8,0.1-1.1,0.4c-0.3,0.3-0.5,0.8-0.5,1.5v3.9h-1.1v-4.4c0-0.5-0.1-0.8-0.2-1
		c-0.2-0.3-0.5-0.5-1-0.5c-0.4,0-0.8,0.2-1.2,0.5c-0.3,0.3-0.5,0.9-0.5,1.8v3.5h-1.1V118.1z"/>
	<path class="st10" d="M360,118.3c0.4,0.2,0.8,0.5,1,0.9c0.2,0.3,0.4,0.7,0.4,1.2c0.1,0.3,0.1,0.8,0.1,1.5h-4.8
		c0,0.7,0.2,1.2,0.5,1.6c0.3,0.4,0.8,0.6,1.4,0.6c0.6,0,1-0.2,1.4-0.6c0.2-0.2,0.3-0.5,0.4-0.8h1.1c0,0.2-0.1,0.5-0.3,0.8
		c-0.2,0.3-0.3,0.5-0.5,0.7c-0.3,0.3-0.8,0.6-1.3,0.7c-0.3,0.1-0.6,0.1-0.9,0.1c-0.8,0-1.5-0.3-2.1-0.9c-0.6-0.6-0.9-1.5-0.9-2.5
		c0-1.1,0.3-1.9,0.9-2.6s1.3-1,2.3-1C359.1,118,359.5,118.1,360,118.3z M360.4,120.9c0-0.5-0.2-0.9-0.3-1.2
		c-0.3-0.5-0.8-0.8-1.5-0.8c-0.5,0-0.9,0.2-1.3,0.6s-0.5,0.8-0.5,1.4H360.4z"/>
</g>
<g class="st9">
	<path class="st10" d="M369.5,118.5c0.5,0.4,0.8,1,0.8,1.9h-1.1c-0.1-0.4-0.2-0.8-0.5-1c-0.2-0.3-0.6-0.4-1.1-0.4
		c-0.7,0-1.2,0.3-1.5,1c-0.2,0.5-0.3,1-0.3,1.7c0,0.7,0.1,1.2,0.4,1.7s0.7,0.7,1.3,0.7c0.5,0,0.8-0.1,1.1-0.4s0.5-0.7,0.6-1.2h1.1
		c-0.1,0.9-0.4,1.5-0.9,1.9c-0.5,0.4-1.1,0.6-1.9,0.6c-0.9,0-1.6-0.3-2.1-1c-0.5-0.6-0.8-1.4-0.8-2.4c0-1.2,0.3-2.1,0.9-2.7
		c0.6-0.7,1.3-1,2.2-1C368.4,117.9,369,118.1,369.5,118.5z"/>
</g>
<g class="st9">
	<path class="st10" d="M375.5,118.8c0.6,0.6,0.9,1.4,0.9,2.5c0,1.1-0.3,2-0.8,2.7c-0.5,0.7-1.3,1.1-2.4,1.1c-0.9,0-1.6-0.3-2.2-0.9
		c-0.5-0.6-0.8-1.5-0.8-2.5c0-1.1,0.3-2,0.8-2.7c0.6-0.7,1.3-1,2.3-1C374.2,117.9,375,118.2,375.5,118.8z M374.9,123.2
		c0.3-0.6,0.4-1.2,0.4-1.9c0-0.6-0.1-1.1-0.3-1.5c-0.3-0.6-0.8-0.9-1.6-0.9c-0.7,0-1.2,0.3-1.5,0.8c-0.3,0.5-0.5,1.2-0.5,1.9
		c0,0.7,0.2,1.3,0.5,1.8c0.3,0.5,0.8,0.7,1.5,0.7C374.1,124.1,374.6,123.8,374.9,123.2z"/>
	<path class="st10" d="M378.5,122.7c0,0.4,0.1,0.7,0.3,0.9c0.3,0.4,0.8,0.5,1.5,0.5c0.4,0,0.8-0.1,1.1-0.3c0.3-0.2,0.5-0.5,0.5-0.8
		c0-0.3-0.1-0.5-0.4-0.7c-0.2-0.1-0.5-0.2-1-0.3l-0.9-0.2c-0.6-0.1-1-0.3-1.3-0.5c-0.5-0.3-0.7-0.7-0.7-1.3c0-0.6,0.2-1.1,0.7-1.5
		c0.5-0.4,1.1-0.6,1.9-0.6c1,0,1.8,0.3,2.2,0.9c0.3,0.4,0.4,0.8,0.4,1.2h-1.1c0-0.3-0.1-0.5-0.3-0.7c-0.3-0.3-0.7-0.4-1.4-0.4
		c-0.4,0-0.8,0.1-1,0.2c-0.2,0.2-0.3,0.4-0.3,0.6c0,0.3,0.1,0.5,0.4,0.7c0.2,0.1,0.4,0.2,0.7,0.3l0.8,0.2c0.8,0.2,1.4,0.4,1.6,0.6
		c0.4,0.3,0.7,0.7,0.7,1.4c0,0.6-0.2,1.1-0.7,1.5s-1.2,0.6-2.1,0.6c-1,0-1.7-0.2-2.1-0.7c-0.4-0.5-0.6-1-0.7-1.7H378.5z"/>
	<path class="st10" d="M384.4,116.3h1.1v1.9h1.1v0.9h-1.1v4.4c0,0.2,0.1,0.4,0.2,0.5c0.1,0,0.2,0.1,0.4,0.1c0.1,0,0.1,0,0.2,0
		c0.1,0,0.1,0,0.2,0v0.9c-0.1,0-0.3,0.1-0.4,0.1c-0.1,0-0.3,0-0.5,0c-0.5,0-0.9-0.1-1.1-0.4s-0.3-0.6-0.3-1V119h-0.9v-0.9h0.9V116.3
		z"/>
</g>
</svg>
