<svg id="header" xmlns="http://www.w3.org/2000/svg" viewBox="0 0 410 180"><title>INFOGRAPHIC-03</title><rect x="7.5" y="143.92" width="397.79" height="29.13" rx="12.17" ry="12.17" fill="#1c75bc"/><g style="isolation:isolate"><text transform="translate(103.26 16.87)" font-size="18" fill="#231f20" font-family="Helvetica" font-weight="700" style="isolation:isolate">R</text><text transform="translate(114.76 16.87)" font-size="18" fill="#231f20" font-family="Helvetica" font-weight="700" style="isolation:isolate">OUTINE MEDI</text><text transform="translate(234.5 16.87)" font-size="18" fill="#231f20" font-family="Helvetica" font-weight="700" style="isolation:isolate">C</text><text transform="translate(246.91 16.87)" font-size="18" fill="#231f20" font-family="Helvetica" font-weight="700" style="isolation:isolate">A<tspan x="13" y="0">L</tspan><tspan x="23.68" y="0"> </tspan></text><text transform="translate(274.45 16.87)" font-size="18" fill="#231f20" font-family="Helvetica" font-weight="700" style="isolation:isolate">C</text><text transform="translate(286.86 16.87)" font-size="18" fill="#231f20" font-family="Helvetica" font-weight="700" style="isolation:isolate">ARE</text></g><g style="isolation:isolate"><text transform="translate(113.55 165.08)" font-size="22.95" fill="#fff" font-family="Helvetica" style="isolation:isolate">18% </text><text transform="translate(160.14 165.08)" font-size="15.3" fill="#fff" font-family="Helvetica" style="isolation:isolate">of annual budget</text></g><g style="isolation:isolate"><text transform="translate(90.15 34.21)" font-size="11" fill="#231f20" font-family="Helvetica" style="isolation:isolate">I</text><text transform="translate(92.89 34.21)" font-size="11" fill="#231f20" font-family="Helvetica" style="isolation:isolate">ncludes sp</text><text transform="translate(141.6 34.21)" font-size="11" fill="#231f20" font-family="Helvetica" style="isolation:isolate">a</text><text transform="translate(146.81 34.21)" font-size="11" fill="#231f20" font-family="Helvetica" style="isolation:isolate">ying or neu</text><text transform="translate(198.79 34.21)" font-size="11" fill="#231f20" font-family="Helvetica" style="isolation:isolate">t</text><text transform="translate(202.37 34.21)" font-size="11" fill="#231f20" font-family="Helvetica" style="isolation:isolate">e</text><text transform="translate(207.88 34.21)" font-size="11" fill="#231f20" font-family="Helvetica" style="isolation:isolate">r</text><text transform="translate(211.52 34.21)" font-size="11" fill="#231f20" font-family="Helvetica" style="isolation:isolate">ing (usually in first </text><text transform="translate(296.97 34.21)" font-size="11" fill="#231f20" font-family="Helvetica" style="isolation:isolate">y</text><text transform="translate(302.04 34.21)" font-size="11" fill="#231f20" font-family="Helvetica" style="isolation:isolate">ear), </text><text transform="translate(173.66 47.41)" font-size="11" fill="#231f20" font-family="Helvetica" style="isolation:isolate">inocul</text><text transform="translate(201.96 47.41)" font-size="11" fill="#231f20" font-family="Helvetica" style="isolation:isolate">a</text><text transform="translate(207.22 47.41)" font-size="11" fill="#231f20" font-family="Helvetica" style="isolation:isolate">tion</text><text transform="translate(225.58 47.41)" font-size="11" fill="#231f20" font-family="Helvetica" style="isolation:isolate">s</text><text transform="translate(229.81 47.41)" font-size="11" fill="#231f20" font-family="Helvetica" style="isolation:isolate">, </text><text transform="translate(234.42 47.41)" font-size="11" fill="#231f20" font-family="Helvetica" style="isolation:isolate">r</text><text transform="translate(237.91 47.41)" font-size="11" fill="#231f20" font-family="Helvetica" style="isolation:isolate">egular chec</text><text transform="translate(290.93 47.41)" font-size="11" fill="#231f20" font-family="Helvetica" style="isolation:isolate">k</text><text transform="translate(296.13 47.41)" font-size="11" fill="#231f20" font-family="Helvetica" style="isolation:isolate">up</text><text transform="translate(308.45 47.41)" font-size="11" fill="#231f20" font-family="Helvetica" style="isolation:isolate">s</text><text transform="translate(312.68 47.41)" font-size="11" fill="#231f20" font-family="Helvetica" style="isolation:isolate">. *</text></g><rect x="7.69" y="60.41" width="142.32" height="15.54" rx="7.77" ry="7.77" fill="#1c75bc"/><rect x="7.5" y="109.38" width="142.51" height="17.05" rx="7.77" ry="7.77" fill="#1c75bc"/><ellipse cx="37.65" cy="61.17" rx="21.99" ry="21.94" fill="#1c75bc" stroke="#231f20" stroke-miterlimit="10" stroke-width="0.85"/><path d="M22.5,45.27S19.84,72.21,31,82.17" fill="none" stroke="#231f20" stroke-miterlimit="10" stroke-width="0.85"/><path d="M18.84,49.66s-4,16.15,6.17,29.48" fill="none" stroke="#231f20" stroke-miterlimit="10" stroke-width="0.85"/><path d="M32.55,39.82a39,39,0,0,0-2.49,10.35c-1.08,9.27.4,22.53,14,32" fill="none" stroke="#231f20" stroke-miterlimit="10" stroke-width="0.85"/><path d="M55.14,47.87A28.79,28.79,0,0,1,29.78,54" fill="none" stroke="#231f20" stroke-miterlimit="10" stroke-width="0.85"/><path d="M52.62,45.1S40.3,54.34,30.25,48.76" fill="none" stroke="#231f20" stroke-miterlimit="10" stroke-width="0.85"/><path d="M30.83,45.1s10.29,4.11,17.75-3" fill="none" stroke="#231f20" stroke-miterlimit="10" stroke-width="0.85"/><path d="M32,41.37a9.5,9.5,0,0,0,10.42-1.62" fill="none" stroke="#231f20" stroke-miterlimit="10" stroke-width="0.85"/><path d="M37.65,54.75a6.81,6.81,0,0,1-7.4,5.15" fill="none" stroke="#231f20" stroke-miterlimit="10" stroke-width="0.85"/><path d="M41.44,54.32S41.32,64.09,31,64.22" fill="none" stroke="#231f20" stroke-miterlimit="10" stroke-width="0.85"/><path d="M45.35,53.35s1.5,14.53-13,14.7" fill="none" stroke="#231f20" stroke-miterlimit="10" stroke-width="0.85"/><path d="M49.52,51.64s6.54,17.57-14,22.15" fill="none" stroke="#231f20" stroke-miterlimit="10" stroke-width="0.85"/><path d="M53.37,49.66S63.84,70.45,40,78.9" fill="none" stroke="#231f20" stroke-miterlimit="10" stroke-width="0.85"/><path d="M27.38,41.77s-5.85,23.29,8.83,41.31" fill="none" stroke="#231f20" stroke-miterlimit="10" stroke-width="0.85"/><ellipse cx="37.09" cy="112.82" rx="21.99" ry="21.94" fill="#1c75bc" stroke="#231f20" stroke-miterlimit="10" stroke-width="0.85"/><path d="M21.93,96.92s-2.66,26.94,8.48,36.9" fill="none" stroke="#231f20" stroke-miterlimit="10" stroke-width="0.85"/><path d="M18.27,101.3s-4,16.15,6.17,29.48" fill="none" stroke="#231f20" stroke-miterlimit="10" stroke-width="0.85"/><path d="M32,91.47a39,39,0,0,0-2.49,10.35c-1.08,9.27.4,22.53,14,32" fill="none" stroke="#231f20" stroke-miterlimit="10" stroke-width="0.85"/><path d="M54.57,99.52a28.79,28.79,0,0,1-25.36,6.11" fill="none" stroke="#231f20" stroke-miterlimit="10" stroke-width="0.85"/><path d="M52.06,96.75S39.74,106,29.69,100.41" fill="none" stroke="#231f20" stroke-miterlimit="10" stroke-width="0.85"/><path d="M30.26,96.75s10.29,4.11,17.75-3" fill="none" stroke="#231f20" stroke-miterlimit="10" stroke-width="0.85"/><path d="M31.43,93a9.5,9.5,0,0,0,10.42-1.62" fill="none" stroke="#231f20" stroke-miterlimit="10" stroke-width="0.85"/><path d="M37.09,106.4a6.81,6.81,0,0,1-7.4,5.15" fill="none" stroke="#231f20" stroke-miterlimit="10" stroke-width="0.85"/><path d="M40.87,106s-0.12,9.77-10.46,9.9" fill="none" stroke="#231f20" stroke-miterlimit="10" stroke-width="0.85"/><path d="M44.78,105s1.5,14.53-13,14.7" fill="none" stroke="#231f20" stroke-miterlimit="10" stroke-width="0.85"/><path d="M49,103.28s6.54,17.57-14,22.15" fill="none" stroke="#231f20" stroke-miterlimit="10" stroke-width="0.85"/><path d="M52.8,101.3s10.47,20.79-13.37,29.24" fill="none" stroke="#231f20" stroke-miterlimit="10" stroke-width="0.85"/><path d="M26.82,93.41S21,116.7,35.65,134.72" fill="none" stroke="#231f20" stroke-miterlimit="10" stroke-width="0.85"/><text transform="translate(64.54 55.28)" font-size="19" fill="#f1f2f2" font-family="Arial" font-weight="700" style="isolation:isolate">$85</text><g style="isolation:isolate"><text transform="translate(64.04 71.38)" font-size="12.75" fill="#231f20" font-family="Helvetica" style="isolation:isolate">annual </text><text transform="translate(103.22 71.38)" font-size="12.75" fill="#231f20" font-family="Helvetica" style="isolation:isolate">c</text><text transform="translate(108.86 71.38)" font-size="12.75" fill="#231f20" font-family="Helvetica" style="isolation:isolate">ost</text></g><text transform="translate(63.96 104.63)" font-size="19" fill="#f1f2f2" font-family="Arial" font-weight="700" style="isolation:isolate">$1,190</text><g style="isolation:isolate"><text transform="translate(64.04 122)" font-size="12.75" fill="#231f20" font-family="Helvetica" style="isolation:isolate">li</text><text transform="translate(70.03 122)" font-size="12.75" fill="#231f20" font-family="Helvetica" style="isolation:isolate">f</text><text transform="translate(73.59 122)" font-size="12.75" fill="#231f20" font-family="Helvetica" style="isolation:isolate">etime </text><text transform="translate(106.91 122)" font-size="12.75" fill="#231f20" font-family="Helvetica" style="isolation:isolate">c</text><text transform="translate(112.54 122)" font-size="12.75" fill="#231f20" font-family="Helvetica" style="isolation:isolate">ost</text></g><path d="M210.61,94l-61.46-4,61.46-4a4,4,0,1,1,.52,8A4.43,4.43,0,0,1,210.61,94Z" fill="#231f20"/><path d="M360.22,94.35l-48.87-4,48.87-4a4,4,0,1,1,.65,8A4.34,4.34,0,0,1,360.22,94.35Z" fill="#231f20"/><path d="M215.44,77.28c-12.08,0-20.87,3.78-20.87,12.7s8.89,13.9,21,13.9" fill="#603913"/><ellipse cx="361.49" cy="90.35" rx="9.85" ry="20.06" fill="#603913"/><path d="M227.53,113.49H320.1a12,12,0,0,0,12-12V79.22a12,12,0,0,0-12-12H227.53c-6.75-.21-13,4.09-12,12v22.27A12,12,0,0,0,227.53,113.49Z" fill="#fff" opacity="0.45" style="isolation:isolate"/><path d="M294.42,113.74H320.1a12,12,0,0,0,12-12V79.47a12,12,0,0,0-12-12h-1.47c-4.29-.57-8.23,4.6-10.88,11.93l-13.57,34a0.26,0.26,0,0,0,.17.33h0.07Z" fill="#1c75bc"/><line x1="312.34" y1="113.74" x2="312.34" y2="96.63" fill="none" stroke="#231f20" stroke-miterlimit="10" stroke-width="0.99"/><line x1="302.27" y1="113.74" x2="302.27" y2="96.63" fill="none" stroke="#231f20" stroke-miterlimit="10" stroke-width="0.99"/><line x1="283.91" y1="113.74" x2="283.91" y2="96.63" fill="none" stroke="#231f20" stroke-miterlimit="10" stroke-width="0.99"/><line x1="275.62" y1="113.59" x2="275.62" y2="96.48" fill="none" stroke="#231f20" stroke-miterlimit="10" stroke-width="0.99"/><line x1="265.55" y1="113.59" x2="265.55" y2="96.48" fill="none" stroke="#231f20" stroke-miterlimit="10" stroke-width="0.99"/><line x1="255.6" y1="113.59" x2="255.6" y2="96.48" fill="none" stroke="#231f20" stroke-miterlimit="10" stroke-width="0.99"/><line x1="247.19" y1="113.59" x2="247.19" y2="96.48" fill="none" stroke="#231f20" stroke-miterlimit="10" stroke-width="0.99"/><line x1="239.45" y1="113.74" x2="239.45" y2="96.63" fill="none" stroke="#231f20" stroke-miterlimit="10" stroke-width="0.99"/><line x1="231.05" y1="113.74" x2="231.05" y2="96.63" fill="none" stroke="#231f20" stroke-miterlimit="10" stroke-width="0.99"/><path d="M293.47,112.73s-1.9-5.23-4.81-4.63S288.34,112.38,293.47,112.73Z" fill="#1c75bc"/><path d="M293.84,110.87s2.19-5.11-.35-6.67S290.33,107.11,293.84,110.87Z" fill="#1c75bc"/><line x1="292.32" y1="113.74" x2="292.32" y2="96.63" fill="none" stroke="#231f20" stroke-miterlimit="10" stroke-width="0.99"/><path d="M296.77,120.92l0.38,6.26q0.2,3.14.34,6.26l-0.72-.72c4.23-.21,8.46-0.43,12.69-0.59s8.46-.37,12.69-0.51l12.69-.41c4.23-.15,8.46-0.25,12.69-0.34l12.69-.3c4.23-.12,8.46-0.15,12.69-0.21l12.69-.18q6.35-.11,12.69-0.12l-3.38,3.38-0.1-22.31V100l0-11.15L395,77.68c0-3.72.09-7.44,0.14-11.15l0.16-11.15c0.06-3.72.08-7.44,0.19-11.15v0.31a1.55,1.55,0,0,0,0-.39,3.59,3.59,0,0,1-.08-0.49c-0.06-.33-0.14-0.67-0.22-1a20.24,20.24,0,0,0-.6-2,28.93,28.93,0,0,0-1.7-4,31.94,31.94,0,0,0-2.28-3.77,34.72,34.72,0,0,0-2.76-3.48q-1.5-1.65-3.17-3.17a44.61,44.61,0,0,0-3.53-2.82c-0.6-.47-1.25-0.86-1.88-1.28s-1.28-.82-1.94-1.2c-1.3-.8-2.68-1.46-4-2.16A39.12,39.12,0,0,0,369,16.95c-0.72-.28-1.44-0.58-2.17-0.83l-2.21-.74c-1.47-.52-3-0.87-4.49-1.31s-3-.71-4.57-1.06-3.08-.62-4.63-0.86-3.11-.49-4.68-0.67-3.14-.38-4.71-0.52l-4.74-.38,4.76-.21h4.78c1.6,0,3.18.13,4.78,0.2s3.19,0.27,4.78.4,3.18,0.43,4.77.67a39.19,39.19,0,0,1,4.74,1l2.36,0.57c0.78,0.21,1.56.46,2.33,0.68a46.7,46.7,0,0,1,4.62,1.59c1.54,0.59,3,1.26,4.48,2a24,24,0,0,1,2.18,1.16c0.71,0.43,1.45.79,2.13,1.26a49,49,0,0,1,4.09,2.86c0.64,0.53,1.3,1,1.93,1.6s1.25,1.12,1.83,1.73a39.69,39.69,0,0,1,3.33,3.81,37.13,37.13,0,0,1,2.84,4.23,34.35,34.35,0,0,1,2.23,4.64c0.32,0.8.6,1.63,0.86,2.47,0.12,0.43.24,0.85,0.35,1.29,0,0.22.1,0.44,0.15,0.68s0.09,0.43.14,0.78a1.43,1.43,0,0,1,0,.15V44.3c0.1,3.72.13,7.44,0.19,11.15l0.16,11.15c0,3.72.13,7.44,0.14,11.15l0,11.15V100c0,3.72,0,7.44,0,11.15l-0.1,22.31h0a3.36,3.36,0,0,1-3.36,3.36h0q-6.35,0-12.69-.12l-12.69-.18c-4.23-.07-8.46-0.1-12.69-0.21l-12.69-.3c-4.23-.1-8.46-0.19-12.69-0.34l-12.69-.41c-4.23-.14-8.46-0.34-12.69-0.51s-8.46-.38-12.69-0.59H296.7a0.68,0.68,0,0,1-.65-0.71h0q0.15-3.14.34-6.26Z" fill="#1c75bc"/></svg>