<svg id="main_graphic" data-name="main graphic" xmlns="http://www.w3.org/2000/svg" viewBox="0 0 410 190"><title>INFOGRAPHIC-06</title><path d="M114.34,122.05l0.38,6.29c0.13,2.1.24,4.19,0.34,6.29a0.68,0.68,0,0,1-.64.72h-0.08c-4.23.21-8.46,0.43-12.69,0.59s-8.46.37-12.69,0.5l-12.69.41c-4.23.15-8.46,0.25-12.69,0.34l-12.69.3c-4.23.12-8.46,0.15-12.69,0.21l-12.69.18Q19.16,138,12.82,138a3.37,3.37,0,0,1-3.38-3.36h0l-0.1-22.38V101.06L9.39,89.87,9.44,78.68c0-3.73.09-7.46,0.14-11.19L9.74,56.3c0.06-3.73.09-7.46,0.19-11.19V45a1.42,1.42,0,0,1,0-.15A3,3,0,0,1,10.07,44c0.05-.24.1-0.46,0.15-0.68,0.1-.45.22-0.87,0.34-1.29,0.26-.84.53-1.67,0.85-2.47a34.37,34.37,0,0,1,2.23-4.64,37.16,37.16,0,0,1,2.83-4.24,39.54,39.54,0,0,1,3.32-3.82,41.12,41.12,0,0,1,3.75-3.35,48.55,48.55,0,0,1,4.08-2.87c0.69-.47,1.42-0.85,2.13-1.27l1.08-.61,1.11-.55c1.46-.77,3-1.39,4.48-2A35.4,35.4,0,0,1,41,14.63c0.78-.23,1.55-0.48,2.34-0.69l2.36-.58c1.56-.41,3.17-0.64,4.74-1a45.26,45.26,0,0,1,4.77-.68c1.59-.19,3.19-0.32,4.79-0.41s3.19-.18,4.79-0.2,3.19,0,4.78,0l4.77,0.21-4.75.38C68,11.8,66.48,12,64.91,12.18s-3.13.45-4.69,0.67-3.1.58-4.64,0.87-3.06.69-4.58,1.07-3,.79-4.49,1.32l-2.21.74c-0.73.26-1.45,0.56-2.17,0.84s-1.44.56-2.14,0.9l-2.11.94c-1.37.7-2.75,1.37-4.05,2.17l-1,.57-1,.63c-0.63.42-1.28,0.82-1.88,1.29a41.08,41.08,0,0,0-6.68,6,34.57,34.57,0,0,0-2.76,3.49,32,32,0,0,0-2.27,3.78,28.94,28.94,0,0,0-1.7,4c-0.24.68-.43,1.37-0.6,2-0.08.34-.16,0.68-0.22,1s-0.12.71-.14,0.88V45.1c0.1,3.73.13,7.46,0.19,11.19L16,67.47c0,3.73.13,7.46,0.14,11.19l0.05,11.19L16.27,101v11.19l-0.1,22.38-3.38-3.38q6.35,0,12.69.12l12.69,0.18c4.23,0.07,8.46.1,12.69,0.21L63.55,132c4.23,0.1,8.46.19,12.69,0.34l12.69,0.41c4.23,0.14,8.46.34,12.69,0.5s8.46,0.38,12.69.59l-0.72.72c0.1-2.1.21-4.19,0.34-6.29Z" fill="#00a651"/><path d="M38.92,100.7c-0.75,3.32,3.18,6.12,6.57,5.79s6.22-2.61,9-4.53c4.41-3,9.27-5.35,13.55-8.54S76.12,86,77.2,80.72s-1.33-11.39-6.33-13.27C64.55,65.07,56.29,69.9,51.24,64c-1.15-1.35-1.86-3-2.94-4.42-2.23-2.93-5.81-3.21-6.75.82a9.8,9.8,0,0,0,1,6.54c1.62,3.13,4,5.73,5.53,8.94a0.54,0.54,0,0,1,.08.33,0.52,0.52,0,0,1-.25.29c-3,2-8.81-1.28-10.95,2.13-1.1,1.74.08,4.13,1.79,5.28s3.83,1.49,5.74,2.26,3.81,2.28,3.93,4.33c0.14,2.44-2.2,4.22-4.36,5.38S39.46,98.37,38.92,100.7Z" fill="#006838"/><rect x="7.29" y="146.83" width="397.79" height="29.13" rx="12.17" ry="12.17" fill="#00a651"/><path d="M106.94,50s-50.58-4.38-49,28.44,11.9,32.28,49.61,32C109.38,87.69,106.94,50,106.94,50Z" fill="#00a651" stroke="#006838" stroke-miterlimit="10" stroke-width="1.87"/><path d="M111.16,54.09a5.35,5.35,0,0,1,.32.62c1.39,3.11,12.3,26,.56,51.06C99.53,132.44,95.38,28.37,111.16,54.09Z" fill="#ddb6cb" stroke="#006838" stroke-miterlimit="10" stroke-width="1.87"/><path d="M159,77.73c0,14.61-9.71,26.45-12.88,26.45s6-11.33,6-25.94S142.86,52.3,146,52.3,159,63.13,159,77.73Z" fill="#f2f1cc" stroke="#f2f1cc" stroke-miterlimit="10" stroke-width="1.73"/><path d="M179.3,79.25c0,16.85-9.71,30.52-12.88,30.52s6-13.08,6-29.93-9.29-29.93-6.12-29.93S179.3,62.37,179.3,79.25Z" fill="#f2f1cc" stroke="#f2f1cc" stroke-miterlimit="10" stroke-width="1.86"/><path d="M137,77.57c0,12.77-9.71,23.12-12.88,23.12s6-9.91,6-22.67S120.79,55.37,124,55.37,137,64.8,137,77.57Z" fill="#f2f1cc" stroke="#f2f1cc" stroke-miterlimit="10" stroke-width="1.62"/><ellipse cx="109.54" cy="79.96" rx="4" ry="8.1" fill="#e26998"/><rect x="108.17" y="75.92" width="95.49" height="7.85" rx="3.57" ry="3.57" fill="#f2f1cc"/><g style="isolation:isolate"><text transform="translate(72.46 19.1)" font-size="15" fill="#231f20" font-family="Helvetica" font-weight="700" style="isolation:isolate">FOOD</text><text transform="translate(125.52 19.1)" font-size="15" fill="#231f20" font-family="Helvetica" font-weight="700" style="isolation:isolate">,</text><text transform="translate(129.92 19.1)" font-size="15" fill="#231f20" font-family="Helvetica" font-weight="700" style="isolation:isolate"> </text><text transform="translate(133.55 19.1)" font-size="15" fill="#231f20" font-family="Helvetica" font-weight="700" style="isolation:isolate">TRE</text><text transform="translate(166 19.1)" font-size="15" fill="#231f20" font-family="Helvetica" font-weight="700" letter-spacing="-1" style="isolation:isolate">A</text><text transform="translate(177.37 19.1)" font-size="15" fill="#231f20" font-family="Helvetica" font-weight="700" style="isolation:isolate">T</text><text transform="translate(187.8 19.1)" font-size="15" fill="#231f20" font-family="Helvetica" font-weight="700" style="isolation:isolate">S</text></g><path d="M60,70.85c0.72,4.28,10.4,6.21,21.62,4.32L79,59.68C67.76,61.57,59.26,66.57,60,70.85Z" fill="#00a651" stroke="#006838" stroke-miterlimit="10" stroke-width="1.87"/><path d="M64.87,63.37C65.42,67.67,75,70,86.3,68.57L84.3,53C73,54.46,64.32,59.12,64.87,63.37Z" fill="#00a651" stroke="#006838" stroke-miterlimit="10" stroke-width="1.87"/><path d="M59.51,80c-0.26,4.33,8.73,8.4,20.09,9.08l1-15.67C69.19,72.67,59.78,75.62,59.51,80Z" fill="#00a651" stroke="#006838" stroke-miterlimit="10" stroke-width="1.87"/><path d="M63.18,73.57c-0.26,4.33,8.73,8.4,20.09,9.08L84.22,67C72.86,66.28,63.45,69.24,63.18,73.57Z" fill="#00a651" stroke="#006838" stroke-miterlimit="10" stroke-width="1.87"/><path d="M61.83,86.87c-0.26,4.33,8.73,8.4,20.09,9.08l0.95-15.68C71.51,79.59,62.09,82.54,61.83,86.87Z" fill="#00a651" stroke="#006838" stroke-miterlimit="10" stroke-width="1.87"/><path d="M73.46,62c-0.65,4.29,7.93,9.15,19.18,10.86L95,57.28C83.76,55.57,74.12,57.66,73.46,62Z" fill="#00a651" stroke="#006838" stroke-miterlimit="10" stroke-width="1.87"/><path d="M62.95,98.15c-0.63,4.29,8,9.11,19.23,10.77l2.3-15.54C73.22,91.72,63.59,93.86,62.95,98.15Z" fill="#00a651" stroke="#006838" stroke-miterlimit="10" stroke-width="1.87"/><path d="M272.83,63.18H399.61A7.77,7.77,0,0,1,407.38,71h0a7.77,7.77,0,0,1-7.77,7.77H272.83A7.77,7.77,0,0,1,265.06,71h0A7.77,7.77,0,0,1,272.83,63.18Z" fill="#00a651"/><path d="M81.72,55.82C81.07,60.11,89.65,65,100.9,66.68l2.37-15.53C92,49.44,82.38,51.53,81.72,55.82Z" fill="#00a651" stroke="#006838" stroke-miterlimit="10" stroke-width="1.87"/><path d="M73.56,85.58C74.2,89.87,83.85,92,95.1,90.31L92.77,74.77C81.51,76.45,72.91,81.29,73.56,85.58Z" fill="#00a651" stroke="#006838" stroke-miterlimit="10" stroke-width="1.87"/><path d="M79.64,73.57c-0.26,4.33,8.73,8.4,20.09,9.08L100.68,67C89.32,66.28,79.9,69.24,79.64,73.57Z" fill="#00a651" stroke="#006838" stroke-miterlimit="10" stroke-width="1.87"/><path d="M68.83,100.37c0.76,4.27,10.45,6.13,21.66,4.15L87.74,89.05C76.54,91,68,96.08,68.83,100.37Z" fill="#00a651" stroke="#006838" stroke-miterlimit="10" stroke-width="1.87"/><rect x="264.86" y="112.16" width="142.51" height="17.05" rx="7.77" ry="7.77" fill="#00a651"/><path d="M80.25,93.13c0.64,4.29,10.29,6.41,21.54,4.73L99.46,82.32C88.21,84,79.61,88.84,80.25,93.13Z" fill="#00a651" stroke="#006838" stroke-miterlimit="10" stroke-width="1.87"/><path d="M82.91,105.23c0.76,4.27,10.45,6.13,21.66,4.15l-2.75-15.47C90.62,95.89,82.16,101,82.91,105.23Z" fill="#00a651" stroke="#006838" stroke-miterlimit="10" stroke-width="1.87"/><ellipse cx="295.02" cy="63.95" rx="21.99" ry="21.94" fill="#00a651" stroke="#231f20" stroke-miterlimit="10" stroke-width="0.85"/><path d="M279.87,48s-2.66,26.94,8.48,36.9" fill="none" stroke="#231f20" stroke-miterlimit="10" stroke-width="0.85"/><path d="M276.2,52.43s-4,16.15,6.17,29.48" fill="none" stroke="#231f20" stroke-miterlimit="10" stroke-width="0.85"/><path d="M289.91,42.6A39,39,0,0,0,287.42,53c-1.08,9.27.4,22.53,14,32" fill="none" stroke="#231f20" stroke-miterlimit="10" stroke-width="0.85"/><path d="M312.51,50.65a28.79,28.79,0,0,1-25.36,6.11" fill="none" stroke="#231f20" stroke-miterlimit="10" stroke-width="0.85"/><path d="M310,47.87s-12.32,9.24-22.37,3.66" fill="none" stroke="#231f20" stroke-miterlimit="10" stroke-width="0.85"/><path d="M288.2,47.87s10.29,4.11,17.75-3" fill="none" stroke="#231f20" stroke-miterlimit="10" stroke-width="0.85"/><path d="M289.36,44.15a9.5,9.5,0,0,0,10.42-1.62" fill="none" stroke="#231f20" stroke-miterlimit="10" stroke-width="0.85"/><path d="M295,57.52a6.81,6.81,0,0,1-7.4,5.15" fill="none" stroke="#231f20" stroke-miterlimit="10" stroke-width="0.85"/><path d="M298.8,57.09s-0.12,9.77-10.46,9.9" fill="none" stroke="#231f20" stroke-miterlimit="10" stroke-width="0.85"/><path d="M302.72,56.12s1.5,14.53-13,14.7" fill="none" stroke="#231f20" stroke-miterlimit="10" stroke-width="0.85"/><path d="M306.88,54.37s6.54,17.57-14,22.15" fill="none" stroke="#231f20" stroke-miterlimit="10" stroke-width="0.85"/><path d="M310.73,52.43s10.47,20.79-13.37,29.24" fill="none" stroke="#231f20" stroke-miterlimit="10" stroke-width="0.85"/><path d="M284.75,44.54s-5.85,23.29,8.83,41.31" fill="none" stroke="#231f20" stroke-miterlimit="10" stroke-width="0.85"/><ellipse cx="294.45" cy="115.6" rx="21.99" ry="21.94" fill="#00a651" stroke="#231f20" stroke-miterlimit="10" stroke-width="0.85"/><path d="M279.3,99.69s-2.66,26.94,8.48,36.9" fill="none" stroke="#231f20" stroke-miterlimit="10" stroke-width="0.85"/><path d="M275.64,104.08s-4,16.15,6.17,29.48" fill="none" stroke="#231f20" stroke-miterlimit="10" stroke-width="0.85"/><path d="M289.35,94.25a39,39,0,0,0-2.49,10.35c-1.08,9.27.4,22.53,14,32" fill="none" stroke="#231f20" stroke-miterlimit="10" stroke-width="0.85"/><path d="M311.94,102.29a28.79,28.79,0,0,1-25.36,6.08" fill="none" stroke="#231f20" stroke-miterlimit="10" stroke-width="0.85"/><path d="M309.42,99.52s-12.32,9.24-22.37,3.66" fill="none" stroke="#231f20" stroke-miterlimit="10" stroke-width="0.85"/><path d="M287.63,99.52s10.29,4.11,17.75-3" fill="none" stroke="#231f20" stroke-miterlimit="10" stroke-width="0.85"/><path d="M288.8,95.8a9.5,9.5,0,0,0,10.42-1.62" fill="none" stroke="#231f20" stroke-miterlimit="10" stroke-width="0.85"/><path d="M294.45,109.17a6.81,6.81,0,0,1-7.4,5.15" fill="none" stroke="#231f20" stroke-miterlimit="10" stroke-width="0.85"/><path d="M298.24,108.74s-0.12,9.77-10.46,9.9" fill="none" stroke="#231f20" stroke-miterlimit="10" stroke-width="0.85"/><path d="M302.15,107.77s1.5,14.53-13,14.7" fill="none" stroke="#231f20" stroke-miterlimit="10" stroke-width="0.85"/><path d="M306.31,106.06s6.54,17.57-14,22.15" fill="none" stroke="#231f20" stroke-miterlimit="10" stroke-width="0.85"/><path d="M310.17,104.08s10.47,20.79-13.37,29.24" fill="none" stroke="#231f20" stroke-miterlimit="10" stroke-width="0.85"/><path d="M284.18,96.19s-5.85,23.29,8.83,41.31" fill="none" stroke="#231f20" stroke-miterlimit="10" stroke-width="0.85"/><g style="isolation:isolate"><text transform="translate(113.34 167.99)" font-size="22.95" fill="#fff" font-family="Helvetica" style="isolation:isolate">38% </text><text transform="translate(159.93 167.99)" font-size="15.3" fill="#231f20" font-family="Helvetica" style="isolation:isolate">of annual budget</text></g><path d="M208.3,89.37c0-1.14,5.49-2.11,13.22-2.49a3.8,3.8,0,0,0,3.56-3.13q0.25-1.38.42-2.86a4.07,4.07,0,0,0,0-.89C222.61,52.66,198,48.63,186,48.32a3.8,3.8,0,0,0-3.47,5.52c4.39,8.76,10.62,27.72-.41,52.19a3.79,3.79,0,0,0,3.58,5.34c9.38-.25,25.18-1.48,33.9-13.84a3.81,3.81,0,0,0-2.72-6C211.69,91,208.3,90.24,208.3,89.37Zm-4.65-17.21a5.09,5.09,0,1,1,5.06,5.63,5.37,5.37,0,0,1-5.06-5.66v0Z" fill="#f2f1cc"/><text transform="translate(321.9 58.05)" font-size="19" fill="#f1f2f2" font-family="Helvetica" style="isolation:isolate">$185</text><g style="isolation:isolate"><text transform="translate(321.4 74.16)" font-size="12.75" fill="#231f20" font-family="Helvetica" style="isolation:isolate">annual </text><text transform="translate(360.58 74.16)" font-size="12.75" fill="#231f20" font-family="Helvetica" style="isolation:isolate">c</text><text transform="translate(366.22 74.16)" font-size="12.75" fill="#231f20" font-family="Helvetica" style="isolation:isolate">ost</text></g><text transform="translate(321.33 106.4)" font-size="19" fill="#f1f2f2" font-family="Helvetica" style="isolation:isolate">$2,590</text><g style="isolation:isolate"><text transform="translate(321.4 124.78)" font-size="12.75" fill="#231f20" font-family="Helvetica" style="isolation:isolate">li</text><text transform="translate(327.39 124.78)" font-size="12.75" fill="#231f20" font-family="Helvetica" style="isolation:isolate">f</text><text transform="translate(330.95 124.78)" font-size="12.75" fill="#231f20" font-family="Helvetica" style="isolation:isolate">etime </text><text transform="translate(364.27 124.78)" font-size="12.75" fill="#231f20" font-family="Helvetica" style="isolation:isolate">c</text><text transform="translate(369.9 124.78)" font-size="12.75" fill="#231f20" font-family="Helvetica" style="isolation:isolate">ost</text></g></svg>