<?xml version="1.0" encoding="utf-8"?>
<!-- Generator: Adobe Illustrator 19.2.1, SVG Export Plug-In . SVG Version: 6.00 Build 0)  -->
<svg version="1.1" id="main_graphic" xmlns="http://www.w3.org/2000/svg" xmlns:xlink="http://www.w3.org/1999/xlink" x="0px"
	 y="0px" width="430px" height="190px" viewBox="0 0 430 190" style="enable-background:new 0 0 430 190;" xml:space="preserve">
<style type="text/css">
	.st0{fill:#FBB040;}
	.st1{enable-background:new    ;}
	.st2{fill:#231F20;}
</style>
<title>INFOGRAPHIC</title>
<path class="st0" d="M148.3,36.9h266.3c6.6,0,12,5.4,12,12v74.3c0,6.6-5.4,12-12,12H148.3c-6.6,0-12-5.4-12-12V48.9
	C136.3,42.2,141.7,36.9,148.3,36.9z"/>
<g class="st1">
	<path class="st2" d="M167.4,157.2l0.2-0.8c0.6,0.2,1,0.4,1.2,0.5c-0.1-0.6-0.1-1.1-0.1-1.3h0.8c0,0.4-0.1,0.8-0.1,1.3
		c0.4-0.2,0.8-0.4,1.3-0.5l0.2,0.8c-0.5,0.2-0.9,0.3-1.3,0.3c0.2,0.2,0.5,0.5,0.9,1l-0.6,0.5c-0.2-0.3-0.5-0.7-0.7-1.2
		c-0.3,0.5-0.5,0.9-0.7,1.2l-0.6-0.5c0.4-0.5,0.7-0.9,0.9-1C168.2,157.4,167.8,157.3,167.4,157.2z"/>
</g>
<g class="st1">
	<path class="st2" d="M172.4,163.7v-7.9h1.6l1.9,5.6c0.2,0.5,0.3,0.9,0.4,1.2c0.1-0.3,0.2-0.7,0.4-1.3l1.9-5.5h1.4v7.9h-1v-6.6
		l-2.3,6.6h-0.9l-2.3-6.7v6.7H172.4z"/>
</g>
<g class="st1">
	<path class="st2" d="M185.1,161.8l1,0.1c-0.2,0.6-0.4,1-0.9,1.4s-1,0.5-1.6,0.5c-0.8,0-1.5-0.3-2-0.8c-0.5-0.5-0.7-1.2-0.7-2.2
		c0-1,0.2-1.7,0.7-2.2s1.1-0.8,1.9-0.8c0.8,0,1.4,0.3,1.9,0.8c0.5,0.5,0.7,1.2,0.7,2.2c0,0.1,0,0.1,0,0.3h-4.3
		c0,0.6,0.2,1.1,0.5,1.4c0.3,0.3,0.7,0.5,1.2,0.5c0.4,0,0.7-0.1,0.9-0.3S185,162.2,185.1,161.8z M182,160.3h3.2
		c0-0.5-0.2-0.8-0.4-1.1c-0.3-0.4-0.7-0.6-1.2-0.6c-0.4,0-0.8,0.1-1.1,0.4C182.2,159.4,182,159.8,182,160.3z"/>
	<path class="st2" d="M191.1,163.7v-0.7c-0.4,0.6-0.9,0.8-1.6,0.8c-0.5,0-0.9-0.1-1.3-0.4c-0.4-0.3-0.7-0.6-0.9-1
		c-0.2-0.4-0.3-1-0.3-1.5c0-0.6,0.1-1.1,0.3-1.5s0.5-0.8,0.9-1.1c0.4-0.2,0.8-0.4,1.3-0.4c0.3,0,0.6,0.1,0.9,0.2
		c0.3,0.1,0.5,0.3,0.7,0.6v-2.8h1v7.9H191.1z M188,160.8c0,0.7,0.2,1.3,0.5,1.6c0.3,0.4,0.7,0.5,1.1,0.5c0.4,0,0.8-0.2,1.1-0.5
		c0.3-0.3,0.4-0.9,0.4-1.6c0-0.8-0.2-1.4-0.5-1.7s-0.7-0.5-1.1-0.5c-0.4,0-0.8,0.2-1.1,0.5C188.1,159.5,188,160.1,188,160.8z"/>
	<path class="st2" d="M193.5,156.9v-1.1h1v1.1H193.5z M193.5,163.7V158h1v5.7H193.5z"/>
	<path class="st2" d="M199.6,161.6l1,0.1c-0.1,0.7-0.4,1.2-0.8,1.5c-0.4,0.4-1,0.6-1.6,0.6c-0.8,0-1.4-0.3-1.9-0.8
		c-0.5-0.5-0.7-1.2-0.7-2.2c0-0.6,0.1-1.2,0.3-1.6s0.5-0.8,0.9-1c0.4-0.2,0.9-0.3,1.4-0.3c0.6,0,1.1,0.2,1.5,0.5s0.6,0.8,0.8,1.3
		l-0.9,0.1c-0.1-0.4-0.2-0.7-0.5-0.9c-0.2-0.2-0.5-0.3-0.8-0.3c-0.5,0-0.9,0.2-1.2,0.5c-0.3,0.3-0.5,0.9-0.5,1.7
		c0,0.8,0.1,1.3,0.4,1.7c0.3,0.3,0.7,0.5,1.1,0.5c0.4,0,0.7-0.1,1-0.3C199.4,162.4,199.6,162.1,199.6,161.6z"/>
	<path class="st2" d="M205.1,163c-0.4,0.3-0.7,0.5-1,0.6c-0.3,0.1-0.7,0.2-1.1,0.2c-0.6,0-1.1-0.2-1.4-0.5c-0.3-0.3-0.5-0.7-0.5-1.2
		c0-0.3,0.1-0.5,0.2-0.8c0.1-0.2,0.3-0.4,0.5-0.6c0.2-0.1,0.4-0.2,0.7-0.3c0.2,0,0.5-0.1,0.9-0.1c0.8-0.1,1.4-0.2,1.7-0.3
		c0-0.1,0-0.2,0-0.3c0-0.4-0.1-0.7-0.3-0.8c-0.2-0.2-0.6-0.3-1.1-0.3c-0.5,0-0.8,0.1-1,0.2c-0.2,0.2-0.4,0.4-0.5,0.8l-0.9-0.1
		c0.1-0.4,0.2-0.7,0.4-1s0.5-0.4,0.9-0.6c0.4-0.1,0.8-0.2,1.3-0.2c0.5,0,0.9,0.1,1.2,0.2s0.5,0.3,0.7,0.4s0.2,0.4,0.3,0.7
		c0,0.2,0,0.5,0,0.9v1.3c0,0.9,0,1.5,0.1,1.7c0,0.2,0.1,0.5,0.2,0.7h-1C205.2,163.5,205.2,163.2,205.1,163z M205.1,160.8
		c-0.4,0.1-0.9,0.3-1.6,0.4c-0.4,0.1-0.7,0.1-0.8,0.2c-0.2,0.1-0.3,0.2-0.4,0.3s-0.1,0.3-0.1,0.5c0,0.3,0.1,0.5,0.3,0.6
		c0.2,0.2,0.5,0.3,0.9,0.3c0.4,0,0.7-0.1,1-0.2s0.5-0.4,0.6-0.7c0.1-0.2,0.2-0.5,0.2-1V160.8z"/>
	<path class="st2" d="M207.5,163.7v-7.9h1v7.9H207.5z"/>
</g>
<g class="st1">
	<path class="st2" d="M214.4,161.6l1,0.1c-0.1,0.7-0.4,1.2-0.8,1.5c-0.4,0.4-1,0.6-1.6,0.6c-0.8,0-1.4-0.3-1.9-0.8
		c-0.5-0.5-0.7-1.2-0.7-2.2c0-0.6,0.1-1.2,0.3-1.6s0.5-0.8,0.9-1c0.4-0.2,0.9-0.3,1.4-0.3c0.6,0,1.1,0.2,1.5,0.5s0.6,0.8,0.8,1.3
		l-0.9,0.1c-0.1-0.4-0.2-0.7-0.5-0.9c-0.2-0.2-0.5-0.3-0.8-0.3c-0.5,0-0.9,0.2-1.2,0.5c-0.3,0.3-0.5,0.9-0.5,1.7
		c0,0.8,0.1,1.3,0.4,1.7c0.3,0.3,0.7,0.5,1.1,0.5c0.4,0,0.7-0.1,1-0.3C214.2,162.4,214.3,162.1,214.4,161.6z"/>
</g>
<g class="st1">
	<path class="st2" d="M215.2,160.8c0-1.1,0.3-1.8,0.9-2.3c0.5-0.4,1.1-0.6,1.8-0.6c0.8,0,1.4,0.3,1.9,0.8s0.7,1.2,0.7,2.1
		c0,0.7-0.1,1.3-0.3,1.7c-0.2,0.4-0.5,0.7-1,1c-0.4,0.2-0.9,0.3-1.4,0.3c-0.8,0-1.4-0.3-1.9-0.8
		C215.4,162.5,215.2,161.8,215.2,160.8z M216.2,160.8c0,0.7,0.2,1.3,0.5,1.6s0.7,0.5,1.2,0.5c0.5,0,0.9-0.2,1.2-0.5s0.5-0.9,0.5-1.7
		c0-0.7-0.2-1.2-0.5-1.6c-0.3-0.4-0.7-0.5-1.2-0.5c-0.5,0-0.9,0.2-1.2,0.5S216.2,160.1,216.2,160.8z"/>
	<path class="st2" d="M221.3,162l1-0.2c0.1,0.4,0.2,0.7,0.4,0.9c0.2,0.2,0.6,0.3,1,0.3c0.4,0,0.8-0.1,1-0.3s0.3-0.4,0.3-0.6
		c0-0.2-0.1-0.4-0.3-0.5c-0.1-0.1-0.5-0.2-1-0.3c-0.7-0.2-1.2-0.3-1.5-0.5c-0.3-0.1-0.5-0.3-0.6-0.5c-0.1-0.2-0.2-0.5-0.2-0.8
		c0-0.3,0.1-0.5,0.2-0.7c0.1-0.2,0.3-0.4,0.5-0.5c0.2-0.1,0.4-0.2,0.6-0.3c0.3-0.1,0.5-0.1,0.8-0.1c0.4,0,0.8,0.1,1.2,0.2
		c0.3,0.1,0.6,0.3,0.7,0.5c0.2,0.2,0.3,0.5,0.3,0.9l-0.9,0.1c0-0.3-0.2-0.5-0.4-0.7c-0.2-0.2-0.5-0.2-0.9-0.2c-0.4,0-0.8,0.1-1,0.2
		c-0.2,0.1-0.3,0.3-0.3,0.5c0,0.1,0,0.2,0.1,0.3c0.1,0.1,0.2,0.2,0.4,0.3c0.1,0,0.4,0.1,0.9,0.2c0.7,0.2,1.2,0.3,1.4,0.4
		c0.3,0.1,0.5,0.3,0.6,0.5s0.2,0.5,0.2,0.8c0,0.3-0.1,0.6-0.3,0.9c-0.2,0.3-0.5,0.5-0.8,0.7c-0.4,0.2-0.8,0.2-1.2,0.2
		c-0.7,0-1.3-0.2-1.7-0.5C221.6,163,221.4,162.6,221.3,162z"/>
	<path class="st2" d="M229.3,162.8l0.1,0.9c-0.3,0.1-0.5,0.1-0.7,0.1c-0.4,0-0.6-0.1-0.8-0.2c-0.2-0.1-0.3-0.3-0.4-0.4
		s-0.1-0.6-0.1-1.1v-3.3h-0.7V158h0.7v-1.4l1-0.6v2h1v0.8h-1v3.3c0,0.3,0,0.5,0.1,0.5c0,0.1,0.1,0.1,0.2,0.2c0.1,0,0.2,0.1,0.3,0.1
		C229,162.8,229.1,162.8,229.3,162.8z"/>
	<path class="st2" d="M229.8,162l1-0.2c0.1,0.4,0.2,0.7,0.4,0.9c0.2,0.2,0.6,0.3,1,0.3c0.4,0,0.8-0.1,1-0.3s0.3-0.4,0.3-0.6
		c0-0.2-0.1-0.4-0.3-0.5c-0.1-0.1-0.5-0.2-1-0.3c-0.7-0.2-1.2-0.3-1.5-0.5c-0.3-0.1-0.5-0.3-0.6-0.5c-0.1-0.2-0.2-0.5-0.2-0.8
		c0-0.3,0.1-0.5,0.2-0.7c0.1-0.2,0.3-0.4,0.5-0.5c0.2-0.1,0.4-0.2,0.6-0.3c0.3-0.1,0.5-0.1,0.8-0.1c0.4,0,0.8,0.1,1.2,0.2
		c0.3,0.1,0.6,0.3,0.7,0.5c0.2,0.2,0.3,0.5,0.3,0.9l-0.9,0.1c0-0.3-0.2-0.5-0.4-0.7c-0.2-0.2-0.5-0.2-0.9-0.2c-0.4,0-0.8,0.1-1,0.2
		c-0.2,0.1-0.3,0.3-0.3,0.5c0,0.1,0,0.2,0.1,0.3c0.1,0.1,0.2,0.2,0.4,0.3c0.1,0,0.4,0.1,0.9,0.2c0.7,0.2,1.2,0.3,1.4,0.4
		c0.3,0.1,0.5,0.3,0.6,0.5s0.2,0.5,0.2,0.8c0,0.3-0.1,0.6-0.3,0.9c-0.2,0.3-0.5,0.5-0.8,0.7c-0.4,0.2-0.8,0.2-1.2,0.2
		c-0.7,0-1.3-0.2-1.7-0.5C230.2,163,229.9,162.6,229.8,162z"/>
</g>
<g class="st1">
	<path class="st2" d="M237.3,163.7l-1.7-5.7h1l0.9,3.3l0.3,1.2c0-0.1,0.1-0.5,0.3-1.2l0.9-3.3h1l0.9,3.3l0.3,1.1l0.3-1.1l1-3.3h0.9
		l-1.8,5.7h-1l-0.9-3.4l-0.2-1l-1.2,4.4H237.3z"/>
</g>
<g class="st1">
	<path class="st2" d="M243.9,160.8c0-1.1,0.3-1.8,0.9-2.3c0.5-0.4,1.1-0.6,1.8-0.6c0.8,0,1.4,0.3,1.9,0.8s0.7,1.2,0.7,2.1
		c0,0.7-0.1,1.3-0.3,1.7c-0.2,0.4-0.5,0.7-1,1c-0.4,0.2-0.9,0.3-1.4,0.3c-0.8,0-1.4-0.3-1.9-0.8
		C244.1,162.5,243.9,161.8,243.9,160.8z M244.9,160.8c0,0.7,0.2,1.3,0.5,1.6s0.7,0.5,1.2,0.5c0.5,0,0.9-0.2,1.2-0.5s0.5-0.9,0.5-1.7
		c0-0.7-0.2-1.2-0.5-1.6c-0.3-0.4-0.7-0.5-1.2-0.5c-0.5,0-0.9,0.2-1.2,0.5S244.9,160.1,244.9,160.8z"/>
	<path class="st2" d="M254.1,163.7v-0.8c-0.4,0.6-1,1-1.8,1c-0.3,0-0.7-0.1-0.9-0.2c-0.3-0.1-0.5-0.3-0.7-0.5
		c-0.1-0.2-0.2-0.4-0.3-0.7c0-0.2-0.1-0.5-0.1-0.9V158h1v3.2c0,0.5,0,0.8,0.1,1c0.1,0.3,0.2,0.5,0.4,0.6c0.2,0.1,0.4,0.2,0.7,0.2
		s0.6-0.1,0.8-0.2s0.4-0.4,0.5-0.6c0.1-0.3,0.2-0.6,0.2-1.1V158h1v5.7H254.1z"/>
	<path class="st2" d="M256.5,163.7v-7.9h1v7.9H256.5z"/>
	<path class="st2" d="M262.6,163.7v-0.7c-0.4,0.6-0.9,0.8-1.6,0.8c-0.5,0-0.9-0.1-1.3-0.4c-0.4-0.3-0.7-0.6-0.9-1
		c-0.2-0.4-0.3-1-0.3-1.5c0-0.6,0.1-1.1,0.3-1.5s0.5-0.8,0.9-1.1c0.4-0.2,0.8-0.4,1.3-0.4c0.3,0,0.6,0.1,0.9,0.2
		c0.3,0.1,0.5,0.3,0.7,0.6v-2.8h1v7.9H262.6z M259.6,160.8c0,0.7,0.2,1.3,0.5,1.6c0.3,0.4,0.7,0.5,1.1,0.5c0.4,0,0.8-0.2,1.1-0.5
		c0.3-0.3,0.4-0.9,0.4-1.6c0-0.8-0.2-1.4-0.5-1.7s-0.7-0.5-1.1-0.5c-0.4,0-0.8,0.2-1.1,0.5C259.7,159.5,259.6,160.1,259.6,160.8z"/>
	<path class="st2" d="M269,163.7h-0.9v-7.9h1v2.8c0.4-0.5,0.9-0.8,1.6-0.8c0.4,0,0.7,0.1,1,0.2c0.3,0.1,0.6,0.3,0.8,0.6
		c0.2,0.3,0.4,0.6,0.5,0.9c0.1,0.4,0.2,0.7,0.2,1.2c0,1-0.2,1.7-0.7,2.3c-0.5,0.5-1.1,0.8-1.7,0.8c-0.7,0-1.2-0.3-1.6-0.8V163.7z
		 M269,160.8c0,0.7,0.1,1.2,0.3,1.5c0.3,0.5,0.7,0.7,1.2,0.7c0.4,0,0.8-0.2,1.1-0.6s0.5-0.9,0.5-1.6c0-0.7-0.1-1.3-0.4-1.6
		c-0.3-0.4-0.7-0.5-1.1-0.5c-0.4,0-0.8,0.2-1.1,0.6S269,160.1,269,160.8z"/>
	<path class="st2" d="M278.1,161.8l1,0.1c-0.2,0.6-0.4,1-0.9,1.4s-1,0.5-1.6,0.5c-0.8,0-1.5-0.3-2-0.8c-0.5-0.5-0.7-1.2-0.7-2.2
		c0-1,0.2-1.7,0.7-2.2s1.1-0.8,1.9-0.8c0.8,0,1.4,0.3,1.9,0.8c0.5,0.5,0.7,1.2,0.7,2.2c0,0.1,0,0.1,0,0.3h-4.3
		c0,0.6,0.2,1.1,0.5,1.4c0.3,0.3,0.7,0.5,1.2,0.5c0.4,0,0.7-0.1,0.9-0.3S278,162.2,278.1,161.8z M275,160.3h3.2
		c0-0.5-0.2-0.8-0.4-1.1c-0.3-0.4-0.7-0.6-1.2-0.6c-0.4,0-0.8,0.1-1.1,0.4C275.2,159.4,275,159.8,275,160.3z"/>
	<path class="st2" d="M283,162l1-0.2c0.1,0.4,0.2,0.7,0.4,0.9c0.2,0.2,0.6,0.3,1,0.3c0.4,0,0.8-0.1,1-0.3s0.3-0.4,0.3-0.6
		c0-0.2-0.1-0.4-0.3-0.5c-0.1-0.1-0.5-0.2-1-0.3c-0.7-0.2-1.2-0.3-1.5-0.5c-0.3-0.1-0.5-0.3-0.6-0.5c-0.1-0.2-0.2-0.5-0.2-0.8
		c0-0.3,0.1-0.5,0.2-0.7c0.1-0.2,0.3-0.4,0.5-0.5c0.2-0.1,0.4-0.2,0.6-0.3c0.3-0.1,0.5-0.1,0.8-0.1c0.4,0,0.8,0.1,1.2,0.2
		c0.3,0.1,0.6,0.3,0.7,0.5c0.2,0.2,0.3,0.5,0.3,0.9l-0.9,0.1c0-0.3-0.2-0.5-0.4-0.7c-0.2-0.2-0.5-0.2-0.9-0.2c-0.4,0-0.8,0.1-1,0.2
		c-0.2,0.1-0.3,0.3-0.3,0.5c0,0.1,0,0.2,0.1,0.3c0.1,0.1,0.2,0.2,0.4,0.3c0.1,0,0.4,0.1,0.9,0.2c0.7,0.2,1.2,0.3,1.4,0.4
		c0.3,0.1,0.5,0.3,0.6,0.5s0.2,0.5,0.2,0.8c0,0.3-0.1,0.6-0.3,0.9c-0.2,0.3-0.5,0.5-0.8,0.7c-0.4,0.2-0.8,0.2-1.2,0.2
		c-0.7,0-1.3-0.2-1.7-0.5C283.4,163,283.1,162.6,283,162z"/>
	<path class="st2" d="M292.6,163.7v-0.8c-0.4,0.6-1,1-1.8,1c-0.3,0-0.7-0.1-0.9-0.2c-0.3-0.1-0.5-0.3-0.7-0.5
		c-0.1-0.2-0.2-0.4-0.3-0.7c0-0.2-0.1-0.5-0.1-0.9V158h1v3.2c0,0.5,0,0.8,0.1,1c0.1,0.3,0.2,0.5,0.4,0.6c0.2,0.1,0.4,0.2,0.7,0.2
		s0.6-0.1,0.8-0.2s0.4-0.4,0.5-0.6c0.1-0.3,0.2-0.6,0.2-1.1V158h1v5.7H292.6z"/>
	<path class="st2" d="M295.9,163.7H295v-7.9h1v2.8c0.4-0.5,0.9-0.8,1.6-0.8c0.4,0,0.7,0.1,1,0.2c0.3,0.1,0.6,0.3,0.8,0.6
		c0.2,0.3,0.4,0.6,0.5,0.9c0.1,0.4,0.2,0.7,0.2,1.2c0,1-0.2,1.7-0.7,2.3c-0.5,0.5-1.1,0.8-1.7,0.8c-0.7,0-1.2-0.3-1.6-0.8V163.7z
		 M295.9,160.8c0,0.7,0.1,1.2,0.3,1.5c0.3,0.5,0.7,0.7,1.2,0.7c0.4,0,0.8-0.2,1.1-0.6s0.5-0.9,0.5-1.6c0-0.7-0.1-1.3-0.4-1.6
		c-0.3-0.4-0.7-0.5-1.1-0.5c-0.4,0-0.8,0.2-1.1,0.6S295.9,160.1,295.9,160.8z"/>
	<path class="st2" d="M300.7,162l1-0.2c0.1,0.4,0.2,0.7,0.4,0.9c0.2,0.2,0.6,0.3,1,0.3c0.4,0,0.8-0.1,1-0.3s0.3-0.4,0.3-0.6
		c0-0.2-0.1-0.4-0.3-0.5c-0.1-0.1-0.5-0.2-1-0.3c-0.7-0.2-1.2-0.3-1.5-0.5c-0.3-0.1-0.5-0.3-0.6-0.5c-0.1-0.2-0.2-0.5-0.2-0.8
		c0-0.3,0.1-0.5,0.2-0.7c0.1-0.2,0.3-0.4,0.5-0.5c0.2-0.1,0.4-0.2,0.6-0.3c0.3-0.1,0.5-0.1,0.8-0.1c0.4,0,0.8,0.1,1.2,0.2
		c0.3,0.1,0.6,0.3,0.7,0.5c0.2,0.2,0.3,0.5,0.3,0.9l-0.9,0.1c0-0.3-0.2-0.5-0.4-0.7c-0.2-0.2-0.5-0.2-0.9-0.2c-0.4,0-0.8,0.1-1,0.2
		c-0.2,0.1-0.3,0.3-0.3,0.5c0,0.1,0,0.2,0.1,0.3c0.1,0.1,0.2,0.2,0.4,0.3c0.1,0,0.4,0.1,0.9,0.2c0.7,0.2,1.2,0.3,1.4,0.4
		c0.3,0.1,0.5,0.3,0.6,0.5s0.2,0.5,0.2,0.8c0,0.3-0.1,0.6-0.3,0.9c-0.2,0.3-0.5,0.5-0.8,0.7c-0.4,0.2-0.8,0.2-1.2,0.2
		c-0.7,0-1.3-0.2-1.7-0.5C301.1,163,300.9,162.6,300.7,162z"/>
	<path class="st2" d="M308.7,162.8l0.1,0.9c-0.3,0.1-0.5,0.1-0.7,0.1c-0.4,0-0.6-0.1-0.8-0.2c-0.2-0.1-0.3-0.3-0.4-0.4
		s-0.1-0.6-0.1-1.1v-3.3h-0.7V158h0.7v-1.4l1-0.6v2h1v0.8h-1v3.3c0,0.3,0,0.5,0.1,0.5c0,0.1,0.1,0.1,0.2,0.2c0.1,0,0.2,0.1,0.3,0.1
		C308.4,162.8,308.6,162.8,308.7,162.8z"/>
	<path class="st2" d="M313.4,163c-0.4,0.3-0.7,0.5-1,0.6c-0.3,0.1-0.7,0.2-1.1,0.2c-0.6,0-1.1-0.2-1.4-0.5c-0.3-0.3-0.5-0.7-0.5-1.2
		c0-0.3,0.1-0.5,0.2-0.8c0.1-0.2,0.3-0.4,0.5-0.6c0.2-0.1,0.4-0.2,0.7-0.3c0.2,0,0.5-0.1,0.9-0.1c0.8-0.1,1.4-0.2,1.7-0.3
		c0-0.1,0-0.2,0-0.3c0-0.4-0.1-0.7-0.3-0.8c-0.2-0.2-0.6-0.3-1.1-0.3c-0.5,0-0.8,0.1-1,0.2c-0.2,0.2-0.4,0.4-0.5,0.8l-0.9-0.1
		c0.1-0.4,0.2-0.7,0.4-1s0.5-0.4,0.9-0.6c0.4-0.1,0.8-0.2,1.3-0.2c0.5,0,0.9,0.1,1.2,0.2s0.5,0.3,0.7,0.4s0.2,0.4,0.3,0.7
		c0,0.2,0,0.5,0,0.9v1.3c0,0.9,0,1.5,0.1,1.7c0,0.2,0.1,0.5,0.2,0.7h-1C313.5,163.5,313.4,163.2,313.4,163z M313.3,160.8
		c-0.4,0.1-0.9,0.3-1.6,0.4c-0.4,0.1-0.7,0.1-0.8,0.2c-0.2,0.1-0.3,0.2-0.4,0.3s-0.1,0.3-0.1,0.5c0,0.3,0.1,0.5,0.3,0.6
		c0.2,0.2,0.5,0.3,0.9,0.3c0.4,0,0.7-0.1,1-0.2s0.5-0.4,0.6-0.7c0.1-0.2,0.2-0.5,0.2-1V160.8z"/>
</g>
<g class="st1">
	<path class="st2" d="M311.6,163.7V158h0.9v0.8c0.4-0.6,1-0.9,1.8-0.9c0.3,0,0.7,0.1,0.9,0.2c0.3,0.1,0.5,0.3,0.6,0.5
		c0.1,0.2,0.2,0.4,0.3,0.7c0,0.2,0.1,0.5,0.1,0.9v3.5h-1v-3.5c0-0.4,0-0.7-0.1-0.9s-0.2-0.4-0.4-0.5c-0.2-0.1-0.4-0.2-0.7-0.2
		c-0.4,0-0.8,0.1-1.1,0.4c-0.3,0.3-0.4,0.8-0.4,1.5v3.1H311.6z"/>
</g>
<g class="st1">
	<path class="st2" d="M319.7,162.8l0.1,0.9c-0.3,0.1-0.5,0.1-0.7,0.1c-0.4,0-0.6-0.1-0.8-0.2c-0.2-0.1-0.3-0.3-0.4-0.4
		s-0.1-0.6-0.1-1.1v-3.3h-0.7V158h0.7v-1.4l1-0.6v2h1v0.8h-1v3.3c0,0.3,0,0.5,0.1,0.5c0,0.1,0.1,0.1,0.2,0.2c0.1,0,0.2,0.1,0.3,0.1
		C319.4,162.8,319.6,162.8,319.7,162.8z"/>
	<path class="st2" d="M320.7,156.9v-1.1h1v1.1H320.7z M320.7,163.7V158h1v5.7H320.7z"/>
	<path class="st2" d="M326.8,163c-0.4,0.3-0.7,0.5-1,0.6c-0.3,0.1-0.7,0.2-1.1,0.2c-0.6,0-1.1-0.2-1.4-0.5c-0.3-0.3-0.5-0.7-0.5-1.2
		c0-0.3,0.1-0.5,0.2-0.8c0.1-0.2,0.3-0.4,0.5-0.6c0.2-0.1,0.4-0.2,0.7-0.3c0.2,0,0.5-0.1,0.9-0.1c0.8-0.1,1.4-0.2,1.7-0.3
		c0-0.1,0-0.2,0-0.3c0-0.4-0.1-0.7-0.3-0.8c-0.2-0.2-0.6-0.3-1.1-0.3c-0.5,0-0.8,0.1-1,0.2c-0.2,0.2-0.4,0.4-0.5,0.8l-0.9-0.1
		c0.1-0.4,0.2-0.7,0.4-1s0.5-0.4,0.9-0.6c0.4-0.1,0.8-0.2,1.3-0.2c0.5,0,0.9,0.1,1.2,0.2s0.5,0.3,0.7,0.4s0.2,0.4,0.3,0.7
		c0,0.2,0,0.5,0,0.9v1.3c0,0.9,0,1.5,0.1,1.7c0,0.2,0.1,0.5,0.2,0.7h-1C326.9,163.5,326.9,163.2,326.8,163z M326.8,160.8
		c-0.4,0.1-0.9,0.3-1.6,0.4c-0.4,0.1-0.7,0.1-0.8,0.2c-0.2,0.1-0.3,0.2-0.4,0.3s-0.1,0.3-0.1,0.5c0,0.3,0.1,0.5,0.3,0.6
		c0.2,0.2,0.5,0.3,0.9,0.3c0.4,0,0.7-0.1,1-0.2s0.5-0.4,0.6-0.7c0.1-0.2,0.2-0.5,0.2-1V160.8z"/>
	<path class="st2" d="M329.2,163.7v-7.9h1v7.9H329.2z"/>
	<path class="st2" d="M331.7,163.7v-7.9h1v7.9H331.7z"/>
	<path class="st2" d="M334.1,165.9l-0.1-0.9c0.2,0.1,0.4,0.1,0.6,0.1c0.2,0,0.4,0,0.5-0.1s0.2-0.2,0.3-0.3c0.1-0.1,0.2-0.3,0.3-0.7
		c0-0.1,0-0.1,0.1-0.2l-2.2-5.7h1l1.2,3.3c0.2,0.4,0.3,0.9,0.4,1.3c0.1-0.4,0.2-0.9,0.4-1.3l1.2-3.3h1l-2.2,5.8
		c-0.2,0.6-0.4,1.1-0.5,1.3c-0.2,0.3-0.4,0.6-0.6,0.7s-0.5,0.2-0.8,0.2C334.5,166,334.3,165.9,334.1,165.9z"/>
	<path class="st2" d="M342.7,163.7v-7.9h1v2.8c0.5-0.5,1-0.8,1.7-0.8c0.4,0,0.8,0.1,1.1,0.2c0.3,0.2,0.5,0.4,0.7,0.7
		c0.1,0.3,0.2,0.7,0.2,1.3v3.6h-1V160c0-0.5-0.1-0.8-0.3-1.1c-0.2-0.2-0.5-0.3-0.9-0.3c-0.3,0-0.6,0.1-0.8,0.2
		c-0.3,0.1-0.4,0.3-0.5,0.6c-0.1,0.3-0.2,0.6-0.2,1.1v3.1H342.7z"/>
	<path class="st2" d="M348.8,156.9v-1.1h1v1.1H348.8z M348.8,163.7V158h1v5.7H348.8z"/>
	<path class="st2" d="M351.1,164.1l0.9,0.1c0,0.3,0.1,0.5,0.3,0.6c0.2,0.2,0.6,0.3,1,0.3c0.4,0,0.8-0.1,1-0.3s0.4-0.4,0.5-0.8
		c0.1-0.2,0.1-0.6,0.1-1.2c-0.4,0.5-0.9,0.7-1.6,0.7c-0.8,0-1.4-0.3-1.8-0.8s-0.6-1.2-0.6-2c0-0.5,0.1-1,0.3-1.5s0.5-0.8,0.9-1.1
		c0.4-0.3,0.8-0.4,1.3-0.4c0.7,0,1.2,0.3,1.7,0.8V158h0.9v4.9c0,0.9-0.1,1.5-0.3,1.9c-0.2,0.4-0.5,0.7-0.9,0.9
		c-0.4,0.2-0.9,0.3-1.4,0.3c-0.7,0-1.2-0.2-1.6-0.5C351.3,165.2,351.1,164.7,351.1,164.1z M351.9,160.7c0,0.7,0.1,1.3,0.4,1.6
		s0.7,0.5,1.1,0.5c0.4,0,0.8-0.2,1.1-0.5s0.5-0.9,0.5-1.6c0-0.7-0.2-1.2-0.5-1.6c-0.3-0.4-0.7-0.5-1.1-0.5c-0.4,0-0.8,0.2-1.1,0.5
		C352,159.5,351.9,160,351.9,160.7z"/>
	<path class="st2" d="M357.4,163.7v-7.9h1v2.8c0.5-0.5,1-0.8,1.7-0.8c0.4,0,0.8,0.1,1.1,0.2c0.3,0.2,0.5,0.4,0.7,0.7
		c0.1,0.3,0.2,0.7,0.2,1.3v3.6h-1V160c0-0.5-0.1-0.8-0.3-1.1c-0.2-0.2-0.5-0.3-0.9-0.3c-0.3,0-0.6,0.1-0.8,0.2
		c-0.3,0.1-0.4,0.3-0.5,0.6c-0.1,0.3-0.2,0.6-0.2,1.1v3.1H357.4z"/>
	<path class="st2" d="M367.4,161.8l1,0.1c-0.2,0.6-0.4,1-0.9,1.4s-1,0.5-1.6,0.5c-0.8,0-1.5-0.3-2-0.8c-0.5-0.5-0.7-1.2-0.7-2.2
		c0-1,0.2-1.7,0.7-2.2s1.1-0.8,1.9-0.8c0.8,0,1.4,0.3,1.9,0.8c0.5,0.5,0.7,1.2,0.7,2.2c0,0.1,0,0.1,0,0.3h-4.3
		c0,0.6,0.2,1.1,0.5,1.4c0.3,0.3,0.7,0.5,1.2,0.5c0.4,0,0.7-0.1,0.9-0.3S367.2,162.2,367.4,161.8z M364.2,160.3h3.2
		c0-0.5-0.2-0.8-0.4-1.1c-0.3-0.4-0.7-0.6-1.2-0.6c-0.4,0-0.8,0.1-1.1,0.4C364.4,159.4,364.2,159.8,364.2,160.3z"/>
	<path class="st2" d="M369.6,163.7V158h0.9v0.9c0.2-0.4,0.4-0.7,0.6-0.8c0.2-0.1,0.4-0.2,0.6-0.2c0.3,0,0.7,0.1,1,0.3l-0.3,0.9
		c-0.2-0.1-0.5-0.2-0.7-0.2c-0.2,0-0.4,0.1-0.6,0.2s-0.3,0.3-0.4,0.5c-0.1,0.3-0.2,0.7-0.2,1.1v3H369.6z"/>
	<path class="st2" d="M376.3,156.9v-1.1h1v1.1H376.3z M376.3,163.7V158h1v5.7H376.3z"/>
	<path class="st2" d="M378.8,163.7V158h0.9v0.8c0.4-0.6,1-0.9,1.8-0.9c0.3,0,0.7,0.1,0.9,0.2c0.3,0.1,0.5,0.3,0.6,0.5
		c0.1,0.2,0.2,0.4,0.3,0.7c0,0.2,0.1,0.5,0.1,0.9v3.5h-1v-3.5c0-0.4,0-0.7-0.1-0.9s-0.2-0.4-0.4-0.5c-0.2-0.1-0.4-0.2-0.7-0.2
		c-0.4,0-0.8,0.1-1.1,0.4c-0.3,0.3-0.4,0.8-0.4,1.5v3.1H378.8z"/>
	<path class="st2" d="M391.7,161.6l1,0.1c-0.1,0.7-0.4,1.2-0.8,1.5c-0.4,0.4-1,0.6-1.6,0.6c-0.8,0-1.4-0.3-1.9-0.8
		c-0.5-0.5-0.7-1.2-0.7-2.2c0-0.6,0.1-1.2,0.3-1.6s0.5-0.8,0.9-1c0.4-0.2,0.9-0.3,1.4-0.3c0.6,0,1.1,0.2,1.5,0.5s0.6,0.8,0.8,1.3
		l-0.9,0.1c-0.1-0.4-0.2-0.7-0.5-0.9c-0.2-0.2-0.5-0.3-0.8-0.3c-0.5,0-0.9,0.2-1.2,0.5c-0.3,0.3-0.5,0.9-0.5,1.7
		c0,0.8,0.1,1.3,0.4,1.7c0.3,0.3,0.7,0.5,1.1,0.5c0.4,0,0.7-0.1,1-0.3C391.4,162.4,391.6,162.1,391.7,161.6z"/>
	<path class="st2" d="M397.2,163c-0.4,0.3-0.7,0.5-1,0.6c-0.3,0.1-0.7,0.2-1.1,0.2c-0.6,0-1.1-0.2-1.4-0.5c-0.3-0.3-0.5-0.7-0.5-1.2
		c0-0.3,0.1-0.5,0.2-0.8c0.1-0.2,0.3-0.4,0.5-0.6c0.2-0.1,0.4-0.2,0.7-0.3c0.2,0,0.5-0.1,0.9-0.1c0.8-0.1,1.4-0.2,1.7-0.3
		c0-0.1,0-0.2,0-0.3c0-0.4-0.1-0.7-0.3-0.8c-0.2-0.2-0.6-0.3-1.1-0.3c-0.5,0-0.8,0.1-1,0.2c-0.2,0.2-0.4,0.4-0.5,0.8l-0.9-0.1
		c0.1-0.4,0.2-0.7,0.4-1s0.5-0.4,0.9-0.6c0.4-0.1,0.8-0.2,1.3-0.2c0.5,0,0.9,0.1,1.2,0.2s0.5,0.3,0.7,0.4s0.2,0.4,0.3,0.7
		c0,0.2,0,0.5,0,0.9v1.3c0,0.9,0,1.5,0.1,1.7c0,0.2,0.1,0.5,0.2,0.7h-1C397.3,163.5,397.2,163.2,397.2,163z M397.1,160.8
		c-0.4,0.1-0.9,0.3-1.6,0.4c-0.4,0.1-0.7,0.1-0.8,0.2c-0.2,0.1-0.3,0.2-0.4,0.3s-0.1,0.3-0.1,0.5c0,0.3,0.1,0.5,0.3,0.6
		c0.2,0.2,0.5,0.3,0.9,0.3c0.4,0,0.7-0.1,1-0.2s0.5-0.4,0.6-0.7c0.1-0.2,0.2-0.5,0.2-1V160.8z"/>
	<path class="st2" d="M399.2,162l1-0.2c0.1,0.4,0.2,0.7,0.4,0.9c0.2,0.2,0.6,0.3,1,0.3c0.4,0,0.8-0.1,1-0.3s0.3-0.4,0.3-0.6
		c0-0.2-0.1-0.4-0.3-0.5c-0.1-0.1-0.5-0.2-1-0.3c-0.7-0.2-1.2-0.3-1.5-0.5c-0.3-0.1-0.5-0.3-0.6-0.5c-0.1-0.2-0.2-0.5-0.2-0.8
		c0-0.3,0.1-0.5,0.2-0.7c0.1-0.2,0.3-0.4,0.5-0.5c0.2-0.1,0.4-0.2,0.6-0.3c0.3-0.1,0.5-0.1,0.8-0.1c0.4,0,0.8,0.1,1.2,0.2
		c0.3,0.1,0.6,0.3,0.7,0.5c0.2,0.2,0.3,0.5,0.3,0.9l-0.9,0.1c0-0.3-0.2-0.5-0.4-0.7c-0.2-0.2-0.5-0.2-0.9-0.2c-0.4,0-0.8,0.1-1,0.2
		c-0.2,0.1-0.3,0.3-0.3,0.5c0,0.1,0,0.2,0.1,0.3c0.1,0.1,0.2,0.2,0.4,0.3c0.1,0,0.4,0.1,0.9,0.2c0.7,0.2,1.2,0.3,1.4,0.4
		c0.3,0.1,0.5,0.3,0.6,0.5s0.2,0.5,0.2,0.8c0,0.3-0.1,0.6-0.3,0.9c-0.2,0.3-0.5,0.5-0.8,0.7c-0.4,0.2-0.8,0.2-1.2,0.2
		c-0.7,0-1.3-0.2-1.7-0.5C399.5,163,399.3,162.6,399.2,162z"/>
	<path class="st2" d="M409,161.8l1,0.1c-0.2,0.6-0.4,1-0.9,1.4s-1,0.5-1.6,0.5c-0.8,0-1.5-0.3-2-0.8c-0.5-0.5-0.7-1.2-0.7-2.2
		c0-1,0.2-1.7,0.7-2.2s1.1-0.8,1.9-0.8c0.8,0,1.4,0.3,1.9,0.8c0.5,0.5,0.7,1.2,0.7,2.2c0,0.1,0,0.1,0,0.3h-4.3
		c0,0.6,0.2,1.1,0.5,1.4c0.3,0.3,0.7,0.5,1.2,0.5c0.4,0,0.7-0.1,0.9-0.3S408.8,162.2,409,161.8z M405.8,160.3h3.2
		c0-0.5-0.2-0.8-0.4-1.1c-0.3-0.4-0.7-0.6-1.2-0.6c-0.4,0-0.8,0.1-1.1,0.4C406,159.4,405.8,159.8,405.8,160.3z"/>
</g>
<g class="st1">
	<path class="st2" d="M404.9,162l1-0.2c0.1,0.4,0.2,0.7,0.4,0.9c0.2,0.2,0.6,0.3,1,0.3c0.4,0,0.8-0.1,1-0.3s0.3-0.4,0.3-0.6
		c0-0.2-0.1-0.4-0.3-0.5c-0.1-0.1-0.5-0.2-1-0.3c-0.7-0.2-1.2-0.3-1.5-0.5c-0.3-0.1-0.5-0.3-0.6-0.5c-0.1-0.2-0.2-0.5-0.2-0.8
		c0-0.3,0.1-0.5,0.2-0.7c0.1-0.2,0.3-0.4,0.5-0.5c0.2-0.1,0.4-0.2,0.6-0.3c0.3-0.1,0.5-0.1,0.8-0.1c0.4,0,0.8,0.1,1.2,0.2
		c0.3,0.1,0.6,0.3,0.7,0.5c0.2,0.2,0.3,0.5,0.3,0.9l-0.9,0.1c0-0.3-0.2-0.5-0.4-0.7c-0.2-0.2-0.5-0.2-0.9-0.2c-0.4,0-0.8,0.1-1,0.2
		c-0.2,0.1-0.3,0.3-0.3,0.5c0,0.1,0,0.2,0.1,0.3c0.1,0.1,0.2,0.2,0.4,0.3c0.1,0,0.4,0.1,0.9,0.2c0.7,0.2,1.2,0.3,1.4,0.4
		c0.3,0.1,0.5,0.3,0.6,0.5s0.2,0.5,0.2,0.8c0,0.3-0.1,0.6-0.3,0.9c-0.2,0.3-0.5,0.5-0.8,0.7c-0.4,0.2-0.8,0.2-1.2,0.2
		c-0.7,0-1.3-0.2-1.7-0.5C405.3,163,405,162.6,404.9,162z"/>
</g>
<g class="st1">
	<path class="st2" d="M409.8,163.7v-1.1h1.1v1.1H409.8z"/>
</g>
<g class="st1">
	<path class="st2" d="M218.3,94.5v-4.7c-1.5-0.4-2.5-1.1-3.2-1.9c-0.7-0.8-1-1.9-1-3.1c0-1.2,0.4-2.3,1.2-3.1
		c0.8-0.8,1.8-1.3,3.1-1.4v-1.1h1.6v1.1c1.2,0.1,2.1,0.5,2.8,1.2s1.2,1.6,1.3,2.7l-2.8,0.4c-0.2-0.9-0.6-1.5-1.3-1.8v4.4
		c1.8,0.5,3,1.1,3.7,1.9c0.7,0.8,1,1.8,1,3c0,1.4-0.4,2.5-1.2,3.4c-0.8,0.9-2,1.5-3.4,1.7v2.1h-1.6v-2c-1.3-0.2-2.3-0.6-3.2-1.4
		s-1.3-2-1.5-3.4l2.9-0.3c0.1,0.6,0.3,1.1,0.7,1.5C217.6,94,217.9,94.3,218.3,94.5z M218.3,82.7c-0.4,0.1-0.8,0.4-1.1,0.8
		s-0.4,0.8-0.4,1.2c0,0.4,0.1,0.8,0.4,1.1s0.6,0.6,1.1,0.8V82.7z M220,94.7c0.6-0.1,1-0.4,1.4-0.8c0.4-0.4,0.5-0.9,0.5-1.5
		c0-0.5-0.1-0.9-0.4-1.3c-0.3-0.4-0.8-0.6-1.5-0.8V94.7z"/>
	<path class="st2" d="M232.8,97v-3.3h-6.7v-2.8l7.1-10.5h2.7v10.4h2v2.8h-2V97H232.8z M232.8,90.9v-5.6l-3.8,5.6H232.8z"/>
	<path class="st2" d="M239.4,83.6v-2.9h10.8V83c-0.9,0.9-1.8,2.1-2.7,3.8s-1.6,3.4-2.1,5.2c-0.5,1.8-0.7,3.5-0.7,4.9h-3
		c0.1-2.3,0.5-4.6,1.4-7c0.9-2.4,2.1-4.5,3.6-6.3H239.4z"/>
	<path class="st2" d="M252.2,92.7l3.1-0.3c0.1,0.7,0.4,1.3,0.8,1.7c0.4,0.4,1,0.6,1.5,0.6c0.7,0,1.2-0.3,1.7-0.8s0.7-1.3,0.7-2.4
		c0-1-0.2-1.8-0.7-2.3c-0.5-0.5-1-0.8-1.8-0.8c-0.9,0-1.7,0.4-2.4,1.2l-2.6-0.4l1.6-8.6h8.3v3h-6l-0.5,2.8c0.7-0.4,1.4-0.5,2.2-0.5
		c1.4,0,2.6,0.5,3.6,1.5c1,1,1.5,2.3,1.5,4c0,1.4-0.4,2.6-1.2,3.6c-1.1,1.5-2.6,2.2-4.5,2.2c-1.5,0-2.8-0.4-3.7-1.2
		S252.4,94.1,252.2,92.7z"/>
</g>
<g class="st1">
	<path class="st2" d="M267.3,91.2l-2-0.4c0.2-0.8,0.6-1.4,1.2-1.8s1.4-0.6,2.4-0.6c1,0,1.7,0.1,2.2,0.3c0.5,0.2,0.8,0.5,1,0.9
		s0.3,1,0.3,2l0,2.6c0,0.7,0,1.3,0.1,1.6s0.2,0.7,0.4,1.1h-2.2c-0.1-0.1-0.1-0.4-0.2-0.6c0-0.1-0.1-0.2-0.1-0.3
		c-0.4,0.4-0.8,0.6-1.2,0.8c-0.4,0.2-0.9,0.3-1.4,0.3c-0.9,0-1.5-0.2-2-0.7s-0.7-1-0.7-1.8c0-0.5,0.1-0.9,0.3-1.3
		c0.2-0.4,0.5-0.6,0.9-0.8c0.4-0.2,1-0.4,1.7-0.5c1-0.2,1.7-0.4,2.1-0.5v-0.2c0-0.4-0.1-0.7-0.3-0.9c-0.2-0.2-0.6-0.3-1.2-0.3
		c-0.4,0-0.7,0.1-0.9,0.2S267.4,90.8,267.3,91.2z M270.2,93c-0.3,0.1-0.7,0.2-1.3,0.3s-1,0.3-1.2,0.4c-0.3,0.2-0.4,0.5-0.4,0.8
		c0,0.3,0.1,0.6,0.3,0.8c0.2,0.2,0.5,0.3,0.9,0.3c0.4,0,0.8-0.1,1.1-0.4c0.3-0.2,0.4-0.4,0.5-0.7c0.1-0.2,0.1-0.5,0.1-1.1V93z"/>
	<path class="st2" d="M282.1,97h-2.2v-4.2c0-0.9,0-1.5-0.1-1.7s-0.2-0.5-0.5-0.6s-0.5-0.2-0.8-0.2c-0.4,0-0.7,0.1-1,0.3
		c-0.3,0.2-0.5,0.5-0.6,0.8c-0.1,0.3-0.2,1-0.2,1.9V97h-2.2v-8.3h2v1.2c0.7-0.9,1.6-1.4,2.7-1.4c0.5,0,0.9,0.1,1.3,0.3
		c0.4,0.2,0.7,0.4,0.9,0.7c0.2,0.3,0.3,0.6,0.4,0.9c0.1,0.3,0.1,0.8,0.1,1.5V97z"/>
	<path class="st2" d="M291.9,97h-2.2v-4.2c0-0.9,0-1.5-0.1-1.7s-0.2-0.5-0.5-0.6s-0.5-0.2-0.8-0.2c-0.4,0-0.7,0.1-1,0.3
		c-0.3,0.2-0.5,0.5-0.6,0.8c-0.1,0.3-0.2,1-0.2,1.9V97h-2.2v-8.3h2v1.2c0.7-0.9,1.6-1.4,2.7-1.4c0.5,0,0.9,0.1,1.3,0.3
		c0.4,0.2,0.7,0.4,0.9,0.7c0.2,0.3,0.3,0.6,0.4,0.9c0.1,0.3,0.1,0.8,0.1,1.5V97z"/>
	<path class="st2" d="M299.5,97v-1.2c-0.3,0.4-0.7,0.8-1.2,1s-1,0.4-1.6,0.4c-0.6,0-1.1-0.1-1.5-0.4c-0.4-0.2-0.8-0.6-1-1
		c-0.2-0.4-0.3-1.1-0.3-1.8v-5.2h2.2v3.8c0,1.2,0,1.9,0.1,2.1c0.1,0.3,0.2,0.5,0.4,0.6c0.2,0.2,0.5,0.2,0.8,0.2c0.4,0,0.7-0.1,1-0.3
		s0.5-0.5,0.6-0.8s0.2-1.1,0.2-2.2v-3.5h2.2V97H299.5z"/>
	<path class="st2" d="M305.5,91.2l-2-0.4c0.2-0.8,0.6-1.4,1.2-1.8s1.4-0.6,2.4-0.6c1,0,1.7,0.1,2.2,0.3c0.5,0.2,0.8,0.5,1,0.9
		s0.3,1,0.3,2l0,2.6c0,0.7,0,1.3,0.1,1.6s0.2,0.7,0.4,1.1h-2.2c-0.1-0.1-0.1-0.4-0.2-0.6c0-0.1-0.1-0.2-0.1-0.3
		c-0.4,0.4-0.8,0.6-1.2,0.8c-0.4,0.2-0.9,0.3-1.4,0.3c-0.9,0-1.5-0.2-2-0.7s-0.7-1-0.7-1.8c0-0.5,0.1-0.9,0.3-1.3
		c0.2-0.4,0.5-0.6,0.9-0.8c0.4-0.2,1-0.4,1.7-0.5c1-0.2,1.7-0.4,2.1-0.5v-0.2c0-0.4-0.1-0.7-0.3-0.9c-0.2-0.2-0.6-0.3-1.2-0.3
		c-0.4,0-0.7,0.1-0.9,0.2S305.6,90.8,305.5,91.2z M308.4,93c-0.3,0.1-0.7,0.2-1.3,0.3s-1,0.3-1.2,0.4c-0.3,0.2-0.4,0.5-0.4,0.8
		c0,0.3,0.1,0.6,0.3,0.8c0.2,0.2,0.5,0.3,0.9,0.3c0.4,0,0.8-0.1,1.1-0.4c0.3-0.2,0.4-0.4,0.5-0.7c0.1-0.2,0.1-0.5,0.1-1.1V93z"/>
	<path class="st2" d="M312.8,97V85.5h2.2V97H312.8z"/>
</g>
<g class="st1">
	<path class="st2" d="M321,91.1l-2.2,0.4c-0.1-0.4-0.2-0.8-0.5-1s-0.6-0.3-1-0.3c-0.5,0-1,0.2-1.3,0.6c-0.3,0.4-0.5,1-0.5,1.9
		c0,1,0.2,1.7,0.5,2.1c0.3,0.4,0.8,0.6,1.3,0.6c0.4,0,0.8-0.1,1-0.4s0.5-0.6,0.6-1.2l2.2,0.4c-0.2,1-0.7,1.7-1.3,2.2
		c-0.6,0.5-1.5,0.8-2.6,0.8c-1.2,0-2.2-0.4-2.9-1.1c-0.7-0.8-1.1-1.8-1.1-3.2c0-1.4,0.4-2.4,1.1-3.2c0.7-0.8,1.7-1.1,2.9-1.1
		c1,0,1.8,0.2,2.4,0.7C320.3,89.6,320.7,90.2,321,91.1z"/>
</g>
<g class="st1">
	<path class="st2" d="M320.3,92.7c0-0.7,0.2-1.4,0.5-2.1s0.9-1.2,1.5-1.6c0.7-0.4,1.4-0.5,2.2-0.5c1.3,0,2.3,0.4,3.1,1.2
		c0.8,0.8,1.2,1.8,1.2,3.1c0,1.3-0.4,2.3-1.2,3.1c-0.8,0.8-1.8,1.2-3.1,1.2c-0.8,0-1.5-0.2-2.2-0.5c-0.7-0.3-1.2-0.8-1.6-1.5
		S320.3,93.6,320.3,92.7z M322.6,92.8c0,0.8,0.2,1.5,0.6,1.9s0.9,0.7,1.4,0.7c0.6,0,1.1-0.2,1.4-0.7c0.4-0.4,0.6-1.1,0.6-1.9
		c0-0.8-0.2-1.4-0.6-1.9c-0.4-0.4-0.9-0.7-1.4-0.7c-0.6,0-1.1,0.2-1.4,0.7S322.6,92,322.6,92.8z"/>
	<path class="st2" d="M329.8,94.6l2.2-0.3c0.1,0.4,0.3,0.8,0.6,1c0.3,0.2,0.7,0.3,1.2,0.3c0.6,0,1-0.1,1.3-0.3
		c0.2-0.1,0.3-0.3,0.3-0.6c0-0.2-0.1-0.3-0.2-0.4c-0.1-0.1-0.4-0.2-0.7-0.3c-1.8-0.4-2.9-0.7-3.4-1.1c-0.7-0.4-1-1.1-1-1.9
		c0-0.7,0.3-1.3,0.9-1.8c0.6-0.5,1.4-0.7,2.6-0.7c1.1,0,2,0.2,2.5,0.6c0.6,0.4,0.9,0.9,1.1,1.6l-2.1,0.4c-0.1-0.3-0.3-0.6-0.5-0.7
		c-0.2-0.2-0.6-0.3-1.1-0.3c-0.6,0-1,0.1-1.2,0.2c-0.2,0.1-0.2,0.3-0.2,0.4c0,0.2,0.1,0.3,0.2,0.4c0.2,0.1,0.9,0.4,2.1,0.6
		c1.2,0.3,2,0.6,2.4,1c0.5,0.4,0.7,0.9,0.7,1.6c0,0.8-0.3,1.4-1,2c-0.6,0.5-1.6,0.8-2.8,0.8c-1.1,0-2-0.2-2.7-0.7
		C330.5,96,330,95.4,329.8,94.6z"/>
	<path class="st2" d="M343.3,88.7v1.8h-1.5v3.3c0,0.7,0,1.1,0,1.2c0,0.1,0.1,0.2,0.2,0.3s0.2,0.1,0.4,0.1c0.2,0,0.5-0.1,0.9-0.2
		l0.2,1.7c-0.5,0.2-1.1,0.3-1.7,0.3c-0.4,0-0.8-0.1-1.1-0.2c-0.3-0.1-0.6-0.3-0.7-0.5s-0.3-0.5-0.3-0.9c0-0.3-0.1-0.8-0.1-1.5v-3.6
		h-1v-1.8h1V87l2.2-1.3v2.9H343.3z"/>
</g>
<g class="st1">
	<path class="st2" d="M218.3,122.9v-4.7c-1.5-0.4-2.5-1.1-3.2-1.9c-0.7-0.8-1-1.9-1-3.1c0-1.2,0.4-2.3,1.2-3.1
		c0.8-0.8,1.8-1.3,3.1-1.4v-1.1h1.6v1.1c1.2,0.1,2.1,0.5,2.8,1.2s1.2,1.6,1.3,2.7l-2.8,0.4c-0.2-0.9-0.6-1.5-1.3-1.8v4.4
		c1.8,0.5,3,1.1,3.7,1.9c0.7,0.8,1,1.8,1,3c0,1.4-0.4,2.5-1.2,3.4c-0.8,0.9-2,1.5-3.4,1.7v2.1h-1.6v-2c-1.3-0.2-2.3-0.6-3.2-1.4
		s-1.3-2-1.5-3.4l2.9-0.3c0.1,0.6,0.3,1.1,0.7,1.5C217.6,122.4,217.9,122.7,218.3,122.9z M218.3,111.1c-0.4,0.1-0.8,0.4-1.1,0.8
		s-0.4,0.8-0.4,1.2c0,0.4,0.1,0.8,0.4,1.1s0.6,0.6,1.1,0.8V111.1z M220,123.1c0.6-0.1,1-0.4,1.4-0.8c0.4-0.4,0.5-0.9,0.5-1.5
		c0-0.5-0.1-0.9-0.4-1.3c-0.3-0.4-0.8-0.6-1.5-0.8V123.1z"/>
	<path class="st2" d="M237.3,112.9l-3.1,0.3c-0.1-0.6-0.3-1.1-0.6-1.4c-0.3-0.3-0.7-0.4-1.2-0.4c-0.7,0-1.2,0.3-1.7,0.9
		c-0.5,0.6-0.8,1.8-0.9,3.7c0.8-0.9,1.8-1.4,2.9-1.4c1.3,0,2.4,0.5,3.4,1.5c0.9,1,1.4,2.3,1.4,3.9c0,1.7-0.5,3-1.5,4.1
		c-1,1-2.3,1.5-3.8,1.5c-1.7,0-3-0.6-4.1-1.9c-1.1-1.3-1.6-3.4-1.6-6.4c0-3,0.6-5.2,1.7-6.5s2.6-2,4.3-2c1.3,0,2.3,0.3,3.1,1
		C236.6,110.6,237.1,111.6,237.3,112.9z M230.1,119.8c0,1,0.2,1.8,0.7,2.4s1,0.8,1.6,0.8c0.6,0,1.1-0.2,1.5-0.7
		c0.4-0.5,0.6-1.2,0.6-2.2c0-1.1-0.2-1.9-0.6-2.4s-0.9-0.7-1.6-0.7c-0.6,0-1.1,0.2-1.5,0.7S230.1,118.9,230.1,119.8z"/>
	<path class="st2" d="M240,122.2h3.2v2.3c0,0.9-0.1,1.6-0.2,2.2c-0.2,0.5-0.5,1-0.9,1.4c-0.4,0.4-1,0.7-1.7,1l-0.6-1.3
		c0.6-0.2,1.1-0.5,1.4-0.9s0.4-0.9,0.4-1.5H240V122.2z"/>
	<path class="st2" d="M256.5,112.9l-3.1,0.3c-0.1-0.6-0.3-1.1-0.6-1.4c-0.3-0.3-0.7-0.4-1.2-0.4c-0.7,0-1.2,0.3-1.7,0.9
		c-0.5,0.6-0.8,1.8-0.9,3.7c0.8-0.9,1.8-1.4,2.9-1.4c1.3,0,2.4,0.5,3.4,1.5c0.9,1,1.4,2.3,1.4,3.9c0,1.7-0.5,3-1.5,4.1
		c-1,1-2.3,1.5-3.8,1.5c-1.7,0-3-0.6-4.1-1.9c-1.1-1.3-1.6-3.4-1.6-6.4c0-3,0.6-5.2,1.7-6.5s2.6-2,4.3-2c1.3,0,2.3,0.3,3.1,1
		C255.7,110.6,256.3,111.6,256.5,112.9z M249.3,119.8c0,1,0.2,1.8,0.7,2.4s1,0.8,1.6,0.8c0.6,0,1.1-0.2,1.5-0.7
		c0.4-0.5,0.6-1.2,0.6-2.2c0-1.1-0.2-1.9-0.6-2.4s-0.9-0.7-1.6-0.7c-0.6,0-1.1,0.2-1.5,0.7S249.3,118.9,249.3,119.8z"/>
	<path class="st2" d="M258.6,121.1l3.1-0.3c0.1,0.7,0.4,1.3,0.8,1.7c0.4,0.4,1,0.6,1.5,0.6c0.7,0,1.2-0.3,1.7-0.8s0.7-1.3,0.7-2.4
		c0-1-0.2-1.8-0.7-2.3c-0.5-0.5-1-0.8-1.8-0.8c-0.9,0-1.7,0.4-2.4,1.2l-2.6-0.4l1.6-8.6h8.3v3h-6l-0.5,2.8c0.7-0.4,1.4-0.5,2.2-0.5
		c1.4,0,2.6,0.5,3.6,1.5c1,1,1.5,2.3,1.5,4c0,1.4-0.4,2.6-1.2,3.6c-1.1,1.5-2.6,2.2-4.5,2.2c-1.5,0-2.8-0.4-3.7-1.2
		S258.8,122.5,258.6,121.1z"/>
	<path class="st2" d="M276.7,108.8c1.6,0,2.8,0.6,3.7,1.7c1.1,1.3,1.6,3.6,1.6,6.7c0,3.1-0.5,5.4-1.6,6.7c-0.9,1.1-2.1,1.7-3.7,1.7
		c-1.6,0-2.9-0.6-3.9-1.8s-1.5-3.4-1.5-6.6c0-3.1,0.5-5.3,1.6-6.7C273.9,109.4,275.1,108.8,276.7,108.8z M276.7,111.4
		c-0.4,0-0.7,0.1-1,0.4s-0.5,0.7-0.7,1.3c-0.2,0.8-0.3,2.2-0.3,4.1s0.1,3.3,0.3,4s0.4,1.2,0.7,1.4c0.3,0.2,0.6,0.4,1,0.4
		s0.7-0.1,1-0.4s0.5-0.7,0.7-1.3c0.2-0.8,0.3-2.2,0.3-4.1s-0.1-3.3-0.3-4s-0.4-1.2-0.7-1.4C277.4,111.6,277.1,111.4,276.7,111.4z"/>
</g>
<g class="st1">
	<path class="st2" d="M282.6,125.4v-11.5h2.2v11.5H282.6z"/>
	<path class="st2" d="M287.1,115.9v-2h2.2v2H287.1z M287.1,125.4v-8.3h2.2v8.3H287.1z"/>
</g>
<g class="st1">
	<path class="st2" d="M289.2,117.1h1.2v-0.6c0-0.7,0.1-1.2,0.2-1.6s0.4-0.6,0.8-0.8s0.9-0.3,1.5-0.3c0.6,0,1.2,0.1,1.8,0.3l-0.3,1.5
		c-0.3-0.1-0.7-0.1-1-0.1c-0.3,0-0.5,0.1-0.7,0.2c-0.1,0.1-0.2,0.4-0.2,0.9v0.6h1.6v1.7h-1.6v6.6h-2.2v-6.6h-1.2V117.1z"/>
</g>
<g class="st1">
	<path class="st2" d="M299.4,122.7l2.2,0.4c-0.3,0.8-0.7,1.4-1.3,1.8c-0.6,0.4-1.4,0.6-2.3,0.6c-1.4,0-2.5-0.5-3.2-1.4
		c-0.5-0.8-0.8-1.7-0.8-2.9c0-1.4,0.4-2.5,1.1-3.2s1.6-1.2,2.7-1.2c1.2,0,2.2,0.4,2.9,1.2c0.7,0.8,1.1,2.1,1,3.7h-5.5
		c0,0.7,0.2,1.2,0.5,1.5c0.3,0.4,0.8,0.5,1.3,0.5c0.3,0,0.6-0.1,0.9-0.3S299.3,123.1,299.4,122.7z M299.5,120.5
		c0-0.6-0.2-1.1-0.5-1.4s-0.7-0.5-1.1-0.5c-0.5,0-0.9,0.2-1.2,0.5s-0.5,0.8-0.5,1.4H299.5z"/>
	<path class="st2" d="M307.3,117.1v1.8h-1.5v3.3c0,0.7,0,1.1,0,1.2c0,0.1,0.1,0.2,0.2,0.3s0.2,0.1,0.4,0.1c0.2,0,0.5-0.1,0.9-0.2
		l0.2,1.7c-0.5,0.2-1.1,0.3-1.7,0.3c-0.4,0-0.8-0.1-1.1-0.2c-0.3-0.1-0.6-0.3-0.7-0.5s-0.3-0.5-0.3-0.9c0-0.3-0.1-0.8-0.1-1.5v-3.6
		h-1v-1.8h1v-1.6l2.2-1.3v2.9H307.3z"/>
	<path class="st2" d="M308.8,115.9v-2h2.2v2H308.8z M308.8,125.4v-8.3h2.2v8.3H308.8z"/>
	<path class="st2" d="M313.1,117.1h2v1.1c0.7-0.9,1.6-1.3,2.6-1.3c0.5,0,1,0.1,1.4,0.3s0.7,0.5,1,1c0.4-0.4,0.8-0.8,1.2-1
		s0.9-0.3,1.4-0.3c0.6,0,1.1,0.1,1.5,0.4s0.7,0.6,0.9,1.1c0.2,0.4,0.2,0.9,0.2,1.7v5.3h-2.2v-4.7c0-0.8-0.1-1.4-0.2-1.6
		c-0.2-0.3-0.5-0.5-0.9-0.5c-0.3,0-0.6,0.1-0.9,0.3c-0.3,0.2-0.5,0.5-0.6,0.8c-0.1,0.4-0.2,0.9-0.2,1.7v4h-2.2v-4.5
		c0-0.8,0-1.3-0.1-1.6s-0.2-0.4-0.4-0.5s-0.4-0.2-0.7-0.2c-0.3,0-0.6,0.1-0.9,0.3c-0.3,0.2-0.5,0.4-0.6,0.8s-0.2,0.9-0.2,1.7v4h-2.2
		V117.1z"/>
	<path class="st2" d="M332.3,122.7l2.2,0.4c-0.3,0.8-0.7,1.4-1.3,1.8c-0.6,0.4-1.4,0.6-2.3,0.6c-1.4,0-2.5-0.5-3.2-1.4
		c-0.5-0.8-0.8-1.7-0.8-2.9c0-1.4,0.4-2.5,1.1-3.2s1.6-1.2,2.7-1.2c1.2,0,2.2,0.4,2.9,1.2c0.7,0.8,1.1,2.1,1,3.7h-5.5
		c0,0.7,0.2,1.2,0.5,1.5c0.3,0.4,0.8,0.5,1.3,0.5c0.3,0,0.6-0.1,0.9-0.3S332.2,123.1,332.3,122.7z M332.4,120.5
		c0-0.6-0.2-1.1-0.5-1.4s-0.7-0.5-1.1-0.5c-0.5,0-0.9,0.2-1.2,0.5s-0.5,0.8-0.5,1.4H332.4z"/>
</g>
<g class="st1">
	<path class="st2" d="M343.6,119.5l-2.2,0.4c-0.1-0.4-0.2-0.8-0.5-1s-0.6-0.3-1-0.3c-0.5,0-1,0.2-1.3,0.6c-0.3,0.4-0.5,1-0.5,1.9
		c0,1,0.2,1.7,0.5,2.1c0.3,0.4,0.8,0.6,1.3,0.6c0.4,0,0.8-0.1,1-0.4s0.5-0.6,0.6-1.2l2.2,0.4c-0.2,1-0.7,1.7-1.3,2.2
		c-0.6,0.5-1.5,0.8-2.6,0.8c-1.2,0-2.2-0.4-2.9-1.1c-0.7-0.8-1.1-1.8-1.1-3.2c0-1.4,0.4-2.4,1.1-3.2c0.7-0.8,1.7-1.1,2.9-1.1
		c1,0,1.8,0.2,2.4,0.7C343,118,343.4,118.6,343.6,119.5z"/>
</g>
<g class="st1">
	<path class="st2" d="M343,121.1c0-0.7,0.2-1.4,0.5-2.1s0.9-1.2,1.5-1.6c0.7-0.4,1.4-0.5,2.2-0.5c1.3,0,2.3,0.4,3.1,1.2
		c0.8,0.8,1.2,1.8,1.2,3.1c0,1.3-0.4,2.3-1.2,3.1c-0.8,0.8-1.8,1.2-3.1,1.2c-0.8,0-1.5-0.2-2.2-0.5c-0.7-0.3-1.2-0.8-1.6-1.5
		S343,122,343,121.1z M345.2,121.2c0,0.8,0.2,1.5,0.6,1.9s0.9,0.7,1.4,0.7c0.6,0,1.1-0.2,1.4-0.7c0.4-0.4,0.6-1.1,0.6-1.9
		c0-0.8-0.2-1.4-0.6-1.9c-0.4-0.4-0.9-0.7-1.4-0.7c-0.6,0-1.1,0.2-1.4,0.7S345.2,120.4,345.2,121.2z"/>
	<path class="st2" d="M352.5,123l2.2-0.3c0.1,0.4,0.3,0.8,0.6,1c0.3,0.2,0.7,0.3,1.2,0.3c0.6,0,1-0.1,1.3-0.3
		c0.2-0.1,0.3-0.3,0.3-0.6c0-0.2-0.1-0.3-0.2-0.4c-0.1-0.1-0.4-0.2-0.7-0.3c-1.8-0.4-2.9-0.7-3.4-1.1c-0.7-0.4-1-1.1-1-1.9
		c0-0.7,0.3-1.3,0.9-1.8c0.6-0.5,1.4-0.7,2.6-0.7c1.1,0,2,0.2,2.5,0.6c0.6,0.4,0.9,0.9,1.1,1.6l-2.1,0.4c-0.1-0.3-0.3-0.6-0.5-0.7
		c-0.2-0.2-0.6-0.3-1.1-0.3c-0.6,0-1,0.1-1.2,0.2c-0.2,0.1-0.2,0.3-0.2,0.4c0,0.2,0.1,0.3,0.2,0.4c0.2,0.1,0.9,0.4,2.1,0.6
		c1.2,0.3,2,0.6,2.4,1c0.5,0.4,0.7,0.9,0.7,1.6c0,0.8-0.3,1.4-1,2c-0.6,0.5-1.6,0.8-2.8,0.8c-1.1,0-2-0.2-2.7-0.7
		C353.1,124.4,352.7,123.8,352.5,123z"/>
	<path class="st2" d="M366,117.1v1.8h-1.5v3.3c0,0.7,0,1.1,0,1.2c0,0.1,0.1,0.2,0.2,0.3s0.2,0.1,0.4,0.1c0.2,0,0.5-0.1,0.9-0.2
		l0.2,1.7c-0.5,0.2-1.1,0.3-1.7,0.3c-0.4,0-0.8-0.1-1.1-0.2c-0.3-0.1-0.6-0.3-0.7-0.5s-0.3-0.5-0.3-0.9c0-0.3-0.1-0.8-0.1-1.5v-3.6
		h-1v-1.8h1v-1.6l2.2-1.3v2.9H366z"/>
</g>
<g class="st1">
	<path class="st2" d="M219.6,63.8V47.4h-6.1v-2.2h14.8v2.2H222v16.4H219.6z"/>
</g>
<g class="st1">
	<path class="st2" d="M226.3,54.7c0-3.1,0.8-5.5,2.5-7.3c1.7-1.7,3.8-2.6,6.4-2.6c1.7,0,3.3,0.4,4.6,1.2s2.4,2,3.2,3.4
		c0.7,1.5,1.1,3.1,1.1,5c0,1.9-0.4,3.6-1.1,5.1s-1.8,2.6-3.2,3.4c-1.4,0.8-2.9,1.1-4.5,1.1c-1.8,0-3.3-0.4-4.7-1.3s-2.4-2-3.1-3.5
		S226.3,56.4,226.3,54.7z M228.9,54.8c0,2.2,0.6,4,1.8,5.3c1.2,1.3,2.7,1.9,4.5,1.9c1.9,0,3.4-0.7,4.6-2s1.8-3.2,1.8-5.5
		c0-1.5-0.3-2.8-0.8-4c-0.5-1.1-1.3-2-2.2-2.6c-1-0.6-2.1-0.9-3.3-0.9c-1.7,0-3.2,0.6-4.5,1.8C229.5,50,228.9,52,228.9,54.8z"/>
</g>
<g class="st1">
	<path class="st2" d="M249.1,63.8V47.4h-6.1v-2.2h14.8v2.2h-6.2v16.4H249.1z"/>
</g>
<g class="st1">
	<path class="st2" d="M253.3,63.8l7.1-18.6h2.7l7.6,18.6h-2.8l-2.2-5.6h-7.8l-2,5.6H253.3z M258.6,56.2h6.3L263,51
		c-0.6-1.6-1-2.9-1.3-3.9c-0.2,1.2-0.6,2.4-1,3.6L258.6,56.2z"/>
	<path class="st2" d="M272.5,63.8V45.2h2.5v16.4h9.2v2.2H272.5z"/>
</g>
<path class="st2" d="M147.3,173.3c2-2.3,2-5.8-0.2-8c-4.2-4.6-10.3-3.6-15.7-2.5c-5.6-2.2-6.1-9.8-5.8-15.7c0.2-3.9,0.4-8,1.9-11.7
	s4.3-7,8.1-8c-0.7,10.3,2,20.6,7.9,29.1c2.3,3.3,5.4,6.6,9.8,6.2c2.5-0.1,4.5-2.1,4.7-4.5c0.2-2.7-0.1-4.3-3.9-6.1
	c-8.5-4.1-10.9-22.8-2.4-29.4c1.7-1.3,3.4-1.2,5.5-0.8c7.2,1.4,12.7,3,18.6,4.7c4.6,1.3,9.8,3.2,11.5,7.6c1,2.7,0.6,5.9,3.6,7.8
	c3.3,2,7.6,0.9,9.6-2.4c0.1-0.1,0.1-0.2,0.2-0.3c3-5.1,0-11.4-4.5-14.9c-4.1-3.2-9.2-4.6-14.1-6.5s-9.7-4.6-12.2-9.1
	c-5.5-10.3,4.4-22.8,2.3-34.3c-1.3-7.2-7.2-14.1-4.5-20.9c2.5-6.5,7.9-10.8,10.8-17c0.9-1.8,0.9-1.8,0.4-4.5
	c-0.5-3.5-5.6-3.7-8.9-4.6c-1.4-0.4-2.6-2-4-2.2c-3.8-0.5-7.5-0.7-11.3-0.6l-2-9.6c0-0.2-0.2-0.3-0.4-0.3c-0.1,0-0.1,0-0.1,0.1
	c-3.3,2.9-2.9,11.3-5.7,11.2c-3.9-0.1-6.2-4.9-8.6-6.6s-2.5-2.3-3.9-0.2c-0.8,1.2-1.1,2.5-1,3.9l2.2,26.5c0.4,4.8,0.7,9.9-1.4,14.2
	c-3.6,7.3-12.5,9.7-20,12.8c-25.7,10.6-43,38.9-40.7,66.6c0.6,6.6,1.8,14.2-5.7,17.8c-2.2,1-4.6,1.5-7.1,1.4
	c-11-0.3-22.9-0.1-32.8-5.3c-8.8-4.7-15.4-15-12.4-24.5c0.7-2.3,2-4.5,2.5-6.8c0.7-2.9,0-6.5-3.3-7.5c-1.6-0.5-3.4-0.2-4.8,0.8
	c-2.9,2.1-3.8,5.7-4.2,9c-1.7,12.3,1.2,25.8,10,34.5c7.8,7.7,19.2,10.7,30.2,11s21.8-1.9,32.7-3.1c20.5-2.2,41.3-1,61.4,3.6
	C142.4,175,145.2,175.6,147.3,173.3z"/>
</svg>
