<?xml version="1.0" encoding="utf-8"?>
<!-- Generator: Adobe Illustrator 19.2.1, SVG Export Plug-In . SVG Version: 6.00 Build 0)  -->
<svg version="1.1" id="header" xmlns="http://www.w3.org/2000/svg" xmlns:xlink="http://www.w3.org/1999/xlink" x="0px" y="0px"
	 width="410px" height="180px" viewBox="0 0 410 180" style="enable-background:new 0 0 410 180;" xml:space="preserve">
<style type="text/css">
	.st0{fill:#1C75BC;}
	.st1{enable-background:new    ;}
	.st2{fill:#231F20;}
	.st3{fill:#FFFFFF;}
	.st4{fill:#1C75BC;stroke:#231F20;stroke-width:0.85;stroke-miterlimit:10;}
	.st5{fill:none;stroke:#231F20;stroke-width:0.85;stroke-miterlimit:10;}
	.st6{fill:#F1F2F2;}
	.st7{fill:#603913;}
	.st8{opacity:0.45;fill:#FFFFFF;enable-background:new    ;}
	.st9{fill:none;stroke:#231F20;stroke-width:0.99;stroke-miterlimit:10;}
</style>
<title>INFOGRAPHIC</title>
<path class="st0" d="M19.7,143.9h373.5c6.7,0,12.2,5.4,12.2,12.2v4.8c0,6.7-5.4,12.2-12.2,12.2H19.7c-6.7,0-12.2-5.4-12.2-12.2v-4.8
	C7.5,149.4,12.9,143.9,19.7,143.9z"/>
<g class="st1">
	<path class="st2" d="M112.9,4.2c0.5,0.2,0.9,0.5,1.2,0.9c0.3,0.3,0.5,0.7,0.7,1.1c0.2,0.4,0.2,0.9,0.2,1.4c0,0.6-0.2,1.2-0.5,1.8
		c-0.3,0.6-0.8,1-1.5,1.3c0.6,0.2,1,0.6,1.3,1c0.2,0.4,0.4,1.1,0.4,2v0.9c0,0.6,0,1,0.1,1.2c0.1,0.3,0.2,0.6,0.5,0.7v0.3h-3
		c-0.1-0.3-0.1-0.5-0.2-0.7c-0.1-0.4-0.1-0.7-0.1-1.1l0-1.2c0-0.8-0.2-1.4-0.4-1.7s-0.8-0.4-1.5-0.4h-2.6v5.1h-2.6v-13h6.2
		C111.8,3.9,112.5,4,112.9,4.2z M107.3,6.2v3.5h2.9c0.6,0,1-0.1,1.3-0.2c0.5-0.2,0.8-0.7,0.8-1.5c0-0.8-0.2-1.3-0.7-1.6
		c-0.3-0.2-0.7-0.2-1.3-0.2H107.3z"/>
</g>
<g class="st1">
	<path class="st2" d="M126.1,15.7c-1,1-2.4,1.5-4.2,1.5s-3.3-0.5-4.2-1.5c-1.3-1.2-2-3-2-5.3c0-2.4,0.7-4.2,2-5.3
		c1-1,2.4-1.5,4.2-1.5s3.3,0.5,4.2,1.5c1.3,1.2,2,3,2,5.3C128.1,12.7,127.4,14.5,126.1,15.7z M124.4,13.8c0.6-0.8,0.9-1.9,0.9-3.4
		c0-1.5-0.3-2.6-0.9-3.4s-1.5-1.2-2.6-1.2s-1.9,0.4-2.6,1.2s-1,1.9-1,3.4s0.3,2.6,1,3.4s1.5,1.2,2.6,1.2S123.8,14.5,124.4,13.8z"/>
	<path class="st2" d="M130.1,3.9h2.8v8c0,0.9,0.1,1.5,0.3,1.9c0.3,0.7,1,1.1,2.1,1.1c1.1,0,1.8-0.4,2.1-1.1c0.2-0.4,0.3-1.1,0.3-1.9
		v-8h2.8v8c0,1.4-0.2,2.4-0.6,3.2c-0.8,1.4-2.3,2.1-4.6,2.1s-3.8-0.7-4.6-2.1c-0.4-0.8-0.6-1.8-0.6-3.2V3.9z"/>
	<path class="st2" d="M152.5,3.9v2.3h-3.9v10.7h-2.7V6.2H142V3.9H152.5z"/>
	<path class="st2" d="M156.6,16.9h-2.7v-13h2.7V16.9z"/>
	<path class="st2" d="M159.1,3.9h2.8l5.1,9v-9h2.5v13h-2.7l-5.3-9.2v9.2h-2.5V3.9z"/>
	<path class="st2" d="M181.7,6.2h-6.9V9h6.3v2.2h-6.3v3.3h7.2v2.3h-9.8v-13h9.5V6.2z"/>
	<path class="st2" d="M197.7,3.9h3.9v13h-2.5V8.1c0-0.3,0-0.6,0-1.1c0-0.5,0-0.8,0-1l-2.5,10.9H194L191.6,6c0,0.2,0,0.6,0,1
		c0,0.5,0,0.8,0,1.1v8.8h-2.5v-13h3.9l2.4,10.2L197.7,3.9z"/>
	<path class="st2" d="M213.7,6.2h-6.9V9h6.3v2.2h-6.3v3.3h7.2v2.3h-9.8v-13h9.5V6.2z"/>
	<path class="st2" d="M223.7,4.2c0.9,0.3,1.6,0.8,2.2,1.6c0.5,0.6,0.8,1.3,0.9,2.1s0.2,1.5,0.2,2.1c0,1.7-0.3,3.2-1,4.4
		c-0.9,1.6-2.4,2.4-4.3,2.4h-5.6v-13h5.6C222.5,3.9,223.2,4,223.7,4.2z M218.8,6.2v8.5h2.5c1.3,0,2.2-0.6,2.7-1.9
		c0.3-0.7,0.4-1.5,0.4-2.5c0-1.3-0.2-2.3-0.6-3c-0.4-0.7-1.2-1.1-2.5-1.1H218.8z"/>
	<path class="st2" d="M231.6,16.9h-2.7v-13h2.7V16.9z"/>
</g>
<g class="st1">
	<path class="st2" d="M237.1,5.3c1-1.1,2.4-1.6,4-1.6c2.2,0,3.7,0.7,4.7,2.1c0.6,0.8,0.8,1.6,0.9,2.4H244c-0.2-0.6-0.4-1.1-0.7-1.4
		c-0.5-0.6-1.2-0.8-2.1-0.8c-1,0-1.7,0.4-2.3,1.2c-0.6,0.8-0.8,1.9-0.8,3.4s0.3,2.5,0.9,3.3c0.6,0.7,1.3,1.1,2.2,1.1
		c0.9,0,1.6-0.3,2.1-0.9c0.3-0.3,0.5-0.8,0.7-1.5h2.7c-0.2,1.4-0.8,2.6-1.8,3.4s-2.2,1.3-3.7,1.3c-1.8,0-3.3-0.6-4.3-1.8
		c-1.1-1.2-1.6-2.8-1.6-4.9C235.3,8.2,235.9,6.5,237.1,5.3z"/>
</g>
<g class="st1">
	<path class="st2" d="M252,3.9h3.1l4.6,13h-2.9l-0.9-2.7h-4.8l-0.9,2.7h-2.8L252,3.9z M251.8,12h3.3l-1.6-5.1L251.8,12z"/>
	<path class="st2" d="M261.3,3.9h2.7v10.6h6.5v2.3h-9.2V3.9z"/>
</g>
<g class="st1">
	<path class="st2" d="M277.1,5.3c1-1.1,2.4-1.6,4-1.6c2.2,0,3.7,0.7,4.7,2.1c0.6,0.8,0.8,1.6,0.9,2.4H284c-0.2-0.6-0.4-1.1-0.7-1.4
		c-0.5-0.6-1.2-0.8-2.1-0.8c-1,0-1.7,0.4-2.3,1.2c-0.6,0.8-0.8,1.9-0.8,3.4s0.3,2.5,0.9,3.3c0.6,0.7,1.3,1.1,2.2,1.1
		c0.9,0,1.6-0.3,2.1-0.9c0.3-0.3,0.5-0.8,0.7-1.5h2.7c-0.2,1.4-0.8,2.6-1.8,3.4c-1,0.9-2.2,1.3-3.7,1.3c-1.8,0-3.3-0.6-4.3-1.8
		c-1.1-1.2-1.6-2.8-1.6-4.9C275.3,8.2,275.9,6.5,277.1,5.3z"/>
</g>
<g class="st1">
	<path class="st2" d="M291.9,3.9h3.1l4.6,13h-2.9l-0.9-2.7H291l-0.9,2.7h-2.8L291.9,3.9z M291.8,12h3.3l-1.6-5.1L291.8,12z"/>
	<path class="st2" d="M309.5,4.2c0.5,0.2,0.9,0.5,1.2,0.9c0.3,0.3,0.5,0.7,0.7,1.1s0.2,0.9,0.2,1.4c0,0.6-0.2,1.2-0.5,1.8
		c-0.3,0.6-0.8,1-1.5,1.3c0.6,0.2,1,0.6,1.3,1c0.2,0.4,0.4,1.1,0.4,2v0.9c0,0.6,0,1,0.1,1.2c0.1,0.3,0.2,0.6,0.5,0.7v0.3h-3
		c-0.1-0.3-0.1-0.5-0.2-0.7c-0.1-0.4-0.1-0.7-0.1-1.1l0-1.2c0-0.8-0.2-1.4-0.4-1.7s-0.8-0.4-1.5-0.4h-2.6v5.1h-2.6v-13h6.2
		C308.4,3.9,309.1,4,309.5,4.2z M303.9,6.2v3.5h2.9c0.6,0,1-0.1,1.3-0.2c0.5-0.2,0.8-0.7,0.8-1.5c0-0.8-0.2-1.3-0.7-1.6
		c-0.3-0.2-0.7-0.2-1.3-0.2H303.9z"/>
	<path class="st2" d="M323.8,6.2H317V9h6.3v2.2H317v3.3h7.2v2.3h-9.8v-13h9.5V6.2z"/>
</g>
<g class="st1">
	<path class="st3" d="M115.7,153.7v-1.5c1.5-0.1,2.5-0.4,3-0.7c0.6-0.3,1-1.1,1.3-2.4h1.6v16h-2.2v-11.4H115.7z"/>
	<path class="st3" d="M128.5,155.7c-0.6-0.6-0.9-1.4-0.9-2.3c0-1.2,0.4-2.2,1.3-3.1c0.9-0.9,2.1-1.3,3.7-1.3c1.5,0,2.7,0.4,3.6,1.2
		s1.3,1.8,1.3,2.8c0,1-0.3,1.8-0.8,2.4c-0.3,0.4-0.7,0.7-1.3,1c0.7,0.3,1.2,0.7,1.6,1.1c0.7,0.7,1.1,1.7,1.1,2.9
		c0,1.4-0.5,2.6-1.4,3.6s-2.3,1.5-4,1.5c-1.6,0-2.9-0.4-4-1.3s-1.6-2.1-1.6-3.7c0-0.9,0.2-1.8,0.7-2.5c0.5-0.7,1.2-1.2,2.1-1.6
		C129.2,156.3,128.8,156,128.5,155.7z M135,162.9c0.6-0.5,0.9-1.3,0.9-2.3c0-1-0.3-1.8-1-2.4c-0.6-0.5-1.4-0.8-2.4-0.8
		c-1,0-1.8,0.3-2.4,0.8s-0.9,1.3-0.9,2.3c0,0.8,0.3,1.6,0.8,2.2c0.6,0.6,1.4,0.9,2.6,0.9C133.6,163.7,134.4,163.4,135,162.9z
		 M134.6,155c0.5-0.5,0.7-1.1,0.7-1.8c0-0.6-0.2-1.1-0.7-1.7c-0.5-0.5-1.2-0.8-2.2-0.8c-1,0-1.7,0.3-2.1,0.8
		c-0.4,0.5-0.6,1.1-0.6,1.8c0,0.8,0.3,1.3,0.8,1.8c0.6,0.4,1.2,0.6,2,0.6C133.4,155.8,134.1,155.5,134.6,155z"/>
	<path class="st3" d="M146.5,150.7c0.8,0.8,1.1,1.7,1.1,2.8s-0.4,2-1.1,2.8s-1.7,1.1-2.8,1.1c-1.1,0-2-0.4-2.8-1.1
		c-0.8-0.8-1.1-1.7-1.1-2.8s0.4-2,1.1-2.8c0.8-0.8,1.7-1.1,2.8-1.1C144.8,149.5,145.7,149.9,146.5,150.7z M145.4,155.1
		c0.5-0.5,0.7-1,0.7-1.6s-0.2-1.2-0.7-1.6c-0.5-0.5-1-0.7-1.6-0.7c-0.6,0-1.2,0.2-1.6,0.7s-0.7,1-0.7,1.6c0,0.6,0.2,1.2,0.7,1.6
		s1,0.7,1.6,0.7C144.4,155.7,144.9,155.5,145.4,155.1z M153.1,149.1h1.3l-9,16.4h-1.3L153.1,149.1z M157.5,158.4
		c0.8,0.8,1.1,1.7,1.1,2.8s-0.4,2-1.1,2.8c-0.8,0.8-1.7,1.1-2.8,1.1c-1.1,0-2-0.4-2.8-1.1c-0.8-0.8-1.1-1.7-1.1-2.8s0.4-2,1.1-2.8
		c0.8-0.8,1.7-1.1,2.8-1.1C155.8,157.3,156.7,157.7,157.5,158.4z M156.4,162.8c0.5-0.5,0.7-1,0.7-1.6s-0.2-1.2-0.7-1.6
		c-0.5-0.5-1-0.7-1.6-0.7c-0.6,0-1.2,0.2-1.6,0.7s-0.7,1-0.7,1.6s0.2,1.2,0.7,1.6s1,0.7,1.6,0.7
		C155.4,163.5,155.9,163.3,156.4,162.8z"/>
</g>
<g class="st1">
	<path class="st3" d="M166.9,157.9c0.7,0.7,1.1,1.7,1.1,3c0,1.3-0.3,2.4-0.9,3.2c-0.6,0.8-1.6,1.3-2.9,1.3c-1.1,0-2-0.4-2.6-1.1
		c-0.6-0.7-1-1.7-1-3c0-1.3,0.3-2.4,1-3.2c0.7-0.8,1.6-1.2,2.7-1.2C165.4,156.8,166.2,157.2,166.9,157.9z M166.1,163.2
		c0.3-0.7,0.5-1.4,0.5-2.2c0-0.7-0.1-1.4-0.4-1.8c-0.4-0.7-1-1.1-1.9-1.1c-0.8,0-1.4,0.3-1.8,0.9c-0.4,0.6-0.6,1.4-0.6,2.3
		c0,0.9,0.2,1.6,0.6,2.1c0.4,0.6,1,0.9,1.8,0.9C165.2,164.2,165.8,163.9,166.1,163.2z"/>
	<path class="st3" d="M170.3,154.6c0.3-0.5,0.9-0.7,1.8-0.7c0.1,0,0.2,0,0.3,0s0.2,0,0.3,0v1.2c-0.1,0-0.2,0-0.3,0
		c-0.1,0-0.1,0-0.2,0c-0.4,0-0.7,0.1-0.7,0.3c-0.1,0.2-0.1,0.8-0.1,1.6h1.3v1.1h-1.3v6.9H170v-6.9h-1.1v-1.1h1.1v-1.3
		C170,155.3,170.1,154.9,170.3,154.6z"/>
	<path class="st3" d="M182.4,160.2c0.3,0,0.5-0.2,0.6-0.4c0.1-0.1,0.1-0.3,0.1-0.5c0-0.5-0.2-0.8-0.5-1c-0.3-0.2-0.8-0.3-1.4-0.3
		c-0.7,0-1.2,0.2-1.5,0.6c-0.2,0.2-0.3,0.5-0.3,0.9h-1.3c0-1,0.3-1.7,1-2.1c0.6-0.4,1.3-0.6,2.1-0.6c0.9,0,1.7,0.2,2.3,0.5
		c0.6,0.4,0.9,0.9,0.9,1.7v4.6c0,0.1,0,0.3,0.1,0.3c0.1,0.1,0.2,0.1,0.4,0.1c0.1,0,0.1,0,0.2,0c0.1,0,0.2,0,0.2,0v1
		c-0.2,0.1-0.4,0.1-0.5,0.1c-0.1,0-0.3,0-0.4,0c-0.5,0-0.8-0.2-1-0.5c-0.1-0.2-0.2-0.4-0.2-0.7c-0.3,0.4-0.7,0.7-1.2,0.9
		c-0.5,0.3-1.1,0.4-1.7,0.4c-0.7,0-1.3-0.2-1.8-0.7c-0.5-0.5-0.7-1-0.7-1.7c0-0.7,0.2-1.3,0.7-1.7c0.5-0.4,1.1-0.7,1.8-0.8
		L182.4,160.2z M179.6,163.9c0.3,0.2,0.6,0.3,1,0.3c0.5,0,0.9-0.1,1.4-0.3c0.7-0.4,1.1-1,1.1-1.8V161c-0.2,0.1-0.4,0.2-0.6,0.3
		c-0.3,0.1-0.5,0.1-0.8,0.1l-0.8,0.1c-0.5,0.1-0.9,0.2-1.1,0.3c-0.4,0.2-0.6,0.6-0.6,1.1C179.2,163.3,179.3,163.6,179.6,163.9z"/>
	<path class="st3" d="M186.6,157.1h1.3v1.1c0.4-0.5,0.8-0.8,1.2-1c0.4-0.2,0.9-0.3,1.4-0.3c1.1,0,1.9,0.4,2.3,1.2
		c0.2,0.4,0.3,1.1,0.3,1.9v5.1h-1.4v-5c0-0.5-0.1-0.9-0.2-1.2c-0.2-0.5-0.7-0.7-1.3-0.7c-0.3,0-0.6,0-0.8,0.1
		c-0.4,0.1-0.7,0.3-1,0.7c-0.2,0.3-0.4,0.5-0.4,0.8s-0.1,0.7-0.1,1.2v4.2h-1.3V157.1z"/>
	<path class="st3" d="M195.2,157.1h1.3v1.1c0.4-0.5,0.8-0.8,1.2-1c0.4-0.2,0.9-0.3,1.4-0.3c1.1,0,1.9,0.4,2.3,1.2
		c0.2,0.4,0.3,1.1,0.3,1.9v5.1h-1.4v-5c0-0.5-0.1-0.9-0.2-1.2c-0.2-0.5-0.7-0.7-1.3-0.7c-0.3,0-0.6,0-0.8,0.1
		c-0.4,0.1-0.7,0.3-1,0.7c-0.2,0.3-0.4,0.5-0.4,0.8s-0.1,0.7-0.1,1.2v4.2h-1.3V157.1z"/>
	<path class="st3" d="M205,157.1v5.3c0,0.4,0.1,0.7,0.2,1c0.2,0.5,0.7,0.7,1.3,0.7c0.9,0,1.5-0.4,1.9-1.3c0.2-0.4,0.3-1.1,0.3-1.8
		v-3.9h1.3v8h-1.3l0-1.2c-0.2,0.3-0.4,0.6-0.6,0.8c-0.5,0.4-1.1,0.6-1.8,0.6c-1.1,0-1.9-0.4-2.3-1.1c-0.2-0.4-0.3-1-0.3-1.6v-5.4
		H205z"/>
	<path class="st3" d="M216.5,160.2c0.3,0,0.5-0.2,0.6-0.4c0.1-0.1,0.1-0.3,0.1-0.5c0-0.5-0.2-0.8-0.5-1c-0.3-0.2-0.8-0.3-1.4-0.3
		c-0.7,0-1.2,0.2-1.5,0.6c-0.2,0.2-0.3,0.5-0.3,0.9h-1.3c0-1,0.3-1.7,1-2.1c0.6-0.4,1.3-0.6,2.1-0.6c0.9,0,1.7,0.2,2.3,0.5
		c0.6,0.4,0.9,0.9,0.9,1.7v4.6c0,0.1,0,0.3,0.1,0.3c0.1,0.1,0.2,0.1,0.4,0.1c0.1,0,0.1,0,0.2,0c0.1,0,0.2,0,0.2,0v1
		c-0.2,0.1-0.4,0.1-0.5,0.1s-0.3,0-0.4,0c-0.5,0-0.8-0.2-1-0.5c-0.1-0.2-0.2-0.4-0.2-0.7c-0.3,0.4-0.7,0.7-1.2,0.9
		c-0.5,0.3-1.1,0.4-1.7,0.4c-0.7,0-1.3-0.2-1.8-0.7s-0.7-1-0.7-1.7c0-0.7,0.2-1.3,0.7-1.7c0.5-0.4,1.1-0.7,1.8-0.8L216.5,160.2z
		 M213.6,163.9c0.3,0.2,0.6,0.3,1,0.3c0.5,0,0.9-0.1,1.4-0.3c0.7-0.4,1.1-1,1.1-1.8V161c-0.2,0.1-0.4,0.2-0.6,0.3
		c-0.3,0.1-0.5,0.1-0.8,0.1l-0.8,0.1c-0.5,0.1-0.9,0.2-1.1,0.3c-0.4,0.2-0.6,0.6-0.6,1.1C213.2,163.3,213.3,163.6,213.6,163.9z"/>
	<path class="st3" d="M220.7,154.1h1.3v11h-1.3V154.1z"/>
	<path class="st3" d="M228.2,154.1h1.3v4c0.3-0.4,0.6-0.7,1.1-0.9c0.4-0.2,0.9-0.3,1.3-0.3c1,0,1.8,0.3,2.4,1c0.6,0.7,0.9,1.7,0.9,3
		c0,1.3-0.3,2.3-0.9,3.2s-1.5,1.3-2.6,1.3c-0.6,0-1.1-0.1-1.5-0.4c-0.2-0.2-0.5-0.5-0.8-0.8v1h-1.2V154.1z M233.4,163.3
		c0.4-0.6,0.5-1.3,0.5-2.3c0-0.8-0.2-1.5-0.5-2.1c-0.4-0.6-0.9-0.8-1.6-0.8c-0.6,0-1.2,0.2-1.6,0.7c-0.5,0.5-0.7,1.2-0.7,2.2
		c0,0.8,0.1,1.4,0.3,1.8c0.4,0.9,1,1.3,2,1.3C232.5,164.1,233,163.9,233.4,163.3z"/>
	<path class="st3" d="M238.2,157.1v5.3c0,0.4,0.1,0.7,0.2,1c0.2,0.5,0.7,0.7,1.3,0.7c0.9,0,1.5-0.4,1.9-1.3c0.2-0.4,0.3-1.1,0.3-1.8
		v-3.9h1.3v8h-1.3l0-1.2c-0.2,0.3-0.4,0.6-0.6,0.8c-0.5,0.4-1.1,0.6-1.8,0.6c-1.1,0-1.9-0.4-2.3-1.1c-0.2-0.4-0.3-1-0.3-1.6v-5.4
		H238.2z"/>
	<path class="st3" d="M249.7,157.3c0.2,0.1,0.5,0.4,0.8,0.8v-4h1.3v11h-1.2V164c-0.3,0.5-0.7,0.8-1.1,1.1s-0.9,0.3-1.5,0.3
		c-0.9,0-1.7-0.4-2.3-1.1c-0.7-0.7-1-1.7-1-3c0-1.2,0.3-2.2,0.9-3c0.6-0.9,1.4-1.3,2.5-1.3C248.8,156.9,249.3,157.1,249.7,157.3z
		 M246.7,163.3c0.4,0.6,0.9,0.9,1.7,0.9c0.6,0,1.1-0.3,1.5-0.8c0.4-0.5,0.6-1.3,0.6-2.3c0-1-0.2-1.8-0.6-2.2
		c-0.4-0.5-0.9-0.7-1.5-0.7c-0.7,0-1.2,0.3-1.6,0.8c-0.4,0.5-0.6,1.3-0.6,2.3C246.2,162,246.4,162.7,246.7,163.3z"/>
	<path class="st3" d="M258.3,157.4c0.3,0.2,0.5,0.4,0.8,0.8v-1h1.2v7.3c0,1-0.1,1.8-0.4,2.4c-0.6,1.1-1.6,1.6-3.1,1.6
		c-0.9,0-1.6-0.2-2.2-0.6c-0.6-0.4-0.9-1-1-1.8h1.4c0.1,0.4,0.2,0.6,0.4,0.8c0.3,0.3,0.8,0.4,1.4,0.4c1,0,1.7-0.4,2-1.1
		c0.2-0.4,0.3-1.2,0.3-2.3c-0.3,0.4-0.6,0.7-1,0.9c-0.4,0.2-0.9,0.3-1.5,0.3c-0.9,0-1.6-0.3-2.3-0.9s-1-1.6-1-3.1
		c0-1.3,0.3-2.4,1-3.1s1.4-1.1,2.4-1.1C257.3,156.9,257.8,157.1,258.3,157.4z M258.5,158.8c-0.4-0.5-0.9-0.7-1.6-0.7
		c-0.9,0-1.6,0.4-1.9,1.3c-0.2,0.5-0.3,1.1-0.3,1.9c0,0.9,0.2,1.6,0.5,2.1s0.9,0.7,1.5,0.7c1,0,1.6-0.4,2-1.3
		c0.2-0.5,0.3-1.1,0.3-1.7C259.1,160.1,258.9,159.3,258.5,158.8z"/>
	<path class="st3" d="M267.3,157.3c0.5,0.3,0.9,0.6,1.2,1c0.3,0.4,0.4,0.9,0.5,1.4c0.1,0.4,0.1,1,0.1,1.8h-5.8c0,0.8,0.2,1.5,0.6,2
		c0.4,0.5,0.9,0.7,1.7,0.7c0.7,0,1.3-0.2,1.7-0.7c0.2-0.3,0.4-0.6,0.5-0.9h1.3c0,0.3-0.2,0.6-0.3,1c-0.2,0.4-0.4,0.7-0.7,0.9
		c-0.4,0.4-0.9,0.7-1.5,0.8c-0.3,0.1-0.7,0.1-1.1,0.1c-1,0-1.8-0.4-2.5-1.1c-0.7-0.7-1-1.7-1-3c0-1.3,0.3-2.3,1-3.1
		c0.7-0.8,1.6-1.2,2.7-1.2C266.2,156.9,266.8,157,267.3,157.3z M267.8,160.4c-0.1-0.6-0.2-1-0.4-1.4c-0.4-0.6-1-1-1.8-1
		c-0.6,0-1.1,0.2-1.5,0.7s-0.6,1-0.7,1.7H267.8z"/>
	<path class="st3" d="M271.1,154.8h1.4v2.2h1.3v1.1h-1.3v5.2c0,0.3,0.1,0.5,0.3,0.6c0.1,0.1,0.3,0.1,0.5,0.1c0.1,0,0.1,0,0.2,0
		c0.1,0,0.2,0,0.3,0v1.1c-0.2,0-0.3,0.1-0.5,0.1c-0.2,0-0.3,0-0.5,0c-0.6,0-1.1-0.2-1.3-0.5c-0.2-0.3-0.3-0.7-0.3-1.3v-5.3h-1.1
		v-1.1h1.1V154.8z"/>
</g>
<g class="st1">
	<path class="st2" d="M91.2,26.3h1.1v7.9h-1.1V26.3z"/>
</g>
<g class="st1">
	<path class="st2" d="M93.6,28.5h0.9v0.8c0.3-0.3,0.6-0.6,0.9-0.7s0.6-0.2,1-0.2c0.8,0,1.4,0.3,1.7,0.9c0.2,0.3,0.2,0.8,0.2,1.3v3.7
		h-1v-3.6c0-0.4-0.1-0.6-0.2-0.8c-0.2-0.4-0.5-0.5-0.9-0.5c-0.2,0-0.4,0-0.6,0.1c-0.3,0.1-0.5,0.2-0.7,0.5c-0.2,0.2-0.3,0.4-0.3,0.6
		c0,0.2-0.1,0.5-0.1,0.9v3h-1V28.5z"/>
	<path class="st2" d="M103.5,28.8c0.4,0.3,0.7,0.9,0.7,1.6h-0.9c-0.1-0.4-0.2-0.6-0.4-0.9s-0.5-0.4-1-0.4c-0.6,0-1.1,0.3-1.3,0.9
		c-0.2,0.4-0.3,0.9-0.3,1.4c0,0.6,0.1,1.1,0.4,1.5s0.6,0.6,1.1,0.6c0.4,0,0.7-0.1,1-0.4c0.2-0.2,0.4-0.6,0.5-1h0.9
		c-0.1,0.8-0.4,1.3-0.8,1.7s-1,0.5-1.6,0.5c-0.8,0-1.4-0.3-1.8-0.8s-0.7-1.2-0.7-2.1c0-1,0.2-1.8,0.7-2.4c0.5-0.6,1.1-0.8,1.9-0.8
		C102.6,28.3,103.1,28.4,103.5,28.8z"/>
	<path class="st2" d="M105.2,26.3h1v7.9h-1V26.3z"/>
	<path class="st2" d="M108.6,28.5v3.8c0,0.3,0,0.5,0.1,0.7c0.2,0.3,0.5,0.5,0.9,0.5c0.7,0,1.1-0.3,1.3-0.9c0.1-0.3,0.2-0.8,0.2-1.3
		v-2.8h1v5.8h-0.9l0-0.8c-0.1,0.2-0.3,0.4-0.5,0.6c-0.4,0.3-0.8,0.5-1.3,0.5c-0.8,0-1.4-0.3-1.6-0.8c-0.2-0.3-0.2-0.7-0.2-1.2v-3.9
		H108.6z"/>
	<path class="st2" d="M116.9,28.6c0.2,0.1,0.4,0.3,0.6,0.6v-2.9h0.9v7.9h-0.9v-0.8c-0.2,0.4-0.5,0.6-0.8,0.8s-0.7,0.2-1.1,0.2
		c-0.6,0-1.2-0.3-1.7-0.8c-0.5-0.5-0.7-1.3-0.7-2.2c0-0.8,0.2-1.6,0.6-2.2s1-0.9,1.8-0.9C116.3,28.4,116.6,28.4,116.9,28.6z
		 M114.8,32.9c0.3,0.4,0.7,0.6,1.3,0.6c0.4,0,0.8-0.2,1.1-0.6s0.4-0.9,0.4-1.7c0-0.7-0.1-1.3-0.4-1.6c-0.3-0.3-0.7-0.5-1.1-0.5
		c-0.5,0-0.9,0.2-1.2,0.6c-0.3,0.4-0.5,0.9-0.5,1.6C114.4,32,114.5,32.5,114.8,32.9z"/>
	<path class="st2" d="M123.4,28.6c0.4,0.2,0.7,0.4,0.9,0.7c0.2,0.3,0.3,0.6,0.4,1c0.1,0.3,0.1,0.7,0.1,1.3h-4.2
		c0,0.6,0.2,1.1,0.4,1.4c0.3,0.4,0.7,0.5,1.2,0.5c0.5,0,0.9-0.2,1.2-0.5c0.2-0.2,0.3-0.4,0.4-0.7h1c0,0.2-0.1,0.4-0.2,0.7
		c-0.1,0.3-0.3,0.5-0.5,0.6c-0.3,0.3-0.7,0.5-1.1,0.6c-0.2,0.1-0.5,0.1-0.8,0.1c-0.7,0-1.3-0.3-1.8-0.8c-0.5-0.5-0.7-1.3-0.7-2.2
		c0-0.9,0.2-1.7,0.7-2.3c0.5-0.6,1.1-0.9,2-0.9C122.7,28.3,123.1,28.4,123.4,28.6z M123.8,30.9c0-0.4-0.1-0.8-0.3-1
		c-0.3-0.5-0.7-0.7-1.3-0.7c-0.4,0-0.8,0.2-1.1,0.5s-0.5,0.7-0.5,1.2H123.8z"/>
	<path class="st2" d="M126.6,32.4c0,0.3,0.1,0.6,0.2,0.7c0.2,0.3,0.7,0.5,1.3,0.5c0.4,0,0.7-0.1,1-0.2c0.3-0.2,0.4-0.4,0.4-0.7
		c0-0.2-0.1-0.4-0.3-0.6c-0.1-0.1-0.4-0.2-0.8-0.3l-0.8-0.2c-0.5-0.1-0.9-0.3-1.1-0.4c-0.4-0.3-0.6-0.6-0.6-1.1c0-0.5,0.2-1,0.6-1.3
		c0.4-0.3,0.9-0.5,1.6-0.5c0.9,0,1.5,0.3,1.9,0.8c0.2,0.3,0.4,0.7,0.4,1h-0.9c0-0.2-0.1-0.4-0.2-0.6c-0.2-0.3-0.6-0.4-1.2-0.4
		c-0.4,0-0.7,0.1-0.8,0.2c-0.2,0.1-0.3,0.3-0.3,0.6c0,0.2,0.1,0.5,0.4,0.6c0.1,0.1,0.4,0.2,0.6,0.2l0.7,0.2c0.7,0.2,1.2,0.3,1.4,0.5
		c0.4,0.2,0.6,0.6,0.6,1.2c0,0.5-0.2,1-0.6,1.3c-0.4,0.4-1,0.6-1.8,0.6c-0.9,0-1.5-0.2-1.8-0.6s-0.6-0.9-0.6-1.4H126.6z"/>
	<path class="st2" d="M135.1,32.4c0,0.3,0.1,0.6,0.2,0.7c0.2,0.3,0.7,0.5,1.3,0.5c0.4,0,0.7-0.1,1-0.2c0.3-0.2,0.4-0.4,0.4-0.7
		c0-0.2-0.1-0.4-0.3-0.6c-0.1-0.1-0.4-0.2-0.8-0.3l-0.8-0.2c-0.5-0.1-0.9-0.3-1.1-0.4c-0.4-0.3-0.6-0.6-0.6-1.1c0-0.5,0.2-1,0.6-1.3
		c0.4-0.3,0.9-0.5,1.6-0.5c0.9,0,1.5,0.3,1.9,0.8c0.2,0.3,0.4,0.7,0.4,1h-0.9c0-0.2-0.1-0.4-0.2-0.6c-0.2-0.3-0.6-0.4-1.2-0.4
		c-0.4,0-0.7,0.1-0.8,0.2c-0.2,0.1-0.3,0.3-0.3,0.6c0,0.2,0.1,0.5,0.4,0.6c0.1,0.1,0.4,0.2,0.6,0.2l0.7,0.2c0.7,0.2,1.2,0.3,1.4,0.5
		c0.4,0.2,0.6,0.6,0.6,1.2c0,0.5-0.2,1-0.6,1.3c-0.4,0.4-1,0.6-1.8,0.6c-0.9,0-1.5-0.2-1.8-0.6s-0.6-0.9-0.6-1.4H135.1z"/>
	<path class="st2" d="M140,28.5h0.9v0.8c0.2-0.3,0.4-0.5,0.6-0.6c0.3-0.2,0.7-0.3,1.2-0.3c0.7,0,1.2,0.2,1.7,0.8
		c0.5,0.5,0.7,1.2,0.7,2.1c0,1.3-0.3,2.1-1,2.7c-0.4,0.3-0.9,0.5-1.5,0.5c-0.4,0-0.8-0.1-1.1-0.3c-0.2-0.1-0.4-0.3-0.6-0.6v2.9h-1
		V28.5z M143.6,33c0.3-0.4,0.5-0.9,0.5-1.7c0-0.5-0.1-0.9-0.2-1.2c-0.3-0.6-0.7-1-1.4-1c-0.7,0-1.1,0.3-1.4,1
		c-0.1,0.4-0.2,0.8-0.2,1.4c0,0.4,0.1,0.8,0.2,1.1c0.3,0.6,0.7,0.9,1.4,0.9C143,33.6,143.3,33.4,143.6,33z"/>
</g>
<g class="st1">
	<path class="st2" d="M145.4,30.7c0.2,0,0.4-0.1,0.4-0.3c0-0.1,0.1-0.2,0.1-0.4c0-0.3-0.1-0.6-0.4-0.7c-0.2-0.1-0.6-0.2-1-0.2
		c-0.5,0-0.9,0.1-1.1,0.4c-0.1,0.2-0.2,0.4-0.2,0.7h-0.9c0-0.7,0.2-1.2,0.7-1.5c0.4-0.3,1-0.4,1.5-0.4c0.7,0,1.2,0.1,1.6,0.4
		c0.4,0.3,0.6,0.7,0.6,1.2v3.3c0,0.1,0,0.2,0.1,0.2c0,0.1,0.1,0.1,0.3,0.1c0,0,0.1,0,0.1,0c0.1,0,0.1,0,0.2,0v0.7
		c-0.2,0-0.3,0.1-0.3,0.1s-0.2,0-0.3,0c-0.3,0-0.6-0.1-0.7-0.4c-0.1-0.1-0.1-0.3-0.2-0.5c-0.2,0.3-0.5,0.5-0.8,0.7
		c-0.4,0.2-0.8,0.3-1.2,0.3c-0.5,0-1-0.2-1.3-0.5c-0.3-0.3-0.5-0.7-0.5-1.2c0-0.5,0.2-0.9,0.5-1.2s0.8-0.5,1.3-0.5L145.4,30.7z
		 M143.4,33.3c0.2,0.2,0.4,0.2,0.7,0.2c0.3,0,0.7-0.1,1-0.2c0.5-0.3,0.8-0.7,0.8-1.3v-0.8c-0.1,0.1-0.3,0.1-0.5,0.2
		c-0.2,0.1-0.4,0.1-0.5,0.1l-0.6,0.1c-0.4,0-0.6,0.1-0.8,0.2c-0.3,0.2-0.4,0.4-0.4,0.8C143.1,33,143.2,33.2,143.4,33.3z"/>
</g>
<g class="st1">
	<path class="st2" d="M151.1,28.5h1.1c-0.1,0.4-0.4,1.2-0.9,2.5c-0.4,1-0.6,1.8-0.9,2.4c-0.6,1.5-1,2.4-1.2,2.7s-0.6,0.5-1.2,0.5
		c-0.1,0-0.2,0-0.3,0s-0.2,0-0.3-0.1v-0.9c0.2,0,0.3,0.1,0.4,0.1c0.1,0,0.1,0,0.2,0c0.2,0,0.3,0,0.4-0.1c0.1-0.1,0.2-0.1,0.2-0.2
		c0,0,0.1-0.2,0.2-0.4s0.2-0.5,0.2-0.6l-2.1-5.9h1.1l1.5,4.7L151.1,28.5z"/>
	<path class="st2" d="M153,26.3h1v1.1h-1V26.3z M153,28.5h1v5.7h-1V28.5z"/>
	<path class="st2" d="M155.5,28.5h0.9v0.8c0.3-0.3,0.6-0.6,0.9-0.7s0.6-0.2,1-0.2c0.8,0,1.4,0.3,1.7,0.9c0.2,0.3,0.2,0.8,0.2,1.3
		v3.7h-1v-3.6c0-0.4-0.1-0.6-0.2-0.8c-0.2-0.4-0.5-0.5-0.9-0.5c-0.2,0-0.4,0-0.6,0.1c-0.3,0.1-0.5,0.2-0.7,0.5
		c-0.2,0.2-0.3,0.4-0.3,0.6c0,0.2-0.1,0.5-0.1,0.9v3h-1V28.5z"/>
	<path class="st2" d="M164.8,28.7c0.2,0.1,0.4,0.3,0.6,0.5v-0.7h0.9v5.2c0,0.7-0.1,1.3-0.3,1.7c-0.4,0.8-1.2,1.2-2.3,1.2
		c-0.6,0-1.1-0.1-1.6-0.4c-0.4-0.3-0.7-0.7-0.7-1.3h1c0,0.3,0.1,0.5,0.3,0.6c0.2,0.2,0.6,0.3,1,0.3c0.7,0,1.2-0.3,1.4-0.8
		c0.1-0.3,0.2-0.9,0.2-1.6c-0.2,0.3-0.4,0.5-0.7,0.7c-0.3,0.1-0.6,0.2-1.1,0.2c-0.6,0-1.2-0.2-1.6-0.7s-0.7-1.2-0.7-2.2
		c0-1,0.2-1.7,0.7-2.3c0.5-0.5,1-0.8,1.7-0.8C164.1,28.4,164.4,28.5,164.8,28.7z M164.9,29.7c-0.3-0.3-0.7-0.5-1.1-0.5
		c-0.7,0-1.1,0.3-1.4,1c-0.1,0.3-0.2,0.8-0.2,1.3c0,0.6,0.1,1.1,0.4,1.5c0.3,0.3,0.6,0.5,1.1,0.5c0.7,0,1.2-0.3,1.5-0.9
		c0.2-0.4,0.2-0.8,0.2-1.2C165.3,30.6,165.2,30.1,164.9,29.7z"/>
	<path class="st2" d="M174.9,29c0.5,0.5,0.8,1.2,0.8,2.2c0,0.9-0.2,1.7-0.7,2.3s-1.1,0.9-2.1,0.9c-0.8,0-1.4-0.3-1.9-0.8
		c-0.5-0.5-0.7-1.3-0.7-2.2c0-1,0.2-1.7,0.7-2.3s1.1-0.9,2-0.9C173.8,28.3,174.4,28.5,174.9,29z M174.3,32.9c0.2-0.5,0.4-1,0.4-1.6
		c0-0.5-0.1-1-0.3-1.3c-0.3-0.5-0.7-0.8-1.4-0.8c-0.6,0-1,0.2-1.3,0.7c-0.3,0.5-0.4,1-0.4,1.6c0,0.6,0.1,1.1,0.4,1.5
		c0.3,0.4,0.7,0.6,1.3,0.6C173.7,33.6,174.1,33.3,174.3,32.9z"/>
	<path class="st2" d="M176.9,28.5h0.9v1c0.1-0.2,0.3-0.4,0.6-0.7c0.3-0.3,0.6-0.4,1-0.4c0,0,0,0,0.1,0s0.1,0,0.2,0v1
		c-0.1,0-0.1,0-0.2,0c0,0-0.1,0-0.2,0c-0.5,0-0.9,0.2-1.1,0.5c-0.3,0.3-0.4,0.7-0.4,1.1v3.3h-1V28.5z"/>
	<path class="st2" d="M183.6,28.5h0.9v0.8c0.3-0.3,0.6-0.6,0.9-0.7c0.3-0.1,0.6-0.2,1-0.2c0.8,0,1.4,0.3,1.7,0.9
		c0.2,0.3,0.2,0.8,0.2,1.3v3.7h-1v-3.6c0-0.4-0.1-0.6-0.2-0.8c-0.2-0.4-0.5-0.5-0.9-0.5c-0.2,0-0.4,0-0.6,0.1
		c-0.3,0.1-0.5,0.2-0.7,0.5c-0.2,0.2-0.3,0.4-0.3,0.6c0,0.2-0.1,0.5-0.1,0.9v3h-1V28.5z"/>
	<path class="st2" d="M193.3,28.6c0.4,0.2,0.7,0.4,0.9,0.7c0.2,0.3,0.3,0.6,0.4,1c0.1,0.3,0.1,0.7,0.1,1.3h-4.2
		c0,0.6,0.2,1.1,0.4,1.4s0.7,0.5,1.2,0.5c0.5,0,0.9-0.2,1.2-0.5c0.2-0.2,0.3-0.4,0.4-0.7h1c0,0.2-0.1,0.4-0.2,0.7s-0.3,0.5-0.5,0.6
		c-0.3,0.3-0.7,0.5-1.1,0.6c-0.2,0.1-0.5,0.1-0.8,0.1c-0.7,0-1.3-0.3-1.8-0.8c-0.5-0.5-0.7-1.3-0.7-2.2c0-0.9,0.2-1.7,0.7-2.3
		c0.5-0.6,1.1-0.9,2-0.9C192.5,28.3,192.9,28.4,193.3,28.6z M193.6,30.9c0-0.4-0.1-0.8-0.3-1c-0.3-0.5-0.7-0.7-1.3-0.7
		c-0.4,0-0.8,0.2-1.1,0.5c-0.3,0.3-0.5,0.7-0.5,1.2H193.6z"/>
	<path class="st2" d="M196.8,28.5v3.8c0,0.3,0,0.5,0.1,0.7c0.2,0.3,0.5,0.5,0.9,0.5c0.7,0,1.1-0.3,1.3-0.9c0.1-0.3,0.2-0.8,0.2-1.3
		v-2.8h1v5.8h-0.9l0-0.8c-0.1,0.2-0.3,0.4-0.5,0.6c-0.4,0.3-0.8,0.5-1.3,0.5c-0.8,0-1.4-0.3-1.6-0.8c-0.2-0.3-0.2-0.7-0.2-1.2v-3.9
		H196.8z"/>
</g>
<g class="st1">
	<path class="st2" d="M199.7,26.9h1v1.6h0.9v0.8h-0.9V33c0,0.2,0.1,0.3,0.2,0.4c0.1,0,0.2,0.1,0.4,0.1c0,0,0.1,0,0.2,0
		c0.1,0,0.1,0,0.2,0v0.8c-0.1,0-0.2,0.1-0.3,0.1c-0.1,0-0.2,0-0.4,0c-0.5,0-0.8-0.1-0.9-0.3c-0.2-0.2-0.2-0.5-0.2-0.9v-3.8h-0.8
		v-0.8h0.8V26.9z"/>
</g>
<g class="st1">
	<path class="st2" d="M206.6,28.6c0.4,0.2,0.7,0.4,0.9,0.7c0.2,0.3,0.3,0.6,0.4,1c0.1,0.3,0.1,0.7,0.1,1.3h-4.2
		c0,0.6,0.2,1.1,0.4,1.4s0.7,0.5,1.2,0.5c0.5,0,0.9-0.2,1.2-0.5c0.2-0.2,0.3-0.4,0.4-0.7h1c0,0.2-0.1,0.4-0.2,0.7s-0.3,0.5-0.5,0.6
		c-0.3,0.3-0.7,0.5-1.1,0.6c-0.2,0.1-0.5,0.1-0.8,0.1c-0.7,0-1.3-0.3-1.8-0.8c-0.5-0.5-0.7-1.3-0.7-2.2c0-0.9,0.2-1.7,0.7-2.3
		c0.5-0.6,1.1-0.9,2-0.9C205.9,28.3,206.3,28.4,206.6,28.6z M207,30.9c0-0.4-0.1-0.8-0.3-1c-0.3-0.5-0.7-0.7-1.3-0.7
		c-0.4,0-0.8,0.2-1.1,0.5c-0.3,0.3-0.5,0.7-0.5,1.2H207z"/>
</g>
<g class="st1">
	<path class="st2" d="M208.6,28.5h0.9v1c0.1-0.2,0.3-0.4,0.6-0.7c0.3-0.3,0.6-0.4,1-0.4c0,0,0,0,0.1,0s0.1,0,0.2,0v1
		c-0.1,0-0.1,0-0.2,0c0,0-0.1,0-0.2,0c-0.5,0-0.9,0.2-1.1,0.5c-0.3,0.3-0.4,0.7-0.4,1.1v3.3h-1V28.5z"/>
</g>
<g class="st1">
	<path class="st2" d="M212.2,26.3h1v1.1h-1V26.3z M212.2,28.5h1v5.7h-1V28.5z"/>
	<path class="st2" d="M214.7,28.5h0.9v0.8c0.3-0.3,0.6-0.6,0.9-0.7c0.3-0.1,0.6-0.2,1-0.2c0.8,0,1.4,0.3,1.7,0.9
		c0.2,0.3,0.2,0.8,0.2,1.3v3.7h-1v-3.6c0-0.4-0.1-0.6-0.2-0.8c-0.2-0.4-0.5-0.5-0.9-0.5c-0.2,0-0.4,0-0.6,0.1
		c-0.3,0.1-0.5,0.2-0.7,0.5c-0.2,0.2-0.3,0.4-0.3,0.6c0,0.2-0.1,0.5-0.1,0.9v3h-1V28.5z"/>
	<path class="st2" d="M224,28.7c0.2,0.1,0.4,0.3,0.6,0.5v-0.7h0.9v5.2c0,0.7-0.1,1.3-0.3,1.7c-0.4,0.8-1.2,1.2-2.3,1.2
		c-0.6,0-1.1-0.1-1.6-0.4s-0.7-0.7-0.7-1.3h1c0,0.3,0.1,0.5,0.3,0.6c0.2,0.2,0.6,0.3,1,0.3c0.7,0,1.2-0.3,1.4-0.8
		c0.1-0.3,0.2-0.9,0.2-1.6c-0.2,0.3-0.4,0.5-0.7,0.7c-0.3,0.1-0.6,0.2-1.1,0.2c-0.6,0-1.2-0.2-1.6-0.7c-0.5-0.4-0.7-1.2-0.7-2.2
		c0-1,0.2-1.7,0.7-2.3c0.5-0.5,1-0.8,1.7-0.8C223.3,28.4,223.7,28.5,224,28.7z M224.1,29.7c-0.3-0.3-0.7-0.5-1.1-0.5
		c-0.7,0-1.1,0.3-1.4,1c-0.1,0.3-0.2,0.8-0.2,1.3c0,0.6,0.1,1.1,0.4,1.5c0.3,0.3,0.6,0.5,1.1,0.5c0.7,0,1.2-0.3,1.5-0.9
		c0.2-0.4,0.2-0.8,0.2-1.2C224.5,30.6,224.4,30.1,224.1,29.7z"/>
	<path class="st2" d="M232.5,26.2c-0.6,1.1-0.9,1.9-1.1,2.4c-0.3,0.8-0.4,1.7-0.4,2.7c0,1,0.1,2,0.4,2.8c0.2,0.5,0.5,1.3,1.1,2.3
		h-0.7c-0.5-0.8-0.8-1.3-1-1.6c-0.1-0.2-0.3-0.5-0.4-0.9c-0.2-0.5-0.3-1.1-0.4-1.7c0-0.3-0.1-0.6-0.1-0.9c0-1.1,0.2-2,0.5-2.8
		c0.2-0.5,0.7-1.3,1.3-2.4H232.5z"/>
	<path class="st2" d="M234.6,28.5v3.8c0,0.3,0,0.5,0.1,0.7c0.2,0.3,0.5,0.5,0.9,0.5c0.7,0,1.1-0.3,1.3-0.9c0.1-0.3,0.2-0.8,0.2-1.3
		v-2.8h1v5.8h-0.9l0-0.8c-0.1,0.2-0.3,0.4-0.5,0.6c-0.4,0.3-0.8,0.5-1.3,0.5c-0.8,0-1.4-0.3-1.6-0.8c-0.2-0.3-0.2-0.7-0.2-1.2v-3.9
		H234.6z"/>
	<path class="st2" d="M240.3,32.4c0,0.3,0.1,0.6,0.2,0.7c0.2,0.3,0.7,0.5,1.3,0.5c0.4,0,0.7-0.1,1-0.2c0.3-0.2,0.4-0.4,0.4-0.7
		c0-0.2-0.1-0.4-0.3-0.6c-0.1-0.1-0.4-0.2-0.8-0.3l-0.8-0.2c-0.5-0.1-0.9-0.3-1.1-0.4c-0.4-0.3-0.6-0.6-0.6-1.1c0-0.5,0.2-1,0.6-1.3
		c0.4-0.3,0.9-0.5,1.6-0.5c0.9,0,1.5,0.3,1.9,0.8c0.2,0.3,0.4,0.7,0.4,1h-0.9c0-0.2-0.1-0.4-0.2-0.6c-0.2-0.3-0.6-0.4-1.2-0.4
		c-0.4,0-0.7,0.1-0.8,0.2c-0.2,0.1-0.3,0.3-0.3,0.6c0,0.2,0.1,0.5,0.4,0.6c0.1,0.1,0.4,0.2,0.6,0.2l0.7,0.2c0.7,0.2,1.2,0.3,1.4,0.5
		c0.4,0.2,0.6,0.6,0.6,1.2c0,0.5-0.2,1-0.6,1.3c-0.4,0.4-1,0.6-1.8,0.6c-0.9,0-1.5-0.2-1.8-0.6c-0.4-0.4-0.6-0.9-0.6-1.4H240.3z"/>
	<path class="st2" d="M246.2,28.5v3.8c0,0.3,0,0.5,0.1,0.7c0.2,0.3,0.5,0.5,0.9,0.5c0.7,0,1.1-0.3,1.3-0.9c0.1-0.3,0.2-0.8,0.2-1.3
		v-2.8h1v5.8h-0.9l0-0.8c-0.1,0.2-0.3,0.4-0.5,0.6c-0.4,0.3-0.8,0.5-1.3,0.5c-0.8,0-1.4-0.3-1.6-0.8c-0.2-0.3-0.2-0.7-0.2-1.2v-3.9
		H246.2z"/>
	<path class="st2" d="M254.4,30.7c0.2,0,0.4-0.1,0.4-0.3c0-0.1,0.1-0.2,0.1-0.4c0-0.3-0.1-0.6-0.4-0.7c-0.2-0.1-0.6-0.2-1-0.2
		c-0.5,0-0.9,0.1-1.1,0.4c-0.1,0.2-0.2,0.4-0.2,0.7h-0.9c0-0.7,0.2-1.2,0.7-1.5s1-0.4,1.5-0.4c0.7,0,1.2,0.1,1.6,0.4
		c0.4,0.3,0.6,0.7,0.6,1.2v3.3c0,0.1,0,0.2,0.1,0.2c0,0.1,0.1,0.1,0.3,0.1c0,0,0.1,0,0.1,0c0.1,0,0.1,0,0.2,0v0.7
		c-0.2,0-0.3,0.1-0.3,0.1c-0.1,0-0.2,0-0.3,0c-0.3,0-0.6-0.1-0.7-0.4c-0.1-0.1-0.1-0.3-0.2-0.5c-0.2,0.3-0.5,0.5-0.8,0.7
		c-0.4,0.2-0.8,0.3-1.2,0.3c-0.5,0-1-0.2-1.3-0.5c-0.3-0.3-0.5-0.7-0.5-1.2c0-0.5,0.2-0.9,0.5-1.2s0.8-0.5,1.3-0.5L254.4,30.7z
		 M252.4,33.3c0.2,0.2,0.4,0.2,0.7,0.2c0.3,0,0.7-0.1,1-0.2c0.5-0.3,0.8-0.7,0.8-1.3v-0.8c-0.1,0.1-0.3,0.1-0.5,0.2
		c-0.2,0.1-0.4,0.1-0.5,0.1l-0.6,0.1c-0.4,0-0.6,0.1-0.8,0.2c-0.3,0.2-0.4,0.4-0.4,0.8C252.1,33,252.2,33.2,252.4,33.3z"/>
	<path class="st2" d="M257.5,26.3h1v7.9h-1V26.3z"/>
	<path class="st2" d="M260,26.3h1v7.9h-1V26.3z"/>
	<path class="st2" d="M266,28.5h1.1c-0.1,0.4-0.4,1.2-0.9,2.5c-0.4,1-0.6,1.8-0.9,2.4c-0.6,1.5-1,2.4-1.2,2.7
		c-0.2,0.3-0.6,0.5-1.2,0.5c-0.1,0-0.2,0-0.3,0s-0.2,0-0.3-0.1v-0.9c0.2,0,0.3,0.1,0.4,0.1c0.1,0,0.1,0,0.2,0c0.2,0,0.3,0,0.4-0.1
		c0.1-0.1,0.2-0.1,0.2-0.2c0,0,0.1-0.2,0.2-0.4c0.1-0.3,0.2-0.5,0.2-0.6l-2.1-5.9h1.1l1.5,4.7L266,28.5z"/>
	<path class="st2" d="M270.9,26.3h1v1.1h-1V26.3z M270.9,28.5h1v5.7h-1V28.5z"/>
	<path class="st2" d="M273.4,28.5h0.9v0.8c0.3-0.3,0.6-0.6,0.9-0.7c0.3-0.1,0.6-0.2,1-0.2c0.8,0,1.4,0.3,1.7,0.9
		c0.2,0.3,0.2,0.8,0.2,1.3v3.7h-1v-3.6c0-0.4-0.1-0.6-0.2-0.8c-0.2-0.4-0.5-0.5-0.9-0.5c-0.2,0-0.4,0-0.6,0.1
		c-0.3,0.1-0.5,0.2-0.7,0.5c-0.2,0.2-0.3,0.4-0.3,0.6c0,0.2-0.1,0.5-0.1,0.9v3h-1V28.5z"/>
	<path class="st2" d="M283,26.7c0.2-0.3,0.7-0.5,1.3-0.5c0.1,0,0.1,0,0.2,0c0.1,0,0.1,0,0.2,0v0.9c-0.1,0-0.2,0-0.2,0s-0.1,0-0.1,0
		c-0.3,0-0.5,0.1-0.5,0.2s-0.1,0.5-0.1,1.2h1v0.8h-1v5h-1v-5H282v-0.8h0.8v-0.9C282.8,27.2,282.9,26.9,283,26.7z"/>
	<path class="st2" d="M285.6,26.3h1v1.1h-1V26.3z M285.6,28.5h1v5.7h-1V28.5z"/>
	<path class="st2" d="M288.1,28.5h0.9v1c0.1-0.2,0.3-0.4,0.6-0.7c0.3-0.3,0.6-0.4,1-0.4c0,0,0,0,0.1,0s0.1,0,0.2,0v1
		c-0.1,0-0.1,0-0.2,0c0,0-0.1,0-0.2,0c-0.5,0-0.9,0.2-1.1,0.5c-0.3,0.3-0.4,0.7-0.4,1.1v3.3h-1V28.5z"/>
	<path class="st2" d="M292.3,32.4c0,0.3,0.1,0.6,0.2,0.7c0.2,0.3,0.7,0.5,1.3,0.5c0.4,0,0.7-0.1,1-0.2c0.3-0.2,0.4-0.4,0.4-0.7
		c0-0.2-0.1-0.4-0.3-0.6c-0.1-0.1-0.4-0.2-0.8-0.3l-0.8-0.2c-0.5-0.1-0.9-0.3-1.1-0.4c-0.4-0.3-0.6-0.6-0.6-1.1c0-0.5,0.2-1,0.6-1.3
		c0.4-0.3,0.9-0.5,1.6-0.5c0.9,0,1.5,0.3,1.9,0.8c0.2,0.3,0.4,0.7,0.4,1h-0.9c0-0.2-0.1-0.4-0.2-0.6c-0.2-0.3-0.6-0.4-1.2-0.4
		c-0.4,0-0.7,0.1-0.8,0.2c-0.2,0.1-0.3,0.3-0.3,0.6c0,0.2,0.1,0.5,0.4,0.6c0.1,0.1,0.4,0.2,0.6,0.2l0.7,0.2c0.7,0.2,1.2,0.3,1.4,0.5
		c0.4,0.2,0.6,0.6,0.6,1.2c0,0.5-0.2,1-0.6,1.3c-0.4,0.4-1,0.6-1.8,0.6c-0.9,0-1.5-0.2-1.8-0.6c-0.4-0.4-0.6-0.9-0.6-1.4H292.3z"/>
	<path class="st2" d="M297.4,26.9h1v1.6h0.9v0.8h-0.9V33c0,0.2,0.1,0.3,0.2,0.4c0.1,0,0.2,0.1,0.4,0.1c0,0,0.1,0,0.2,0
		c0.1,0,0.1,0,0.2,0v0.8c-0.1,0-0.2,0.1-0.3,0.1c-0.1,0-0.2,0-0.4,0c-0.5,0-0.8-0.1-0.9-0.3c-0.2-0.2-0.2-0.5-0.2-0.9v-3.8h-0.8
		v-0.8h0.8V26.9z"/>
</g>
<g class="st1">
	<path class="st2" d="M301.3,28.5h1.1c-0.1,0.4-0.4,1.2-0.9,2.5c-0.4,1-0.6,1.8-0.9,2.4c-0.6,1.5-1,2.4-1.2,2.7
		c-0.2,0.3-0.6,0.5-1.2,0.5c-0.1,0-0.2,0-0.3,0s-0.2,0-0.3-0.1v-0.9c0.2,0,0.3,0.1,0.4,0.1c0.1,0,0.1,0,0.2,0c0.2,0,0.3,0,0.4-0.1
		c0.1-0.1,0.2-0.1,0.2-0.2c0,0,0.1-0.2,0.2-0.4c0.1-0.3,0.2-0.5,0.2-0.6l-2.1-5.9h1.1l1.5,4.7L301.3,28.5z"/>
</g>
<g class="st1">
	<path class="st2" d="M306.3,28.6c0.4,0.2,0.7,0.4,0.9,0.7c0.2,0.3,0.3,0.6,0.4,1c0.1,0.3,0.1,0.7,0.1,1.3h-4.2
		c0,0.6,0.2,1.1,0.4,1.4s0.7,0.5,1.2,0.5c0.5,0,0.9-0.2,1.2-0.5c0.2-0.2,0.3-0.4,0.4-0.7h1c0,0.2-0.1,0.4-0.2,0.7s-0.3,0.5-0.5,0.6
		c-0.3,0.3-0.7,0.5-1.1,0.6c-0.2,0.1-0.5,0.1-0.8,0.1c-0.7,0-1.3-0.3-1.8-0.8c-0.5-0.5-0.7-1.3-0.7-2.2c0-0.9,0.2-1.7,0.7-2.3
		c0.5-0.6,1.1-0.9,2-0.9C305.5,28.3,305.9,28.4,306.3,28.6z M306.6,30.9c0-0.4-0.1-0.8-0.3-1c-0.3-0.5-0.7-0.7-1.3-0.7
		c-0.4,0-0.8,0.2-1.1,0.5c-0.3,0.3-0.5,0.7-0.5,1.2H306.6z"/>
	<path class="st2" d="M311.9,30.7c0.2,0,0.4-0.1,0.4-0.3c0-0.1,0.1-0.2,0.1-0.4c0-0.3-0.1-0.6-0.4-0.7c-0.2-0.1-0.6-0.2-1-0.2
		c-0.5,0-0.9,0.1-1.1,0.4c-0.1,0.2-0.2,0.4-0.2,0.7h-0.9c0-0.7,0.2-1.2,0.7-1.5s1-0.4,1.5-0.4c0.7,0,1.2,0.1,1.6,0.4
		c0.4,0.3,0.6,0.7,0.6,1.2v3.3c0,0.1,0,0.2,0.1,0.2c0,0.1,0.1,0.1,0.3,0.1c0,0,0.1,0,0.1,0c0.1,0,0.1,0,0.2,0v0.7
		c-0.2,0-0.3,0.1-0.3,0.1c-0.1,0-0.2,0-0.3,0c-0.3,0-0.6-0.1-0.7-0.4c-0.1-0.1-0.1-0.3-0.2-0.5c-0.2,0.3-0.5,0.5-0.8,0.7
		c-0.4,0.2-0.8,0.3-1.2,0.3c-0.5,0-1-0.2-1.3-0.5c-0.3-0.3-0.5-0.7-0.5-1.2c0-0.5,0.2-0.9,0.5-1.2s0.8-0.5,1.3-0.5L311.9,30.7z
		 M309.9,33.3c0.2,0.2,0.4,0.2,0.7,0.2c0.3,0,0.7-0.1,1-0.2c0.5-0.3,0.8-0.7,0.8-1.3v-0.8c-0.1,0.1-0.3,0.1-0.5,0.2
		c-0.2,0.1-0.4,0.1-0.5,0.1l-0.6,0.1c-0.4,0-0.6,0.1-0.8,0.2c-0.3,0.2-0.4,0.4-0.4,0.8C309.6,33,309.7,33.2,309.9,33.3z"/>
	<path class="st2" d="M315,28.5h0.9v1c0.1-0.2,0.3-0.4,0.6-0.7c0.3-0.3,0.6-0.4,1-0.4c0,0,0,0,0.1,0s0.1,0,0.2,0v1
		c-0.1,0-0.1,0-0.2,0c0,0-0.1,0-0.2,0c-0.5,0-0.9,0.2-1.1,0.5c-0.3,0.3-0.4,0.7-0.4,1.1v3.3h-1V28.5z"/>
	<path class="st2" d="M318.3,36.5c0.6-1.1,0.9-1.9,1.1-2.4c0.2-0.8,0.4-1.7,0.4-2.7s-0.1-2-0.4-2.8c-0.2-0.5-0.5-1.3-1.1-2.3h0.6
		c0.6,0.9,0.9,1.4,1,1.6s0.2,0.5,0.4,0.9c0.2,0.4,0.3,0.9,0.4,1.3c0.1,0.4,0.1,0.9,0.1,1.3c0,1.1-0.2,2-0.5,2.8
		c-0.2,0.5-0.6,1.3-1.3,2.4H318.3z"/>
	<path class="st2" d="M322.5,35.3c0.2,0,0.4-0.2,0.5-0.5c0.1-0.2,0.1-0.3,0.1-0.5c0,0,0,0,0-0.1s0,0,0-0.1h-0.6V33h1.1v1.1
		c0,0.4-0.1,0.8-0.3,1.1s-0.5,0.5-0.9,0.6V35.3z"/>
</g>
<g class="st1">
	<path class="st2" d="M174.4,39.5h1v1.1h-1V39.5z M174.4,41.7h1v5.7h-1V41.7z"/>
	<path class="st2" d="M176.8,41.7h0.9v0.8c0.3-0.3,0.6-0.6,0.9-0.7c0.3-0.1,0.6-0.2,1-0.2c0.8,0,1.4,0.3,1.7,0.9
		c0.2,0.3,0.2,0.8,0.2,1.3v3.7h-1v-3.6c0-0.4-0.1-0.6-0.2-0.8c-0.2-0.4-0.5-0.5-0.9-0.5c-0.2,0-0.4,0-0.6,0.1
		c-0.3,0.1-0.5,0.2-0.7,0.5c-0.2,0.2-0.3,0.4-0.3,0.6c0,0.2-0.1,0.5-0.1,0.9v3h-1V41.7z"/>
	<path class="st2" d="M187.1,42.2c0.5,0.5,0.8,1.2,0.8,2.2c0,0.9-0.2,1.7-0.7,2.3c-0.4,0.6-1.1,0.9-2.1,0.9c-0.8,0-1.4-0.3-1.9-0.8
		c-0.5-0.5-0.7-1.3-0.7-2.2c0-1,0.2-1.7,0.7-2.3c0.5-0.6,1.1-0.9,2-0.9C186,41.5,186.6,41.7,187.1,42.2z M186.5,46.1
		c0.2-0.5,0.4-1,0.4-1.6c0-0.5-0.1-1-0.3-1.3c-0.3-0.5-0.7-0.8-1.4-0.8c-0.6,0-1,0.2-1.3,0.7c-0.3,0.5-0.4,1-0.4,1.6
		c0,0.6,0.1,1.1,0.4,1.5c0.3,0.4,0.7,0.6,1.3,0.6C185.8,46.8,186.3,46.5,186.5,46.1z"/>
	<path class="st2" d="M192.8,42c0.4,0.3,0.7,0.9,0.7,1.6h-0.9c-0.1-0.4-0.2-0.6-0.4-0.9s-0.5-0.4-1-0.4c-0.6,0-1.1,0.3-1.3,0.9
		c-0.2,0.4-0.3,0.9-0.3,1.4c0,0.6,0.1,1.1,0.4,1.5c0.2,0.4,0.6,0.6,1.1,0.6c0.4,0,0.7-0.1,1-0.4s0.4-0.6,0.5-1h0.9
		c-0.1,0.8-0.4,1.3-0.8,1.7s-1,0.5-1.6,0.5c-0.8,0-1.4-0.3-1.8-0.8c-0.4-0.5-0.7-1.2-0.7-2.1c0-1,0.2-1.8,0.7-2.4
		c0.5-0.6,1.1-0.8,1.9-0.8C191.9,41.5,192.4,41.6,192.8,42z"/>
	<path class="st2" d="M195.5,41.7v3.8c0,0.3,0,0.5,0.1,0.7c0.2,0.3,0.5,0.5,0.9,0.5c0.7,0,1.1-0.3,1.3-0.9c0.1-0.3,0.2-0.8,0.2-1.3
		v-2.8h1v5.8h-0.9l0-0.8c-0.1,0.2-0.3,0.4-0.5,0.6c-0.4,0.3-0.8,0.5-1.3,0.5c-0.8,0-1.4-0.3-1.6-0.8c-0.2-0.3-0.2-0.7-0.2-1.2v-3.9
		H195.5z"/>
	<path class="st2" d="M200.7,39.5h1v7.9h-1V39.5z"/>
</g>
<g class="st1">
	<path class="st2" d="M205.8,43.9c0.2,0,0.4-0.1,0.4-0.3c0-0.1,0.1-0.2,0.1-0.4c0-0.3-0.1-0.6-0.4-0.7c-0.2-0.1-0.6-0.2-1-0.2
		c-0.5,0-0.9,0.1-1.1,0.4c-0.1,0.2-0.2,0.4-0.2,0.7h-0.9c0-0.7,0.2-1.2,0.7-1.5s1-0.4,1.5-0.4c0.7,0,1.2,0.1,1.6,0.4
		c0.4,0.3,0.6,0.7,0.6,1.2v3.3c0,0.1,0,0.2,0.1,0.2c0,0.1,0.1,0.1,0.3,0.1c0,0,0.1,0,0.1,0c0.1,0,0.1,0,0.2,0v0.7
		c-0.2,0-0.3,0.1-0.3,0.1c-0.1,0-0.2,0-0.3,0c-0.3,0-0.6-0.1-0.7-0.4c-0.1-0.1-0.1-0.3-0.2-0.5c-0.2,0.3-0.5,0.5-0.8,0.7
		c-0.4,0.2-0.8,0.3-1.2,0.3c-0.5,0-1-0.2-1.3-0.5c-0.3-0.3-0.5-0.7-0.5-1.2c0-0.5,0.2-0.9,0.5-1.2s0.8-0.5,1.3-0.5L205.8,43.9z
		 M203.7,46.5c0.2,0.2,0.4,0.2,0.7,0.2c0.3,0,0.7-0.1,1-0.2c0.5-0.3,0.8-0.7,0.8-1.3v-0.8c-0.1,0.1-0.3,0.1-0.5,0.2
		c-0.2,0.1-0.4,0.1-0.5,0.1l-0.6,0.1c-0.4,0-0.6,0.1-0.8,0.2c-0.3,0.2-0.4,0.4-0.4,0.8C203.4,46.2,203.5,46.4,203.7,46.5z"/>
</g>
<g class="st1">
	<path class="st2" d="M208.1,40.1h1v1.6h0.9v0.8h-0.9v3.8c0,0.2,0.1,0.3,0.2,0.4c0.1,0,0.2,0.1,0.4,0.1c0,0,0.1,0,0.2,0
		c0.1,0,0.1,0,0.2,0v0.8c-0.1,0-0.2,0.1-0.3,0.1c-0.1,0-0.2,0-0.4,0c-0.5,0-0.8-0.1-0.9-0.3c-0.2-0.2-0.2-0.5-0.2-0.9v-3.8h-0.8
		v-0.8h0.8V40.1z"/>
	<path class="st2" d="M211,39.5h1v1.1h-1V39.5z M211,41.7h1v5.7h-1V41.7z"/>
	<path class="st2" d="M217.6,42.2c0.5,0.5,0.8,1.2,0.8,2.2c0,0.9-0.2,1.7-0.7,2.3s-1.1,0.9-2.1,0.9c-0.8,0-1.4-0.3-1.9-0.8
		c-0.5-0.5-0.7-1.3-0.7-2.2c0-1,0.2-1.7,0.7-2.3s1.1-0.9,2-0.9C216.5,41.5,217.1,41.7,217.6,42.2z M217,46.1c0.2-0.5,0.4-1,0.4-1.6
		c0-0.5-0.1-1-0.3-1.3c-0.3-0.5-0.7-0.8-1.4-0.8c-0.6,0-1,0.2-1.3,0.7c-0.3,0.5-0.4,1-0.4,1.6c0,0.6,0.1,1.1,0.4,1.5
		c0.3,0.4,0.7,0.6,1.3,0.6C216.3,46.8,216.8,46.5,217,46.1z"/>
	<path class="st2" d="M219.5,41.7h0.9v0.8c0.3-0.3,0.6-0.6,0.9-0.7c0.3-0.1,0.6-0.2,1-0.2c0.8,0,1.4,0.3,1.7,0.9
		c0.2,0.3,0.2,0.8,0.2,1.3v3.7h-1v-3.6c0-0.4-0.1-0.6-0.2-0.8c-0.2-0.4-0.5-0.5-0.9-0.5c-0.2,0-0.4,0-0.6,0.1
		c-0.3,0.1-0.5,0.2-0.7,0.5c-0.2,0.2-0.3,0.4-0.3,0.6c0,0.2-0.1,0.5-0.1,0.9v3h-1V41.7z"/>
</g>
<g class="st1">
	<path class="st2" d="M226.9,45.6c0,0.3,0.1,0.6,0.2,0.7c0.2,0.3,0.7,0.5,1.3,0.5c0.4,0,0.7-0.1,1-0.2c0.3-0.2,0.4-0.4,0.4-0.7
		c0-0.2-0.1-0.4-0.3-0.6c-0.1-0.1-0.4-0.2-0.8-0.3l-0.8-0.2c-0.5-0.1-0.9-0.3-1.1-0.4c-0.4-0.3-0.6-0.6-0.6-1.1c0-0.5,0.2-1,0.6-1.3
		c0.4-0.3,0.9-0.5,1.6-0.5c0.9,0,1.5,0.3,1.9,0.8c0.2,0.3,0.4,0.7,0.4,1h-0.9c0-0.2-0.1-0.4-0.2-0.6c-0.2-0.3-0.6-0.4-1.2-0.4
		c-0.4,0-0.7,0.1-0.8,0.2c-0.2,0.1-0.3,0.3-0.3,0.6c0,0.2,0.1,0.5,0.4,0.6c0.1,0.1,0.4,0.2,0.6,0.2l0.7,0.2c0.7,0.2,1.2,0.3,1.4,0.5
		c0.4,0.2,0.6,0.6,0.6,1.2c0,0.5-0.2,1-0.6,1.3c-0.4,0.4-1,0.6-1.8,0.6c-0.9,0-1.5-0.2-1.8-0.6c-0.4-0.4-0.6-0.9-0.6-1.4H226.9z"/>
</g>
<g class="st1">
	<path class="st2" d="M230.7,48.5c0.2,0,0.4-0.2,0.5-0.5c0.1-0.2,0.1-0.3,0.1-0.5c0,0,0,0,0-0.1c0,0,0,0,0-0.1h-0.6v-1.2h1.1v1.1
		c0,0.4-0.1,0.8-0.3,1.1s-0.5,0.5-0.9,0.6V48.5z"/>
</g>
<g class="st1">
	<path class="st2" d="M235.2,41.7h0.9v1c0.1-0.2,0.3-0.4,0.6-0.7c0.3-0.3,0.6-0.4,1-0.4c0,0,0,0,0.1,0s0.1,0,0.2,0v1
		c-0.1,0-0.1,0-0.2,0c0,0-0.1,0-0.2,0c-0.5,0-0.9,0.2-1.1,0.5c-0.3,0.3-0.4,0.7-0.4,1.1v3.3h-1V41.7z"/>
</g>
<g class="st1">
	<path class="st2" d="M242.2,41.8c0.4,0.2,0.7,0.4,0.9,0.7c0.2,0.3,0.3,0.6,0.4,1c0.1,0.3,0.1,0.7,0.1,1.3h-4.2
		c0,0.6,0.2,1.1,0.4,1.4s0.7,0.5,1.2,0.5c0.5,0,0.9-0.2,1.2-0.5c0.2-0.2,0.3-0.4,0.4-0.7h1c0,0.2-0.1,0.4-0.2,0.7s-0.3,0.5-0.5,0.6
		c-0.3,0.3-0.7,0.5-1.1,0.6c-0.2,0.1-0.5,0.1-0.8,0.1c-0.7,0-1.3-0.3-1.8-0.8c-0.5-0.5-0.7-1.3-0.7-2.2c0-0.9,0.2-1.7,0.7-2.3
		c0.5-0.6,1.1-0.9,2-0.9C241.4,41.5,241.8,41.6,242.2,41.8z M242.5,44.1c0-0.4-0.1-0.8-0.3-1c-0.3-0.5-0.7-0.7-1.3-0.7
		c-0.4,0-0.8,0.2-1.1,0.5c-0.3,0.3-0.5,0.7-0.5,1.2H242.5z"/>
	<path class="st2" d="M247.9,41.9c0.2,0.1,0.4,0.3,0.6,0.5v-0.7h0.9v5.2c0,0.7-0.1,1.3-0.3,1.7c-0.4,0.8-1.2,1.2-2.3,1.2
		c-0.6,0-1.1-0.1-1.6-0.4s-0.7-0.7-0.7-1.3h1c0,0.3,0.1,0.5,0.3,0.6c0.2,0.2,0.6,0.3,1,0.3c0.7,0,1.2-0.3,1.4-0.8
		c0.1-0.3,0.2-0.9,0.2-1.6c-0.2,0.3-0.4,0.5-0.7,0.7c-0.3,0.1-0.6,0.2-1.1,0.2c-0.6,0-1.2-0.2-1.6-0.7c-0.5-0.4-0.7-1.2-0.7-2.2
		c0-1,0.2-1.7,0.7-2.3c0.5-0.5,1-0.8,1.7-0.8C247.2,41.6,247.6,41.7,247.9,41.9z M248.1,42.9c-0.3-0.3-0.7-0.5-1.1-0.5
		c-0.7,0-1.1,0.3-1.4,1c-0.1,0.3-0.2,0.8-0.2,1.3c0,0.6,0.1,1.1,0.4,1.5c0.3,0.3,0.6,0.5,1.1,0.5c0.7,0,1.2-0.3,1.5-0.9
		c0.2-0.4,0.2-0.8,0.2-1.2C248.5,43.8,248.3,43.3,248.1,42.9z"/>
	<path class="st2" d="M251.8,41.7v3.8c0,0.3,0,0.5,0.1,0.7c0.2,0.3,0.5,0.5,0.9,0.5c0.7,0,1.1-0.3,1.3-0.9c0.1-0.3,0.2-0.8,0.2-1.3
		v-2.8h1v5.8h-0.9l0-0.8c-0.1,0.2-0.3,0.4-0.5,0.6c-0.4,0.3-0.8,0.5-1.3,0.5c-0.8,0-1.4-0.3-1.6-0.8c-0.2-0.3-0.2-0.7-0.2-1.2v-3.9
		H251.8z"/>
	<path class="st2" d="M257,39.5h1v7.9h-1V39.5z"/>
	<path class="st2" d="M262.5,43.9c0.2,0,0.4-0.1,0.4-0.3c0-0.1,0.1-0.2,0.1-0.4c0-0.3-0.1-0.6-0.4-0.7c-0.2-0.1-0.6-0.2-1-0.2
		c-0.5,0-0.9,0.1-1.1,0.4c-0.1,0.2-0.2,0.4-0.2,0.7h-0.9c0-0.7,0.2-1.2,0.7-1.5c0.4-0.3,1-0.4,1.5-0.4c0.7,0,1.2,0.1,1.6,0.4
		c0.4,0.3,0.6,0.7,0.6,1.2v3.3c0,0.1,0,0.2,0.1,0.2c0,0.1,0.1,0.1,0.3,0.1c0,0,0.1,0,0.1,0c0.1,0,0.1,0,0.2,0v0.7
		c-0.2,0-0.3,0.1-0.3,0.1c-0.1,0-0.2,0-0.3,0c-0.3,0-0.6-0.1-0.7-0.4c-0.1-0.1-0.1-0.3-0.2-0.5c-0.2,0.3-0.5,0.5-0.8,0.7
		c-0.4,0.2-0.8,0.3-1.2,0.3c-0.5,0-1-0.2-1.3-0.5c-0.3-0.3-0.5-0.7-0.5-1.2c0-0.5,0.2-0.9,0.5-1.2s0.8-0.5,1.3-0.5L262.5,43.9z
		 M260.5,46.5c0.2,0.2,0.4,0.2,0.7,0.2c0.3,0,0.7-0.1,1-0.2c0.5-0.3,0.8-0.7,0.8-1.3v-0.8c-0.1,0.1-0.3,0.1-0.5,0.2
		c-0.2,0.1-0.4,0.1-0.5,0.1l-0.6,0.1c-0.4,0-0.6,0.1-0.8,0.2c-0.3,0.2-0.4,0.4-0.4,0.8C260.2,46.2,260.3,46.4,260.5,46.5z"/>
	<path class="st2" d="M265.6,41.7h0.9v1c0.1-0.2,0.3-0.4,0.6-0.7c0.3-0.3,0.6-0.4,1-0.4c0,0,0,0,0.1,0s0.1,0,0.2,0v1
		c-0.1,0-0.1,0-0.2,0c0,0-0.1,0-0.2,0c-0.5,0-0.9,0.2-1.1,0.5c-0.3,0.3-0.4,0.7-0.4,1.1v3.3h-1V41.7z"/>
	<path class="st2" d="M276.1,42c0.4,0.3,0.7,0.9,0.7,1.6h-0.9c-0.1-0.4-0.2-0.6-0.4-0.9s-0.5-0.4-1-0.4c-0.6,0-1.1,0.3-1.3,0.9
		c-0.2,0.4-0.3,0.9-0.3,1.4c0,0.6,0.1,1.1,0.4,1.5c0.2,0.4,0.6,0.6,1.1,0.6c0.4,0,0.7-0.1,1-0.4c0.2-0.2,0.4-0.6,0.5-1h0.9
		c-0.1,0.8-0.4,1.3-0.8,1.7s-1,0.5-1.6,0.5c-0.8,0-1.4-0.3-1.8-0.8c-0.4-0.5-0.7-1.2-0.7-2.1c0-1,0.2-1.8,0.7-2.4
		c0.5-0.6,1.1-0.8,1.9-0.8C275.1,41.5,275.6,41.6,276.1,42z"/>
	<path class="st2" d="M277.8,39.5h1v2.9c0.2-0.3,0.4-0.5,0.6-0.6c0.3-0.2,0.7-0.3,1.2-0.3c0.8,0,1.4,0.3,1.7,0.9
		c0.2,0.3,0.2,0.8,0.2,1.3v3.7h-1v-3.6c0-0.4-0.1-0.7-0.2-0.9c-0.2-0.3-0.5-0.5-1-0.5c-0.4,0-0.8,0.1-1.1,0.4
		c-0.3,0.3-0.5,0.8-0.5,1.6v3.1h-1V39.5z"/>
	<path class="st2" d="M287.4,41.8c0.4,0.2,0.7,0.4,0.9,0.7c0.2,0.3,0.3,0.6,0.4,1c0.1,0.3,0.1,0.7,0.1,1.3h-4.2
		c0,0.6,0.2,1.1,0.4,1.4c0.3,0.4,0.7,0.5,1.2,0.5c0.5,0,0.9-0.2,1.2-0.5c0.2-0.2,0.3-0.4,0.4-0.7h1c0,0.2-0.1,0.4-0.2,0.7
		c-0.1,0.3-0.3,0.5-0.5,0.6c-0.3,0.3-0.7,0.5-1.1,0.6c-0.2,0.1-0.5,0.1-0.8,0.1c-0.7,0-1.3-0.3-1.8-0.8c-0.5-0.5-0.7-1.3-0.7-2.2
		c0-0.9,0.2-1.7,0.7-2.3s1.1-0.9,2-0.9C286.6,41.5,287,41.6,287.4,41.8z M287.8,44.1c0-0.4-0.1-0.8-0.3-1c-0.3-0.5-0.7-0.7-1.3-0.7
		c-0.4,0-0.8,0.2-1.1,0.5c-0.3,0.3-0.5,0.7-0.5,1.2H287.8z"/>
	<path class="st2" d="M293.8,42c0.4,0.3,0.7,0.9,0.7,1.6h-0.9c-0.1-0.4-0.2-0.6-0.4-0.9s-0.5-0.4-1-0.4c-0.6,0-1.1,0.3-1.3,0.9
		c-0.2,0.4-0.3,0.9-0.3,1.4c0,0.6,0.1,1.1,0.4,1.5c0.2,0.4,0.6,0.6,1.1,0.6c0.4,0,0.7-0.1,1-0.4c0.2-0.2,0.4-0.6,0.5-1h0.9
		c-0.1,0.8-0.4,1.3-0.8,1.7s-1,0.5-1.6,0.5c-0.8,0-1.4-0.3-1.8-0.8c-0.4-0.5-0.7-1.2-0.7-2.1c0-1,0.2-1.8,0.7-2.4
		c0.5-0.6,1.1-0.8,1.9-0.8C292.9,41.5,293.4,41.6,293.8,42z"/>
</g>
<g class="st1">
	<path class="st2" d="M291.6,39.5h0.9v4.6l2.5-2.4h1.2l-2.2,2.1l2.3,3.6h-1.2l-1.8-2.9l-0.8,0.8v2.2h-0.9V39.5z"/>
</g>
<g class="st1">
	<path class="st2" d="M297.8,41.7v3.8c0,0.3,0,0.5,0.1,0.7c0.2,0.3,0.5,0.5,0.9,0.5c0.7,0,1.1-0.3,1.3-0.9c0.1-0.3,0.2-0.8,0.2-1.3
		v-2.8h1v5.8h-0.9l0-0.8c-0.1,0.2-0.3,0.4-0.5,0.6c-0.4,0.3-0.8,0.5-1.3,0.5c-0.8,0-1.4-0.3-1.6-0.8c-0.2-0.3-0.2-0.7-0.2-1.2v-3.9
		H297.8z"/>
	<path class="st2" d="M302.9,41.7h0.9v0.8c0.2-0.3,0.4-0.5,0.6-0.6c0.3-0.2,0.7-0.3,1.2-0.3c0.7,0,1.2,0.2,1.7,0.8
		c0.5,0.5,0.7,1.2,0.7,2.1c0,1.3-0.3,2.1-1,2.7c-0.4,0.3-0.9,0.5-1.5,0.5c-0.4,0-0.8-0.1-1.1-0.3c-0.2-0.1-0.4-0.3-0.6-0.6v2.9h-1
		V41.7z M306.5,46.2c0.3-0.4,0.5-0.9,0.5-1.7c0-0.5-0.1-0.9-0.2-1.2c-0.3-0.6-0.7-1-1.4-1c-0.7,0-1.1,0.3-1.4,1
		c-0.1,0.4-0.2,0.8-0.2,1.4c0,0.4,0.1,0.8,0.2,1.1c0.3,0.6,0.7,0.9,1.4,0.9C305.8,46.8,306.2,46.6,306.5,46.2z"/>
</g>
<g class="st1">
	<path class="st2" d="M309.7,45.6c0,0.3,0.1,0.6,0.2,0.7c0.2,0.3,0.7,0.5,1.3,0.5c0.4,0,0.7-0.1,1-0.2c0.3-0.2,0.4-0.4,0.4-0.7
		c0-0.2-0.1-0.4-0.3-0.6c-0.1-0.1-0.4-0.2-0.8-0.3l-0.8-0.2c-0.5-0.1-0.9-0.3-1.1-0.4c-0.4-0.3-0.6-0.6-0.6-1.1c0-0.5,0.2-1,0.6-1.3
		c0.4-0.3,0.9-0.5,1.6-0.5c0.9,0,1.5,0.3,1.9,0.8c0.2,0.3,0.4,0.7,0.4,1h-0.9c0-0.2-0.1-0.4-0.2-0.6c-0.2-0.3-0.6-0.4-1.2-0.4
		c-0.4,0-0.7,0.1-0.8,0.2c-0.2,0.1-0.3,0.3-0.3,0.6c0,0.2,0.1,0.5,0.4,0.6c0.1,0.1,0.4,0.2,0.6,0.2l0.7,0.2c0.7,0.2,1.2,0.3,1.4,0.5
		c0.4,0.2,0.6,0.6,0.6,1.2c0,0.5-0.2,1-0.6,1.3c-0.4,0.4-1,0.6-1.8,0.6c-0.9,0-1.5-0.2-1.8-0.6c-0.4-0.4-0.6-0.9-0.6-1.4H309.7z"/>
</g>
<g class="st1">
	<path class="st2" d="M313.6,46.2h1.1v1.2h-1.1V46.2z"/>
	<path class="st2" d="M321.2,39.5v1.2l1.2-0.4l0.2,0.6l-1.2,0.4l0.7,1l-0.5,0.4l-0.7-1.1l-0.7,1.1l-0.5-0.4l0.7-1l-1.2-0.4l0.2-0.6
		l1.2,0.4v-1.2H321.2z"/>
</g>
<path class="st0" d="M15.5,60.4h126.8c4.3,0,7.8,3.5,7.8,7.8v0c0,4.3-3.5,7.8-7.8,7.8H15.5c-4.3,0-7.8-3.5-7.8-7.8v0
	C7.7,63.9,11.2,60.4,15.5,60.4z"/>
<path class="st0" d="M15.3,109.4h127c4.3,0,7.8,3.5,7.8,7.8v1.5c0,4.3-3.5,7.8-7.8,7.8h-127c-4.3,0-7.8-3.5-7.8-7.8v-1.5
	C7.5,112.9,11,109.4,15.3,109.4z"/>
<ellipse class="st4" cx="37.6" cy="61.2" rx="22" ry="21.9"/>
<path class="st5" d="M22.5,45.3c0,0-2.7,26.9,8.5,36.9"/>
<path class="st5" d="M18.8,49.7c0,0-4,16.1,6.2,29.5"/>
<path class="st5" d="M32.5,39.8c-1.3,3.3-2.1,6.8-2.5,10.4c-1.1,9.3,0.4,22.5,14,32"/>
<path class="st5" d="M55.1,47.9c-7,6-16.4,8.3-25.4,6.1"/>
<path class="st5" d="M52.6,45.1c0,0-12.3,9.2-22.4,3.7"/>
<path class="st5" d="M30.8,45.1c0,0,10.3,4.1,17.8-3"/>
<path class="st5" d="M32,41.4c3.5,1.6,7.6,1,10.4-1.6"/>
<path class="st5" d="M37.6,54.8c-0.8,3.3-4,5.5-7.4,5.1"/>
<path class="st5" d="M41.4,54.3c0,0-0.1,9.8-10.5,9.9"/>
<path class="st5" d="M45.4,53.4c0,0,1.5,14.5-13,14.7"/>
<path class="st5" d="M49.5,51.6c0,0,6.5,17.6-14,22.1"/>
<path class="st5" d="M53.4,49.7c0,0,10.5,20.8-13.4,29.2"/>
<path class="st5" d="M27.4,41.8c0,0-5.9,23.3,8.8,41.3"/>
<ellipse class="st4" cx="37.1" cy="112.8" rx="22" ry="21.9"/>
<path class="st5" d="M21.9,96.9c0,0-2.7,26.9,8.5,36.9"/>
<path class="st5" d="M18.3,101.3c0,0-4,16.1,6.2,29.5"/>
<path class="st5" d="M32,91.5c-1.3,3.3-2.1,6.8-2.5,10.4c-1.1,9.3,0.4,22.5,14,32"/>
<path class="st5" d="M54.6,99.5c-7,6-16.4,8.2-25.4,6.1"/>
<path class="st5" d="M52.1,96.8c0,0-12.3,9.2-22.4,3.7"/>
<path class="st5" d="M30.3,96.8c0,0,10.3,4.1,17.8-3"/>
<path class="st5" d="M31.4,93c3.5,1.6,7.6,1,10.4-1.6"/>
<path class="st5" d="M37.1,106.4c-0.8,3.3-4,5.5-7.4,5.1"/>
<path class="st5" d="M40.9,106c0,0-0.1,9.8-10.5,9.9"/>
<path class="st5" d="M44.8,105c0,0,1.5,14.5-13,14.7"/>
<path class="st5" d="M49,103.3c0,0,6.5,17.6-14,22.1"/>
<path class="st5" d="M52.8,101.3c0,0,10.5,20.8-13.4,29.2"/>
<path class="st5" d="M26.8,93.4c0,0-5.9,23.3,8.8,41.3"/>
<g class="st1">
	<path class="st6" d="M69.1,53.3v-3.9c-1.2-0.3-2.1-0.9-2.7-1.6c-0.6-0.7-0.8-1.6-0.8-2.6c0-1,0.3-1.9,1-2.6
		c0.6-0.7,1.5-1.1,2.6-1.2v-0.9h1.3v0.9c1,0.1,1.8,0.5,2.3,1c0.6,0.6,1,1.3,1.1,2.2L71.5,45c-0.1-0.7-0.5-1.2-1.1-1.5v3.6
		c1.5,0.4,2.5,0.9,3,1.6c0.5,0.6,0.8,1.5,0.8,2.5c0,1.1-0.3,2.1-1,2.8c-0.7,0.8-1.6,1.2-2.8,1.4v1.7h-1.3v-1.7
		c-1.1-0.1-1.9-0.5-2.6-1.2s-1.1-1.6-1.3-2.8l2.4-0.3c0.1,0.5,0.3,0.9,0.6,1.3C68.4,52.8,68.7,53.1,69.1,53.3z M69.1,43.5
		c-0.4,0.1-0.7,0.3-0.9,0.6c-0.2,0.3-0.3,0.6-0.3,1c0,0.3,0.1,0.6,0.3,0.9c0.2,0.3,0.5,0.5,0.9,0.7V43.5z M70.4,53.4
		c0.5-0.1,0.8-0.3,1.1-0.6c0.3-0.3,0.4-0.7,0.4-1.2c0-0.4-0.1-0.8-0.4-1.1c-0.2-0.3-0.6-0.5-1.2-0.7V53.4z"/>
	<path class="st6" d="M78.1,47.9c-0.7-0.3-1.2-0.7-1.5-1.2c-0.3-0.5-0.5-1-0.5-1.6c0-1,0.4-1.9,1.1-2.5c0.7-0.7,1.7-1,3-1
		c1.3,0,2.3,0.3,3,1c0.7,0.7,1.1,1.5,1.1,2.5c0,0.6-0.2,1.2-0.5,1.7c-0.3,0.5-0.8,0.9-1.4,1.1c0.8,0.3,1.3,0.7,1.7,1.3
		c0.4,0.6,0.6,1.3,0.6,2c0,1.3-0.4,2.3-1.2,3.1c-0.8,0.8-1.9,1.2-3.2,1.2c-1.2,0-2.3-0.3-3.1-1c-1-0.8-1.5-1.8-1.5-3.2
		c0-0.7,0.2-1.4,0.5-2C76.8,48.8,77.4,48.3,78.1,47.9z M78.4,51.1c0,0.7,0.2,1.3,0.6,1.7c0.4,0.4,0.8,0.6,1.4,0.6
		c0.5,0,1-0.2,1.3-0.6c0.4-0.4,0.5-0.9,0.5-1.7c0-0.6-0.2-1.1-0.5-1.5c-0.4-0.4-0.8-0.6-1.4-0.6c-0.6,0-1.1,0.2-1.4,0.7
		C78.6,50.2,78.4,50.6,78.4,51.1z M78.7,45.3c0,0.5,0.1,0.9,0.4,1.2c0.3,0.3,0.7,0.4,1.2,0.4c0.5,0,0.9-0.1,1.2-0.4s0.4-0.7,0.4-1.2
		c0-0.5-0.1-0.9-0.4-1.2c-0.3-0.3-0.7-0.4-1.2-0.4c-0.5,0-0.9,0.1-1.2,0.4S78.7,44.8,78.7,45.3z"/>
	<path class="st6" d="M86.5,51.8l2.6-0.3c0.1,0.6,0.3,1.1,0.7,1.4c0.4,0.3,0.8,0.5,1.3,0.5c0.5,0,1-0.2,1.4-0.7
		c0.4-0.4,0.6-1.1,0.6-2c0-0.8-0.2-1.5-0.6-1.9c-0.4-0.4-0.9-0.6-1.5-0.6c-0.7,0-1.4,0.3-2,1l-2.1-0.3l1.3-7.1h6.9v2.4h-4.9
		l-0.4,2.3c0.6-0.3,1.2-0.4,1.8-0.4c1.2,0,2.1,0.4,2.9,1.3c0.8,0.8,1.2,1.9,1.2,3.3c0,1.1-0.3,2.1-1,3c-0.9,1.2-2.1,1.8-3.7,1.8
		c-1.3,0-2.3-0.3-3.1-1C87.1,53.8,86.7,52.9,86.5,51.8z"/>
</g>
<g class="st1">
	<path class="st2" d="M68.4,67.3c0.3,0,0.4-0.1,0.5-0.3c0-0.1,0.1-0.2,0.1-0.4c0-0.4-0.1-0.7-0.4-0.8c-0.3-0.2-0.7-0.3-1.2-0.3
		c-0.6,0-1,0.2-1.2,0.5c-0.1,0.2-0.2,0.4-0.3,0.8h-1c0-0.8,0.3-1.4,0.8-1.7c0.5-0.3,1.1-0.5,1.8-0.5c0.8,0,1.4,0.1,1.9,0.4
		c0.5,0.3,0.7,0.8,0.7,1.4v3.8c0,0.1,0,0.2,0.1,0.3c0,0.1,0.1,0.1,0.3,0.1c0,0,0.1,0,0.2,0c0.1,0,0.1,0,0.2,0v0.8
		c-0.2,0-0.3,0.1-0.4,0.1c-0.1,0-0.2,0-0.4,0c-0.4,0-0.7-0.1-0.8-0.4c-0.1-0.1-0.2-0.4-0.2-0.6c-0.2,0.3-0.6,0.6-1,0.8
		c-0.4,0.2-0.9,0.3-1.4,0.3c-0.6,0-1.1-0.2-1.5-0.6c-0.4-0.4-0.6-0.8-0.6-1.4c0-0.6,0.2-1.1,0.6-1.4c0.4-0.3,0.9-0.5,1.5-0.6
		L68.4,67.3z M66.1,70.4c0.2,0.2,0.5,0.3,0.8,0.3c0.4,0,0.8-0.1,1.1-0.3c0.6-0.3,0.9-0.8,0.9-1.5V68c-0.1,0.1-0.3,0.2-0.5,0.2
		c-0.2,0.1-0.4,0.1-0.6,0.1l-0.7,0.1c-0.4,0.1-0.7,0.1-0.9,0.3c-0.3,0.2-0.5,0.5-0.5,0.9C65.7,69.9,65.8,70.2,66.1,70.4z"/>
	<path class="st2" d="M72,64.7H73v0.9c0.3-0.4,0.6-0.7,1-0.8c0.4-0.2,0.7-0.3,1.2-0.3c0.9,0,1.6,0.3,1.9,1c0.2,0.4,0.3,0.9,0.3,1.5
		v4.3h-1.1v-4.2c0-0.4-0.1-0.7-0.2-1c-0.2-0.4-0.6-0.6-1.1-0.6c-0.3,0-0.5,0-0.7,0.1c-0.3,0.1-0.6,0.3-0.8,0.5
		c-0.2,0.2-0.3,0.4-0.4,0.7s-0.1,0.6-0.1,1v3.5H72V64.7z"/>
	<path class="st2" d="M79,64.7h1.1v0.9c0.3-0.4,0.6-0.7,1-0.8c0.4-0.2,0.7-0.3,1.2-0.3c0.9,0,1.6,0.3,1.9,1c0.2,0.4,0.3,0.9,0.3,1.5
		v4.3h-1.1v-4.2c0-0.4-0.1-0.7-0.2-1c-0.2-0.4-0.6-0.6-1.1-0.6c-0.3,0-0.5,0-0.7,0.1c-0.3,0.1-0.6,0.3-0.8,0.5
		c-0.2,0.2-0.3,0.4-0.4,0.7s-0.1,0.6-0.1,1v3.5H79V64.7z"/>
	<path class="st2" d="M87.3,64.7v4.4c0,0.3,0.1,0.6,0.2,0.8c0.2,0.4,0.6,0.6,1.1,0.6c0.8,0,1.3-0.3,1.6-1c0.1-0.4,0.2-0.9,0.2-1.5
		v-3.3h1.1v6.7h-1.1l0-1c-0.1,0.3-0.3,0.5-0.5,0.6c-0.4,0.3-0.9,0.5-1.5,0.5c-0.9,0-1.6-0.3-1.9-1c-0.2-0.3-0.3-0.8-0.3-1.4v-4.5
		H87.3z"/>
	<path class="st2" d="M96.8,67.3c0.3,0,0.4-0.1,0.5-0.3c0-0.1,0.1-0.2,0.1-0.4c0-0.4-0.1-0.7-0.4-0.8c-0.3-0.2-0.7-0.3-1.2-0.3
		c-0.6,0-1,0.2-1.2,0.5c-0.1,0.2-0.2,0.4-0.3,0.8h-1c0-0.8,0.3-1.4,0.8-1.7c0.5-0.3,1.1-0.5,1.8-0.5c0.8,0,1.4,0.1,1.9,0.4
		c0.5,0.3,0.7,0.8,0.7,1.4v3.8c0,0.1,0,0.2,0.1,0.3c0,0.1,0.1,0.1,0.3,0.1c0,0,0.1,0,0.2,0c0.1,0,0.1,0,0.2,0v0.8
		c-0.2,0-0.3,0.1-0.4,0.1c-0.1,0-0.2,0-0.4,0c-0.4,0-0.7-0.1-0.8-0.4c-0.1-0.1-0.2-0.4-0.2-0.6c-0.2,0.3-0.6,0.6-1,0.8
		c-0.4,0.2-0.9,0.3-1.4,0.3c-0.6,0-1.1-0.2-1.5-0.6c-0.4-0.4-0.6-0.8-0.6-1.4c0-0.6,0.2-1.1,0.6-1.4c0.4-0.3,0.9-0.5,1.5-0.6
		L96.8,67.3z M94.4,70.4c0.2,0.2,0.5,0.3,0.8,0.3c0.4,0,0.8-0.1,1.1-0.3c0.6-0.3,0.9-0.8,0.9-1.5V68c-0.1,0.1-0.3,0.2-0.5,0.2
		c-0.2,0.1-0.4,0.1-0.6,0.1l-0.7,0.1c-0.4,0.1-0.7,0.1-0.9,0.3c-0.3,0.2-0.5,0.5-0.5,0.9C94.1,69.9,94.2,70.2,94.4,70.4z"/>
	<path class="st2" d="M100.3,62.2h1.1v9.1h-1.1V62.2z"/>
</g>
<g class="st1">
	<path class="st2" d="M108.4,65.1c0.5,0.4,0.8,1,0.8,1.9h-1.1c-0.1-0.4-0.2-0.8-0.5-1c-0.2-0.3-0.6-0.4-1.1-0.4
		c-0.7,0-1.2,0.3-1.5,1c-0.2,0.5-0.3,1-0.3,1.7c0,0.7,0.1,1.2,0.4,1.7s0.7,0.7,1.3,0.7c0.5,0,0.8-0.1,1.1-0.4
		c0.3-0.3,0.5-0.7,0.6-1.2h1.1c-0.1,0.9-0.4,1.5-0.9,1.9c-0.5,0.4-1.1,0.6-1.9,0.6c-0.9,0-1.6-0.3-2.1-1c-0.5-0.6-0.8-1.4-0.8-2.4
		c0-1.2,0.3-2.1,0.9-2.7c0.6-0.7,1.3-1,2.2-1C107.4,64.5,108,64.7,108.4,65.1z"/>
</g>
<g class="st1">
	<path class="st2" d="M114.5,65.4c0.6,0.6,0.9,1.4,0.9,2.5c0,1.1-0.3,2-0.8,2.7c-0.5,0.7-1.3,1.1-2.4,1.1c-0.9,0-1.6-0.3-2.2-0.9
		s-0.8-1.5-0.8-2.5c0-1.1,0.3-2,0.8-2.7c0.6-0.7,1.3-1,2.3-1C113.2,64.5,113.9,64.8,114.5,65.4z M113.8,69.8
		c0.3-0.6,0.4-1.2,0.4-1.9c0-0.6-0.1-1.1-0.3-1.5c-0.3-0.6-0.8-0.9-1.6-0.9c-0.7,0-1.2,0.3-1.5,0.8c-0.3,0.5-0.5,1.2-0.5,1.9
		c0,0.7,0.2,1.3,0.5,1.8c0.3,0.5,0.8,0.7,1.5,0.7C113,70.7,113.5,70.4,113.8,69.8z"/>
	<path class="st2" d="M117.4,69.3c0,0.4,0.1,0.7,0.3,0.9c0.3,0.4,0.8,0.5,1.5,0.5c0.4,0,0.8-0.1,1.1-0.3c0.3-0.2,0.5-0.5,0.5-0.8
		c0-0.3-0.1-0.5-0.4-0.7c-0.2-0.1-0.5-0.2-1-0.3l-0.9-0.2c-0.6-0.1-1-0.3-1.3-0.5c-0.5-0.3-0.7-0.7-0.7-1.3c0-0.6,0.2-1.1,0.7-1.5
		c0.5-0.4,1.1-0.6,1.9-0.6c1,0,1.8,0.3,2.2,0.9c0.3,0.4,0.4,0.8,0.4,1.2h-1.1c0-0.3-0.1-0.5-0.3-0.7c-0.3-0.3-0.7-0.4-1.4-0.4
		c-0.4,0-0.8,0.1-1,0.2c-0.2,0.2-0.3,0.4-0.3,0.6c0,0.3,0.1,0.5,0.4,0.7c0.2,0.1,0.4,0.2,0.7,0.3l0.8,0.2c0.8,0.2,1.4,0.4,1.6,0.6
		c0.4,0.3,0.7,0.7,0.7,1.4c0,0.6-0.2,1.1-0.7,1.5s-1.2,0.6-2.1,0.6c-1,0-1.7-0.2-2.1-0.7c-0.4-0.5-0.6-1-0.7-1.7H117.4z"/>
	<path class="st2" d="M123.4,62.9h1.1v1.9h1.1v0.9h-1.1V70c0,0.2,0.1,0.4,0.2,0.5c0.1,0,0.2,0.1,0.4,0.1c0.1,0,0.1,0,0.2,0
		c0.1,0,0.1,0,0.2,0v0.9c-0.1,0-0.3,0.1-0.4,0.1s-0.3,0-0.5,0c-0.5,0-0.9-0.1-1.1-0.4c-0.2-0.3-0.3-0.6-0.3-1v-4.4h-0.9v-0.9h0.9
		V62.9z"/>
</g>
<g class="st1">
	<path class="st6" d="M68.5,102.6v-3.9c-1.2-0.3-2.1-0.9-2.7-1.6c-0.6-0.7-0.8-1.6-0.8-2.6c0-1,0.3-1.9,1-2.6
		c0.6-0.7,1.5-1.1,2.6-1.2v-0.9h1.3v0.9c1,0.1,1.8,0.5,2.3,1c0.6,0.6,1,1.3,1.1,2.2L71,94.4c-0.1-0.7-0.5-1.2-1.1-1.5v3.6
		c1.5,0.4,2.5,0.9,3,1.6c0.5,0.6,0.8,1.5,0.8,2.5c0,1.1-0.3,2.1-1,2.8c-0.7,0.8-1.6,1.2-2.8,1.4v1.7h-1.3v-1.7
		c-1.1-0.1-1.9-0.5-2.6-1.2s-1.1-1.6-1.3-2.8l2.4-0.3c0.1,0.5,0.3,0.9,0.6,1.3C67.9,102.2,68.2,102.5,68.5,102.6z M68.5,92.9
		c-0.4,0.1-0.7,0.3-0.9,0.6c-0.2,0.3-0.3,0.6-0.3,1c0,0.3,0.1,0.6,0.3,0.9c0.2,0.3,0.5,0.5,0.9,0.7V92.9z M69.8,102.7
		c0.5-0.1,0.8-0.3,1.1-0.6c0.3-0.3,0.4-0.7,0.4-1.2c0-0.4-0.1-0.8-0.4-1.1c-0.2-0.3-0.6-0.5-1.2-0.7V102.7z"/>
	<path class="st6" d="M82,104.6h-2.6v-9.8c-1,0.9-2.1,1.5-3.4,2v-2.4c0.7-0.2,1.4-0.6,2.2-1.3c0.8-0.6,1.3-1.3,1.6-2.2H82V104.6z"/>
	<path class="st6" d="M86.4,102H89v1.9c0,0.8-0.1,1.3-0.2,1.8c-0.1,0.4-0.4,0.8-0.7,1.2c-0.4,0.3-0.8,0.6-1.4,0.8l-0.5-1.1
		c0.5-0.2,0.9-0.4,1.1-0.7s0.3-0.7,0.4-1.2h-1.3V102z"/>
	<path class="st6" d="M97.9,104.6h-2.6v-9.8c-1,0.9-2.1,1.5-3.4,2v-2.4c0.7-0.2,1.4-0.6,2.2-1.3c0.8-0.6,1.3-1.3,1.6-2.2h2.1V104.6z
		"/>
	<path class="st6" d="M101.8,101.5l2.5-0.3c0.1,0.5,0.2,0.9,0.5,1.1s0.6,0.4,1,0.4c0.5,0,1-0.2,1.4-0.7c0.4-0.5,0.6-1.5,0.7-3.1
		c-0.7,0.8-1.5,1.1-2.5,1.1c-1.1,0-2-0.4-2.8-1.2c-0.8-0.8-1.2-1.9-1.2-3.2c0-1.4,0.4-2.5,1.2-3.3c0.8-0.8,1.9-1.3,3.1-1.3
		c1.4,0,2.5,0.5,3.4,1.6c0.9,1.1,1.3,2.8,1.3,5.3c0,2.5-0.5,4.3-1.4,5.4c-0.9,1.1-2.1,1.7-3.6,1.7c-1.1,0-1.9-0.3-2.6-0.8
		C102.4,103.5,102,102.6,101.8,101.5z M107.7,95.8c0-0.8-0.2-1.5-0.6-2c-0.4-0.5-0.8-0.7-1.3-0.7c-0.5,0-0.9,0.2-1.2,0.6
		c-0.3,0.4-0.5,1-0.5,1.9c0,0.9,0.2,1.5,0.5,1.9c0.3,0.4,0.8,0.6,1.3,0.6c0.5,0,0.9-0.2,1.3-0.6C107.5,97.1,107.7,96.6,107.7,95.8z"
		/>
	<path class="st6" d="M116.7,91c1.3,0,2.3,0.5,3.1,1.4c0.9,1.1,1.3,3,1.3,5.5c0,2.6-0.4,4.4-1.3,5.5c-0.7,0.9-1.8,1.4-3.1,1.4
		c-1.3,0-2.4-0.5-3.2-1.5c-0.8-1-1.2-2.8-1.2-5.4c0-2.6,0.4-4.4,1.3-5.5C114.4,91.4,115.4,91,116.7,91z M116.7,93.1
		c-0.3,0-0.6,0.1-0.8,0.3c-0.2,0.2-0.4,0.6-0.6,1.1c-0.2,0.7-0.3,1.8-0.3,3.4s0.1,2.7,0.2,3.3c0.2,0.6,0.4,1,0.6,1.2
		c0.2,0.2,0.5,0.3,0.8,0.3s0.6-0.1,0.8-0.3c0.2-0.2,0.4-0.6,0.6-1.1c0.2-0.7,0.3-1.8,0.3-3.4s-0.1-2.7-0.2-3.3
		c-0.2-0.6-0.4-1-0.6-1.2C117.3,93.2,117,93.1,116.7,93.1z"/>
</g>
<g class="st1">
	<path class="st2" d="M64.9,112.9H66v9.1h-1.1V112.9z"/>
	<path class="st2" d="M67.7,112.9h1.1v1.3h-1.1V112.9z M67.7,115.4h1.1v6.6h-1.1V115.4z"/>
</g>
<g class="st1">
	<path class="st2" d="M71.4,113.3c0.3-0.4,0.8-0.6,1.5-0.6c0.1,0,0.1,0,0.2,0c0.1,0,0.2,0,0.3,0v1c-0.1,0-0.2,0-0.3,0
		c-0.1,0-0.1,0-0.1,0c-0.3,0-0.5,0.1-0.6,0.3c-0.1,0.2-0.1,0.6-0.1,1.3h1.1v0.9h-1.1v5.8h-1.1v-5.8h-0.9v-0.9h0.9v-1
		C71.1,113.9,71.2,113.5,71.4,113.3z"/>
</g>
<g class="st1">
	<path class="st2" d="M78.5,115.5c0.4,0.2,0.8,0.5,1,0.9c0.2,0.3,0.4,0.7,0.4,1.2c0.1,0.3,0.1,0.8,0.1,1.5h-4.8
		c0,0.7,0.2,1.2,0.5,1.6c0.3,0.4,0.8,0.6,1.4,0.6c0.6,0,1-0.2,1.4-0.6c0.2-0.2,0.3-0.5,0.4-0.8H80c0,0.2-0.1,0.5-0.3,0.8
		c-0.2,0.3-0.3,0.5-0.5,0.7c-0.3,0.3-0.8,0.6-1.3,0.7c-0.3,0.1-0.6,0.1-0.9,0.1c-0.8,0-1.5-0.3-2.1-0.9c-0.6-0.6-0.9-1.5-0.9-2.5
		c0-1.1,0.3-1.9,0.9-2.6c0.6-0.7,1.3-1,2.3-1C77.6,115.2,78.1,115.3,78.5,115.5z M78.9,118.1c0-0.5-0.2-0.9-0.3-1.2
		c-0.3-0.5-0.8-0.8-1.5-0.8c-0.5,0-0.9,0.2-1.3,0.6s-0.5,0.8-0.5,1.4H78.9z"/>
	<path class="st2" d="M81.7,113.5h1.1v1.9h1.1v0.9h-1.1v4.4c0,0.2,0.1,0.4,0.2,0.5c0.1,0,0.2,0.1,0.4,0.1c0.1,0,0.1,0,0.2,0
		c0.1,0,0.1,0,0.2,0v0.9c-0.1,0-0.3,0.1-0.4,0.1s-0.3,0-0.5,0c-0.5,0-0.9-0.1-1.1-0.4c-0.2-0.3-0.3-0.6-0.3-1v-4.4h-0.9v-0.9h0.9
		V113.5z"/>
	<path class="st2" d="M85,112.9h1.1v1.3H85V112.9z M85,115.4h1.1v6.6H85V115.4z"/>
	<path class="st2" d="M87.9,115.3H89v0.9c0.3-0.3,0.5-0.6,0.7-0.7c0.4-0.3,0.8-0.4,1.3-0.4c0.5,0,1,0.1,1.3,0.4
		c0.2,0.1,0.3,0.4,0.5,0.7c0.2-0.4,0.5-0.6,0.9-0.8c0.3-0.2,0.7-0.3,1.1-0.3c0.9,0,1.5,0.3,1.8,1c0.2,0.3,0.3,0.8,0.3,1.4v4.4h-1.2
		v-4.6c0-0.4-0.1-0.7-0.3-0.9c-0.2-0.2-0.5-0.2-0.8-0.2c-0.4,0-0.8,0.1-1.1,0.4c-0.3,0.3-0.5,0.8-0.5,1.5v3.9h-1.1v-4.4
		c0-0.5-0.1-0.8-0.2-1c-0.2-0.3-0.5-0.5-1-0.5c-0.4,0-0.8,0.2-1.2,0.5c-0.3,0.3-0.5,0.9-0.5,1.8v3.5h-1.1V115.3z"/>
	<path class="st2" d="M102.6,115.5c0.4,0.2,0.8,0.5,1,0.9c0.2,0.3,0.4,0.7,0.4,1.2c0.1,0.3,0.1,0.8,0.1,1.5h-4.8
		c0,0.7,0.2,1.2,0.5,1.6c0.3,0.4,0.8,0.6,1.4,0.6c0.6,0,1-0.2,1.4-0.6c0.2-0.2,0.3-0.5,0.4-0.8h1.1c0,0.2-0.1,0.5-0.3,0.8
		c-0.2,0.3-0.3,0.5-0.5,0.7c-0.3,0.3-0.8,0.6-1.3,0.7c-0.3,0.1-0.6,0.1-0.9,0.1c-0.8,0-1.5-0.3-2.1-0.9c-0.6-0.6-0.9-1.5-0.9-2.5
		c0-1.1,0.3-1.9,0.9-2.6c0.6-0.7,1.3-1,2.3-1C101.7,115.2,102.2,115.3,102.6,115.5z M103,118.1c0-0.5-0.2-0.9-0.3-1.2
		c-0.3-0.5-0.8-0.8-1.5-0.8c-0.5,0-0.9,0.2-1.3,0.6s-0.5,0.8-0.5,1.4H103z"/>
</g>
<g class="st1">
	<path class="st2" d="M112.1,115.7c0.5,0.4,0.8,1,0.8,1.9h-1.1c-0.1-0.4-0.2-0.8-0.5-1c-0.2-0.3-0.6-0.4-1.1-0.4
		c-0.7,0-1.2,0.3-1.5,1c-0.2,0.5-0.3,1-0.3,1.7c0,0.7,0.1,1.2,0.4,1.7s0.7,0.7,1.3,0.7c0.5,0,0.8-0.1,1.1-0.4
		c0.3-0.3,0.5-0.7,0.6-1.2h1.1c-0.1,0.9-0.4,1.5-0.9,1.9c-0.5,0.4-1.1,0.6-1.9,0.6c-0.9,0-1.6-0.3-2.1-1c-0.5-0.6-0.8-1.4-0.8-2.4
		c0-1.2,0.3-2.1,0.9-2.7c0.6-0.7,1.3-1,2.2-1C111.1,115.1,111.7,115.3,112.1,115.7z"/>
</g>
<g class="st1">
	<path class="st2" d="M118.2,116c0.6,0.6,0.9,1.4,0.9,2.5c0,1.1-0.3,2-0.8,2.7c-0.5,0.7-1.3,1.1-2.4,1.1c-0.9,0-1.6-0.3-2.2-0.9
		s-0.8-1.5-0.8-2.5c0-1.1,0.3-2,0.8-2.7c0.6-0.7,1.3-1,2.3-1C116.9,115.1,117.6,115.4,118.2,116z M117.5,120.4
		c0.3-0.6,0.4-1.2,0.4-1.9c0-0.6-0.1-1.1-0.3-1.5c-0.3-0.6-0.8-0.9-1.6-0.9c-0.7,0-1.2,0.3-1.5,0.8c-0.3,0.5-0.5,1.2-0.5,1.9
		c0,0.7,0.2,1.3,0.5,1.8c0.3,0.5,0.8,0.7,1.5,0.7C116.7,121.3,117.2,121,117.5,120.4z"/>
	<path class="st2" d="M121.1,119.9c0,0.4,0.1,0.7,0.3,0.9c0.3,0.4,0.8,0.5,1.5,0.5c0.4,0,0.8-0.1,1.1-0.3c0.3-0.2,0.5-0.5,0.5-0.8
		c0-0.3-0.1-0.5-0.4-0.7c-0.2-0.1-0.5-0.2-1-0.3l-0.9-0.2c-0.6-0.1-1-0.3-1.3-0.5c-0.5-0.3-0.7-0.7-0.7-1.3c0-0.6,0.2-1.1,0.7-1.5
		c0.5-0.4,1.1-0.6,1.9-0.6c1,0,1.8,0.3,2.2,0.9c0.3,0.4,0.4,0.8,0.4,1.2h-1.1c0-0.3-0.1-0.5-0.3-0.7c-0.3-0.3-0.7-0.4-1.4-0.4
		c-0.4,0-0.8,0.1-1,0.2c-0.2,0.2-0.3,0.4-0.3,0.6c0,0.3,0.1,0.5,0.4,0.7c0.2,0.1,0.4,0.2,0.7,0.3l0.8,0.2c0.8,0.2,1.4,0.4,1.6,0.6
		c0.4,0.3,0.7,0.7,0.7,1.4c0,0.6-0.2,1.1-0.7,1.5s-1.2,0.6-2.1,0.6c-1,0-1.7-0.2-2.1-0.7c-0.4-0.5-0.6-1-0.7-1.7H121.1z"/>
	<path class="st2" d="M127.1,113.5h1.1v1.9h1.1v0.9h-1.1v4.4c0,0.2,0.1,0.4,0.2,0.5c0.1,0,0.2,0.1,0.4,0.1c0.1,0,0.1,0,0.2,0
		c0.1,0,0.1,0,0.2,0v0.9c-0.1,0-0.3,0.1-0.4,0.1s-0.3,0-0.5,0c-0.5,0-0.9-0.1-1.1-0.4c-0.2-0.3-0.3-0.6-0.3-1v-4.4h-0.9v-0.9h0.9
		V113.5z"/>
</g>
<path class="st2" d="M210.6,94l-61.5-4l61.5-4c2.2-0.1,4.1,1.5,4.3,3.7c0.1,2.2-1.5,4.1-3.7,4.3C211,94,210.8,94,210.6,94z"/>
<path class="st2" d="M360.2,94.4l-48.9-4l48.9-4c2.2-0.2,4.1,1.5,4.3,3.7s-1.5,4.1-3.7,4.3C360.7,94.4,360.4,94.4,360.2,94.4z"/>
<path class="st7" d="M215.4,77.3c-12.1,0-20.9,3.8-20.9,12.7s8.9,13.9,21,13.9"/>
<ellipse class="st7" cx="361.5" cy="90.4" rx="9.8" ry="20.1"/>
<path class="st8" d="M227.5,113.5h92.6c6.6,0,12-5.4,12-12V79.2c0-6.6-5.4-12-12-12h-92.6c-6.8-0.2-13,4.1-12,12v22.3
	C215.5,108.1,220.9,113.5,227.5,113.5z"/>
<path class="st0" d="M294.4,113.7h25.7c6.6,0,12-5.4,12-12V79.5c0-6.6-5.4-12-12-12h-1.5c-4.3-0.6-8.2,4.6-10.9,11.9l-13.6,34
	C294.1,113.5,294.2,113.7,294.4,113.7C294.4,113.7,294.4,113.7,294.4,113.7z"/>
<line class="st9" x1="312.3" y1="113.7" x2="312.3" y2="96.6"/>
<line class="st9" x1="302.3" y1="113.7" x2="302.3" y2="96.6"/>
<line class="st9" x1="283.9" y1="113.7" x2="283.9" y2="96.6"/>
<line class="st9" x1="275.6" y1="113.6" x2="275.6" y2="96.5"/>
<line class="st9" x1="265.5" y1="113.6" x2="265.5" y2="96.5"/>
<line class="st9" x1="255.6" y1="113.6" x2="255.6" y2="96.5"/>
<line class="st9" x1="247.2" y1="113.6" x2="247.2" y2="96.5"/>
<line class="st9" x1="239.5" y1="113.7" x2="239.5" y2="96.6"/>
<line class="st9" x1="231" y1="113.7" x2="231" y2="96.6"/>
<path class="st0" d="M293.5,112.7c0,0-1.9-5.2-4.8-4.6S288.3,112.4,293.5,112.7z"/>
<path class="st0" d="M293.8,110.9c0,0,2.2-5.1-0.3-6.7S290.3,107.1,293.8,110.9z"/>
<line class="st9" x1="292.3" y1="113.7" x2="292.3" y2="96.6"/>
<path class="st0" d="M296.8,120.9l0.4,6.3c0.1,2.1,0.2,4.2,0.3,6.3l-0.7-0.7c4.2-0.2,8.5-0.4,12.7-0.6s8.5-0.4,12.7-0.5l12.7-0.4
	c4.2-0.2,8.5-0.2,12.7-0.3l12.7-0.3c4.2-0.1,8.5-0.2,12.7-0.2l12.7-0.2c4.2-0.1,8.5-0.1,12.7-0.1l-3.4,3.4l-0.1-22.3
	c0-3.7,0-7.4,0-11.1l0-11.1l0.1-11.2c0-3.7,0.1-7.4,0.1-11.1l0.2-11.1c0.1-3.7,0.1-7.4,0.2-11.1v0.3c0,0,0-0.2,0-0.4s0-0.3-0.1-0.5
	c-0.1-0.3-0.1-0.7-0.2-1c-0.2-0.7-0.4-1.4-0.6-2c-0.5-1.4-1-2.7-1.7-4c-0.7-1.3-1.4-2.6-2.3-3.8c-0.8-1.2-1.8-2.4-2.8-3.5
	c-1-1.1-2.1-2.2-3.2-3.2c-1.1-1-2.3-1.9-3.5-2.8c-0.6-0.5-1.2-0.9-1.9-1.3s-1.3-0.8-1.9-1.2c-1.3-0.8-2.7-1.5-4-2.2
	s-2.8-1.3-4.2-1.8c-0.7-0.3-1.4-0.6-2.2-0.8l-2.2-0.7c-1.5-0.5-3-0.9-4.5-1.3s-3-0.7-4.6-1.1s-3.1-0.6-4.6-0.9s-3.1-0.5-4.7-0.7
	s-3.1-0.4-4.7-0.5l-4.7-0.4l4.8-0.2c1.6,0,3.2,0,4.8,0s3.2,0.1,4.8,0.2s3.2,0.3,4.8,0.4s3.2,0.4,4.8,0.7s3.2,0.6,4.7,1l2.4,0.6
	c0.8,0.2,1.6,0.5,2.3,0.7c1.6,0.4,3.1,1,4.6,1.6s3,1.3,4.5,2c0.7,0.4,1.5,0.7,2.2,1.2s1.5,0.8,2.1,1.3c1.4,0.9,2.8,1.8,4.1,2.9
	c0.6,0.5,1.3,1,1.9,1.6s1.2,1.1,1.8,1.7c1.2,1.2,2.3,2.5,3.3,3.8c1,1.3,2,2.8,2.8,4.2c0.9,1.5,1.6,3,2.2,4.6
	c0.3,0.8,0.6,1.6,0.9,2.5c0.1,0.4,0.2,0.9,0.3,1.3c0,0.2,0.1,0.4,0.2,0.7s0.1,0.4,0.1,0.8c0,0,0,0.1,0,0.1v0.2
	c0.1,3.7,0.1,7.4,0.2,11.1l0.2,11.1c0,3.7,0.1,7.4,0.1,11.1l0,11.1l0,11.1c0,3.7,0,7.4,0,11.1l-0.1,22.3l0,0c0,1.9-1.5,3.4-3.4,3.4
	c0,0,0,0,0,0c-4.2,0-8.5,0-12.7-0.1l-12.7-0.2c-4.2-0.1-8.5-0.1-12.7-0.2l-12.7-0.3c-4.2-0.1-8.5-0.2-12.7-0.3l-12.7-0.4
	c-4.2-0.1-8.5-0.3-12.7-0.5s-8.5-0.4-12.7-0.6h-0.1c-0.4,0-0.7-0.3-0.7-0.7c0,0,0,0,0,0c0.1-2.1,0.2-4.2,0.3-6.3L296.8,120.9z"/>
</svg>
