<?xml version="1.0" encoding="utf-8"?>
<!-- Generator: Adobe Illustrator 19.2.1, SVG Export Plug-In . SVG Version: 6.00 Build 0)  -->
<svg version="1.1" id="header" xmlns="http://www.w3.org/2000/svg" xmlns:xlink="http://www.w3.org/1999/xlink" x="0px" y="0px"
	 width="570px" height="240px" viewBox="0 0 570 240" style="enable-background:new 0 0 570 240;" xml:space="preserve">
<style type="text/css">
	.st0{fill:#FBB040;}
	.st1{fill:#231F20;}
	.st2{fill:none;stroke:#FFFFFF;stroke-width:1.27;stroke-linecap:round;stroke-miterlimit:10;}
	.st3{fill:#F15A29;}
	.st4{enable-background:new    ;}
	.st5{fill:#F1F2F2;}
</style>
<title>INFOGRAPHIC</title>
<path class="st0" d="M100.9,37h319.6c6.7,0,12.2,5.5,12.2,12.2v45.5c0,6.7-5.5,12.2-12.2,12.2H100.9c-6.7,0-12.2-5.5-12.2-12.2V49.2
	C88.7,42.5,94.1,37,100.9,37z"/>
<path class="st1" d="M7.6,76.6c5.2-3.5,11.5-2.5,16.8-0.2c18.4,8,26.9,29.4,18.9,47.8c-0.8,1.8-1.7,3.5-2.7,5.1
	c-3.6,5.7-8.9,10.4-12.1,16.3c-5.8,10.6-4.4,24.7,3.8,33.7c2.2,2.5,5.6,3.7,8.9,3.2c6.5-1.2,7.8-8.4,8.4-14.4
	c1.4-13.9,3.8-27.9,9.2-40.8s13.9-24.8,25.6-32.5c8.8-5.7,19-8.9,28.3-13.7c6.7-3.5,13.2-8.2,17.4-14.4c-2.4-8.6-1.2-17.8,3.3-25.5
	c0.8-1.3,1-2.9,0.6-4.4c-3.3-12.5,0.2-27.1,0.2-27.1c9.7,4.3,16.4,9.1,20.8,14c0.8,0.9,2,1.4,3.2,1.2c4.7-0.5,9.4-0.1,13.9,1.4
	c1.1,0.4,2.3,0,3.1-0.8c4.4-4.7,11-9.4,20.4-13.6c0,0,4.3,18.2-1.2,31.4c-0.8,1.9-1,4-0.4,6c2.9,10.7,0.2,22.2-7.1,30.5
	c-0.9,2.9-1.6,5.8-2,8.8c-1,9,1.7,18.4-1.1,27c-2.5,7.5-8.7,13-12.2,20c-4.4,8.6-4.3,18.7-4.2,28.3c0.1,10.5,0.7,22,8,29.6
	c3.6,3.8,9.1,7.5,7.2,12.8c-0.7,1.7-2,3-3.6,3.7c-4,1.7-8,0.5-11.9-0.6c0.9,7.1-7.6,12.5-14.7,11s-12.2-7.2-16.4-13
	c-8.7,8.4-21.1,11.7-32.9,8.8c-7.4-2-14.3-6.5-22-6.5c-4.4,0-8.8,1.5-13.2,1.6s-9.5-1.8-10.8-6c-18.3,4.3-37.9-8.2-45.1-25.7
	s-3.4-37.9,6.3-54c3.9-6.5,8.9-14.2,5.6-21.1C19.6,95.5,4,94.8,3.4,84.8C3.3,81.5,4.9,78.4,7.6,76.6z"/>
<path class="st2" d="M152,84.4c-0.8,1.5-0.7,3.3,0.2,4.8"/>
<path class="st3" d="M184.8,79.3c-11,0.7-36.2,0.7-53.2-12.1c-1.7-1.2-4.1-1-5.6,0.5l-0.9,1c-1.1,1.1-1,2.9,0.2,4
	c0.1,0.1,0.2,0.2,0.3,0.3c7.7,5.1,31.6,18.8,60.1,14.3c1.6-0.3,2.9-1.4,3.3-3l0,0c0.5-2.2-0.8-4.3-3-4.8
	C185.6,79.4,185.2,79.3,184.8,79.3z"/>
<path class="st0" d="M163.5,108.1h-12.6c-2.1,0-3.9-1.7-3.9-3.9V93.1c0-2.1,1.7-3.9,3.9-3.9h12.6c2.1,0,3.9,1.7,3.9,3.9v11.1
	C167.4,106.3,165.6,108.1,163.5,108.1z"/>
<g class="st4">
	<path class="st1" d="M156.9,102.8v-3.2c-1-0.3-1.8-0.7-2.2-1.3c-0.5-0.6-0.7-1.3-0.7-2.1c0-0.8,0.3-1.6,0.8-2.1
		c0.5-0.6,1.2-0.9,2.1-1v-0.8h1.1V93c0.8,0.1,1.5,0.4,2,0.8c0.5,0.5,0.8,1.1,0.9,1.9l-2,0.3c-0.1-0.6-0.4-1-0.9-1.2v3
		c1.2,0.3,2.1,0.8,2.5,1.3c0.4,0.5,0.7,1.2,0.7,2.1c0,0.9-0.3,1.7-0.8,2.4c-0.6,0.6-1.3,1-2.4,1.2v1.4h-1.1v-1.4
		c-0.9-0.1-1.6-0.4-2.2-1c-0.6-0.6-0.9-1.3-1.1-2.4l2-0.2c0.1,0.4,0.2,0.8,0.5,1.1C156.4,102.5,156.7,102.7,156.9,102.8z
		 M156.9,94.7c-0.3,0.1-0.5,0.3-0.7,0.5c-0.2,0.2-0.3,0.5-0.3,0.8c0,0.3,0.1,0.5,0.2,0.8c0.2,0.2,0.4,0.4,0.8,0.6V94.7z
		 M158.1,102.9c0.4-0.1,0.7-0.3,0.9-0.5s0.4-0.6,0.4-1c0-0.3-0.1-0.6-0.3-0.9c-0.2-0.2-0.5-0.4-1-0.6V102.9z"/>
</g>
<circle class="st5" cx="182.7" cy="83.7" r="2.6"/>
<circle class="st5" cx="173.1" cy="83.7" r="1.9"/>
<circle class="st5" cx="165.4" cy="82.8" r="0.9"/>
<ellipse transform="matrix(0.4387 -0.8986 0.8986 0.4387 8.654 157.5995)" class="st5" cx="130.5" cy="71.9" rx="2.6" ry="2.6"/>
<ellipse transform="matrix(0.4387 -0.8986 0.8986 0.4387 9.5759 167.6862)" class="st5" cx="139" cy="76.2" rx="1.9" ry="1.9"/>
<circle class="st1" cx="154.4" cy="81.9" r="1"/>
<circle class="st1" cx="155" cy="91.1" r="1.1"/>
<ellipse transform="matrix(0.4387 -0.8986 0.8986 0.4387 11.4394 175.6929)" class="st5" cx="146.4" cy="78.7" rx="0.9" ry="0.9"/>
<path class="st2" d="M155,91c2.6,0.6,5.1-1.1,5.6-3.6c0.6-2.6-1.1-5.1-3.6-5.6c-0.8-0.2-1.6-0.1-2.4,0.1"/>
<g class="st4">
	<path class="st1" d="M215.6,85.6V53.2h11.8c2.1,0,3.8,0.2,5.2,0.7c1.4,0.5,2.4,1.1,3.2,2c0.8,0.8,1.3,1.8,1.7,2.9
		c0.3,1.1,0.5,2.2,0.5,3.4c0,1.8-0.4,3.3-1.1,4.5c-0.7,1.2-1.7,2.1-2.9,2.8c-1.2,0.7-2.5,1.1-4,1.4c-1.5,0.3-3,0.4-4.5,0.4h-6.9
		v14.3H215.6z M225.6,68.6c1.4,0,2.7-0.1,3.9-0.3c1.1-0.2,2.1-0.5,2.9-1s1.4-1.2,1.8-2c0.4-0.9,0.7-2,0.7-3.4c0-2-0.7-3.6-2-4.6
		c-1.3-1-3.5-1.6-6.4-1.6h-7.9v12.9H225.6z"/>
</g>
<g class="st4">
	<path class="st1" d="M241.4,85.6h-2.7V62.3h2.7v4.4h0.1c0.7-1.9,1.7-3.2,2.9-3.9c1.2-0.7,2.8-1.1,4.7-1.1v2.9
		c-1.5,0-2.8,0.2-3.8,0.7c-1,0.5-1.8,1.2-2.4,2.1s-1,1.9-1.2,3.1c-0.2,1.2-0.3,2.4-0.3,3.7V85.6z"/>
</g>
<g class="st4">
	<path class="st1" d="M253.7,57.2v-4h3v4H253.7z M253.8,85.6V62.3h2.7v23.3H253.8z"/>
</g>
<g class="st4">
	<path class="st1" d="M280.5,69.6c-0.5-1.7-1.3-3.1-2.5-4.1c-1.2-1-2.7-1.5-4.5-1.5c-1.4,0-2.6,0.3-3.6,0.9c-1,0.6-1.8,1.3-2.4,2.3
		c-0.6,0.9-1.1,2-1.4,3.2c-0.3,1.2-0.4,2.4-0.4,3.6c0,1.2,0.1,2.4,0.4,3.6c0.3,1.2,0.7,2.2,1.4,3.1c0.6,0.9,1.4,1.7,2.4,2.2
		c1,0.6,2.2,0.8,3.6,0.8c2,0,3.6-0.6,4.8-1.7c1.2-1.1,2-2.6,2.3-4.6h2.9c-0.2,1.3-0.6,2.5-1.1,3.5c-0.5,1.1-1.2,2-2,2.7
		c-0.8,0.8-1.8,1.4-2.9,1.8c-1.1,0.4-2.4,0.6-3.9,0.6c-1.9,0-3.5-0.3-4.8-0.9c-1.3-0.6-2.5-1.5-3.3-2.6c-0.9-1.1-1.5-2.4-1.9-3.9
		c-0.4-1.5-0.6-3.1-0.6-4.8c0-1.6,0.2-3.2,0.7-4.7c0.5-1.5,1.1-2.8,2-3.9c0.9-1.1,2-2,3.4-2.7c1.3-0.7,2.9-1,4.6-1
		c2.7,0,4.9,0.6,6.5,1.9s2.7,3.3,3.1,6H280.5z"/>
</g>
<g class="st4">
	<path class="st1" d="M285.5,74.5c0,1.3,0.2,2.5,0.5,3.6c0.3,1.1,0.8,2.1,1.5,2.9s1.5,1.5,2.5,2c1,0.5,2.1,0.7,3.4,0.7
		c1.8,0,3.3-0.5,4.5-1.4c1.3-0.9,2.1-2.2,2.5-4h3c-0.3,1.1-0.8,2.1-1.3,3.1c-0.5,0.9-1.2,1.8-2,2.5c-0.8,0.7-1.8,1.3-2.9,1.6
		c-1.1,0.4-2.4,0.6-3.9,0.6c-1.9,0-3.5-0.3-4.8-0.9c-1.3-0.6-2.5-1.5-3.3-2.6c-0.9-1.1-1.5-2.4-1.9-3.9c-0.4-1.5-0.6-3.1-0.6-4.8
		s0.2-3.3,0.7-4.8s1.2-2.8,2.1-3.9c0.9-1.1,2-2,3.4-2.7c1.3-0.6,2.8-1,4.5-1c3.2,0,5.7,1.1,7.6,3.3s2.7,5.4,2.7,9.6H285.5z
		 M300.7,72.3c0-1.1-0.2-2.2-0.5-3.2c-0.3-1-0.8-1.9-1.4-2.6c-0.6-0.7-1.4-1.3-2.3-1.8c-0.9-0.4-2-0.7-3.2-0.7
		c-1.2,0-2.3,0.2-3.2,0.7s-1.7,1.1-2.3,1.8c-0.6,0.8-1.2,1.6-1.6,2.6s-0.6,2-0.8,3.1H300.7z"/>
</g>
<g class="st4">
</g>
<g class="st4">
	<path class="st1" d="M311.5,53.2h23.6v2.6h-10.3v29.8h-3.1V55.8h-10.3V53.2z"/>
</g>
<g class="st4">
	<path class="st1" d="M344.3,72c0.5-0.1,1.1-0.2,1.8-0.3c0.7-0.1,1.3-0.3,1.7-0.5c0.5-0.2,0.7-0.6,0.8-1.1c0.1-0.5,0.2-1,0.2-1.4
		c0-1.4-0.4-2.5-1.3-3.4c-0.9-0.9-2.4-1.3-4.5-1.3c-0.9,0-1.8,0.1-2.6,0.2c-0.8,0.2-1.5,0.5-2,0.9c-0.6,0.4-1.1,0.9-1.4,1.6
		c-0.4,0.7-0.6,1.5-0.7,2.5h-2.7c0.1-1.4,0.4-2.6,0.9-3.5s1.2-1.8,2.1-2.4c0.9-0.6,1.8-1.1,3-1.4c1.1-0.3,2.3-0.4,3.6-0.4
		c1.2,0,2.3,0.1,3.3,0.4s1.9,0.7,2.7,1.2c0.8,0.6,1.4,1.3,1.8,2.2c0.4,0.9,0.7,2.1,0.7,3.4v12.7c0,1.1,0.2,1.7,0.6,2
		c0.4,0.3,1.1,0.2,2.3-0.2v2.1c-0.2,0.1-0.5,0.1-0.9,0.3s-0.8,0.2-1.2,0.2c-0.4,0-0.8,0-1.2-0.1c-0.5-0.1-0.8-0.2-1.1-0.4
		c-0.3-0.2-0.5-0.5-0.7-0.8c-0.2-0.3-0.3-0.7-0.3-1c-0.1-0.4-0.1-0.8-0.1-1.2c-1.1,1.3-2.4,2.2-3.9,2.9c-1.5,0.7-3.1,1-4.8,1
		c-1,0-2-0.1-2.9-0.4c-0.9-0.3-1.8-0.7-2.5-1.3c-0.7-0.6-1.3-1.3-1.7-2.1c-0.4-0.8-0.6-1.8-0.6-2.9c0-4,2.7-6.3,8.1-7L344.3,72z
		 M348.8,73.3c-1.1,0.5-2.3,0.8-3.5,0.9c-1.2,0.2-2.3,0.3-3.5,0.4c-2.1,0.2-3.7,0.6-4.8,1.4c-1.2,0.8-1.7,2-1.7,3.6
		c0,0.7,0.1,1.3,0.4,1.9c0.3,0.5,0.7,1,1.1,1.3c0.5,0.3,1,0.6,1.6,0.8c0.6,0.2,1.2,0.2,1.9,0.2c1.1,0,2.1-0.1,3.1-0.4
		c1-0.3,1.9-0.7,2.7-1.2c0.8-0.6,1.4-1.3,1.9-2.1c0.5-0.9,0.7-1.9,0.7-3V73.3z"/>
	<path class="st1" d="M376.6,62.3h2.7v21.1c0,1.6-0.2,3.1-0.5,4.5s-0.9,2.7-1.7,3.8s-1.9,1.9-3.3,2.6c-1.4,0.6-3.2,1-5.4,1
		c-1.7,0-3.2-0.2-4.4-0.7c-1.2-0.4-2.2-1-3-1.6c-0.8-0.7-1.4-1.4-1.8-2.2s-0.6-1.5-0.7-2.2h2.9c0.2,0.9,0.5,1.6,1,2.1
		c0.5,0.6,1,1,1.6,1.3c0.6,0.3,1.3,0.5,2,0.7s1.5,0.2,2.3,0.2c1.8,0,3.3-0.3,4.4-0.9c1.1-0.6,2-1.5,2.5-2.5c0.6-1,0.9-2.2,1.1-3.5
		c0.2-1.3,0.2-2.6,0.2-4c-0.9,1.4-2.1,2.5-3.6,3.3c-1.5,0.7-3.1,1.1-4.7,1.1c-1.8,0-3.3-0.3-4.6-1c-1.3-0.7-2.4-1.6-3.2-2.7
		c-0.9-1.1-1.5-2.4-1.9-3.9c-0.4-1.5-0.6-3.1-0.6-4.7c0-1.7,0.2-3.3,0.6-4.8c0.4-1.5,1-2.8,1.9-3.9c0.9-1.1,1.9-2,3.3-2.6
		c1.3-0.6,2.9-0.9,4.8-0.9c0.8,0,1.5,0.1,2.3,0.3c0.8,0.2,1.5,0.5,2.3,0.9c0.7,0.4,1.4,0.9,2,1.5c0.6,0.6,1.1,1.3,1.5,2h0.1V62.3z
		 M376.6,74c0-1.4-0.2-2.7-0.5-3.9c-0.3-1.2-0.8-2.3-1.5-3.1s-1.5-1.6-2.5-2.1c-1-0.5-2.1-0.8-3.4-0.8c-1.1,0-2.2,0.2-3.2,0.6
		s-1.8,1-2.5,1.8c-0.7,0.8-1.3,1.7-1.7,2.9s-0.6,2.4-0.6,3.9c-0.1,1.5,0.1,2.8,0.4,4.1c0.3,1.3,0.8,2.4,1.4,3.4
		c0.7,1,1.5,1.7,2.5,2.3c1,0.6,2.2,0.8,3.6,0.8c1.2,0,2.3-0.3,3.3-0.8c1-0.5,1.8-1.2,2.5-2.1s1.2-1.9,1.6-3.1
		C376.4,76.6,376.6,75.3,376.6,74z"/>
	<path class="st1" d="M387.4,67.4v-4h3.3v4H387.4z M387.4,85.6v-4h3.3v4H387.4z"/>
</g>
<g class="st4">
	<path class="st1" d="M212.9,129.7h11.9l17.8,50.4h-11.4l-3.3-10.4h-18.6l-3.4,10.4h-11L212.9,129.7z M212.2,161.1h12.9l-6.4-19.8
		L212.2,161.1z"/>
</g>
<g class="st4">
	<path class="st1" d="M255.1,135c4.1-4.1,9.2-6.2,15.5-6.2c8.4,0,14.5,2.8,18.4,8.3c2.1,3.1,3.3,6.3,3.4,9.4h-10.5
		c-0.7-2.4-1.5-4.2-2.6-5.5c-1.9-2.2-4.7-3.3-8.3-3.3c-3.8,0-6.7,1.5-8.9,4.6s-3.2,7.5-3.2,13.1c0,5.7,1.1,9.9,3.4,12.7
		c2.3,2.8,5.2,4.2,8.7,4.2c3.6,0,6.4-1.2,8.3-3.6c1-1.3,1.9-3.2,2.6-5.8h10.5c-0.9,5.5-3.2,10-6.9,13.4c-3.7,3.4-8.5,5.2-14.3,5.2
		c-7.2,0-12.8-2.3-16.9-7c-4.1-4.7-6.2-11.1-6.2-19.2C248.1,146.5,250.4,139.8,255.1,135z"/>
</g>
<g class="st4">
	<path class="st1" d="M304,129.7h11.9l17.8,50.4h-11.4l-3.3-10.4h-18.6l-3.4,10.4h-11L304,129.7z M303.3,161.1h12.9l-6.4-19.8
		L303.3,161.1z"/>
</g>
<g class="st4">
	<path class="st1" d="M361.6,129.7v8.9h-15.1v41.5H336v-41.5h-15.1v-8.9H361.6z"/>
</g>
<g class="st4">
	<path class="st1" d="M359.6,145.5c2.4-0.7,4-1.9,4.9-3.6c0.5-1,0.7-2,0.6-3h-5.7v-9h10v7.2c0,3.4-0.9,6.2-2.6,8.1s-4.2,3.3-7.3,3.9
		V145.5z"/>
</g>
<g class="st4">
	<path class="st1" d="M377.1,164.6c0.3,2.3,1,4,1.9,5.2c1.7,2.1,4.7,3.1,9,3.1c2.5,0,4.6-0.3,6.2-0.8c3-1,4.5-3,4.5-5.8
		c0-1.7-0.7-3-2.2-3.9c-1.5-0.9-3.8-1.7-7-2.4l-5.5-1.2c-5.4-1.2-9-2.5-11-3.9c-3.4-2.3-5.1-6-5.1-10.9c0-4.5,1.7-8.3,5-11.2
		c3.3-3,8.2-4.5,14.6-4.5c5.4,0,10,1.4,13.8,4.2s5.8,6.9,6,12.3h-10.1c-0.2-3-1.5-5.2-4.1-6.5c-1.7-0.8-3.8-1.3-6.3-1.3
		c-2.8,0-5,0.5-6.7,1.6c-1.7,1.1-2.5,2.6-2.5,4.6c0,1.8,0.8,3.1,2.5,4c1.1,0.6,3.3,1.3,6.7,2.1l8.8,2.1c3.9,0.9,6.8,2.1,8.7,3.7
		c3,2.4,4.5,5.8,4.5,10.3c0,4.6-1.8,8.4-5.3,11.5c-3.6,3-8.6,4.6-15.1,4.6c-6.6,0-11.8-1.5-15.7-4.5s-5.7-7.1-5.7-12.4H377.1z"/>
</g>
<g class="st4">
</g>
<g class="st4">
	<path class="st1" d="M418.3,129.7h10.5v41.3h25.2v9.1h-35.7V129.7z"/>
	<path class="st1" d="M465.3,180.1h-10.5v-50.4h10.5V180.1z"/>
	<path class="st1" d="M469.8,129.8h35.9v8.9h-25.5v11.6h22.3v8.8h-22.3v21.1h-10.5V129.8z"/>
	<path class="st1" d="M544.5,138.7h-26.7v10.7h24.5v8.8h-24.5v13h27.9v9.1h-38.2v-50.4h36.9V138.7z"/>
</g>
</svg>
