<svg id="header" xmlns="http://www.w3.org/2000/svg" viewBox="0 0 570 240"><title>INFOGRAPHIC-02</title><rect x="88.67" y="37.03" width="344.05" height="69.96" rx="12.22" ry="12.22" fill="#fbb040"/><path d="M7.65,76.6c5.18-3.47,11.47-2.47,16.81-.16a36.34,36.34,0,0,1,16.22,52.9c-3.65,5.72-8.86,10.37-12.13,16.32-5.79,10.56-4.45,24.73,3.84,33.68a9.77,9.77,0,0,0,8.85,3.16c6.53-1.21,7.81-8.44,8.41-14.4,1.4-13.92,3.81-27.88,9.17-40.8S72.68,102.5,84.4,94.82c8.79-5.74,19-8.87,28.33-13.71,6.71-3.48,13.22-8.25,17.35-14.43a33.11,33.11,0,0,1,3.26-25.51,5.85,5.85,0,0,0,.62-4.42c-3.26-12.55.19-27.12,0.19-27.12,9.72,4.28,16.44,9.15,20.84,14a3.78,3.78,0,0,0,3.25,1.23,33,33,0,0,1,13.87,1.36,3,3,0,0,0,3.14-.82c4.4-4.73,11-9.43,20.42-13.58,0,0,4.3,18.16-1.24,31.39a9.22,9.22,0,0,0-.44,6,33.12,33.12,0,0,1-7.15,30.49,47.27,47.27,0,0,0-2,8.78c-1,9,1.72,18.42-1.1,27-2.45,7.46-8.7,13-12.24,20-4.35,8.6-4.3,18.67-4.16,28.31,0.15,10.48.73,22,8,29.6,3.61,3.75,9.14,7.47,7.2,12.78a6.54,6.54,0,0,1-3.63,3.68c-4,1.71-8,.55-11.92-0.58,0.92,7.09-7.65,12.47-14.66,11s-12.22-7.21-16.44-13A35,35,0,0,1,103,216c-7.42-2-14.31-6.46-22-6.49-4.43,0-8.75,1.47-13.17,1.57s-9.47-1.8-10.81-6c-18.31,4.29-37.93-8.25-45.06-25.66s-3.35-37.91,6.31-54c3.91-6.52,8.9-14.24,5.56-21.07C19.56,95.5,4,94.78,3.4,84.8A9.31,9.31,0,0,1,7.65,76.6Z" fill="#231f20"/><path d="M152,84.43a4.73,4.73,0,0,0,.25,4.75" fill="none" stroke="#fff" stroke-linecap="round" stroke-miterlimit="10" stroke-width="1.27"/><path d="M184.82,79.34c-11,.7-36.25.67-53.24-12.14a4.34,4.34,0,0,0-5.63.49l-0.92,1a2.83,2.83,0,0,0,.51,4.27c7.68,5.09,31.58,18.81,60.15,14.29a4,4,0,0,0,3.26-3h0A4,4,0,0,0,184.82,79.34Z" fill="#f15a29"/><rect x="146.96" y="89.22" width="20.39" height="18.83" rx="3.88" ry="3.88" fill="#fbb040"/><text transform="translate(153.15 104.52)" font-size="15.84" fill="#231f20" font-family="Arial" font-weight="700" style="isolation:isolate">$</text><circle cx="182.68" cy="83.67" r="2.65" fill="#f1f2f2"/><circle cx="173.11" cy="83.73" r="1.87" fill="#f1f2f2"/><circle cx="165.4" cy="82.76" r="0.91" fill="#f1f2f2"/><circle cx="130.48" cy="71.87" r="2.65" transform="translate(8.65 157.6) rotate(-63.98)" fill="#f1f2f2"/><circle cx="139.02" cy="76.18" r="1.87" transform="translate(9.58 167.69) rotate(-63.98)" fill="#f1f2f2"/><circle cx="154.42" cy="81.86" r="0.97" fill="#231f20"/><circle cx="154.96" cy="91.09" r="1.1" fill="#231f20"/><circle cx="146.36" cy="78.69" r="0.91" transform="translate(11.44 175.69) rotate(-63.98)" fill="#f1f2f2"/><path d="M155,91a4.73,4.73,0,1,0-.35-9.15" fill="none" stroke="#fff" stroke-linecap="round" stroke-miterlimit="10" stroke-width="1.27"/><g style="isolation:isolate"><text transform="translate(212.06 85.56)" font-size="45" fill="#231f20" font-family="Helvetica" style="isolation:isolate">P</text><text transform="translate(235.28 85.56)" font-size="45" fill="#231f20" font-family="Helvetica" style="isolation:isolate">r</text><text transform="translate(250.17 85.56)" font-size="45" fill="#231f20" font-family="Helvetica" style="isolation:isolate">i</text><text transform="translate(260.7 85.56)" font-size="45" fill="#231f20" font-family="Helvetica" style="isolation:isolate">c</text><text transform="translate(280.59 85.56)" font-size="45" fill="#231f20" font-family="Helvetica" style="isolation:isolate">e</text><text transform="translate(303.14 85.56)" font-size="45" fill="#231f20" font-family="Helvetica" style="isolation:isolate"> </text><text transform="translate(310.83 85.56)" font-size="45" fill="#231f20" font-family="Helvetica" letter-spacing="-1" style="isolation:isolate">T</text><text transform="translate(330.32 85.56)" font-size="45" fill="#231f20" font-family="Helvetica" style="isolation:isolate">ag:</text></g><g style="isolation:isolate"><text transform="translate(193.12 180.12)" font-size="70" fill="#231f20" font-family="Helvetica" font-weight="700" letter-spacing="-7" style="isolation:isolate">A<tspan x="42.67" y="0" letter-spacing="-5"> </tspan></text><text transform="translate(244.91 180.12)" font-size="70" fill="#231f20" font-family="Helvetica" font-weight="700" letter-spacing="-4" style="isolation:isolate">C</text><text transform="translate(284.22 180.12)" font-size="70" fill="#231f20" font-family="Helvetica" font-weight="700" letter-spacing="-13" style="isolation:isolate">A</text><text transform="translate(319.71 180.12)" font-size="70" fill="#231f20" font-family="Helvetica" font-weight="700" letter-spacing="-2" style="isolation:isolate">T</text><text transform="translate(354.89 180.12)" font-size="70" fill="#231f20" font-family="Helvetica" font-weight="700" letter-spacing="-9" style="isolation:isolate">’</text><text transform="translate(364.17 180.12)" font-size="70" fill="#231f20" font-family="Helvetica" font-weight="700" letter-spacing="-5" style="isolation:isolate">S</text><text transform="translate(396.38 180.12)" font-size="70" fill="#231f20" font-family="Helvetica" font-weight="700" style="isolation:isolate"> </text><text transform="translate(412.92 180.12)" font-size="70" fill="#231f20" font-family="Helvetica" font-weight="700" letter-spacing="-5" style="isolation:isolate">LIFE</text></g></svg>