<svg id="background" xmlns="http://www.w3.org/2000/svg" viewBox="0 0 398.44 170.4"><title>INFOGRAPHIC-07</title><polygon points="82.4 60.87 231.43 62.9 217.53 95.31 86.6 93.92 82.4 60.87" fill="#603913"/><rect y="138.21" width="397.79" height="29.13" rx="12.17" ry="12.17" fill="#a7a9ac"/><path d="M112.42,122.72l0.38,6.18q0.19,3.09.33,6.18a0.68,0.68,0,0,1-.65.71h-0.07l-6.35.32-6.35.28c-4.23.17-8.46,0.37-12.69,0.51l-12.69.41c-4.23.15-8.46,0.25-12.69,0.34l-12.69.3c-4.23.12-8.46,0.14-12.69,0.21l-12.69.18q-6.35.11-12.69,0.12A3.37,3.37,0,0,1,7.5,135.1h0l-0.1-22v-11l0.05-11,0.05-11c0-3.67.09-7.34,0.14-11l0.16-11c0.06-3.67.08-7.34,0.19-11V46.93a1.43,1.43,0,0,1,0-.15A3,3,0,0,1,8.13,46c0.05-.24.1-0.45,0.15-0.67,0.1-.44.23-0.87,0.35-1.29,0.26-.84.54-1.66,0.87-2.46A34.28,34.28,0,0,1,11.76,37a36.94,36.94,0,0,1,2.87-4.2A40.3,40.3,0,0,1,18,29c0.59-.59,1.22-1.15,1.84-1.71s1.29-1,1.94-1.58,1.34-1,2-1.46,1.39-.9,2.08-1.35,1.43-.82,2.14-1.24,1.45-.78,2.18-1.13c1.46-.75,3-1.35,4.47-2A30.1,30.1,0,0,1,39.24,17c0.78-.22,1.55-0.47,2.33-0.66l2.35-.56c1.56-.39,3.15-0.62,4.72-0.94s3.17-.48,4.75-0.65,3.18-.31,4.77-0.39,3.18-.18,4.76-0.19,3.17,0,4.76,0l4.74,0.21-4.72.38c-1.57.14-3.13,0.36-4.7,0.52s-3.11.44-4.66,0.66-3.08.57-4.62,0.85l-4.56,1c-1.49.44-3,.79-4.48,1.29l-2.2.73c-0.73.25-1.44,0.55-2.16,0.82-1.45.53-2.83,1.2-4.24,1.79A31.8,31.8,0,0,0,32,24c-0.66.37-1.32,0.75-1.95,1.18s-1.29.8-1.88,1.26-1.23.88-1.81,1.35l-1.73,1.43c-0.57.48-1.1,1-1.64,1.52a19.61,19.61,0,0,0-1.55,1.6,35.3,35.3,0,0,0-2.78,3.44,31.74,31.74,0,0,0-2.3,3.73,28.86,28.86,0,0,0-1.72,4c-0.24.67-.43,1.36-0.61,2-0.08.34-.16,0.68-0.22,1a2.4,2.4,0,0,1-.09.48,1.32,1.32,0,0,1-.05.38V47c0.1,3.67.12,7.34,0.19,11L14,69c0,3.67.12,7.34,0.14,11l0.05,11,0.05,11c0,3.67.05,7.34,0,11l-0.1,22-3.38-3.38q6.35,0,12.69.12L36.23,132c4.23,0.07,8.46.09,12.69,0.21l12.69,0.3c4.23,0.1,8.46.19,12.69,0.34L87,133.26c4.23,0.14,8.46.34,12.69,0.51l6.35,0.28,6.35,0.32-0.71.71q0.15-3.09.33-6.18Z" transform="translate(-5.78 -9.08)" fill="#a7a9ac"/><g style="isolation:isolate"><text transform="translate(72.34 15.48)" font-size="18" fill="#231f20" font-family="Helvetica" font-weight="700" style="isolation:isolate">LI</text><text transform="translate(87.45 15.48)" font-size="18" fill="#231f20" font-family="Helvetica" font-weight="700" style="isolation:isolate">T</text><text transform="translate(98.82 15.48)" font-size="18" fill="#231f20" font-family="Helvetica" font-weight="700" style="isolation:isolate">TER</text></g><g style="isolation:isolate"><text transform="translate(106.04 159.36)" font-size="22.95" fill="#fff" font-family="Helvetica" style="isolation:isolate">31% </text><text transform="translate(152.63 159.36)" font-size="15.3" fill="#231f20" font-family="Helvetica" style="isolation:isolate">of annual budget</text></g><polygon points="224.54 104 22.2 104.04 22.2 86.6 229.13 86.6 224.54 104" fill="#754c29"/><rect x="49.72" y="47.9" width="186.68" height="17.44" fill="#754c29"/><polygon points="236.4 65.34 224.54 104 212.78 98.72 232.63 47.9 236.4 65.34" fill="#754c29"/><polygon points="66.54 51.96 32.8 95.31 22.2 87.05 49.72 47.9 66.54 51.96" fill="#754c29"/><polygon points="55.7 56.62 39.58 86.6 99.09 86.6 103.32 65.34 103.32 56.62 55.7 56.62" fill="#a7a9ac"/><path d="M72.32,79.83s2-1.92,3.07,0" transform="translate(-5.78 -9.08)" fill="none" stroke="#58595b" stroke-linecap="round" stroke-miterlimit="10" stroke-width="1.21"/><path d="M65,81.12s2-1.92,3.07,0" transform="translate(-5.78 -9.08)" fill="none" stroke="#58595b" stroke-linecap="round" stroke-miterlimit="10" stroke-width="1.21"/><path d="M83,82.83s2-1.92,3.07,0" transform="translate(-5.78 -9.08)" fill="none" stroke="#58595b" stroke-linecap="round" stroke-miterlimit="10" stroke-width="1.21"/><path d="M82.35,86.28s2-1.92,3.07,0" transform="translate(-5.78 -9.08)" fill="none" stroke="#58595b" stroke-linecap="round" stroke-miterlimit="10" stroke-width="1.21"/><path d="M75.39,91.23s2-1.92,3.07,0" transform="translate(-5.78 -9.08)" fill="none" stroke="#58595b" stroke-linecap="round" stroke-miterlimit="10" stroke-width="1.21"/><path d="M83,69.14s2-1.92,3.07,0" transform="translate(-5.78 -9.08)" fill="none" stroke="#58595b" stroke-linecap="round" stroke-miterlimit="10" stroke-width="1.21"/><path d="M73.86,85.42s2-1.92,3.07,0" transform="translate(-5.78 -9.08)" fill="none" stroke="#58595b" stroke-linecap="round" stroke-miterlimit="10" stroke-width="1.21"/><path d="M65,88.65s2-1.92,3.07,0" transform="translate(-5.78 -9.08)" fill="none" stroke="#58595b" stroke-linecap="round" stroke-miterlimit="10" stroke-width="1.21"/><path d="M71.75,87.77s2-1.92,3.07,0" transform="translate(-5.78 -9.08)" fill="none" stroke="#58595b" stroke-linecap="round" stroke-miterlimit="10" stroke-width="1.21"/><path d="M57,92.92s2-1.92,3.07,0" transform="translate(-5.78 -9.08)" fill="none" stroke="#58595b" stroke-linecap="round" stroke-miterlimit="10" stroke-width="1.21"/><path d="M58.57,85.85s2-1.92,3.07,0" transform="translate(-5.78 -9.08)" fill="none" stroke="#58595b" stroke-linecap="round" stroke-miterlimit="10" stroke-width="1.21"/><path d="M63.46,70.81s2-1.92,3.07,0" transform="translate(-5.78 -9.08)" fill="none" stroke="#58595b" stroke-linecap="round" stroke-miterlimit="10" stroke-width="1.21"/><path d="M58.57,79.83s2-1.92,3.07,0" transform="translate(-5.78 -9.08)" fill="none" stroke="#58595b" stroke-linecap="round" stroke-miterlimit="10" stroke-width="1.21"/><path d="M65.81,94.89s2-1.92,3.07,0" transform="translate(-5.78 -9.08)" fill="none" stroke="#58595b" stroke-linecap="round" stroke-miterlimit="10" stroke-width="1.21"/><path d="M55.5,88.2s2-1.92,3.07,0" transform="translate(-5.78 -9.08)" fill="none" stroke="#58595b" stroke-linecap="round" stroke-miterlimit="10" stroke-width="1.21"/><path d="M63.46,75.7s2-1.92,3.07,0" transform="translate(-5.78 -9.08)" fill="none" stroke="#58595b" stroke-linecap="round" stroke-miterlimit="10" stroke-width="1.21"/><path d="M88.23,75.28s2-1.92,3.07,0" transform="translate(-5.78 -9.08)" fill="none" stroke="#58595b" stroke-linecap="round" stroke-miterlimit="10" stroke-width="1.21"/><path d="M97.23,75.7s2-1.92,3.07,0" transform="translate(-5.78 -9.08)" fill="none" stroke="#58595b" stroke-linecap="round" stroke-miterlimit="10" stroke-width="1.21"/><path d="M95.66,85s2-1.92,3.07,0" transform="translate(-5.78 -9.08)" fill="none" stroke="#58595b" stroke-linecap="round" stroke-miterlimit="10" stroke-width="1.21"/><path d="M92.38,80.65s2-1.92,3.07,0" transform="translate(-5.78 -9.08)" fill="none" stroke="#58595b" stroke-linecap="round" stroke-miterlimit="10" stroke-width="1.21"/><path d="M100.23,80.65s2-1.92,3.07,0" transform="translate(-5.78 -9.08)" fill="none" stroke="#58595b" stroke-linecap="round" stroke-miterlimit="10" stroke-width="1.21"/><path d="M100.23,67.43s2-1.92,3.07,0" transform="translate(-5.78 -9.08)" fill="none" stroke="#58595b" stroke-linecap="round" stroke-miterlimit="10" stroke-width="1.21"/><path d="M101.8,71.23s2-1.92,3.07,0" transform="translate(-5.78 -9.08)" fill="none" stroke="#58595b" stroke-linecap="round" stroke-miterlimit="10" stroke-width="1.21"/><path d="M100.23,87.77s2-1.92,3.07,0" transform="translate(-5.78 -9.08)" fill="none" stroke="#58595b" stroke-linecap="round" stroke-miterlimit="10" stroke-width="1.21"/><path d="M92.59,92.92s2-1.92,3.07,0" transform="translate(-5.78 -9.08)" fill="none" stroke="#58595b" stroke-linecap="round" stroke-miterlimit="10" stroke-width="1.21"/><path d="M89.72,87.77s2-1.92,3.07,0" transform="translate(-5.78 -9.08)" fill="none" stroke="#58595b" stroke-linecap="round" stroke-miterlimit="10" stroke-width="1.21"/><path d="M85.42,92.49s2-1.92,3.07,0" transform="translate(-5.78 -9.08)" fill="none" stroke="#58595b" stroke-linecap="round" stroke-miterlimit="10" stroke-width="1.21"/><path d="M100.23,93.35s2-1.92,3.07,0" transform="translate(-5.78 -9.08)" fill="none" stroke="#58595b" stroke-linecap="round" stroke-miterlimit="10" stroke-width="1.21"/><path d="M51.3,92.92s2-1.92,3.07,0" transform="translate(-5.78 -9.08)" fill="none" stroke="#58595b" stroke-linecap="round" stroke-miterlimit="10" stroke-width="1.21"/><path d="M81.47,79.83s2-1.92,3.07,0" transform="translate(-5.78 -9.08)" fill="none" stroke="#58595b" stroke-linecap="round" stroke-miterlimit="10" stroke-width="1.21"/><path d="M92.38,68.29s2-1.92,3.07,0" transform="translate(-5.78 -9.08)" fill="none" stroke="#58595b" stroke-linecap="round" stroke-miterlimit="10" stroke-width="1.21"/><path d="M77.23,75.28s2-1.92,3.07,0" transform="translate(-5.78 -9.08)" fill="none" stroke="#58595b" stroke-linecap="round" stroke-miterlimit="10" stroke-width="1.21"/><path d="M75.39,67.86s2-1.92,3.07,0" transform="translate(-5.78 -9.08)" fill="none" stroke="#58595b" stroke-linecap="round" stroke-miterlimit="10" stroke-width="1.21"/><path d="M70.79,72.83s2-1.92,3.07,0" transform="translate(-5.78 -9.08)" fill="none" stroke="#58595b" stroke-linecap="round" stroke-miterlimit="10" stroke-width="1.21"/><g style="isolation:isolate"><text transform="translate(160.21 13.32)" font-size="11" fill="#231f20" font-family="Helvetica" style="isolation:isolate">One clean pan full a </text><text transform="translate(252.94 13.32)" font-size="11" fill="#231f20" font-family="Helvetica" style="isolation:isolate">w</text><text transform="translate(260.92 13.32)" font-size="11" fill="#231f20" font-family="Helvetica" style="isolation:isolate">eek (about a 10-pound bag)</text></g><ellipse cx="103.06" cy="68.78" rx="1.01" ry="1.11" fill="#a7a9ac"/><ellipse cx="101.03" cy="66.62" rx="1.01" ry="1.11" fill="#a7a9ac"/><ellipse cx="101.03" cy="72.9" rx="1.01" ry="1.11" fill="#a7a9ac"/><ellipse cx="102.04" cy="73.32" rx="1.01" ry="1.11" fill="#a7a9ac"/><ellipse cx="104.07" cy="71.19" rx="1.01" ry="1.11" fill="#a7a9ac"/><ellipse cx="100.02" cy="77.2" rx="1.01" ry="1.11" fill="#a7a9ac"/><ellipse cx="102.04" cy="82.56" rx="1.01" ry="1.11" fill="#a7a9ac"/><ellipse cx="101.03" cy="80.23" rx="1.01" ry="1.11" fill="#a7a9ac"/><ellipse cx="102.04" cy="77.2" rx="1.01" ry="1.11" fill="#a7a9ac"/><ellipse cx="103.32" cy="75.49" rx="1.01" ry="1.11" fill="#a7a9ac"/><ellipse cx="102.04" cy="75.06" rx="1.01" ry="1.11" fill="#a7a9ac"/><ellipse cx="102.04" cy="70.75" rx="1.01" ry="1.11" fill="#a7a9ac"/><ellipse cx="102.04" cy="71.6" rx="1.01" ry="1.11" fill="#a7a9ac"/><ellipse cx="100.11" cy="81.3" rx="1.01" ry="1.11" fill="#a7a9ac"/><path d="M269.67,67.81H396.45a7.77,7.77,0,0,1,7.77,7.77h0a7.77,7.77,0,0,1-7.77,7.77H269.67a7.77,7.77,0,0,1-7.77-7.77h0A7.77,7.77,0,0,1,269.67,67.81Z" transform="translate(-5.78 -9.08)" fill="#a7a9ac"/><rect x="255.93" y="107.71" width="142.51" height="17.05" rx="7.77" ry="7.77" fill="#a7a9ac"/><ellipse cx="286.08" cy="59.5" rx="21.99" ry="21.94" fill="#a7a9ac" stroke="#231f20" stroke-miterlimit="10" stroke-width="0.85"/><path d="M276.71,52.65s-2.66,27,8.52,36.92" transform="translate(-5.78 -9.08)" fill="none" stroke="#231f20" stroke-miterlimit="10" stroke-width="0.85"/><path d="M273.05,57.06s-4,16.15,6.17,29.48" transform="translate(-5.78 -9.08)" fill="none" stroke="#231f20" stroke-miterlimit="10" stroke-width="0.85"/><path d="M286.76,47.23a39,39,0,0,0-2.53,10.35c-1.08,9.27.4,22.53,14,32" transform="translate(-5.78 -9.08)" fill="none" stroke="#231f20" stroke-miterlimit="10" stroke-width="0.85"/><path d="M309.35,55.28A28.79,28.79,0,0,1,284,61.39" transform="translate(-5.78 -9.08)" fill="none" stroke="#231f20" stroke-miterlimit="10" stroke-width="0.85"/><path d="M306.83,52.51s-12.32,9.24-22.37,3.66" transform="translate(-5.78 -9.08)" fill="none" stroke="#231f20" stroke-miterlimit="10" stroke-width="0.85"/><path d="M285,52.51s10.29,4.11,17.75-3" transform="translate(-5.78 -9.08)" fill="none" stroke="#231f20" stroke-miterlimit="10" stroke-width="0.85"/><path d="M286.23,48.78a9.5,9.5,0,0,0,10.42-1.62" transform="translate(-5.78 -9.08)" fill="none" stroke="#231f20" stroke-miterlimit="10" stroke-width="0.85"/><path d="M291.86,62.15a6.81,6.81,0,0,1-7.4,5.15" transform="translate(-5.78 -9.08)" fill="none" stroke="#231f20" stroke-miterlimit="10" stroke-width="0.85"/><path d="M295.65,61.72s-0.12,9.78-10.42,9.93" transform="translate(-5.78 -9.08)" fill="none" stroke="#231f20" stroke-miterlimit="10" stroke-width="0.85"/><path d="M299.56,60.75s1.5,14.53-13,14.7" transform="translate(-5.78 -9.08)" fill="none" stroke="#231f20" stroke-miterlimit="10" stroke-width="0.85"/><path d="M303.73,59s6.54,17.57-14,22.15" transform="translate(-5.78 -9.08)" fill="none" stroke="#231f20" stroke-miterlimit="10" stroke-width="0.85"/><path d="M307.58,57.06S318,77.85,294.23,86.3" transform="translate(-5.78 -9.08)" fill="none" stroke="#231f20" stroke-miterlimit="10" stroke-width="0.85"/><path d="M281.59,49.17s-5.85,23.29,8.83,41.31" transform="translate(-5.78 -9.08)" fill="none" stroke="#231f20" stroke-miterlimit="10" stroke-width="0.85"/><ellipse cx="285.51" cy="111.15" rx="21.99" ry="21.94" fill="#a7a9ac" stroke="#231f20" stroke-miterlimit="10" stroke-width="0.85"/><path d="M276.14,104.32s-2.66,26.94,8.48,36.9" transform="translate(-5.78 -9.08)" fill="none" stroke="#231f20" stroke-miterlimit="10" stroke-width="0.85"/><path d="M272.48,108.71s-4,16.15,6.17,29.48" transform="translate(-5.78 -9.08)" fill="none" stroke="#231f20" stroke-miterlimit="10" stroke-width="0.85"/><path d="M286.23,98.88a39,39,0,0,0-2.49,10.35c-1.08,9.27.4,22.53,14,32" transform="translate(-5.78 -9.08)" fill="none" stroke="#231f20" stroke-miterlimit="10" stroke-width="0.85"/><path d="M308.78,106.93A28.79,28.79,0,0,1,283.42,113" transform="translate(-5.78 -9.08)" fill="none" stroke="#231f20" stroke-miterlimit="10" stroke-width="0.85"/><path d="M306.23,104.15s-12.32,9.24-22.37,3.66" transform="translate(-5.78 -9.08)" fill="none" stroke="#231f20" stroke-miterlimit="10" stroke-width="0.85"/><path d="M284.47,104.15s10.29,4.11,17.75-3" transform="translate(-5.78 -9.08)" fill="none" stroke="#231f20" stroke-miterlimit="10" stroke-width="0.85"/><path d="M285.64,100.43a9.5,9.5,0,0,0,10.42-1.62" transform="translate(-5.78 -9.08)" fill="none" stroke="#231f20" stroke-miterlimit="10" stroke-width="0.85"/><path d="M291.29,113.8a6.81,6.81,0,0,1-7.4,5.15" transform="translate(-5.78 -9.08)" fill="none" stroke="#231f20" stroke-miterlimit="10" stroke-width="0.85"/><path d="M295.08,113.37s-0.12,9.77-10.46,9.9" transform="translate(-5.78 -9.08)" fill="none" stroke="#231f20" stroke-miterlimit="10" stroke-width="0.85"/><path d="M299,112.4s1.5,14.53-13,14.7" transform="translate(-5.78 -9.08)" fill="none" stroke="#231f20" stroke-miterlimit="10" stroke-width="0.85"/><path d="M303.16,110.65s6.54,17.57-14,22.15" transform="translate(-5.78 -9.08)" fill="none" stroke="#231f20" stroke-miterlimit="10" stroke-width="0.85"/><path d="M307,108.71S317.48,129.5,293.64,138" transform="translate(-5.78 -9.08)" fill="none" stroke="#231f20" stroke-miterlimit="10" stroke-width="0.85"/><path d="M281,100.82s-5.85,23.29,8.83,41.31" transform="translate(-5.78 -9.08)" fill="none" stroke="#231f20" stroke-miterlimit="10" stroke-width="0.85"/><text transform="translate(312.97 53.6)" font-size="19" fill="#f1f2f2" font-family="Helvetica" style="isolation:isolate">$150</text><g style="isolation:isolate"><text transform="translate(312.47 69.71)" font-size="12.75" fill="#231f20" font-family="Helvetica" style="isolation:isolate">annual </text><text transform="translate(351.65 69.71)" font-size="12.75" fill="#231f20" font-family="Helvetica" style="isolation:isolate">c</text><text transform="translate(357.29 69.71)" font-size="12.75" fill="#231f20" font-family="Helvetica" style="isolation:isolate">ost</text></g><text transform="translate(312.39 101.95)" font-size="19" fill="#f1f2f2" font-family="Helvetica" style="isolation:isolate">$2,100</text><g style="isolation:isolate"><text transform="translate(312.47 120.33)" font-size="12.75" fill="#231f20" font-family="Helvetica" style="isolation:isolate">li</text><text transform="translate(318.46 120.33)" font-size="12.75" fill="#231f20" font-family="Helvetica" style="isolation:isolate">f</text><text transform="translate(322.02 120.33)" font-size="12.75" fill="#231f20" font-family="Helvetica" style="isolation:isolate">etime </text><text transform="translate(355.34 120.33)" font-size="12.75" fill="#231f20" font-family="Helvetica" style="isolation:isolate">c</text><text transform="translate(360.97 120.33)" font-size="12.75" fill="#231f20" font-family="Helvetica" style="isolation:isolate">ost</text></g></svg>