<svg id="background" xmlns="http://www.w3.org/2000/svg" viewBox="0 0 410 190"><title>INFOGRAPHIC-07</title><polygon points="88.18 69.95 237.21 71.98 223.31 104.39 92.38 103 88.18 69.95" fill="#603913"/><rect x="5.78" y="147.29" width="397.79" height="29.13" rx="12.17" ry="12.17" fill="#a7a9ac"/><path d="M112.42,122.72l0.38,6.18q0.19,3.09.33,6.18a0.68,0.68,0,0,1-.65.71h-0.07l-6.35.32-6.35.28c-4.23.17-8.46,0.37-12.69,0.51l-12.69.41c-4.23.15-8.46,0.25-12.69,0.34l-12.69.3c-4.23.12-8.46,0.14-12.69,0.21l-12.69.18q-6.35.11-12.69,0.12A3.37,3.37,0,0,1,7.5,135.1h0l-0.1-22v-11l0.05-11,0.05-11c0-3.67.09-7.34,0.14-11l0.16-11c0.06-3.67.08-7.34,0.19-11V46.93a1.43,1.43,0,0,1,0-.15A3,3,0,0,1,8.13,46c0.05-.24.1-0.45,0.15-0.67,0.1-.44.23-0.87,0.35-1.29,0.26-.84.54-1.66,0.87-2.46A34.28,34.28,0,0,1,11.76,37a36.94,36.94,0,0,1,2.87-4.2A40.3,40.3,0,0,1,18,29c0.59-.59,1.22-1.15,1.84-1.71s1.29-1,1.94-1.58,1.34-1,2-1.46,1.39-.9,2.08-1.35,1.43-.82,2.14-1.24,1.45-.78,2.18-1.13c1.46-.75,3-1.35,4.47-2A30.1,30.1,0,0,1,39.24,17c0.78-.22,1.55-0.47,2.33-0.66l2.35-.56c1.56-.39,3.15-0.62,4.72-0.94s3.17-.48,4.75-0.65,3.18-.31,4.77-0.39,3.18-.18,4.76-0.19,3.17,0,4.76,0l4.74,0.21-4.72.38c-1.57.14-3.13,0.36-4.7,0.52s-3.11.44-4.66,0.66-3.08.57-4.62,0.85l-4.56,1c-1.49.44-3,.79-4.48,1.29l-2.2.73c-0.73.25-1.44,0.55-2.16,0.82-1.45.53-2.83,1.2-4.24,1.79A31.8,31.8,0,0,0,32,24c-0.66.37-1.32,0.75-1.95,1.18s-1.29.8-1.88,1.26-1.23.88-1.81,1.35l-1.73,1.43c-0.57.48-1.1,1-1.64,1.52a19.61,19.61,0,0,0-1.55,1.6,35.3,35.3,0,0,0-2.78,3.44,31.74,31.74,0,0,0-2.3,3.73,28.86,28.86,0,0,0-1.72,4c-0.24.67-.43,1.36-0.61,2-0.08.34-.16,0.68-0.22,1a2.4,2.4,0,0,1-.09.48,1.32,1.32,0,0,1-.05.38V47c0.1,3.67.12,7.34,0.19,11L14,69c0,3.67.12,7.34,0.14,11l0.05,11,0.05,11c0,3.67.05,7.34,0,11l-0.1,22-3.38-3.38q6.35,0,12.69.12L36.23,132c4.23,0.07,8.46.09,12.69,0.21l12.69,0.3c4.23,0.1,8.46.19,12.69,0.34L87,133.26c4.23,0.14,8.46.34,12.69,0.51l6.35,0.28,6.35,0.32-0.71.71q0.15-3.09.33-6.18Z" fill="#a7a9ac"/><g style="isolation:isolate"><text transform="translate(78.12 24.56)" font-size="18" fill="#231f20" font-family="Helvetica" font-weight="700" style="isolation:isolate">LI</text><text transform="translate(93.23 24.56)" font-size="18" fill="#231f20" font-family="Helvetica" font-weight="700" style="isolation:isolate">T</text><text transform="translate(104.6 24.56)" font-size="18" fill="#231f20" font-family="Helvetica" font-weight="700" style="isolation:isolate">TER</text></g><g style="isolation:isolate"><text transform="translate(111.82 168.44)" font-size="22.95" fill="#fff" font-family="Helvetica" style="isolation:isolate">31% </text><text transform="translate(158.41 168.44)" font-size="15.3" fill="#231f20" font-family="Helvetica" style="isolation:isolate">of annual budget</text></g><polygon points="230.32 113.08 27.98 113.12 27.98 95.68 234.91 95.68 230.32 113.08" fill="#754c29"/><rect x="55.5" y="56.98" width="186.68" height="17.44" fill="#754c29"/><polygon points="242.18 74.42 230.32 113.08 218.56 107.8 238.41 56.98 242.18 74.42" fill="#754c29"/><polygon points="72.32 61.04 38.58 104.39 27.98 96.13 55.5 56.98 72.32 61.04" fill="#754c29"/><polygon points="61.48 65.7 45.36 95.68 104.87 95.68 109.1 74.42 109.1 65.7 61.48 65.7" fill="#a7a9ac"/><path d="M72.32,79.83s2-1.92,3.07,0" fill="none" stroke="#58595b" stroke-linecap="round" stroke-miterlimit="10" stroke-width="1.21"/><path d="M65,81.12s2-1.92,3.07,0" fill="none" stroke="#58595b" stroke-linecap="round" stroke-miterlimit="10" stroke-width="1.21"/><path d="M83,82.83s2-1.92,3.07,0" fill="none" stroke="#58595b" stroke-linecap="round" stroke-miterlimit="10" stroke-width="1.21"/><path d="M82.35,86.28s2-1.92,3.07,0" fill="none" stroke="#58595b" stroke-linecap="round" stroke-miterlimit="10" stroke-width="1.21"/><path d="M75.39,91.23s2-1.92,3.07,0" fill="none" stroke="#58595b" stroke-linecap="round" stroke-miterlimit="10" stroke-width="1.21"/><path d="M83,69.14s2-1.92,3.07,0" fill="none" stroke="#58595b" stroke-linecap="round" stroke-miterlimit="10" stroke-width="1.21"/><path d="M73.86,85.42s2-1.92,3.07,0" fill="none" stroke="#58595b" stroke-linecap="round" stroke-miterlimit="10" stroke-width="1.21"/><path d="M65,88.65s2-1.92,3.07,0" fill="none" stroke="#58595b" stroke-linecap="round" stroke-miterlimit="10" stroke-width="1.21"/><path d="M71.75,87.77s2-1.92,3.07,0" fill="none" stroke="#58595b" stroke-linecap="round" stroke-miterlimit="10" stroke-width="1.21"/><path d="M57,92.92s2-1.92,3.07,0" fill="none" stroke="#58595b" stroke-linecap="round" stroke-miterlimit="10" stroke-width="1.21"/><path d="M58.57,85.85s2-1.92,3.07,0" fill="none" stroke="#58595b" stroke-linecap="round" stroke-miterlimit="10" stroke-width="1.21"/><path d="M63.46,70.81s2-1.92,3.07,0" fill="none" stroke="#58595b" stroke-linecap="round" stroke-miterlimit="10" stroke-width="1.21"/><path d="M58.57,79.83s2-1.92,3.07,0" fill="none" stroke="#58595b" stroke-linecap="round" stroke-miterlimit="10" stroke-width="1.21"/><path d="M65.81,94.89s2-1.92,3.07,0" fill="none" stroke="#58595b" stroke-linecap="round" stroke-miterlimit="10" stroke-width="1.21"/><path d="M55.5,88.2s2-1.92,3.07,0" fill="none" stroke="#58595b" stroke-linecap="round" stroke-miterlimit="10" stroke-width="1.21"/><path d="M63.46,75.7s2-1.92,3.07,0" fill="none" stroke="#58595b" stroke-linecap="round" stroke-miterlimit="10" stroke-width="1.21"/><path d="M88.23,75.28s2-1.92,3.07,0" fill="none" stroke="#58595b" stroke-linecap="round" stroke-miterlimit="10" stroke-width="1.21"/><path d="M97.23,75.7s2-1.92,3.07,0" fill="none" stroke="#58595b" stroke-linecap="round" stroke-miterlimit="10" stroke-width="1.21"/><path d="M95.66,85s2-1.92,3.07,0" fill="none" stroke="#58595b" stroke-linecap="round" stroke-miterlimit="10" stroke-width="1.21"/><path d="M92.38,80.65s2-1.92,3.07,0" fill="none" stroke="#58595b" stroke-linecap="round" stroke-miterlimit="10" stroke-width="1.21"/><path d="M100.23,80.65s2-1.92,3.07,0" fill="none" stroke="#58595b" stroke-linecap="round" stroke-miterlimit="10" stroke-width="1.21"/><path d="M100.23,67.43s2-1.92,3.07,0" fill="none" stroke="#58595b" stroke-linecap="round" stroke-miterlimit="10" stroke-width="1.21"/><path d="M101.8,71.23s2-1.92,3.07,0" fill="none" stroke="#58595b" stroke-linecap="round" stroke-miterlimit="10" stroke-width="1.21"/><path d="M100.23,87.77s2-1.92,3.07,0" fill="none" stroke="#58595b" stroke-linecap="round" stroke-miterlimit="10" stroke-width="1.21"/><path d="M92.59,92.92s2-1.92,3.07,0" fill="none" stroke="#58595b" stroke-linecap="round" stroke-miterlimit="10" stroke-width="1.21"/><path d="M89.72,87.77s2-1.92,3.07,0" fill="none" stroke="#58595b" stroke-linecap="round" stroke-miterlimit="10" stroke-width="1.21"/><path d="M85.42,92.49s2-1.92,3.07,0" fill="none" stroke="#58595b" stroke-linecap="round" stroke-miterlimit="10" stroke-width="1.21"/><path d="M100.23,93.35s2-1.92,3.07,0" fill="none" stroke="#58595b" stroke-linecap="round" stroke-miterlimit="10" stroke-width="1.21"/><path d="M51.3,92.92s2-1.92,3.07,0" fill="none" stroke="#58595b" stroke-linecap="round" stroke-miterlimit="10" stroke-width="1.21"/><path d="M81.47,79.83s2-1.92,3.07,0" fill="none" stroke="#58595b" stroke-linecap="round" stroke-miterlimit="10" stroke-width="1.21"/><path d="M92.38,68.29s2-1.92,3.07,0" fill="none" stroke="#58595b" stroke-linecap="round" stroke-miterlimit="10" stroke-width="1.21"/><path d="M77.23,75.28s2-1.92,3.07,0" fill="none" stroke="#58595b" stroke-linecap="round" stroke-miterlimit="10" stroke-width="1.21"/><path d="M75.39,67.86s2-1.92,3.07,0" fill="none" stroke="#58595b" stroke-linecap="round" stroke-miterlimit="10" stroke-width="1.21"/><path d="M70.79,72.83s2-1.92,3.07,0" fill="none" stroke="#58595b" stroke-linecap="round" stroke-miterlimit="10" stroke-width="1.21"/><g style="isolation:isolate"><text transform="translate(165.99 22.4)" font-size="11" fill="#231f20" font-family="Helvetica" style="isolation:isolate">One clean pan full a </text><text transform="translate(258.72 22.4)" font-size="11" fill="#231f20" font-family="Helvetica" style="isolation:isolate">w</text><text transform="translate(266.7 22.4)" font-size="11" fill="#231f20" font-family="Helvetica" style="isolation:isolate">eek (about a 10-pound bag)</text></g><ellipse cx="108.84" cy="77.86" rx="1.01" ry="1.11" fill="#a7a9ac"/><ellipse cx="106.81" cy="75.7" rx="1.01" ry="1.11" fill="#a7a9ac"/><ellipse cx="106.81" cy="81.98" rx="1.01" ry="1.11" fill="#a7a9ac"/><ellipse cx="107.82" cy="82.4" rx="1.01" ry="1.11" fill="#a7a9ac"/><ellipse cx="109.85" cy="80.27" rx="1.01" ry="1.11" fill="#a7a9ac"/><ellipse cx="105.8" cy="86.28" rx="1.01" ry="1.11" fill="#a7a9ac"/><ellipse cx="107.82" cy="91.64" rx="1.01" ry="1.11" fill="#a7a9ac"/><ellipse cx="106.81" cy="89.31" rx="1.01" ry="1.11" fill="#a7a9ac"/><ellipse cx="107.82" cy="86.28" rx="1.01" ry="1.11" fill="#a7a9ac"/><ellipse cx="109.1" cy="84.57" rx="1.01" ry="1.11" fill="#a7a9ac"/><ellipse cx="107.82" cy="84.14" rx="1.01" ry="1.11" fill="#a7a9ac"/><ellipse cx="107.82" cy="79.83" rx="1.01" ry="1.11" fill="#a7a9ac"/><ellipse cx="107.82" cy="80.68" rx="1.01" ry="1.11" fill="#a7a9ac"/><ellipse cx="105.89" cy="90.38" rx="1.01" ry="1.11" fill="#a7a9ac"/><path d="M269.67,67.81H396.45a7.77,7.77,0,0,1,7.77,7.77h0a7.77,7.77,0,0,1-7.77,7.77H269.67a7.77,7.77,0,0,1-7.77-7.77h0A7.77,7.77,0,0,1,269.67,67.81Z" fill="#a7a9ac"/><rect x="261.71" y="116.79" width="142.51" height="17.05" rx="7.77" ry="7.77" fill="#a7a9ac"/><ellipse cx="291.86" cy="68.58" rx="21.99" ry="21.94" fill="#a7a9ac" stroke="#231f20" stroke-miterlimit="10" stroke-width="0.85"/><path d="M276.71,52.65s-2.66,27,8.52,36.92" fill="none" stroke="#231f20" stroke-miterlimit="10" stroke-width="0.85"/><path d="M273.05,57.06s-4,16.15,6.17,29.48" fill="none" stroke="#231f20" stroke-miterlimit="10" stroke-width="0.85"/><path d="M286.76,47.23a39,39,0,0,0-2.53,10.35c-1.08,9.27.4,22.53,14,32" fill="none" stroke="#231f20" stroke-miterlimit="10" stroke-width="0.85"/><path d="M309.35,55.28A28.79,28.79,0,0,1,284,61.39" fill="none" stroke="#231f20" stroke-miterlimit="10" stroke-width="0.85"/><path d="M306.83,52.51s-12.32,9.24-22.37,3.66" fill="none" stroke="#231f20" stroke-miterlimit="10" stroke-width="0.85"/><path d="M285,52.51s10.29,4.11,17.75-3" fill="none" stroke="#231f20" stroke-miterlimit="10" stroke-width="0.85"/><path d="M286.23,48.78a9.5,9.5,0,0,0,10.42-1.62" fill="none" stroke="#231f20" stroke-miterlimit="10" stroke-width="0.85"/><path d="M291.86,62.15a6.81,6.81,0,0,1-7.4,5.15" fill="none" stroke="#231f20" stroke-miterlimit="10" stroke-width="0.85"/><path d="M295.65,61.72s-0.12,9.78-10.42,9.93" fill="none" stroke="#231f20" stroke-miterlimit="10" stroke-width="0.85"/><path d="M299.56,60.75s1.5,14.53-13,14.7" fill="none" stroke="#231f20" stroke-miterlimit="10" stroke-width="0.85"/><path d="M303.73,59s6.54,17.57-14,22.15" fill="none" stroke="#231f20" stroke-miterlimit="10" stroke-width="0.85"/><path d="M307.58,57.06S318,77.85,294.23,86.3" fill="none" stroke="#231f20" stroke-miterlimit="10" stroke-width="0.85"/><path d="M281.59,49.17s-5.85,23.29,8.83,41.31" fill="none" stroke="#231f20" stroke-miterlimit="10" stroke-width="0.85"/><ellipse cx="291.29" cy="120.23" rx="21.99" ry="21.94" fill="#a7a9ac" stroke="#231f20" stroke-miterlimit="10" stroke-width="0.85"/><path d="M276.14,104.32s-2.66,26.94,8.48,36.9" fill="none" stroke="#231f20" stroke-miterlimit="10" stroke-width="0.85"/><path d="M272.48,108.71s-4,16.15,6.17,29.48" fill="none" stroke="#231f20" stroke-miterlimit="10" stroke-width="0.85"/><path d="M286.23,98.88a39,39,0,0,0-2.49,10.35c-1.08,9.27.4,22.53,14,32" fill="none" stroke="#231f20" stroke-miterlimit="10" stroke-width="0.85"/><path d="M308.78,106.93A28.79,28.79,0,0,1,283.42,113" fill="none" stroke="#231f20" stroke-miterlimit="10" stroke-width="0.85"/><path d="M306.23,104.15s-12.32,9.24-22.37,3.66" fill="none" stroke="#231f20" stroke-miterlimit="10" stroke-width="0.85"/><path d="M284.47,104.15s10.29,4.11,17.75-3" fill="none" stroke="#231f20" stroke-miterlimit="10" stroke-width="0.85"/><path d="M285.64,100.43a9.5,9.5,0,0,0,10.42-1.62" fill="none" stroke="#231f20" stroke-miterlimit="10" stroke-width="0.85"/><path d="M291.29,113.8a6.81,6.81,0,0,1-7.4,5.15" fill="none" stroke="#231f20" stroke-miterlimit="10" stroke-width="0.85"/><path d="M295.08,113.37s-0.12,9.77-10.46,9.9" fill="none" stroke="#231f20" stroke-miterlimit="10" stroke-width="0.85"/><path d="M299,112.4s1.5,14.53-13,14.7" fill="none" stroke="#231f20" stroke-miterlimit="10" stroke-width="0.85"/><path d="M303.16,110.65s6.54,17.57-14,22.15" fill="none" stroke="#231f20" stroke-miterlimit="10" stroke-width="0.85"/><path d="M307,108.71S317.48,129.5,293.64,138" fill="none" stroke="#231f20" stroke-miterlimit="10" stroke-width="0.85"/><path d="M281,100.82s-5.85,23.29,8.83,41.31" fill="none" stroke="#231f20" stroke-miterlimit="10" stroke-width="0.85"/><text transform="translate(318.75 62.68)" font-size="19" fill="#f1f2f2" font-family="Helvetica" style="isolation:isolate">$150</text><g style="isolation:isolate"><text transform="translate(318.25 78.79)" font-size="12.75" fill="#231f20" font-family="Helvetica" style="isolation:isolate">annual </text><text transform="translate(357.43 78.79)" font-size="12.75" fill="#231f20" font-family="Helvetica" style="isolation:isolate">c</text><text transform="translate(363.07 78.79)" font-size="12.75" fill="#231f20" font-family="Helvetica" style="isolation:isolate">ost</text></g><text transform="translate(318.17 111.03)" font-size="19" fill="#f1f2f2" font-family="Helvetica" style="isolation:isolate">$2,100</text><g style="isolation:isolate"><text transform="translate(318.25 129.41)" font-size="12.75" fill="#231f20" font-family="Helvetica" style="isolation:isolate">li</text><text transform="translate(324.24 129.41)" font-size="12.75" fill="#231f20" font-family="Helvetica" style="isolation:isolate">f</text><text transform="translate(327.8 129.41)" font-size="12.75" fill="#231f20" font-family="Helvetica" style="isolation:isolate">etime </text><text transform="translate(361.12 129.41)" font-size="12.75" fill="#231f20" font-family="Helvetica" style="isolation:isolate">c</text><text transform="translate(366.75 129.41)" font-size="12.75" fill="#231f20" font-family="Helvetica" style="isolation:isolate">ost</text></g></svg>